<?xml version="1.0" encoding="utf-8" ?>
<svg baseProfile="full" height="100%" version="1.1" width="100%" xmlns="http://www.w3.org/2000/svg" xmlns:ev="http://www.w3.org/2001/xml-events" xmlns:xlink="http://www.w3.org/1999/xlink"><defs /><text font-family="Verdana" font-size="12" style="fill: #ff0000; width:1000px; color:red; font-weight:100;" text-anchor="middle" x="242.5" y="242.5">X2</text><text font-family="Verdana" font-size="10" style="fill: #ff0000; width:1000px; color:red; font-weight:50;" text-anchor="middle" x="122.5" y="122.5">2</text><text font-family="Verdana" font-size="10" style="fill: #ff0000; width:1000px; color:red; font-weight:50;" text-anchor="middle" x="242.5" y="122.5">3</text><text font-family="Verdana" font-size="10" style="fill: #ff0000; width:1000px; color:red; font-weight:50;" text-anchor="middle" x="362.5" y="122.5">4</text><rect height="240.0" width="10.0" x="117.5" y="2.5" /><rect height="240.0" width="10.0" x="237.5" y="2.5" /><rect height="240.0" width="10.0" x="357.5" y="2.5" /><rect height="470.0" width="10.0" x="-2.5" y="2.5" /><rect height="470.0" width="10.0" x="17.5" y="12.5" /><rect height="470.0" width="10.0" x="37.5" y="2.5" /><rect height="470.0" width="10.0" x="57.5" y="12.5" /><rect height="470.0" width="10.0" x="77.5" y="2.5" /><rect height="470.0" width="10.0" x="157.5" y="12.5" /><rect height="470.0" width="10.0" x="177.5" y="2.5" /><rect height="470.0" width="10.0" x="197.5" y="12.5" /><rect height="470.0" width="10.0" x="277.5" y="2.5" /><rect height="470.0" width="10.0" x="297.5" y="12.5" /><rect height="470.0" width="10.0" x="317.5" y="2.5" /><rect height="470.0" width="10.0" x="397.5" y="12.5" /><rect height="470.0" width="10.0" x="417.5" y="2.5" /><rect height="470.0" width="10.0" x="437.5" y="12.5" /><rect height="470.0" width="10.0" x="457.5" y="2.5" /><line stroke="rgb(0%,0%,0%)" stroke-linecap="square" stroke-width="1" x1="362.5" x2="482.5" y1="482.5" y2="482.5" /><line stroke="rgb(0%,0%,0%)" stroke-linecap="square" stroke-width="1" x1="362.5" x2="2.5" y1="482.5" y2="482.5" /><line stroke="rgb(0%,0%,0%)" stroke-linecap="square" stroke-width="1" x1="122.5" x2="2.5" y1="2.5" y2="2.5" /><line stroke="rgb(0%,0%,0%)" stroke-linecap="square" stroke-width="1" x1="122.5" x2="482.5" y1="2.5" y2="2.5" /><line stroke="rgb(0%,0%,0%)" stroke-linecap="square" stroke-width="1" x1="2.5" x2="2.5" y1="122.5" y2="482.5" /><line stroke="rgb(0%,0%,0%)" stroke-linecap="square" stroke-width="1" x1="2.5" x2="2.5" y1="122.5" y2="2.5" /><line stroke="rgb(0%,0%,0%)" stroke-linecap="square" stroke-width="1" x1="482.5" x2="482.5" y1="362.5" y2="482.5" /><line stroke="rgb(0%,0%,0%)" stroke-linecap="square" stroke-width="1" x1="482.5" x2="482.5" y1="362.5" y2="2.5" /><text font-family="Verdana" font-size="12" style="fill: #ff0000; width:1000px; color:red; font-weight:100;" text-anchor="middle" x="245.0" y="727.5">X3</text><text font-family="Verdana" font-size="10" style="fill: #ff0000; width:1000px; color:red; font-weight:50;" text-anchor="middle" x="125.0" y="607.5">2</text><text font-family="Verdana" font-size="10" style="fill: #ff0000; width:1000px; color:red; font-weight:50;" text-anchor="middle" x="245.0" y="607.5">3</text><text font-family="Verdana" font-size="10" style="fill: #ff0000; width:1000px; color:red; font-weight:50;" text-anchor="middle" x="365.0" y="607.5">4</text><rect height="240.0" width="10.0" x="120.0" y="487.5" /><rect height="240.0" width="10.0" x="240.0" y="487.5" /><rect height="240.0" width="10.0" x="360.0" y="487.5" /><rect height="470.0" width="10.0" x="0.0" y="487.5" /><rect height="470.0" width="10.0" x="20.0" y="497.5" /><rect height="470.0" width="10.0" x="40.0" y="487.5" /><rect height="470.0" width="10.0" x="60.0" y="497.5" /><rect height="470.0" width="10.0" x="80.0" y="487.5" /><rect height="470.0" width="10.0" x="160.0" y="497.5" /><rect height="470.0" width="10.0" x="180.0" y="487.5" /><rect height="470.0" width="10.0" x="200.0" y="497.5" /><rect height="470.0" width="10.0" x="280.0" y="487.5" /><rect height="470.0" width="10.0" x="300.0" y="497.5" /><rect height="470.0" width="10.0" x="320.0" y="487.5" /><rect height="470.0" width="10.0" x="400.0" y="497.5" /><rect height="470.0" width="10.0" x="420.0" y="487.5" /><rect height="470.0" width="10.0" x="440.0" y="497.5" /><rect height="470.0" width="10.0" x="460.0" y="487.5" /><line stroke="rgb(0%,0%,0%)" stroke-linecap="square" stroke-width="1" x1="245.0" x2="485.0" y1="967.5" y2="967.5" /><line stroke="rgb(0%,0%,0%)" stroke-linecap="square" stroke-width="1" x1="245.0" x2="5.0" y1="967.5" y2="967.5" /><line stroke="rgb(0%,0%,0%)" stroke-linecap="square" stroke-width="1" x1="245.0" x2="5.0" y1="487.5" y2="487.5" /><line stroke="rgb(0%,0%,0%)" stroke-linecap="square" stroke-width="1" x1="245.0" x2="485.0" y1="487.5" y2="487.5" /><line stroke="rgb(0%,0%,0%)" stroke-linecap="square" stroke-width="1" x1="5.0" x2="5.0" y1="727.5" y2="967.5" /><line stroke="rgb(0%,0%,0%)" stroke-linecap="square" stroke-width="1" x1="5.0" x2="5.0" y1="727.5" y2="487.5" /><line stroke="rgb(0%,0%,0%)" stroke-linecap="square" stroke-width="1" x1="485.0" x2="485.0" y1="727.5" y2="967.5" /><line stroke="rgb(0%,0%,0%)" stroke-linecap="square" stroke-width="1" x1="485.0" x2="485.0" y1="727.5" y2="487.5" /><text font-family="Verdana" font-size="12" style="fill: #ff0000; width:1000px; color:red; font-weight:100;" text-anchor="middle" x="730.0" y="727.5">X4</text><text font-family="Verdana" font-size="10" style="fill: #ff0000; width:1000px; color:red; font-weight:50;" text-anchor="middle" x="610.0" y="607.5">2</text><text font-family="Verdana" font-size="10" style="fill: #ff0000; width:1000px; color:red; font-weight:50;" text-anchor="middle" x="730.0" y="607.5">3</text><text font-family="Verdana" font-size="10" style="fill: #ff0000; width:1000px; color:red; font-weight:50;" text-anchor="middle" x="850.0" y="607.5">4</text><rect height="240.0" width="10.0" x="605.0" y="487.5" /><rect height="240.0" width="10.0" x="725.0" y="487.5" /><rect height="240.0" width="10.0" x="845.0" y="487.5" /><rect height="470.0" width="10.0" x="485.0" y="487.5" /><rect height="470.0" width="10.0" x="505.0" y="497.5" /><rect height="470.0" width="10.0" x="525.0" y="487.5" /><rect height="470.0" width="10.0" x="545.0" y="497.5" /><rect height="470.0" width="10.0" x="565.0" y="487.5" /><rect height="470.0" width="10.0" x="645.0" y="497.5" /><rect height="470.0" width="10.0" x="665.0" y="487.5" /><rect height="470.0" width="10.0" x="685.0" y="497.5" /><rect height="470.0" width="10.0" x="765.0" y="487.5" /><rect height="470.0" width="10.0" x="785.0" y="497.5" /><rect height="470.0" width="10.0" x="805.0" y="487.5" /><rect height="470.0" width="10.0" x="885.0" y="497.5" /><rect height="470.0" width="10.0" x="905.0" y="487.5" /><rect height="470.0" width="10.0" x="925.0" y="497.5" /><rect height="470.0" width="10.0" x="945.0" y="487.5" /><line stroke="rgb(0%,0%,0%)" stroke-linecap="square" stroke-width="1" x1="610.0" x2="970.0" y1="967.5" y2="967.5" /><line stroke="rgb(0%,0%,0%)" stroke-linecap="square" stroke-width="1" x1="610.0" x2="490.0" y1="967.5" y2="967.5" /><line stroke="rgb(0%,0%,0%)" stroke-linecap="square" stroke-width="1" x1="850.0" x2="490.0" y1="487.5" y2="487.5" /><line stroke="rgb(0%,0%,0%)" stroke-linecap="square" stroke-width="1" x1="850.0" x2="970.0" y1="487.5" y2="487.5" /><line stroke="rgb(0%,0%,0%)" stroke-linecap="square" stroke-width="1" x1="490.0" x2="490.0" y1="847.5" y2="967.5" /><line stroke="rgb(0%,0%,0%)" stroke-linecap="square" stroke-width="1" x1="490.0" x2="490.0" y1="847.5" y2="487.5" /><line stroke="rgb(0%,0%,0%)" stroke-linecap="square" stroke-width="1" x1="970.0" x2="970.0" y1="607.5" y2="967.5" /><line stroke="rgb(0%,0%,0%)" stroke-linecap="square" stroke-width="1" x1="970.0" x2="970.0" y1="607.5" y2="487.5" /><text font-family="Verdana" font-size="12" style="fill: #ff0000; width:1000px; color:red; font-weight:100;" text-anchor="middle" x="245.0" y="1212.5">Y2</text><text font-family="Verdana" font-size="10" style="fill: #ff0000; width:1000px; color:red; font-weight:50;" text-anchor="middle" x="125.0" y="1332.5">2</text><text font-family="Verdana" font-size="10" style="fill: #ff0000; width:1000px; color:red; font-weight:50;" text-anchor="middle" x="245.0" y="1332.5">3</text><text font-family="Verdana" font-size="10" style="fill: #ff0000; width:1000px; color:red; font-weight:50;" text-anchor="middle" x="365.0" y="1332.5">4</text><rect height="240.0" width="10.0" x="120.0" y="1212.5" /><rect height="240.0" width="10.0" x="240.0" y="1212.5" /><rect height="240.0" width="10.0" x="360.0" y="1212.5" /><rect height="470.0" width="10.0" x="0.0" y="972.5" /><rect height="470.0" width="10.0" x="20.0" y="982.5" /><rect height="470.0" width="10.0" x="40.0" y="972.5" /><rect height="470.0" width="10.0" x="60.0" y="982.5" /><rect height="470.0" width="10.0" x="80.0" y="972.5" /><rect height="470.0" width="10.0" x="160.0" y="982.5" /><rect height="470.0" width="10.0" x="180.0" y="972.5" /><rect height="470.0" width="10.0" x="200.0" y="982.5" /><rect height="470.0" width="10.0" x="280.0" y="972.5" /><rect height="470.0" width="10.0" x="300.0" y="982.5" /><rect height="470.0" width="10.0" x="320.0" y="972.5" /><rect height="470.0" width="10.0" x="400.0" y="982.5" /><rect height="470.0" width="10.0" x="420.0" y="972.5" /><rect height="470.0" width="10.0" x="440.0" y="982.5" /><rect height="470.0" width="10.0" x="460.0" y="972.5" /><line stroke="rgb(0%,0%,0%)" stroke-linecap="square" stroke-width="1" x1="365.0" x2="485.0" y1="1452.5" y2="1452.5" /><line stroke="rgb(0%,0%,0%)" stroke-linecap="square" stroke-width="1" x1="365.0" x2="5.0" y1="1452.5" y2="1452.5" /><line stroke="rgb(0%,0%,0%)" stroke-linecap="square" stroke-width="1" x1="125.0" x2="485.0" y1="972.5" y2="972.5" /><line stroke="rgb(0%,0%,0%)" stroke-linecap="square" stroke-width="1" x1="125.0" x2="5.0" y1="972.5" y2="972.5" /><line stroke="rgb(0%,0%,0%)" stroke-linecap="square" stroke-width="1" x1="485.0" x2="485.0" y1="1332.5" y2="1452.5" /><line stroke="rgb(0%,0%,0%)" stroke-linecap="square" stroke-width="1" x1="485.0" x2="485.0" y1="1332.5" y2="972.5" /><line stroke="rgb(0%,0%,0%)" stroke-linecap="square" stroke-width="1" x1="5.0" x2="5.0" y1="1092.5" y2="972.5" /><line stroke="rgb(0%,0%,0%)" stroke-linecap="square" stroke-width="1" x1="5.0" x2="5.0" y1="1092.5" y2="1452.5" /><text font-family="Verdana" font-size="12" style="fill: #ff0000; width:1000px; color:red; font-weight:100;" text-anchor="middle" x="730.0" y="1212.5">Y3</text><text font-family="Verdana" font-size="10" style="fill: #ff0000; width:1000px; color:red; font-weight:50;" text-anchor="middle" x="610.0" y="1332.5">2</text><text font-family="Verdana" font-size="10" style="fill: #ff0000; width:1000px; color:red; font-weight:50;" text-anchor="middle" x="730.0" y="1332.5">3</text><text font-family="Verdana" font-size="10" style="fill: #ff0000; width:1000px; color:red; font-weight:50;" text-anchor="middle" x="850.0" y="1332.5">4</text><rect height="240.0" width="10.0" x="605.0" y="1212.5" /><rect height="240.0" width="10.0" x="725.0" y="1212.5" /><rect height="240.0" width="10.0" x="845.0" y="1212.5" /><rect height="470.0" width="10.0" x="485.0" y="972.5" /><rect height="470.0" width="10.0" x="505.0" y="982.5" /><rect height="470.0" width="10.0" x="525.0" y="972.5" /><rect height="470.0" width="10.0" x="545.0" y="982.5" /><rect height="470.0" width="10.0" x="565.0" y="972.5" /><rect height="470.0" width="10.0" x="645.0" y="982.5" /><rect height="470.0" width="10.0" x="665.0" y="972.5" /><rect height="470.0" width="10.0" x="685.0" y="982.5" /><rect height="470.0" width="10.0" x="765.0" y="972.5" /><rect height="470.0" width="10.0" x="785.0" y="982.5" /><rect height="470.0" width="10.0" x="805.0" y="972.5" /><rect height="470.0" width="10.0" x="885.0" y="982.5" /><rect height="470.0" width="10.0" x="905.0" y="972.5" /><rect height="470.0" width="10.0" x="925.0" y="982.5" /><rect height="470.0" width="10.0" x="945.0" y="972.5" /><line stroke="rgb(0%,0%,0%)" stroke-linecap="square" stroke-width="1" x1="730.0" x2="970.0" y1="1452.5" y2="1452.5" /><line stroke="rgb(0%,0%,0%)" stroke-linecap="square" stroke-width="1" x1="730.0" x2="490.0" y1="1452.5" y2="1452.5" /><line stroke="rgb(0%,0%,0%)" stroke-linecap="square" stroke-width="1" x1="730.0" x2="970.0" y1="972.5" y2="972.5" /><line stroke="rgb(0%,0%,0%)" stroke-linecap="square" stroke-width="1" x1="730.0" x2="490.0" y1="972.5" y2="972.5" /><line stroke="rgb(0%,0%,0%)" stroke-linecap="square" stroke-width="1" x1="970.0" x2="970.0" y1="1212.5" y2="1452.5" /><line stroke="rgb(0%,0%,0%)" stroke-linecap="square" stroke-width="1" x1="970.0" x2="970.0" y1="1212.5" y2="972.5" /><line stroke="rgb(0%,0%,0%)" stroke-linecap="square" stroke-width="1" x1="490.0" x2="490.0" y1="1212.5" y2="972.5" /><line stroke="rgb(0%,0%,0%)" stroke-linecap="square" stroke-width="1" x1="490.0" x2="490.0" y1="1212.5" y2="1452.5" /><text font-family="Verdana" font-size="12" style="fill: #ff0000; width:1000px; color:red; font-weight:100;" text-anchor="middle" x="245.0" y="1697.5">Y4</text><text font-family="Verdana" font-size="10" style="fill: #ff0000; width:1000px; color:red; font-weight:50;" text-anchor="middle" x="125.0" y="1817.5">2</text><text font-family="Verdana" font-size="10" style="fill: #ff0000; width:1000px; color:red; font-weight:50;" text-anchor="middle" x="245.0" y="1817.5">3</text><text font-family="Verdana" font-size="10" style="fill: #ff0000; width:1000px; color:red; font-weight:50;" text-anchor="middle" x="365.0" y="1817.5">4</text><rect height="240.0" width="10.0" x="120.0" y="1697.5" /><rect height="240.0" width="10.0" x="240.0" y="1697.5" /><rect height="240.0" width="10.0" x="360.0" y="1697.5" /><rect height="470.0" width="10.0" x="0.0" y="1457.5" /><rect height="470.0" width="10.0" x="20.0" y="1467.5" /><rect height="470.0" width="10.0" x="40.0" y="1457.5" /><rect height="470.0" width="10.0" x="60.0" y="1467.5" /><rect height="470.0" width="10.0" x="80.0" y="1457.5" /><rect height="470.0" width="10.0" x="160.0" y="1467.5" /><rect height="470.0" width="10.0" x="180.0" y="1457.5" /><rect height="470.0" width="10.0" x="200.0" y="1467.5" /><rect height="470.0" width="10.0" x="280.0" y="1457.5" /><rect height="470.0" width="10.0" x="300.0" y="1467.5" /><rect height="470.0" width="10.0" x="320.0" y="1457.5" /><rect height="470.0" width="10.0" x="400.0" y="1467.5" /><rect height="470.0" width="10.0" x="420.0" y="1457.5" /><rect height="470.0" width="10.0" x="440.0" y="1467.5" /><rect height="470.0" width="10.0" x="460.0" y="1457.5" /><line stroke="rgb(0%,0%,0%)" stroke-linecap="square" stroke-width="1" x1="125.0" x2="485.0" y1="1937.5" y2="1937.5" /><line stroke="rgb(0%,0%,0%)" stroke-linecap="square" stroke-width="1" x1="125.0" x2="5.0" y1="1937.5" y2="1937.5" /><line stroke="rgb(0%,0%,0%)" stroke-linecap="square" stroke-width="1" x1="365.0" x2="485.0" y1="1457.5" y2="1457.5" /><line stroke="rgb(0%,0%,0%)" stroke-linecap="square" stroke-width="1" x1="365.0" x2="5.0" y1="1457.5" y2="1457.5" /><line stroke="rgb(0%,0%,0%)" stroke-linecap="square" stroke-width="1" x1="485.0" x2="485.0" y1="1577.5" y2="1937.5" /><line stroke="rgb(0%,0%,0%)" stroke-linecap="square" stroke-width="1" x1="485.0" x2="485.0" y1="1577.5" y2="1457.5" /><line stroke="rgb(0%,0%,0%)" stroke-linecap="square" stroke-width="1" x1="5.0" x2="5.0" y1="1817.5" y2="1457.5" /><line stroke="rgb(0%,0%,0%)" stroke-linecap="square" stroke-width="1" x1="5.0" x2="5.0" y1="1817.5" y2="1937.5" /></svg>