<?xml version="1.0" encoding="utf-8" ?>
<svg baseProfile="full" height="100%" version="1.1" width="100%" xmlns="http://www.w3.org/2000/svg" xmlns:ev="http://www.w3.org/2001/xml-events" xmlns:xlink="http://www.w3.org/1999/xlink"><defs /><text font-family="Verdana" font-size="12" style="fill: #ff0000; width:1000px; color:red; font-weight:100;" text-anchor="middle" x="32.5" y="32.5">X1</text><text font-family="Verdana" font-size="10" style="fill: #ff0000; width:1000px; color:red; font-weight:50;" text-anchor="middle" x="12.5" y="17.5">1</text><text font-family="Verdana" font-size="10" style="fill: #ff0000; width:1000px; color:red; font-weight:50;" text-anchor="middle" x="32.5" y="17.5">2</text><text font-family="Verdana" font-size="10" style="fill: #ff0000; width:1000px; color:red; font-weight:50;" text-anchor="middle" x="52.5" y="17.5">3</text><rect height="30.0" width="1.0" x="12.0" y="2.5" /><rect height="30.0" width="1.0" x="32.0" y="2.5" /><rect height="30.0" width="1.0" x="52.0" y="2.5" /><rect height="58.0" width="1.0" x="3.0" y="2.5" /><rect height="58.0" width="1.0" x="5.0" y="4.5" /><rect height="58.0" width="1.0" x="7.0" y="2.5" /><rect height="58.0" width="1.0" x="9.0" y="4.5" /><rect height="58.0" width="1.0" x="15.0" y="2.5" /><rect height="58.0" width="1.0" x="17.0" y="4.5" /><rect height="58.0" width="1.0" x="19.0" y="2.5" /><rect height="58.0" width="1.0" x="21.0" y="4.5" /><rect height="58.0" width="1.0" x="23.0" y="2.5" /><rect height="58.0" width="1.0" x="25.0" y="4.5" /><rect height="58.0" width="1.0" x="27.0" y="2.5" /><rect height="58.0" width="1.0" x="29.0" y="4.5" /><rect height="58.0" width="1.0" x="35.0" y="2.5" /><rect height="58.0" width="1.0" x="37.0" y="4.5" /><rect height="58.0" width="1.0" x="39.0" y="2.5" /><rect height="58.0" width="1.0" x="41.0" y="4.5" /><rect height="58.0" width="1.0" x="43.0" y="2.5" /><rect height="58.0" width="1.0" x="45.0" y="4.5" /><rect height="58.0" width="1.0" x="47.0" y="2.5" /><rect height="58.0" width="1.0" x="49.0" y="4.5" /><rect height="58.0" width="1.0" x="55.0" y="2.5" /><rect height="58.0" width="1.0" x="57.0" y="4.5" /><rect height="58.0" width="1.0" x="59.0" y="2.5" /><rect height="58.0" width="1.0" x="61.0" y="4.5" /><line stroke="rgb(0%,0%,0%)" stroke-linecap="square" stroke-width="1" x1="52.5" x2="62.5" y1="62.5" y2="62.5" /><line stroke="rgb(0%,0%,0%)" stroke-linecap="square" stroke-width="1" x1="52.5" x2="2.5" y1="62.5" y2="62.5" /><line stroke="rgb(0%,0%,0%)" stroke-linecap="square" stroke-width="1" x1="12.5" x2="2.5" y1="2.5" y2="2.5" /><line stroke="rgb(0%,0%,0%)" stroke-linecap="square" stroke-width="1" x1="12.5" x2="62.5" y1="2.5" y2="2.5" /><line stroke="rgb(0%,0%,0%)" stroke-linecap="square" stroke-width="1" x1="2.5" x2="2.5" y1="12.5" y2="62.5" /><line stroke="rgb(0%,0%,0%)" stroke-linecap="square" stroke-width="1" x1="2.5" x2="2.5" y1="12.5" y2="2.5" /><line stroke="rgb(0%,0%,0%)" stroke-linecap="square" stroke-width="1" x1="62.5" x2="62.5" y1="52.5" y2="62.5" /><line stroke="rgb(0%,0%,0%)" stroke-linecap="square" stroke-width="1" x1="62.5" x2="62.5" y1="52.5" y2="2.5" /><text font-family="Verdana" font-size="12" style="fill: #ff0000; width:1000px; color:red; font-weight:100;" text-anchor="middle" x="97.5" y="32.5">X2</text><text font-family="Verdana" font-size="10" style="fill: #ff0000; width:1000px; color:red; font-weight:50;" text-anchor="middle" x="77.5" y="17.5">1</text><text font-family="Verdana" font-size="10" style="fill: #ff0000; width:1000px; color:red; font-weight:50;" text-anchor="middle" x="97.5" y="17.5">2</text><text font-family="Verdana" font-size="10" style="fill: #ff0000; width:1000px; color:red; font-weight:50;" text-anchor="middle" x="117.5" y="17.5">3</text><rect height="30.0" width="1.0" x="77.0" y="2.5" /><rect height="30.0" width="1.0" x="97.0" y="2.5" /><rect height="30.0" width="1.0" x="117.0" y="2.5" /><rect height="58.0" width="1.0" x="68.0" y="2.5" /><rect height="58.0" width="1.0" x="70.0" y="4.5" /><rect height="58.0" width="1.0" x="72.0" y="2.5" /><rect height="58.0" width="1.0" x="74.0" y="4.5" /><rect height="58.0" width="1.0" x="80.0" y="2.5" /><rect height="58.0" width="1.0" x="82.0" y="4.5" /><rect height="58.0" width="1.0" x="84.0" y="2.5" /><rect height="58.0" width="1.0" x="86.0" y="4.5" /><rect height="58.0" width="1.0" x="88.0" y="2.5" /><rect height="58.0" width="1.0" x="90.0" y="4.5" /><rect height="58.0" width="1.0" x="92.0" y="2.5" /><rect height="58.0" width="1.0" x="94.0" y="4.5" /><rect height="58.0" width="1.0" x="100.0" y="2.5" /><rect height="58.0" width="1.0" x="102.0" y="4.5" /><rect height="58.0" width="1.0" x="104.0" y="2.5" /><rect height="58.0" width="1.0" x="106.0" y="4.5" /><rect height="58.0" width="1.0" x="108.0" y="2.5" /><rect height="58.0" width="1.0" x="110.0" y="4.5" /><rect height="58.0" width="1.0" x="112.0" y="2.5" /><rect height="58.0" width="1.0" x="114.0" y="4.5" /><rect height="58.0" width="1.0" x="120.0" y="2.5" /><rect height="58.0" width="1.0" x="122.0" y="4.5" /><rect height="58.0" width="1.0" x="124.0" y="2.5" /><rect height="58.0" width="1.0" x="126.0" y="4.5" /><line stroke="rgb(0%,0%,0%)" stroke-linecap="square" stroke-width="1" x1="97.5" x2="127.5" y1="62.5" y2="62.5" /><line stroke="rgb(0%,0%,0%)" stroke-linecap="square" stroke-width="1" x1="97.5" x2="67.5" y1="62.5" y2="62.5" /><line stroke="rgb(0%,0%,0%)" stroke-linecap="square" stroke-width="1" x1="97.5" x2="67.5" y1="2.5" y2="2.5" /><line stroke="rgb(0%,0%,0%)" stroke-linecap="square" stroke-width="1" x1="97.5" x2="127.5" y1="2.5" y2="2.5" /><line stroke="rgb(0%,0%,0%)" stroke-linecap="square" stroke-width="1" x1="67.5" x2="67.5" y1="32.5" y2="62.5" /><line stroke="rgb(0%,0%,0%)" stroke-linecap="square" stroke-width="1" x1="67.5" x2="67.5" y1="32.5" y2="2.5" /><line stroke="rgb(0%,0%,0%)" stroke-linecap="square" stroke-width="1" x1="127.5" x2="127.5" y1="32.5" y2="62.5" /><line stroke="rgb(0%,0%,0%)" stroke-linecap="square" stroke-width="1" x1="127.5" x2="127.5" y1="32.5" y2="2.5" /><text font-family="Verdana" font-size="12" style="fill: #ff0000; width:1000px; color:red; font-weight:100;" text-anchor="middle" x="162.5" y="32.5">X3</text><text font-family="Verdana" font-size="10" style="fill: #ff0000; width:1000px; color:red; font-weight:50;" text-anchor="middle" x="142.5" y="17.5">1</text><text font-family="Verdana" font-size="10" style="fill: #ff0000; width:1000px; color:red; font-weight:50;" text-anchor="middle" x="162.5" y="17.5">2</text><text font-family="Verdana" font-size="10" style="fill: #ff0000; width:1000px; color:red; font-weight:50;" text-anchor="middle" x="182.5" y="17.5">3</text><rect height="30.0" width="1.0" x="142.0" y="2.5" /><rect height="30.0" width="1.0" x="162.0" y="2.5" /><rect height="30.0" width="1.0" x="182.0" y="2.5" /><rect height="58.0" width="1.0" x="133.0" y="2.5" /><rect height="58.0" width="1.0" x="135.0" y="4.5" /><rect height="58.0" width="1.0" x="137.0" y="2.5" /><rect height="58.0" width="1.0" x="139.0" y="4.5" /><rect height="58.0" width="1.0" x="145.0" y="2.5" /><rect height="58.0" width="1.0" x="147.0" y="4.5" /><rect height="58.0" width="1.0" x="149.0" y="2.5" /><rect height="58.0" width="1.0" x="151.0" y="4.5" /><rect height="58.0" width="1.0" x="153.0" y="2.5" /><rect height="58.0" width="1.0" x="155.0" y="4.5" /><rect height="58.0" width="1.0" x="157.0" y="2.5" /><rect height="58.0" width="1.0" x="159.0" y="4.5" /><rect height="58.0" width="1.0" x="165.0" y="2.5" /><rect height="58.0" width="1.0" x="167.0" y="4.5" /><rect height="58.0" width="1.0" x="169.0" y="2.5" /><rect height="58.0" width="1.0" x="171.0" y="4.5" /><rect height="58.0" width="1.0" x="173.0" y="2.5" /><rect height="58.0" width="1.0" x="175.0" y="4.5" /><rect height="58.0" width="1.0" x="177.0" y="2.5" /><rect height="58.0" width="1.0" x="179.0" y="4.5" /><rect height="58.0" width="1.0" x="185.0" y="2.5" /><rect height="58.0" width="1.0" x="187.0" y="4.5" /><rect height="58.0" width="1.0" x="189.0" y="2.5" /><rect height="58.0" width="1.0" x="191.0" y="4.5" /><line stroke="rgb(0%,0%,0%)" stroke-linecap="square" stroke-width="1" x1="142.5" x2="192.5" y1="62.5" y2="62.5" /><line stroke="rgb(0%,0%,0%)" stroke-linecap="square" stroke-width="1" x1="142.5" x2="132.5" y1="62.5" y2="62.5" /><line stroke="rgb(0%,0%,0%)" stroke-linecap="square" stroke-width="1" x1="182.5" x2="132.5" y1="2.5" y2="2.5" /><line stroke="rgb(0%,0%,0%)" stroke-linecap="square" stroke-width="1" x1="182.5" x2="192.5" y1="2.5" y2="2.5" /><line stroke="rgb(0%,0%,0%)" stroke-linecap="square" stroke-width="1" x1="132.5" x2="132.5" y1="52.5" y2="62.5" /><line stroke="rgb(0%,0%,0%)" stroke-linecap="square" stroke-width="1" x1="132.5" x2="132.5" y1="52.5" y2="2.5" /><line stroke="rgb(0%,0%,0%)" stroke-linecap="square" stroke-width="1" x1="192.5" x2="192.5" y1="12.5" y2="62.5" /><line stroke="rgb(0%,0%,0%)" stroke-linecap="square" stroke-width="1" x1="192.5" x2="192.5" y1="12.5" y2="2.5" /><text font-family="Verdana" font-size="12" style="fill: #ff0000; width:1000px; color:red; font-weight:100;" text-anchor="middle" x="227.5" y="32.5">Y1</text><text font-family="Verdana" font-size="10" style="fill: #ff0000; width:1000px; color:red; font-weight:50;" text-anchor="middle" x="207.5" y="47.5">1</text><text font-family="Verdana" font-size="10" style="fill: #ff0000; width:1000px; color:red; font-weight:50;" text-anchor="middle" x="227.5" y="47.5">2</text><text font-family="Verdana" font-size="10" style="fill: #ff0000; width:1000px; color:red; font-weight:50;" text-anchor="middle" x="247.5" y="47.5">3</text><rect height="30.0" width="1.0" x="207.0" y="32.5" /><rect height="30.0" width="1.0" x="227.0" y="32.5" /><rect height="30.0" width="1.0" x="247.0" y="32.5" /><rect height="58.0" width="1.0" x="198.0" y="2.5" /><rect height="58.0" width="1.0" x="200.0" y="4.5" /><rect height="58.0" width="1.0" x="202.0" y="2.5" /><rect height="58.0" width="1.0" x="204.0" y="4.5" /><rect height="58.0" width="1.0" x="210.0" y="2.5" /><rect height="58.0" width="1.0" x="212.0" y="4.5" /><rect height="58.0" width="1.0" x="214.0" y="2.5" /><rect height="58.0" width="1.0" x="216.0" y="4.5" /><rect height="58.0" width="1.0" x="218.0" y="2.5" /><rect height="58.0" width="1.0" x="220.0" y="4.5" /><rect height="58.0" width="1.0" x="222.0" y="2.5" /><rect height="58.0" width="1.0" x="224.0" y="4.5" /><rect height="58.0" width="1.0" x="230.0" y="2.5" /><rect height="58.0" width="1.0" x="232.0" y="4.5" /><rect height="58.0" width="1.0" x="234.0" y="2.5" /><rect height="58.0" width="1.0" x="236.0" y="4.5" /><rect height="58.0" width="1.0" x="238.0" y="2.5" /><rect height="58.0" width="1.0" x="240.0" y="4.5" /><rect height="58.0" width="1.0" x="242.0" y="2.5" /><rect height="58.0" width="1.0" x="244.0" y="4.5" /><rect height="58.0" width="1.0" x="250.0" y="2.5" /><rect height="58.0" width="1.0" x="252.0" y="4.5" /><rect height="58.0" width="1.0" x="254.0" y="2.5" /><rect height="58.0" width="1.0" x="256.0" y="4.5" /><line stroke="rgb(0%,0%,0%)" stroke-linecap="square" stroke-width="1" x1="247.5" x2="257.5" y1="62.5" y2="62.5" /><line stroke="rgb(0%,0%,0%)" stroke-linecap="square" stroke-width="1" x1="247.5" x2="197.5" y1="62.5" y2="62.5" /><line stroke="rgb(0%,0%,0%)" stroke-linecap="square" stroke-width="1" x1="207.5" x2="257.5" y1="2.5" y2="2.5" /><line stroke="rgb(0%,0%,0%)" stroke-linecap="square" stroke-width="1" x1="207.5" x2="197.5" y1="2.5" y2="2.5" /><line stroke="rgb(0%,0%,0%)" stroke-linecap="square" stroke-width="1" x1="257.5" x2="257.5" y1="52.5" y2="62.5" /><line stroke="rgb(0%,0%,0%)" stroke-linecap="square" stroke-width="1" x1="257.5" x2="257.5" y1="52.5" y2="2.5" /><line stroke="rgb(0%,0%,0%)" stroke-linecap="square" stroke-width="1" x1="197.5" x2="197.5" y1="12.5" y2="2.5" /><line stroke="rgb(0%,0%,0%)" stroke-linecap="square" stroke-width="1" x1="197.5" x2="197.5" y1="12.5" y2="62.5" /><text font-family="Verdana" font-size="12" style="fill: #ff0000; width:1000px; color:red; font-weight:100;" text-anchor="middle" x="35.0" y="97.5">Y2</text><text font-family="Verdana" font-size="10" style="fill: #ff0000; width:1000px; color:red; font-weight:50;" text-anchor="middle" x="15.0" y="112.5">1</text><text font-family="Verdana" font-size="10" style="fill: #ff0000; width:1000px; color:red; font-weight:50;" text-anchor="middle" x="35.0" y="112.5">2</text><text font-family="Verdana" font-size="10" style="fill: #ff0000; width:1000px; color:red; font-weight:50;" text-anchor="middle" x="55.0" y="112.5">3</text><rect height="30.0" width="1.0" x="14.5" y="97.5" /><rect height="30.0" width="1.0" x="34.5" y="97.5" /><rect height="30.0" width="1.0" x="54.5" y="97.5" /><rect height="58.0" width="1.0" x="5.5" y="67.5" /><rect height="58.0" width="1.0" x="7.5" y="69.5" /><rect height="58.0" width="1.0" x="9.5" y="67.5" /><rect height="58.0" width="1.0" x="11.5" y="69.5" /><rect height="58.0" width="1.0" x="17.5" y="67.5" /><rect height="58.0" width="1.0" x="19.5" y="69.5" /><rect height="58.0" width="1.0" x="21.5" y="67.5" /><rect height="58.0" width="1.0" x="23.5" y="69.5" /><rect height="58.0" width="1.0" x="25.5" y="67.5" /><rect height="58.0" width="1.0" x="27.5" y="69.5" /><rect height="58.0" width="1.0" x="29.5" y="67.5" /><rect height="58.0" width="1.0" x="31.5" y="69.5" /><rect height="58.0" width="1.0" x="37.5" y="67.5" /><rect height="58.0" width="1.0" x="39.5" y="69.5" /><rect height="58.0" width="1.0" x="41.5" y="67.5" /><rect height="58.0" width="1.0" x="43.5" y="69.5" /><rect height="58.0" width="1.0" x="45.5" y="67.5" /><rect height="58.0" width="1.0" x="47.5" y="69.5" /><rect height="58.0" width="1.0" x="49.5" y="67.5" /><rect height="58.0" width="1.0" x="51.5" y="69.5" /><rect height="58.0" width="1.0" x="57.5" y="67.5" /><rect height="58.0" width="1.0" x="59.5" y="69.5" /><rect height="58.0" width="1.0" x="61.5" y="67.5" /><rect height="58.0" width="1.0" x="63.5" y="69.5" /><line stroke="rgb(0%,0%,0%)" stroke-linecap="square" stroke-width="1" x1="35.0" x2="65.0" y1="127.5" y2="127.5" /><line stroke="rgb(0%,0%,0%)" stroke-linecap="square" stroke-width="1" x1="35.0" x2="5.0" y1="127.5" y2="127.5" /><line stroke="rgb(0%,0%,0%)" stroke-linecap="square" stroke-width="1" x1="35.0" x2="65.0" y1="67.5" y2="67.5" /><line stroke="rgb(0%,0%,0%)" stroke-linecap="square" stroke-width="1" x1="35.0" x2="5.0" y1="67.5" y2="67.5" /><line stroke="rgb(0%,0%,0%)" stroke-linecap="square" stroke-width="1" x1="65.0" x2="65.0" y1="97.5" y2="127.5" /><line stroke="rgb(0%,0%,0%)" stroke-linecap="square" stroke-width="1" x1="65.0" x2="65.0" y1="97.5" y2="67.5" /><line stroke="rgb(0%,0%,0%)" stroke-linecap="square" stroke-width="1" x1="5.0" x2="5.0" y1="97.5" y2="67.5" /><line stroke="rgb(0%,0%,0%)" stroke-linecap="square" stroke-width="1" x1="5.0" x2="5.0" y1="97.5" y2="127.5" /><text font-family="Verdana" font-size="12" style="fill: #ff0000; width:1000px; color:red; font-weight:100;" text-anchor="middle" x="100.0" y="97.5">Y3</text><text font-family="Verdana" font-size="10" style="fill: #ff0000; width:1000px; color:red; font-weight:50;" text-anchor="middle" x="80.0" y="112.5">1</text><text font-family="Verdana" font-size="10" style="fill: #ff0000; width:1000px; color:red; font-weight:50;" text-anchor="middle" x="100.0" y="112.5">2</text><text font-family="Verdana" font-size="10" style="fill: #ff0000; width:1000px; color:red; font-weight:50;" text-anchor="middle" x="120.0" y="112.5">3</text><rect height="30.0" width="1.0" x="79.5" y="97.5" /><rect height="30.0" width="1.0" x="99.5" y="97.5" /><rect height="30.0" width="1.0" x="119.5" y="97.5" /><rect height="58.0" width="1.0" x="70.5" y="67.5" /><rect height="58.0" width="1.0" x="72.5" y="69.5" /><rect height="58.0" width="1.0" x="74.5" y="67.5" /><rect height="58.0" width="1.0" x="76.5" y="69.5" /><rect height="58.0" width="1.0" x="82.5" y="67.5" /><rect height="58.0" width="1.0" x="84.5" y="69.5" /><rect height="58.0" width="1.0" x="86.5" y="67.5" /><rect height="58.0" width="1.0" x="88.5" y="69.5" /><rect height="58.0" width="1.0" x="90.5" y="67.5" /><rect height="58.0" width="1.0" x="92.5" y="69.5" /><rect height="58.0" width="1.0" x="94.5" y="67.5" /><rect height="58.0" width="1.0" x="96.5" y="69.5" /><rect height="58.0" width="1.0" x="102.5" y="67.5" /><rect height="58.0" width="1.0" x="104.5" y="69.5" /><rect height="58.0" width="1.0" x="106.5" y="67.5" /><rect height="58.0" width="1.0" x="108.5" y="69.5" /><rect height="58.0" width="1.0" x="110.5" y="67.5" /><rect height="58.0" width="1.0" x="112.5" y="69.5" /><rect height="58.0" width="1.0" x="114.5" y="67.5" /><rect height="58.0" width="1.0" x="116.5" y="69.5" /><rect height="58.0" width="1.0" x="122.5" y="67.5" /><rect height="58.0" width="1.0" x="124.5" y="69.5" /><rect height="58.0" width="1.0" x="126.5" y="67.5" /><rect height="58.0" width="1.0" x="128.5" y="69.5" /><line stroke="rgb(0%,0%,0%)" stroke-linecap="square" stroke-width="1" x1="80.0" x2="130.0" y1="127.5" y2="127.5" /><line stroke="rgb(0%,0%,0%)" stroke-linecap="square" stroke-width="1" x1="80.0" x2="70.0" y1="127.5" y2="127.5" /><line stroke="rgb(0%,0%,0%)" stroke-linecap="square" stroke-width="1" x1="120.0" x2="130.0" y1="67.5" y2="67.5" /><line stroke="rgb(0%,0%,0%)" stroke-linecap="square" stroke-width="1" x1="120.0" x2="70.0" y1="67.5" y2="67.5" /><line stroke="rgb(0%,0%,0%)" stroke-linecap="square" stroke-width="1" x1="130.0" x2="130.0" y1="77.5" y2="127.5" /><line stroke="rgb(0%,0%,0%)" stroke-linecap="square" stroke-width="1" x1="130.0" x2="130.0" y1="77.5" y2="67.5" /><line stroke="rgb(0%,0%,0%)" stroke-linecap="square" stroke-width="1" x1="70.0" x2="70.0" y1="117.5" y2="67.5" /><line stroke="rgb(0%,0%,0%)" stroke-linecap="square" stroke-width="1" x1="70.0" x2="70.0" y1="117.5" y2="127.5" /></svg>