<?xml version="1.0" encoding="utf-8" ?>
<svg baseProfile="tiny" height="100%" version="1.2" width="100%" xmlns="http://www.w3.org/2000/svg" xmlns:ev="http://www.w3.org/2001/xml-events" xmlns:xlink="http://www.w3.org/1999/xlink"><defs /><text x="80.0" y="80.0">test</text><line stroke="rgb(0%,0%,0%)" stroke-width="2" x1="130.0" x2="140.0" y1="140.0" y2="140.0" /><line stroke="rgb(0%,0%,0%)" stroke-width="2" x1="130.0" x2="20.0" y1="140.0" y2="140.0" /><line stroke="rgb(0%,0%,0%)" stroke-width="2" x1="30.0" x2="20.0" y1="20.0" y2="20.0" /><line stroke="rgb(0%,0%,0%)" stroke-width="2" x1="30.0" x2="140.0" y1="20.0" y2="20.0" /><line stroke="rgb(0%,0%,0%)" stroke-width="2" x1="20.0" x2="20.0" y1="30.0" y2="140.0" /><line stroke="rgb(0%,0%,0%)" stroke-width="2" x1="20.0" x2="20.0" y1="30.0" y2="20.0" /><line stroke="rgb(0%,0%,0%)" stroke-width="2" x1="140.0" x2="140.0" y1="130.0" y2="140.0" /><line stroke="rgb(0%,0%,0%)" stroke-width="2" x1="140.0" x2="140.0" y1="130.0" y2="20.0" /><line stroke="rgb(0%,0%,0%)" stroke-width="2" x1="40.0" x2="40.0" y1="20.0" y2="80.0" /><line stroke="rgb(0%,0%,0%)" stroke-width="2" x1="50.0" x2="50.0" y1="20.0" y2="80.0" /><line stroke="rgb(0%,0%,0%)" stroke-width="2" x1="60.0" x2="60.0" y1="20.0" y2="80.0" /><line stroke="rgb(0%,0%,0%)" stroke-width="2" x1="70.0" x2="70.0" y1="20.0" y2="80.0" /><line stroke="rgb(0%,0%,0%)" stroke-width="2" x1="80.0" x2="80.0" y1="20.0" y2="80.0" /><line stroke="rgb(0%,0%,0%)" stroke-width="2" x1="90.0" x2="90.0" y1="20.0" y2="80.0" /><line stroke="rgb(0%,0%,0%)" stroke-width="2" x1="100.0" x2="100.0" y1="20.0" y2="80.0" /><line stroke="rgb(0%,0%,0%)" stroke-width="2" x1="110.0" x2="110.0" y1="20.0" y2="80.0" /><line stroke="rgb(0%,0%,0%)" stroke-width="2" x1="120.0" x2="120.0" y1="20.0" y2="80.0" /><text x="220.0" y="80.0">test</text><line stroke="rgb(0%,0%,0%)" stroke-width="2" x1="260.0" x2="280.0" y1="140.0" y2="140.0" /><line stroke="rgb(0%,0%,0%)" stroke-width="2" x1="260.0" x2="160.0" y1="140.0" y2="140.0" /><line stroke="rgb(0%,0%,0%)" stroke-width="2" x1="180.0" x2="160.0" y1="20.0" y2="20.0" /><line stroke="rgb(0%,0%,0%)" stroke-width="2" x1="180.0" x2="280.0" y1="20.0" y2="20.0" /><line stroke="rgb(0%,0%,0%)" stroke-width="2" x1="160.0" x2="160.0" y1="40.0" y2="140.0" /><line stroke="rgb(0%,0%,0%)" stroke-width="2" x1="160.0" x2="160.0" y1="40.0" y2="20.0" /><line stroke="rgb(0%,0%,0%)" stroke-width="2" x1="280.0" x2="280.0" y1="120.0" y2="140.0" /><line stroke="rgb(0%,0%,0%)" stroke-width="2" x1="280.0" x2="280.0" y1="120.0" y2="20.0" /><line stroke="rgb(0%,0%,0%)" stroke-width="2" x1="170.0" x2="170.0" y1="20.0" y2="80.0" /><line stroke="rgb(0%,0%,0%)" stroke-width="2" x1="190.0" x2="190.0" y1="20.0" y2="80.0" /><line stroke="rgb(0%,0%,0%)" stroke-width="2" x1="200.0" x2="200.0" y1="20.0" y2="80.0" /><line stroke="rgb(0%,0%,0%)" stroke-width="2" x1="210.0" x2="210.0" y1="20.0" y2="80.0" /><line stroke="rgb(0%,0%,0%)" stroke-width="2" x1="220.0" x2="220.0" y1="20.0" y2="80.0" /><line stroke="rgb(0%,0%,0%)" stroke-width="2" x1="230.0" x2="230.0" y1="20.0" y2="80.0" /><line stroke="rgb(0%,0%,0%)" stroke-width="2" x1="240.0" x2="240.0" y1="20.0" y2="80.0" /><line stroke="rgb(0%,0%,0%)" stroke-width="2" x1="250.0" x2="250.0" y1="20.0" y2="80.0" /><line stroke="rgb(0%,0%,0%)" stroke-width="2" x1="270.0" x2="270.0" y1="20.0" y2="80.0" /><text x="360.0" y="80.0">test</text><line stroke="rgb(0%,0%,0%)" stroke-width="2" x1="390.0" x2="420.0" y1="140.0" y2="140.0" /><line stroke="rgb(0%,0%,0%)" stroke-width="2" x1="390.0" x2="300.0" y1="140.0" y2="140.0" /><line stroke="rgb(0%,0%,0%)" stroke-width="2" x1="330.0" x2="300.0" y1="20.0" y2="20.0" /><line stroke="rgb(0%,0%,0%)" stroke-width="2" x1="330.0" x2="420.0" y1="20.0" y2="20.0" /><line stroke="rgb(0%,0%,0%)" stroke-width="2" x1="300.0" x2="300.0" y1="50.0" y2="140.0" /><line stroke="rgb(0%,0%,0%)" stroke-width="2" x1="300.0" x2="300.0" y1="50.0" y2="20.0" /><line stroke="rgb(0%,0%,0%)" stroke-width="2" x1="420.0" x2="420.0" y1="110.0" y2="140.0" /><line stroke="rgb(0%,0%,0%)" stroke-width="2" x1="420.0" x2="420.0" y1="110.0" y2="20.0" /><line stroke="rgb(0%,0%,0%)" stroke-width="2" x1="310.0" x2="310.0" y1="20.0" y2="80.0" /><line stroke="rgb(0%,0%,0%)" stroke-width="2" x1="320.0" x2="320.0" y1="20.0" y2="80.0" /><line stroke="rgb(0%,0%,0%)" stroke-width="2" x1="340.0" x2="340.0" y1="20.0" y2="80.0" /><line stroke="rgb(0%,0%,0%)" stroke-width="2" x1="350.0" x2="350.0" y1="20.0" y2="80.0" /><line stroke="rgb(0%,0%,0%)" stroke-width="2" x1="360.0" x2="360.0" y1="20.0" y2="80.0" /><line stroke="rgb(0%,0%,0%)" stroke-width="2" x1="370.0" x2="370.0" y1="20.0" y2="80.0" /><line stroke="rgb(0%,0%,0%)" stroke-width="2" x1="380.0" x2="380.0" y1="20.0" y2="80.0" /><line stroke="rgb(0%,0%,0%)" stroke-width="2" x1="400.0" x2="400.0" y1="20.0" y2="80.0" /><line stroke="rgb(0%,0%,0%)" stroke-width="2" x1="410.0" x2="410.0" y1="20.0" y2="80.0" /><text x="500.0" y="80.0">test</text><line stroke="rgb(0%,0%,0%)" stroke-width="2" x1="520.0" x2="560.0" y1="140.0" y2="140.0" /><line stroke="rgb(0%,0%,0%)" stroke-width="2" x1="520.0" x2="440.0" y1="140.0" y2="140.0" /><line stroke="rgb(0%,0%,0%)" stroke-width="2" x1="480.0" x2="440.0" y1="20.0" y2="20.0" /><line stroke="rgb(0%,0%,0%)" stroke-width="2" x1="480.0" x2="560.0" y1="20.0" y2="20.0" /><line stroke="rgb(0%,0%,0%)" stroke-width="2" x1="440.0" x2="440.0" y1="60.0" y2="140.0" /><line stroke="rgb(0%,0%,0%)" stroke-width="2" x1="440.0" x2="440.0" y1="60.0" y2="20.0" /><line stroke="rgb(0%,0%,0%)" stroke-width="2" x1="560.0" x2="560.0" y1="100.0" y2="140.0" /><line stroke="rgb(0%,0%,0%)" stroke-width="2" x1="560.0" x2="560.0" y1="100.0" y2="20.0" /><line stroke="rgb(0%,0%,0%)" stroke-width="2" x1="450.0" x2="450.0" y1="20.0" y2="80.0" /><line stroke="rgb(0%,0%,0%)" stroke-width="2" x1="460.0" x2="460.0" y1="20.0" y2="80.0" /><line stroke="rgb(0%,0%,0%)" stroke-width="2" x1="470.0" x2="470.0" y1="20.0" y2="80.0" /><line stroke="rgb(0%,0%,0%)" stroke-width="2" x1="490.0" x2="490.0" y1="20.0" y2="80.0" /><line stroke="rgb(0%,0%,0%)" stroke-width="2" x1="500.0" x2="500.0" y1="20.0" y2="80.0" /><line stroke="rgb(0%,0%,0%)" stroke-width="2" x1="510.0" x2="510.0" y1="20.0" y2="80.0" /><line stroke="rgb(0%,0%,0%)" stroke-width="2" x1="530.0" x2="530.0" y1="20.0" y2="80.0" /><line stroke="rgb(0%,0%,0%)" stroke-width="2" x1="540.0" x2="540.0" y1="20.0" y2="80.0" /><line stroke="rgb(0%,0%,0%)" stroke-width="2" x1="550.0" x2="550.0" y1="20.0" y2="80.0" /><text x="640.0" y="80.0">test</text><line stroke="rgb(0%,0%,0%)" stroke-width="2" x1="650.0" x2="700.0" y1="140.0" y2="140.0" /><line stroke="rgb(0%,0%,0%)" stroke-width="2" x1="650.0" x2="580.0" y1="140.0" y2="140.0" /><line stroke="rgb(0%,0%,0%)" stroke-width="2" x1="630.0" x2="580.0" y1="20.0" y2="20.0" /><line stroke="rgb(0%,0%,0%)" stroke-width="2" x1="630.0" x2="700.0" y1="20.0" y2="20.0" /><line stroke="rgb(0%,0%,0%)" stroke-width="2" x1="580.0" x2="580.0" y1="70.0" y2="140.0" /><line stroke="rgb(0%,0%,0%)" stroke-width="2" x1="580.0" x2="580.0" y1="70.0" y2="20.0" /><line stroke="rgb(0%,0%,0%)" stroke-width="2" x1="700.0" x2="700.0" y1="90.0" y2="140.0" /><line stroke="rgb(0%,0%,0%)" stroke-width="2" x1="700.0" x2="700.0" y1="90.0" y2="20.0" /><line stroke="rgb(0%,0%,0%)" stroke-width="2" x1="590.0" x2="590.0" y1="20.0" y2="80.0" /><line stroke="rgb(0%,0%,0%)" stroke-width="2" x1="600.0" x2="600.0" y1="20.0" y2="80.0" /><line stroke="rgb(0%,0%,0%)" stroke-width="2" x1="610.0" x2="610.0" y1="20.0" y2="80.0" /><line stroke="rgb(0%,0%,0%)" stroke-width="2" x1="620.0" x2="620.0" y1="20.0" y2="80.0" /><line stroke="rgb(0%,0%,0%)" stroke-width="2" x1="640.0" x2="640.0" y1="20.0" y2="80.0" /><line stroke="rgb(0%,0%,0%)" stroke-width="2" x1="660.0" x2="660.0" y1="20.0" y2="80.0" /><line stroke="rgb(0%,0%,0%)" stroke-width="2" x1="670.0" x2="670.0" y1="20.0" y2="80.0" /><line stroke="rgb(0%,0%,0%)" stroke-width="2" x1="680.0" x2="680.0" y1="20.0" y2="80.0" /><line stroke="rgb(0%,0%,0%)" stroke-width="2" x1="690.0" x2="690.0" y1="20.0" y2="80.0" /><text x="80.0" y="220.0">test</text><line stroke="rgb(0%,0%,0%)" stroke-width="2" x1="80.0" x2="140.0" y1="280.0" y2="280.0" /><line stroke="rgb(0%,0%,0%)" stroke-width="2" x1="80.0" x2="20.0" y1="280.0" y2="280.0" /><line stroke="rgb(0%,0%,0%)" stroke-width="2" x1="80.0" x2="20.0" y1="160.0" y2="160.0" /><line stroke="rgb(0%,0%,0%)" stroke-width="2" x1="80.0" x2="140.0" y1="160.0" y2="160.0" /><line stroke="rgb(0%,0%,0%)" stroke-width="2" x1="20.0" x2="20.0" y1="220.0" y2="280.0" /><line stroke="rgb(0%,0%,0%)" stroke-width="2" x1="20.0" x2="20.0" y1="220.0" y2="160.0" /><line stroke="rgb(0%,0%,0%)" stroke-width="2" x1="140.0" x2="140.0" y1="220.0" y2="280.0" /><line stroke="rgb(0%,0%,0%)" stroke-width="2" x1="140.0" x2="140.0" y1="220.0" y2="160.0" /><line stroke="rgb(0%,0%,0%)" stroke-width="2" x1="30.0" x2="30.0" y1="160.0" y2="220.0" /><line stroke="rgb(0%,0%,0%)" stroke-width="2" x1="40.0" x2="40.0" y1="160.0" y2="220.0" /><line stroke="rgb(0%,0%,0%)" stroke-width="2" x1="50.0" x2="50.0" y1="160.0" y2="220.0" /><line stroke="rgb(0%,0%,0%)" stroke-width="2" x1="60.0" x2="60.0" y1="160.0" y2="220.0" /><line stroke="rgb(0%,0%,0%)" stroke-width="2" x1="70.0" x2="70.0" y1="160.0" y2="220.0" /><line stroke="rgb(0%,0%,0%)" stroke-width="2" x1="80.0" x2="80.0" y1="160.0" y2="160.0" /><line stroke="rgb(0%,0%,0%)" stroke-width="2" x1="80.0" x2="80.0" y1="280.0" y2="280.0" /><line stroke="rgb(0%,0%,0%)" stroke-width="2" x1="90.0" x2="90.0" y1="160.0" y2="220.0" /><line stroke="rgb(0%,0%,0%)" stroke-width="2" x1="100.0" x2="100.0" y1="160.0" y2="220.0" /><line stroke="rgb(0%,0%,0%)" stroke-width="2" x1="110.0" x2="110.0" y1="160.0" y2="220.0" /><line stroke="rgb(0%,0%,0%)" stroke-width="2" x1="120.0" x2="120.0" y1="160.0" y2="220.0" /><line stroke="rgb(0%,0%,0%)" stroke-width="2" x1="130.0" x2="130.0" y1="160.0" y2="220.0" /><text x="220.0" y="220.0">test</text><line stroke="rgb(0%,0%,0%)" stroke-width="2" x1="210.0" x2="280.0" y1="280.0" y2="280.0" /><line stroke="rgb(0%,0%,0%)" stroke-width="2" x1="210.0" x2="160.0" y1="280.0" y2="280.0" /><line stroke="rgb(0%,0%,0%)" stroke-width="2" x1="230.0" x2="160.0" y1="160.0" y2="160.0" /><line stroke="rgb(0%,0%,0%)" stroke-width="2" x1="230.0" x2="280.0" y1="160.0" y2="160.0" /><line stroke="rgb(0%,0%,0%)" stroke-width="2" x1="160.0" x2="160.0" y1="230.0" y2="280.0" /><line stroke="rgb(0%,0%,0%)" stroke-width="2" x1="160.0" x2="160.0" y1="230.0" y2="160.0" /><line stroke="rgb(0%,0%,0%)" stroke-width="2" x1="280.0" x2="280.0" y1="210.0" y2="280.0" /><line stroke="rgb(0%,0%,0%)" stroke-width="2" x1="280.0" x2="280.0" y1="210.0" y2="160.0" /><line stroke="rgb(0%,0%,0%)" stroke-width="2" x1="170.0" x2="170.0" y1="160.0" y2="220.0" /><line stroke="rgb(0%,0%,0%)" stroke-width="2" x1="180.0" x2="180.0" y1="160.0" y2="220.0" /><line stroke="rgb(0%,0%,0%)" stroke-width="2" x1="190.0" x2="190.0" y1="160.0" y2="220.0" /><line stroke="rgb(0%,0%,0%)" stroke-width="2" x1="200.0" x2="200.0" y1="160.0" y2="220.0" /><line stroke="rgb(0%,0%,0%)" stroke-width="2" x1="220.0" x2="220.0" y1="160.0" y2="220.0" /><line stroke="rgb(0%,0%,0%)" stroke-width="2" x1="240.0" x2="240.0" y1="160.0" y2="220.0" /><line stroke="rgb(0%,0%,0%)" stroke-width="2" x1="250.0" x2="250.0" y1="160.0" y2="220.0" /><line stroke="rgb(0%,0%,0%)" stroke-width="2" x1="260.0" x2="260.0" y1="160.0" y2="220.0" /><line stroke="rgb(0%,0%,0%)" stroke-width="2" x1="270.0" x2="270.0" y1="160.0" y2="220.0" /><text x="360.0" y="220.0">test</text><line stroke="rgb(0%,0%,0%)" stroke-width="2" x1="340.0" x2="420.0" y1="280.0" y2="280.0" /><line stroke="rgb(0%,0%,0%)" stroke-width="2" x1="340.0" x2="300.0" y1="280.0" y2="280.0" /><line stroke="rgb(0%,0%,0%)" stroke-width="2" x1="380.0" x2="300.0" y1="160.0" y2="160.0" /><line stroke="rgb(0%,0%,0%)" stroke-width="2" x1="380.0" x2="420.0" y1="160.0" y2="160.0" /><line stroke="rgb(0%,0%,0%)" stroke-width="2" x1="300.0" x2="300.0" y1="240.0" y2="280.0" /><line stroke="rgb(0%,0%,0%)" stroke-width="2" x1="300.0" x2="300.0" y1="240.0" y2="160.0" /><line stroke="rgb(0%,0%,0%)" stroke-width="2" x1="420.0" x2="420.0" y1="200.0" y2="280.0" /><line stroke="rgb(0%,0%,0%)" stroke-width="2" x1="420.0" x2="420.0" y1="200.0" y2="160.0" /><line stroke="rgb(0%,0%,0%)" stroke-width="2" x1="310.0" x2="310.0" y1="160.0" y2="220.0" /><line stroke="rgb(0%,0%,0%)" stroke-width="2" x1="320.0" x2="320.0" y1="160.0" y2="220.0" /><line stroke="rgb(0%,0%,0%)" stroke-width="2" x1="330.0" x2="330.0" y1="160.0" y2="220.0" /><line stroke="rgb(0%,0%,0%)" stroke-width="2" x1="350.0" x2="350.0" y1="160.0" y2="220.0" /><line stroke="rgb(0%,0%,0%)" stroke-width="2" x1="360.0" x2="360.0" y1="160.0" y2="220.0" /><line stroke="rgb(0%,0%,0%)" stroke-width="2" x1="370.0" x2="370.0" y1="160.0" y2="220.0" /><line stroke="rgb(0%,0%,0%)" stroke-width="2" x1="390.0" x2="390.0" y1="160.0" y2="220.0" /><line stroke="rgb(0%,0%,0%)" stroke-width="2" x1="400.0" x2="400.0" y1="160.0" y2="220.0" /><line stroke="rgb(0%,0%,0%)" stroke-width="2" x1="410.0" x2="410.0" y1="160.0" y2="220.0" /><text x="500.0" y="220.0">test</text><line stroke="rgb(0%,0%,0%)" stroke-width="2" x1="470.0" x2="560.0" y1="280.0" y2="280.0" /><line stroke="rgb(0%,0%,0%)" stroke-width="2" x1="470.0" x2="440.0" y1="280.0" y2="280.0" /><line stroke="rgb(0%,0%,0%)" stroke-width="2" x1="530.0" x2="440.0" y1="160.0" y2="160.0" /><line stroke="rgb(0%,0%,0%)" stroke-width="2" x1="530.0" x2="560.0" y1="160.0" y2="160.0" /><line stroke="rgb(0%,0%,0%)" stroke-width="2" x1="440.0" x2="440.0" y1="250.0" y2="280.0" /><line stroke="rgb(0%,0%,0%)" stroke-width="2" x1="440.0" x2="440.0" y1="250.0" y2="160.0" /><line stroke="rgb(0%,0%,0%)" stroke-width="2" x1="560.0" x2="560.0" y1="190.0" y2="280.0" /><line stroke="rgb(0%,0%,0%)" stroke-width="2" x1="560.0" x2="560.0" y1="190.0" y2="160.0" /><line stroke="rgb(0%,0%,0%)" stroke-width="2" x1="450.0" x2="450.0" y1="160.0" y2="220.0" /><line stroke="rgb(0%,0%,0%)" stroke-width="2" x1="460.0" x2="460.0" y1="160.0" y2="220.0" /><line stroke="rgb(0%,0%,0%)" stroke-width="2" x1="480.0" x2="480.0" y1="160.0" y2="220.0" /><line stroke="rgb(0%,0%,0%)" stroke-width="2" x1="490.0" x2="490.0" y1="160.0" y2="220.0" /><line stroke="rgb(0%,0%,0%)" stroke-width="2" x1="500.0" x2="500.0" y1="160.0" y2="220.0" /><line stroke="rgb(0%,0%,0%)" stroke-width="2" x1="510.0" x2="510.0" y1="160.0" y2="220.0" /><line stroke="rgb(0%,0%,0%)" stroke-width="2" x1="520.0" x2="520.0" y1="160.0" y2="220.0" /><line stroke="rgb(0%,0%,0%)" stroke-width="2" x1="540.0" x2="540.0" y1="160.0" y2="220.0" /><line stroke="rgb(0%,0%,0%)" stroke-width="2" x1="550.0" x2="550.0" y1="160.0" y2="220.0" /><text x="640.0" y="220.0">test</text><line stroke="rgb(0%,0%,0%)" stroke-width="2" x1="600.0" x2="700.0" y1="280.0" y2="280.0" /><line stroke="rgb(0%,0%,0%)" stroke-width="2" x1="600.0" x2="580.0" y1="280.0" y2="280.0" /><line stroke="rgb(0%,0%,0%)" stroke-width="2" x1="680.0" x2="580.0" y1="160.0" y2="160.0" /><line stroke="rgb(0%,0%,0%)" stroke-width="2" x1="680.0" x2="700.0" y1="160.0" y2="160.0" /><line stroke="rgb(0%,0%,0%)" stroke-width="2" x1="580.0" x2="580.0" y1="260.0" y2="280.0" /><line stroke="rgb(0%,0%,0%)" stroke-width="2" x1="580.0" x2="580.0" y1="260.0" y2="160.0" /><line stroke="rgb(0%,0%,0%)" stroke-width="2" x1="700.0" x2="700.0" y1="180.0" y2="280.0" /><line stroke="rgb(0%,0%,0%)" stroke-width="2" x1="700.0" x2="700.0" y1="180.0" y2="160.0" /><line stroke="rgb(0%,0%,0%)" stroke-width="2" x1="590.0" x2="590.0" y1="160.0" y2="220.0" /><line stroke="rgb(0%,0%,0%)" stroke-width="2" x1="610.0" x2="610.0" y1="160.0" y2="220.0" /><line stroke="rgb(0%,0%,0%)" stroke-width="2" x1="620.0" x2="620.0" y1="160.0" y2="220.0" /><line stroke="rgb(0%,0%,0%)" stroke-width="2" x1="630.0" x2="630.0" y1="160.0" y2="220.0" /><line stroke="rgb(0%,0%,0%)" stroke-width="2" x1="640.0" x2="640.0" y1="160.0" y2="220.0" /><line stroke="rgb(0%,0%,0%)" stroke-width="2" x1="650.0" x2="650.0" y1="160.0" y2="220.0" /><line stroke="rgb(0%,0%,0%)" stroke-width="2" x1="660.0" x2="660.0" y1="160.0" y2="220.0" /><line stroke="rgb(0%,0%,0%)" stroke-width="2" x1="670.0" x2="670.0" y1="160.0" y2="220.0" /><line stroke="rgb(0%,0%,0%)" stroke-width="2" x1="690.0" x2="690.0" y1="160.0" y2="220.0" /><text x="780.0" y="220.0">test</text><line stroke="rgb(0%,0%,0%)" stroke-width="2" x1="730.0" x2="840.0" y1="280.0" y2="280.0" /><line stroke="rgb(0%,0%,0%)" stroke-width="2" x1="730.0" x2="720.0" y1="280.0" y2="280.0" /><line stroke="rgb(0%,0%,0%)" stroke-width="2" x1="830.0" x2="720.0" y1="160.0" y2="160.0" /><line stroke="rgb(0%,0%,0%)" stroke-width="2" x1="830.0" x2="840.0" y1="160.0" y2="160.0" /><line stroke="rgb(0%,0%,0%)" stroke-width="2" x1="720.0" x2="720.0" y1="270.0" y2="280.0" /><line stroke="rgb(0%,0%,0%)" stroke-width="2" x1="720.0" x2="720.0" y1="270.0" y2="160.0" /><line stroke="rgb(0%,0%,0%)" stroke-width="2" x1="840.0" x2="840.0" y1="170.0" y2="280.0" /><line stroke="rgb(0%,0%,0%)" stroke-width="2" x1="840.0" x2="840.0" y1="170.0" y2="160.0" /><line stroke="rgb(0%,0%,0%)" stroke-width="2" x1="740.0" x2="740.0" y1="160.0" y2="220.0" /><line stroke="rgb(0%,0%,0%)" stroke-width="2" x1="750.0" x2="750.0" y1="160.0" y2="220.0" /><line stroke="rgb(0%,0%,0%)" stroke-width="2" x1="760.0" x2="760.0" y1="160.0" y2="220.0" /><line stroke="rgb(0%,0%,0%)" stroke-width="2" x1="770.0" x2="770.0" y1="160.0" y2="220.0" /><line stroke="rgb(0%,0%,0%)" stroke-width="2" x1="780.0" x2="780.0" y1="160.0" y2="220.0" /><line stroke="rgb(0%,0%,0%)" stroke-width="2" x1="790.0" x2="790.0" y1="160.0" y2="220.0" /><line stroke="rgb(0%,0%,0%)" stroke-width="2" x1="800.0" x2="800.0" y1="160.0" y2="220.0" /><line stroke="rgb(0%,0%,0%)" stroke-width="2" x1="810.0" x2="810.0" y1="160.0" y2="220.0" /><line stroke="rgb(0%,0%,0%)" stroke-width="2" x1="820.0" x2="820.0" y1="160.0" y2="220.0" /><text x="80.0" y="360.0">test</text><line stroke="rgb(0%,0%,0%)" stroke-width="2" x1="130.0" x2="140.0" y1="420.0" y2="420.0" /><line stroke="rgb(0%,0%,0%)" stroke-width="2" x1="130.0" x2="20.0" y1="420.0" y2="420.0" /><line stroke="rgb(0%,0%,0%)" stroke-width="2" x1="30.0" x2="140.0" y1="300.0" y2="300.0" /><line stroke="rgb(0%,0%,0%)" stroke-width="2" x1="30.0" x2="20.0" y1="300.0" y2="300.0" /><line stroke="rgb(0%,0%,0%)" stroke-width="2" x1="140.0" x2="140.0" y1="410.0" y2="420.0" /><line stroke="rgb(0%,0%,0%)" stroke-width="2" x1="140.0" x2="140.0" y1="410.0" y2="300.0" /><line stroke="rgb(0%,0%,0%)" stroke-width="2" x1="20.0" x2="20.0" y1="310.0" y2="300.0" /><line stroke="rgb(0%,0%,0%)" stroke-width="2" x1="20.0" x2="20.0" y1="310.0" y2="420.0" /><line stroke="rgb(0%,0%,0%)" stroke-width="2" x1="40.0" x2="40.0" y1="360.0" y2="420.0" /><line stroke="rgb(0%,0%,0%)" stroke-width="2" x1="50.0" x2="50.0" y1="360.0" y2="420.0" /><line stroke="rgb(0%,0%,0%)" stroke-width="2" x1="60.0" x2="60.0" y1="360.0" y2="420.0" /><line stroke="rgb(0%,0%,0%)" stroke-width="2" x1="70.0" x2="70.0" y1="360.0" y2="420.0" /><line stroke="rgb(0%,0%,0%)" stroke-width="2" x1="80.0" x2="80.0" y1="360.0" y2="420.0" /><line stroke="rgb(0%,0%,0%)" stroke-width="2" x1="90.0" x2="90.0" y1="360.0" y2="420.0" /><line stroke="rgb(0%,0%,0%)" stroke-width="2" x1="100.0" x2="100.0" y1="360.0" y2="420.0" /><line stroke="rgb(0%,0%,0%)" stroke-width="2" x1="110.0" x2="110.0" y1="360.0" y2="420.0" /><line stroke="rgb(0%,0%,0%)" stroke-width="2" x1="120.0" x2="120.0" y1="360.0" y2="420.0" /><text x="220.0" y="360.0">test</text><line stroke="rgb(0%,0%,0%)" stroke-width="2" x1="260.0" x2="280.0" y1="420.0" y2="420.0" /><line stroke="rgb(0%,0%,0%)" stroke-width="2" x1="260.0" x2="160.0" y1="420.0" y2="420.0" /><line stroke="rgb(0%,0%,0%)" stroke-width="2" x1="180.0" x2="280.0" y1="300.0" y2="300.0" /><line stroke="rgb(0%,0%,0%)" stroke-width="2" x1="180.0" x2="160.0" y1="300.0" y2="300.0" /><line stroke="rgb(0%,0%,0%)" stroke-width="2" x1="280.0" x2="280.0" y1="400.0" y2="420.0" /><line stroke="rgb(0%,0%,0%)" stroke-width="2" x1="280.0" x2="280.0" y1="400.0" y2="300.0" /><line stroke="rgb(0%,0%,0%)" stroke-width="2" x1="160.0" x2="160.0" y1="320.0" y2="300.0" /><line stroke="rgb(0%,0%,0%)" stroke-width="2" x1="160.0" x2="160.0" y1="320.0" y2="420.0" /><line stroke="rgb(0%,0%,0%)" stroke-width="2" x1="170.0" x2="170.0" y1="360.0" y2="420.0" /><line stroke="rgb(0%,0%,0%)" stroke-width="2" x1="190.0" x2="190.0" y1="360.0" y2="420.0" /><line stroke="rgb(0%,0%,0%)" stroke-width="2" x1="200.0" x2="200.0" y1="360.0" y2="420.0" /><line stroke="rgb(0%,0%,0%)" stroke-width="2" x1="210.0" x2="210.0" y1="360.0" y2="420.0" /><line stroke="rgb(0%,0%,0%)" stroke-width="2" x1="220.0" x2="220.0" y1="360.0" y2="420.0" /><line stroke="rgb(0%,0%,0%)" stroke-width="2" x1="230.0" x2="230.0" y1="360.0" y2="420.0" /><line stroke="rgb(0%,0%,0%)" stroke-width="2" x1="240.0" x2="240.0" y1="360.0" y2="420.0" /><line stroke="rgb(0%,0%,0%)" stroke-width="2" x1="250.0" x2="250.0" y1="360.0" y2="420.0" /><line stroke="rgb(0%,0%,0%)" stroke-width="2" x1="270.0" x2="270.0" y1="360.0" y2="420.0" /><text x="360.0" y="360.0">test</text><line stroke="rgb(0%,0%,0%)" stroke-width="2" x1="390.0" x2="420.0" y1="420.0" y2="420.0" /><line stroke="rgb(0%,0%,0%)" stroke-width="2" x1="390.0" x2="300.0" y1="420.0" y2="420.0" /><line stroke="rgb(0%,0%,0%)" stroke-width="2" x1="330.0" x2="420.0" y1="300.0" y2="300.0" /><line stroke="rgb(0%,0%,0%)" stroke-width="2" x1="330.0" x2="300.0" y1="300.0" y2="300.0" /><line stroke="rgb(0%,0%,0%)" stroke-width="2" x1="420.0" x2="420.0" y1="390.0" y2="420.0" /><line stroke="rgb(0%,0%,0%)" stroke-width="2" x1="420.0" x2="420.0" y1="390.0" y2="300.0" /><line stroke="rgb(0%,0%,0%)" stroke-width="2" x1="300.0" x2="300.0" y1="330.0" y2="300.0" /><line stroke="rgb(0%,0%,0%)" stroke-width="2" x1="300.0" x2="300.0" y1="330.0" y2="420.0" /><line stroke="rgb(0%,0%,0%)" stroke-width="2" x1="310.0" x2="310.0" y1="360.0" y2="420.0" /><line stroke="rgb(0%,0%,0%)" stroke-width="2" x1="320.0" x2="320.0" y1="360.0" y2="420.0" /><line stroke="rgb(0%,0%,0%)" stroke-width="2" x1="340.0" x2="340.0" y1="360.0" y2="420.0" /><line stroke="rgb(0%,0%,0%)" stroke-width="2" x1="350.0" x2="350.0" y1="360.0" y2="420.0" /><line stroke="rgb(0%,0%,0%)" stroke-width="2" x1="360.0" x2="360.0" y1="360.0" y2="420.0" /><line stroke="rgb(0%,0%,0%)" stroke-width="2" x1="370.0" x2="370.0" y1="360.0" y2="420.0" /><line stroke="rgb(0%,0%,0%)" stroke-width="2" x1="380.0" x2="380.0" y1="360.0" y2="420.0" /><line stroke="rgb(0%,0%,0%)" stroke-width="2" x1="400.0" x2="400.0" y1="360.0" y2="420.0" /><line stroke="rgb(0%,0%,0%)" stroke-width="2" x1="410.0" x2="410.0" y1="360.0" y2="420.0" /><text x="500.0" y="360.0">test</text><line stroke="rgb(0%,0%,0%)" stroke-width="2" x1="520.0" x2="560.0" y1="420.0" y2="420.0" /><line stroke="rgb(0%,0%,0%)" stroke-width="2" x1="520.0" x2="440.0" y1="420.0" y2="420.0" /><line stroke="rgb(0%,0%,0%)" stroke-width="2" x1="480.0" x2="560.0" y1="300.0" y2="300.0" /><line stroke="rgb(0%,0%,0%)" stroke-width="2" x1="480.0" x2="440.0" y1="300.0" y2="300.0" /><line stroke="rgb(0%,0%,0%)" stroke-width="2" x1="560.0" x2="560.0" y1="380.0" y2="420.0" /><line stroke="rgb(0%,0%,0%)" stroke-width="2" x1="560.0" x2="560.0" y1="380.0" y2="300.0" /><line stroke="rgb(0%,0%,0%)" stroke-width="2" x1="440.0" x2="440.0" y1="340.0" y2="300.0" /><line stroke="rgb(0%,0%,0%)" stroke-width="2" x1="440.0" x2="440.0" y1="340.0" y2="420.0" /><line stroke="rgb(0%,0%,0%)" stroke-width="2" x1="450.0" x2="450.0" y1="360.0" y2="420.0" /><line stroke="rgb(0%,0%,0%)" stroke-width="2" x1="460.0" x2="460.0" y1="360.0" y2="420.0" /><line stroke="rgb(0%,0%,0%)" stroke-width="2" x1="470.0" x2="470.0" y1="360.0" y2="420.0" /><line stroke="rgb(0%,0%,0%)" stroke-width="2" x1="490.0" x2="490.0" y1="360.0" y2="420.0" /><line stroke="rgb(0%,0%,0%)" stroke-width="2" x1="500.0" x2="500.0" y1="360.0" y2="420.0" /><line stroke="rgb(0%,0%,0%)" stroke-width="2" x1="510.0" x2="510.0" y1="360.0" y2="420.0" /><line stroke="rgb(0%,0%,0%)" stroke-width="2" x1="530.0" x2="530.0" y1="360.0" y2="420.0" /><line stroke="rgb(0%,0%,0%)" stroke-width="2" x1="540.0" x2="540.0" y1="360.0" y2="420.0" /><line stroke="rgb(0%,0%,0%)" stroke-width="2" x1="550.0" x2="550.0" y1="360.0" y2="420.0" /><text x="640.0" y="360.0">test</text><line stroke="rgb(0%,0%,0%)" stroke-width="2" x1="650.0" x2="700.0" y1="420.0" y2="420.0" /><line stroke="rgb(0%,0%,0%)" stroke-width="2" x1="650.0" x2="580.0" y1="420.0" y2="420.0" /><line stroke="rgb(0%,0%,0%)" stroke-width="2" x1="630.0" x2="700.0" y1="300.0" y2="300.0" /><line stroke="rgb(0%,0%,0%)" stroke-width="2" x1="630.0" x2="580.0" y1="300.0" y2="300.0" /><line stroke="rgb(0%,0%,0%)" stroke-width="2" x1="700.0" x2="700.0" y1="370.0" y2="420.0" /><line stroke="rgb(0%,0%,0%)" stroke-width="2" x1="700.0" x2="700.0" y1="370.0" y2="300.0" /><line stroke="rgb(0%,0%,0%)" stroke-width="2" x1="580.0" x2="580.0" y1="350.0" y2="300.0" /><line stroke="rgb(0%,0%,0%)" stroke-width="2" x1="580.0" x2="580.0" y1="350.0" y2="420.0" /><line stroke="rgb(0%,0%,0%)" stroke-width="2" x1="590.0" x2="590.0" y1="360.0" y2="420.0" /><line stroke="rgb(0%,0%,0%)" stroke-width="2" x1="600.0" x2="600.0" y1="360.0" y2="420.0" /><line stroke="rgb(0%,0%,0%)" stroke-width="2" x1="610.0" x2="610.0" y1="360.0" y2="420.0" /><line stroke="rgb(0%,0%,0%)" stroke-width="2" x1="620.0" x2="620.0" y1="360.0" y2="420.0" /><line stroke="rgb(0%,0%,0%)" stroke-width="2" x1="640.0" x2="640.0" y1="360.0" y2="420.0" /><line stroke="rgb(0%,0%,0%)" stroke-width="2" x1="660.0" x2="660.0" y1="360.0" y2="420.0" /><line stroke="rgb(0%,0%,0%)" stroke-width="2" x1="670.0" x2="670.0" y1="360.0" y2="420.0" /><line stroke="rgb(0%,0%,0%)" stroke-width="2" x1="680.0" x2="680.0" y1="360.0" y2="420.0" /><line stroke="rgb(0%,0%,0%)" stroke-width="2" x1="690.0" x2="690.0" y1="360.0" y2="420.0" /><text x="780.0" y="360.0">test</text><line stroke="rgb(0%,0%,0%)" stroke-width="2" x1="780.0" x2="840.0" y1="420.0" y2="420.0" /><line stroke="rgb(0%,0%,0%)" stroke-width="2" x1="780.0" x2="720.0" y1="420.0" y2="420.0" /><line stroke="rgb(0%,0%,0%)" stroke-width="2" x1="780.0" x2="840.0" y1="300.0" y2="300.0" /><line stroke="rgb(0%,0%,0%)" stroke-width="2" x1="780.0" x2="720.0" y1="300.0" y2="300.0" /><line stroke="rgb(0%,0%,0%)" stroke-width="2" x1="840.0" x2="840.0" y1="360.0" y2="420.0" /><line stroke="rgb(0%,0%,0%)" stroke-width="2" x1="840.0" x2="840.0" y1="360.0" y2="300.0" /><line stroke="rgb(0%,0%,0%)" stroke-width="2" x1="720.0" x2="720.0" y1="360.0" y2="300.0" /><line stroke="rgb(0%,0%,0%)" stroke-width="2" x1="720.0" x2="720.0" y1="360.0" y2="420.0" /><line stroke="rgb(0%,0%,0%)" stroke-width="2" x1="730.0" x2="730.0" y1="360.0" y2="420.0" /><line stroke="rgb(0%,0%,0%)" stroke-width="2" x1="740.0" x2="740.0" y1="360.0" y2="420.0" /><line stroke="rgb(0%,0%,0%)" stroke-width="2" x1="750.0" x2="750.0" y1="360.0" y2="420.0" /><line stroke="rgb(0%,0%,0%)" stroke-width="2" x1="760.0" x2="760.0" y1="360.0" y2="420.0" /><line stroke="rgb(0%,0%,0%)" stroke-width="2" x1="770.0" x2="770.0" y1="360.0" y2="420.0" /><line stroke="rgb(0%,0%,0%)" stroke-width="2" x1="780.0" x2="780.0" y1="300.0" y2="300.0" /><line stroke="rgb(0%,0%,0%)" stroke-width="2" x1="780.0" x2="780.0" y1="420.0" y2="420.0" /><line stroke="rgb(0%,0%,0%)" stroke-width="2" x1="790.0" x2="790.0" y1="360.0" y2="420.0" /><line stroke="rgb(0%,0%,0%)" stroke-width="2" x1="800.0" x2="800.0" y1="360.0" y2="420.0" /><line stroke="rgb(0%,0%,0%)" stroke-width="2" x1="810.0" x2="810.0" y1="360.0" y2="420.0" /><line stroke="rgb(0%,0%,0%)" stroke-width="2" x1="820.0" x2="820.0" y1="360.0" y2="420.0" /><line stroke="rgb(0%,0%,0%)" stroke-width="2" x1="830.0" x2="830.0" y1="360.0" y2="420.0" /><text x="80.0" y="500.0">test</text><line stroke="rgb(0%,0%,0%)" stroke-width="2" x1="70.0" x2="140.0" y1="560.0" y2="560.0" /><line stroke="rgb(0%,0%,0%)" stroke-width="2" x1="70.0" x2="20.0" y1="560.0" y2="560.0" /><line stroke="rgb(0%,0%,0%)" stroke-width="2" x1="90.0" x2="140.0" y1="440.0" y2="440.0" /><line stroke="rgb(0%,0%,0%)" stroke-width="2" x1="90.0" x2="20.0" y1="440.0" y2="440.0" /><line stroke="rgb(0%,0%,0%)" stroke-width="2" x1="140.0" x2="140.0" y1="490.0" y2="560.0" /><line stroke="rgb(0%,0%,0%)" stroke-width="2" x1="140.0" x2="140.0" y1="490.0" y2="440.0" /><line stroke="rgb(0%,0%,0%)" stroke-width="2" x1="20.0" x2="20.0" y1="510.0" y2="440.0" /><line stroke="rgb(0%,0%,0%)" stroke-width="2" x1="20.0" x2="20.0" y1="510.0" y2="560.0" /><line stroke="rgb(0%,0%,0%)" stroke-width="2" x1="30.0" x2="30.0" y1="500.0" y2="560.0" /><line stroke="rgb(0%,0%,0%)" stroke-width="2" x1="40.0" x2="40.0" y1="500.0" y2="560.0" /><line stroke="rgb(0%,0%,0%)" stroke-width="2" x1="50.0" x2="50.0" y1="500.0" y2="560.0" /><line stroke="rgb(0%,0%,0%)" stroke-width="2" x1="60.0" x2="60.0" y1="500.0" y2="560.0" /><line stroke="rgb(0%,0%,0%)" stroke-width="2" x1="80.0" x2="80.0" y1="500.0" y2="560.0" /><line stroke="rgb(0%,0%,0%)" stroke-width="2" x1="100.0" x2="100.0" y1="500.0" y2="560.0" /><line stroke="rgb(0%,0%,0%)" stroke-width="2" x1="110.0" x2="110.0" y1="500.0" y2="560.0" /><line stroke="rgb(0%,0%,0%)" stroke-width="2" x1="120.0" x2="120.0" y1="500.0" y2="560.0" /><line stroke="rgb(0%,0%,0%)" stroke-width="2" x1="130.0" x2="130.0" y1="500.0" y2="560.0" /><text x="220.0" y="500.0">test</text><line stroke="rgb(0%,0%,0%)" stroke-width="2" x1="200.0" x2="280.0" y1="560.0" y2="560.0" /><line stroke="rgb(0%,0%,0%)" stroke-width="2" x1="200.0" x2="160.0" y1="560.0" y2="560.0" /><line stroke="rgb(0%,0%,0%)" stroke-width="2" x1="240.0" x2="280.0" y1="440.0" y2="440.0" /><line stroke="rgb(0%,0%,0%)" stroke-width="2" x1="240.0" x2="160.0" y1="440.0" y2="440.0" /><line stroke="rgb(0%,0%,0%)" stroke-width="2" x1="280.0" x2="280.0" y1="480.0" y2="560.0" /><line stroke="rgb(0%,0%,0%)" stroke-width="2" x1="280.0" x2="280.0" y1="480.0" y2="440.0" /><line stroke="rgb(0%,0%,0%)" stroke-width="2" x1="160.0" x2="160.0" y1="520.0" y2="440.0" /><line stroke="rgb(0%,0%,0%)" stroke-width="2" x1="160.0" x2="160.0" y1="520.0" y2="560.0" /><line stroke="rgb(0%,0%,0%)" stroke-width="2" x1="170.0" x2="170.0" y1="500.0" y2="560.0" /><line stroke="rgb(0%,0%,0%)" stroke-width="2" x1="180.0" x2="180.0" y1="500.0" y2="560.0" /><line stroke="rgb(0%,0%,0%)" stroke-width="2" x1="190.0" x2="190.0" y1="500.0" y2="560.0" /><line stroke="rgb(0%,0%,0%)" stroke-width="2" x1="210.0" x2="210.0" y1="500.0" y2="560.0" /><line stroke="rgb(0%,0%,0%)" stroke-width="2" x1="220.0" x2="220.0" y1="500.0" y2="560.0" /><line stroke="rgb(0%,0%,0%)" stroke-width="2" x1="230.0" x2="230.0" y1="500.0" y2="560.0" /><line stroke="rgb(0%,0%,0%)" stroke-width="2" x1="250.0" x2="250.0" y1="500.0" y2="560.0" /><line stroke="rgb(0%,0%,0%)" stroke-width="2" x1="260.0" x2="260.0" y1="500.0" y2="560.0" /><line stroke="rgb(0%,0%,0%)" stroke-width="2" x1="270.0" x2="270.0" y1="500.0" y2="560.0" /><text x="360.0" y="500.0">test</text><line stroke="rgb(0%,0%,0%)" stroke-width="2" x1="330.0" x2="420.0" y1="560.0" y2="560.0" /><line stroke="rgb(0%,0%,0%)" stroke-width="2" x1="330.0" x2="300.0" y1="560.0" y2="560.0" /><line stroke="rgb(0%,0%,0%)" stroke-width="2" x1="390.0" x2="420.0" y1="440.0" y2="440.0" /><line stroke="rgb(0%,0%,0%)" stroke-width="2" x1="390.0" x2="300.0" y1="440.0" y2="440.0" /><line stroke="rgb(0%,0%,0%)" stroke-width="2" x1="420.0" x2="420.0" y1="470.0" y2="560.0" /><line stroke="rgb(0%,0%,0%)" stroke-width="2" x1="420.0" x2="420.0" y1="470.0" y2="440.0" /><line stroke="rgb(0%,0%,0%)" stroke-width="2" x1="300.0" x2="300.0" y1="530.0" y2="440.0" /><line stroke="rgb(0%,0%,0%)" stroke-width="2" x1="300.0" x2="300.0" y1="530.0" y2="560.0" /><line stroke="rgb(0%,0%,0%)" stroke-width="2" x1="310.0" x2="310.0" y1="500.0" y2="560.0" /><line stroke="rgb(0%,0%,0%)" stroke-width="2" x1="320.0" x2="320.0" y1="500.0" y2="560.0" /><line stroke="rgb(0%,0%,0%)" stroke-width="2" x1="340.0" x2="340.0" y1="500.0" y2="560.0" /><line stroke="rgb(0%,0%,0%)" stroke-width="2" x1="350.0" x2="350.0" y1="500.0" y2="560.0" /><line stroke="rgb(0%,0%,0%)" stroke-width="2" x1="360.0" x2="360.0" y1="500.0" y2="560.0" /><line stroke="rgb(0%,0%,0%)" stroke-width="2" x1="370.0" x2="370.0" y1="500.0" y2="560.0" /><line stroke="rgb(0%,0%,0%)" stroke-width="2" x1="380.0" x2="380.0" y1="500.0" y2="560.0" /><line stroke="rgb(0%,0%,0%)" stroke-width="2" x1="400.0" x2="400.0" y1="500.0" y2="560.0" /><line stroke="rgb(0%,0%,0%)" stroke-width="2" x1="410.0" x2="410.0" y1="500.0" y2="560.0" /><text x="500.0" y="500.0">test</text><line stroke="rgb(0%,0%,0%)" stroke-width="2" x1="460.0" x2="560.0" y1="560.0" y2="560.0" /><line stroke="rgb(0%,0%,0%)" stroke-width="2" x1="460.0" x2="440.0" y1="560.0" y2="560.0" /><line stroke="rgb(0%,0%,0%)" stroke-width="2" x1="540.0" x2="560.0" y1="440.0" y2="440.0" /><line stroke="rgb(0%,0%,0%)" stroke-width="2" x1="540.0" x2="440.0" y1="440.0" y2="440.0" /><line stroke="rgb(0%,0%,0%)" stroke-width="2" x1="560.0" x2="560.0" y1="460.0" y2="560.0" /><line stroke="rgb(0%,0%,0%)" stroke-width="2" x1="560.0" x2="560.0" y1="460.0" y2="440.0" /><line stroke="rgb(0%,0%,0%)" stroke-width="2" x1="440.0" x2="440.0" y1="540.0" y2="440.0" /><line stroke="rgb(0%,0%,0%)" stroke-width="2" x1="440.0" x2="440.0" y1="540.0" y2="560.0" /><line stroke="rgb(0%,0%,0%)" stroke-width="2" x1="450.0" x2="450.0" y1="500.0" y2="560.0" /><line stroke="rgb(0%,0%,0%)" stroke-width="2" x1="470.0" x2="470.0" y1="500.0" y2="560.0" /><line stroke="rgb(0%,0%,0%)" stroke-width="2" x1="480.0" x2="480.0" y1="500.0" y2="560.0" /><line stroke="rgb(0%,0%,0%)" stroke-width="2" x1="490.0" x2="490.0" y1="500.0" y2="560.0" /><line stroke="rgb(0%,0%,0%)" stroke-width="2" x1="500.0" x2="500.0" y1="500.0" y2="560.0" /><line stroke="rgb(0%,0%,0%)" stroke-width="2" x1="510.0" x2="510.0" y1="500.0" y2="560.0" /><line stroke="rgb(0%,0%,0%)" stroke-width="2" x1="520.0" x2="520.0" y1="500.0" y2="560.0" /><line stroke="rgb(0%,0%,0%)" stroke-width="2" x1="530.0" x2="530.0" y1="500.0" y2="560.0" /><line stroke="rgb(0%,0%,0%)" stroke-width="2" x1="550.0" x2="550.0" y1="500.0" y2="560.0" /><text x="640.0" y="500.0">test</text><line stroke="rgb(0%,0%,0%)" stroke-width="2" x1="590.0" x2="700.0" y1="560.0" y2="560.0" /><line stroke="rgb(0%,0%,0%)" stroke-width="2" x1="590.0" x2="580.0" y1="560.0" y2="560.0" /><line stroke="rgb(0%,0%,0%)" stroke-width="2" x1="690.0" x2="700.0" y1="440.0" y2="440.0" /><line stroke="rgb(0%,0%,0%)" stroke-width="2" x1="690.0" x2="580.0" y1="440.0" y2="440.0" /><line stroke="rgb(0%,0%,0%)" stroke-width="2" x1="700.0" x2="700.0" y1="450.0" y2="560.0" /><line stroke="rgb(0%,0%,0%)" stroke-width="2" x1="700.0" x2="700.0" y1="450.0" y2="440.0" /><line stroke="rgb(0%,0%,0%)" stroke-width="2" x1="580.0" x2="580.0" y1="550.0" y2="440.0" /><line stroke="rgb(0%,0%,0%)" stroke-width="2" x1="580.0" x2="580.0" y1="550.0" y2="560.0" /><line stroke="rgb(0%,0%,0%)" stroke-width="2" x1="600.0" x2="600.0" y1="500.0" y2="560.0" /><line stroke="rgb(0%,0%,0%)" stroke-width="2" x1="610.0" x2="610.0" y1="500.0" y2="560.0" /><line stroke="rgb(0%,0%,0%)" stroke-width="2" x1="620.0" x2="620.0" y1="500.0" y2="560.0" /><line stroke="rgb(0%,0%,0%)" stroke-width="2" x1="630.0" x2="630.0" y1="500.0" y2="560.0" /><line stroke="rgb(0%,0%,0%)" stroke-width="2" x1="640.0" x2="640.0" y1="500.0" y2="560.0" /><line stroke="rgb(0%,0%,0%)" stroke-width="2" x1="650.0" x2="650.0" y1="500.0" y2="560.0" /><line stroke="rgb(0%,0%,0%)" stroke-width="2" x1="660.0" x2="660.0" y1="500.0" y2="560.0" /><line stroke="rgb(0%,0%,0%)" stroke-width="2" x1="670.0" x2="670.0" y1="500.0" y2="560.0" /><line stroke="rgb(0%,0%,0%)" stroke-width="2" x1="680.0" x2="680.0" y1="500.0" y2="560.0" /></svg>