<?xml version="1.0" encoding="utf-8" ?>
<svg baseProfile="full" height="100%" version="1.1" width="100%" xmlns="http://www.w3.org/2000/svg" xmlns:ev="http://www.w3.org/2001/xml-events" xmlns:xlink="http://www.w3.org/1999/xlink"><defs /><text font-family="Verdana" font-size="12" style="fill: #ff0000; width:1000px; color:red; font-weight:100;" text-anchor="middle" x="50.0" y="50.0">X2</text><line stroke="rgb(0%,0%,0%)" stroke-width="2" x1="73.3333333333" x2="80.0" y1="80.0" y2="80.0" /><line stroke="rgb(0%,0%,0%)" stroke-width="2" x1="73.3333333333" x2="20.0" y1="80.0" y2="80.0" /><line stroke="rgb(0%,0%,0%)" stroke-width="2" x1="26.6666666667" x2="20.0" y1="20.0" y2="20.0" /><line stroke="rgb(0%,0%,0%)" stroke-width="2" x1="26.6666666667" x2="80.0" y1="20.0" y2="20.0" /><line stroke="rgb(0%,0%,0%)" stroke-width="2" x1="20.0" x2="20.0" y1="26.6666666667" y2="80.0" /><line stroke="rgb(0%,0%,0%)" stroke-width="2" x1="20.0" x2="20.0" y1="26.6666666667" y2="20.0" /><line stroke="rgb(0%,0%,0%)" stroke-width="2" x1="80.0" x2="80.0" y1="73.3333333333" y2="80.0" /><line stroke="rgb(0%,0%,0%)" stroke-width="2" x1="80.0" x2="80.0" y1="73.3333333333" y2="20.0" /><text font-family="Verdana" font-size="10" style="fill: #ff0000; width:1000px; color:red; font-weight:50;" text-anchor="middle" x="26.6666666667" y="35.0">2</text><text font-family="Verdana" font-size="10" style="fill: #ff0000; width:1000px; color:red; font-weight:50;" text-anchor="middle" x="33.3333333333" y="35.0">3</text><text font-family="Verdana" font-size="10" style="fill: #ff0000; width:1000px; color:red; font-weight:50;" text-anchor="middle" x="40.0" y="35.0">4</text><text font-family="Verdana" font-size="10" style="fill: #ff0000; width:1000px; color:red; font-weight:50;" text-anchor="middle" x="46.6666666667" y="35.0">5</text><text font-family="Verdana" font-size="10" style="fill: #ff0000; width:1000px; color:red; font-weight:50;" text-anchor="middle" x="53.3333333333" y="35.0">6</text><text font-family="Verdana" font-size="10" style="fill: #ff0000; width:1000px; color:red; font-weight:50;" text-anchor="middle" x="60.0" y="35.0">7</text><text font-family="Verdana" font-size="10" style="fill: #ff0000; width:1000px; color:red; font-weight:50;" text-anchor="middle" x="66.6666666667" y="35.0">8</text><text font-family="Verdana" font-size="10" style="fill: #ff0000; width:1000px; color:red; font-weight:50;" text-anchor="middle" x="73.3333333333" y="35.0">9</text><line stroke="rgb(0%,0%,0%)" stroke-width="2" x1="26.6666666667" x2="26.6666666667" y1="20.0" y2="50.0" /><line stroke="rgb(0%,0%,0%)" stroke-width="2" x1="33.3333333333" x2="33.3333333333" y1="20.0" y2="50.0" /><line stroke="rgb(0%,0%,0%)" stroke-width="2" x1="40.0" x2="40.0" y1="20.0" y2="50.0" /><line stroke="rgb(0%,0%,0%)" stroke-width="2" x1="46.6666666667" x2="46.6666666667" y1="20.0" y2="50.0" /><line stroke="rgb(0%,0%,0%)" stroke-width="2" x1="53.3333333333" x2="53.3333333333" y1="20.0" y2="50.0" /><line stroke="rgb(0%,0%,0%)" stroke-width="2" x1="60.0" x2="60.0" y1="20.0" y2="50.0" /><line stroke="rgb(0%,0%,0%)" stroke-width="2" x1="66.6666666667" x2="66.6666666667" y1="20.0" y2="50.0" /><line stroke="rgb(0%,0%,0%)" stroke-width="2" x1="73.3333333333" x2="73.3333333333" y1="20.0" y2="50.0" /><text font-family="Verdana" font-size="12" style="fill: #ff0000; width:1000px; color:red; font-weight:100;" text-anchor="middle" x="130.0" y="50.0">X3</text><line stroke="rgb(0%,0%,0%)" stroke-width="2" x1="146.666666667" x2="160.0" y1="80.0" y2="80.0" /><line stroke="rgb(0%,0%,0%)" stroke-width="2" x1="146.666666667" x2="100.0" y1="80.0" y2="80.0" /><line stroke="rgb(0%,0%,0%)" stroke-width="2" x1="113.333333333" x2="100.0" y1="20.0" y2="20.0" /><line stroke="rgb(0%,0%,0%)" stroke-width="2" x1="113.333333333" x2="160.0" y1="20.0" y2="20.0" /><line stroke="rgb(0%,0%,0%)" stroke-width="2" x1="100.0" x2="100.0" y1="33.3333333333" y2="80.0" /><line stroke="rgb(0%,0%,0%)" stroke-width="2" x1="100.0" x2="100.0" y1="33.3333333333" y2="20.0" /><line stroke="rgb(0%,0%,0%)" stroke-width="2" x1="160.0" x2="160.0" y1="66.6666666667" y2="80.0" /><line stroke="rgb(0%,0%,0%)" stroke-width="2" x1="160.0" x2="160.0" y1="66.6666666667" y2="20.0" /><text font-family="Verdana" font-size="10" style="fill: #ff0000; width:1000px; color:red; font-weight:50;" text-anchor="middle" x="106.666666667" y="35.0">2</text><text font-family="Verdana" font-size="10" style="fill: #ff0000; width:1000px; color:red; font-weight:50;" text-anchor="middle" x="113.333333333" y="35.0">3</text><text font-family="Verdana" font-size="10" style="fill: #ff0000; width:1000px; color:red; font-weight:50;" text-anchor="middle" x="120.0" y="35.0">4</text><text font-family="Verdana" font-size="10" style="fill: #ff0000; width:1000px; color:red; font-weight:50;" text-anchor="middle" x="126.666666667" y="35.0">5</text><text font-family="Verdana" font-size="10" style="fill: #ff0000; width:1000px; color:red; font-weight:50;" text-anchor="middle" x="133.333333333" y="35.0">6</text><text font-family="Verdana" font-size="10" style="fill: #ff0000; width:1000px; color:red; font-weight:50;" text-anchor="middle" x="140.0" y="35.0">7</text><text font-family="Verdana" font-size="10" style="fill: #ff0000; width:1000px; color:red; font-weight:50;" text-anchor="middle" x="146.666666667" y="35.0">8</text><text font-family="Verdana" font-size="10" style="fill: #ff0000; width:1000px; color:red; font-weight:50;" text-anchor="middle" x="153.333333333" y="35.0">9</text><line stroke="rgb(0%,0%,0%)" stroke-width="2" x1="106.666666667" x2="106.666666667" y1="20.0" y2="50.0" /><line stroke="rgb(0%,0%,0%)" stroke-width="2" x1="113.333333333" x2="113.333333333" y1="20.0" y2="50.0" /><line stroke="rgb(0%,0%,0%)" stroke-width="2" x1="120.0" x2="120.0" y1="20.0" y2="50.0" /><line stroke="rgb(0%,0%,0%)" stroke-width="2" x1="126.666666667" x2="126.666666667" y1="20.0" y2="50.0" /><line stroke="rgb(0%,0%,0%)" stroke-width="2" x1="133.333333333" x2="133.333333333" y1="20.0" y2="50.0" /><line stroke="rgb(0%,0%,0%)" stroke-width="2" x1="140.0" x2="140.0" y1="20.0" y2="50.0" /><line stroke="rgb(0%,0%,0%)" stroke-width="2" x1="146.666666667" x2="146.666666667" y1="20.0" y2="50.0" /><line stroke="rgb(0%,0%,0%)" stroke-width="2" x1="153.333333333" x2="153.333333333" y1="20.0" y2="50.0" /><text font-family="Verdana" font-size="12" style="fill: #ff0000; width:1000px; color:red; font-weight:100;" text-anchor="middle" x="210.0" y="50.0">X4</text><line stroke="rgb(0%,0%,0%)" stroke-width="2" x1="220.0" x2="240.0" y1="80.0" y2="80.0" /><line stroke="rgb(0%,0%,0%)" stroke-width="2" x1="220.0" x2="180.0" y1="80.0" y2="80.0" /><line stroke="rgb(0%,0%,0%)" stroke-width="2" x1="200.0" x2="180.0" y1="20.0" y2="20.0" /><line stroke="rgb(0%,0%,0%)" stroke-width="2" x1="200.0" x2="240.0" y1="20.0" y2="20.0" /><line stroke="rgb(0%,0%,0%)" stroke-width="2" x1="180.0" x2="180.0" y1="40.0" y2="80.0" /><line stroke="rgb(0%,0%,0%)" stroke-width="2" x1="180.0" x2="180.0" y1="40.0" y2="20.0" /><line stroke="rgb(0%,0%,0%)" stroke-width="2" x1="240.0" x2="240.0" y1="60.0" y2="80.0" /><line stroke="rgb(0%,0%,0%)" stroke-width="2" x1="240.0" x2="240.0" y1="60.0" y2="20.0" /><text font-family="Verdana" font-size="10" style="fill: #ff0000; width:1000px; color:red; font-weight:50;" text-anchor="middle" x="186.666666667" y="35.0">2</text><text font-family="Verdana" font-size="10" style="fill: #ff0000; width:1000px; color:red; font-weight:50;" text-anchor="middle" x="193.333333333" y="35.0">3</text><text font-family="Verdana" font-size="10" style="fill: #ff0000; width:1000px; color:red; font-weight:50;" text-anchor="middle" x="200.0" y="35.0">4</text><text font-family="Verdana" font-size="10" style="fill: #ff0000; width:1000px; color:red; font-weight:50;" text-anchor="middle" x="206.666666667" y="35.0">5</text><text font-family="Verdana" font-size="10" style="fill: #ff0000; width:1000px; color:red; font-weight:50;" text-anchor="middle" x="213.333333333" y="35.0">6</text><text font-family="Verdana" font-size="10" style="fill: #ff0000; width:1000px; color:red; font-weight:50;" text-anchor="middle" x="220.0" y="35.0">7</text><text font-family="Verdana" font-size="10" style="fill: #ff0000; width:1000px; color:red; font-weight:50;" text-anchor="middle" x="226.666666667" y="35.0">8</text><text font-family="Verdana" font-size="10" style="fill: #ff0000; width:1000px; color:red; font-weight:50;" text-anchor="middle" x="233.333333333" y="35.0">9</text><line stroke="rgb(0%,0%,0%)" stroke-width="2" x1="186.666666667" x2="186.666666667" y1="20.0" y2="50.0" /><line stroke="rgb(0%,0%,0%)" stroke-width="2" x1="193.333333333" x2="193.333333333" y1="20.0" y2="50.0" /><line stroke="rgb(0%,0%,0%)" stroke-width="2" x1="200.0" x2="200.0" y1="20.0" y2="50.0" /><line stroke="rgb(0%,0%,0%)" stroke-width="2" x1="206.666666667" x2="206.666666667" y1="20.0" y2="50.0" /><line stroke="rgb(0%,0%,0%)" stroke-width="2" x1="213.333333333" x2="213.333333333" y1="20.0" y2="50.0" /><line stroke="rgb(0%,0%,0%)" stroke-width="2" x1="220.0" x2="220.0" y1="20.0" y2="50.0" /><line stroke="rgb(0%,0%,0%)" stroke-width="2" x1="226.666666667" x2="226.666666667" y1="20.0" y2="50.0" /><line stroke="rgb(0%,0%,0%)" stroke-width="2" x1="233.333333333" x2="233.333333333" y1="20.0" y2="50.0" /><text font-family="Verdana" font-size="12" style="fill: #ff0000; width:1000px; color:red; font-weight:100;" text-anchor="middle" x="290.0" y="50.0">X5</text><line stroke="rgb(0%,0%,0%)" stroke-width="2" x1="293.333333333" x2="320.0" y1="80.0" y2="80.0" /><line stroke="rgb(0%,0%,0%)" stroke-width="2" x1="293.333333333" x2="260.0" y1="80.0" y2="80.0" /><line stroke="rgb(0%,0%,0%)" stroke-width="2" x1="286.666666667" x2="260.0" y1="20.0" y2="20.0" /><line stroke="rgb(0%,0%,0%)" stroke-width="2" x1="286.666666667" x2="320.0" y1="20.0" y2="20.0" /><line stroke="rgb(0%,0%,0%)" stroke-width="2" x1="260.0" x2="260.0" y1="46.6666666667" y2="80.0" /><line stroke="rgb(0%,0%,0%)" stroke-width="2" x1="260.0" x2="260.0" y1="46.6666666667" y2="20.0" /><line stroke="rgb(0%,0%,0%)" stroke-width="2" x1="320.0" x2="320.0" y1="53.3333333333" y2="80.0" /><line stroke="rgb(0%,0%,0%)" stroke-width="2" x1="320.0" x2="320.0" y1="53.3333333333" y2="20.0" /><text font-family="Verdana" font-size="10" style="fill: #ff0000; width:1000px; color:red; font-weight:50;" text-anchor="middle" x="266.666666667" y="35.0">2</text><text font-family="Verdana" font-size="10" style="fill: #ff0000; width:1000px; color:red; font-weight:50;" text-anchor="middle" x="273.333333333" y="35.0">3</text><text font-family="Verdana" font-size="10" style="fill: #ff0000; width:1000px; color:red; font-weight:50;" text-anchor="middle" x="280.0" y="35.0">4</text><text font-family="Verdana" font-size="10" style="fill: #ff0000; width:1000px; color:red; font-weight:50;" text-anchor="middle" x="286.666666667" y="35.0">5</text><text font-family="Verdana" font-size="10" style="fill: #ff0000; width:1000px; color:red; font-weight:50;" text-anchor="middle" x="293.333333333" y="35.0">6</text><text font-family="Verdana" font-size="10" style="fill: #ff0000; width:1000px; color:red; font-weight:50;" text-anchor="middle" x="300.0" y="35.0">7</text><text font-family="Verdana" font-size="10" style="fill: #ff0000; width:1000px; color:red; font-weight:50;" text-anchor="middle" x="306.666666667" y="35.0">8</text><text font-family="Verdana" font-size="10" style="fill: #ff0000; width:1000px; color:red; font-weight:50;" text-anchor="middle" x="313.333333333" y="35.0">9</text><line stroke="rgb(0%,0%,0%)" stroke-width="2" x1="266.666666667" x2="266.666666667" y1="20.0" y2="50.0" /><line stroke="rgb(0%,0%,0%)" stroke-width="2" x1="273.333333333" x2="273.333333333" y1="20.0" y2="50.0" /><line stroke="rgb(0%,0%,0%)" stroke-width="2" x1="280.0" x2="280.0" y1="20.0" y2="50.0" /><line stroke="rgb(0%,0%,0%)" stroke-width="2" x1="286.666666667" x2="286.666666667" y1="20.0" y2="50.0" /><line stroke="rgb(0%,0%,0%)" stroke-width="2" x1="293.333333333" x2="293.333333333" y1="20.0" y2="50.0" /><line stroke="rgb(0%,0%,0%)" stroke-width="2" x1="300.0" x2="300.0" y1="20.0" y2="50.0" /><line stroke="rgb(0%,0%,0%)" stroke-width="2" x1="306.666666667" x2="306.666666667" y1="20.0" y2="50.0" /><line stroke="rgb(0%,0%,0%)" stroke-width="2" x1="313.333333333" x2="313.333333333" y1="20.0" y2="50.0" /><text font-family="Verdana" font-size="12" style="fill: #ff0000; width:1000px; color:red; font-weight:100;" text-anchor="middle" x="370.0" y="50.0">X6</text><line stroke="rgb(0%,0%,0%)" stroke-width="2" x1="366.666666667" x2="400.0" y1="80.0" y2="80.0" /><line stroke="rgb(0%,0%,0%)" stroke-width="2" x1="366.666666667" x2="340.0" y1="80.0" y2="80.0" /><line stroke="rgb(0%,0%,0%)" stroke-width="2" x1="373.333333333" x2="340.0" y1="20.0" y2="20.0" /><line stroke="rgb(0%,0%,0%)" stroke-width="2" x1="373.333333333" x2="400.0" y1="20.0" y2="20.0" /><line stroke="rgb(0%,0%,0%)" stroke-width="2" x1="340.0" x2="340.0" y1="53.3333333333" y2="80.0" /><line stroke="rgb(0%,0%,0%)" stroke-width="2" x1="340.0" x2="340.0" y1="53.3333333333" y2="20.0" /><line stroke="rgb(0%,0%,0%)" stroke-width="2" x1="400.0" x2="400.0" y1="46.6666666667" y2="80.0" /><line stroke="rgb(0%,0%,0%)" stroke-width="2" x1="400.0" x2="400.0" y1="46.6666666667" y2="20.0" /><text font-family="Verdana" font-size="10" style="fill: #ff0000; width:1000px; color:red; font-weight:50;" text-anchor="middle" x="346.666666667" y="35.0">2</text><text font-family="Verdana" font-size="10" style="fill: #ff0000; width:1000px; color:red; font-weight:50;" text-anchor="middle" x="353.333333333" y="35.0">3</text><text font-family="Verdana" font-size="10" style="fill: #ff0000; width:1000px; color:red; font-weight:50;" text-anchor="middle" x="360.0" y="35.0">4</text><text font-family="Verdana" font-size="10" style="fill: #ff0000; width:1000px; color:red; font-weight:50;" text-anchor="middle" x="366.666666667" y="35.0">5</text><text font-family="Verdana" font-size="10" style="fill: #ff0000; width:1000px; color:red; font-weight:50;" text-anchor="middle" x="380.0" y="35.0">7</text><text font-family="Verdana" font-size="10" style="fill: #ff0000; width:1000px; color:red; font-weight:50;" text-anchor="middle" x="386.666666667" y="35.0">8</text><text font-family="Verdana" font-size="10" style="fill: #ff0000; width:1000px; color:red; font-weight:50;" text-anchor="middle" x="393.333333333" y="35.0">9</text><line stroke="rgb(0%,0%,0%)" stroke-width="2" x1="346.666666667" x2="346.666666667" y1="20.0" y2="50.0" /><line stroke="rgb(0%,0%,0%)" stroke-width="2" x1="353.333333333" x2="353.333333333" y1="20.0" y2="50.0" /><line stroke="rgb(0%,0%,0%)" stroke-width="2" x1="360.0" x2="360.0" y1="20.0" y2="50.0" /><line stroke="rgb(0%,0%,0%)" stroke-width="2" x1="366.666666667" x2="366.666666667" y1="20.0" y2="50.0" /><line stroke="rgb(0%,0%,0%)" stroke-width="2" x1="380.0" x2="380.0" y1="20.0" y2="50.0" /><line stroke="rgb(0%,0%,0%)" stroke-width="2" x1="386.666666667" x2="386.666666667" y1="20.0" y2="50.0" /><line stroke="rgb(0%,0%,0%)" stroke-width="2" x1="393.333333333" x2="393.333333333" y1="20.0" y2="50.0" /><text font-family="Verdana" font-size="12" style="fill: #ff0000; width:1000px; color:red; font-weight:100;" text-anchor="middle" x="450.0" y="50.0">X7</text><line stroke="rgb(0%,0%,0%)" stroke-width="2" x1="440.0" x2="480.0" y1="80.0" y2="80.0" /><line stroke="rgb(0%,0%,0%)" stroke-width="2" x1="440.0" x2="420.0" y1="80.0" y2="80.0" /><line stroke="rgb(0%,0%,0%)" stroke-width="2" x1="460.0" x2="420.0" y1="20.0" y2="20.0" /><line stroke="rgb(0%,0%,0%)" stroke-width="2" x1="460.0" x2="480.0" y1="20.0" y2="20.0" /><line stroke="rgb(0%,0%,0%)" stroke-width="2" x1="420.0" x2="420.0" y1="60.0" y2="80.0" /><line stroke="rgb(0%,0%,0%)" stroke-width="2" x1="420.0" x2="420.0" y1="60.0" y2="20.0" /><line stroke="rgb(0%,0%,0%)" stroke-width="2" x1="480.0" x2="480.0" y1="40.0" y2="80.0" /><line stroke="rgb(0%,0%,0%)" stroke-width="2" x1="480.0" x2="480.0" y1="40.0" y2="20.0" /><text font-family="Verdana" font-size="10" style="fill: #ff0000; width:1000px; color:red; font-weight:50;" text-anchor="middle" x="426.666666667" y="35.0">2</text><text font-family="Verdana" font-size="10" style="fill: #ff0000; width:1000px; color:red; font-weight:50;" text-anchor="middle" x="433.333333333" y="35.0">3</text><text font-family="Verdana" font-size="10" style="fill: #ff0000; width:1000px; color:red; font-weight:50;" text-anchor="middle" x="440.0" y="35.0">4</text><text font-family="Verdana" font-size="10" style="fill: #ff0000; width:1000px; color:red; font-weight:50;" text-anchor="middle" x="446.666666667" y="35.0">5</text><text font-family="Verdana" font-size="10" style="fill: #ff0000; width:1000px; color:red; font-weight:50;" text-anchor="middle" x="453.333333333" y="35.0">6</text><text font-family="Verdana" font-size="10" style="fill: #ff0000; width:1000px; color:red; font-weight:50;" text-anchor="middle" x="460.0" y="35.0">7</text><text font-family="Verdana" font-size="10" style="fill: #ff0000; width:1000px; color:red; font-weight:50;" text-anchor="middle" x="466.666666667" y="35.0">8</text><text font-family="Verdana" font-size="10" style="fill: #ff0000; width:1000px; color:red; font-weight:50;" text-anchor="middle" x="473.333333333" y="35.0">9</text><line stroke="rgb(0%,0%,0%)" stroke-width="2" x1="426.666666667" x2="426.666666667" y1="20.0" y2="50.0" /><line stroke="rgb(0%,0%,0%)" stroke-width="2" x1="433.333333333" x2="433.333333333" y1="20.0" y2="50.0" /><line stroke="rgb(0%,0%,0%)" stroke-width="2" x1="440.0" x2="440.0" y1="20.0" y2="50.0" /><line stroke="rgb(0%,0%,0%)" stroke-width="2" x1="446.666666667" x2="446.666666667" y1="20.0" y2="50.0" /><line stroke="rgb(0%,0%,0%)" stroke-width="2" x1="453.333333333" x2="453.333333333" y1="20.0" y2="50.0" /><line stroke="rgb(0%,0%,0%)" stroke-width="2" x1="460.0" x2="460.0" y1="20.0" y2="50.0" /><line stroke="rgb(0%,0%,0%)" stroke-width="2" x1="466.666666667" x2="466.666666667" y1="20.0" y2="50.0" /><line stroke="rgb(0%,0%,0%)" stroke-width="2" x1="473.333333333" x2="473.333333333" y1="20.0" y2="50.0" /><text font-family="Verdana" font-size="12" style="fill: #ff0000; width:1000px; color:red; font-weight:100;" text-anchor="middle" x="530.0" y="50.0">X8</text><line stroke="rgb(0%,0%,0%)" stroke-width="2" x1="513.333333333" x2="560.0" y1="80.0" y2="80.0" /><line stroke="rgb(0%,0%,0%)" stroke-width="2" x1="513.333333333" x2="500.0" y1="80.0" y2="80.0" /><line stroke="rgb(0%,0%,0%)" stroke-width="2" x1="546.666666667" x2="500.0" y1="20.0" y2="20.0" /><line stroke="rgb(0%,0%,0%)" stroke-width="2" x1="546.666666667" x2="560.0" y1="20.0" y2="20.0" /><line stroke="rgb(0%,0%,0%)" stroke-width="2" x1="500.0" x2="500.0" y1="66.6666666667" y2="80.0" /><line stroke="rgb(0%,0%,0%)" stroke-width="2" x1="500.0" x2="500.0" y1="66.6666666667" y2="20.0" /><line stroke="rgb(0%,0%,0%)" stroke-width="2" x1="560.0" x2="560.0" y1="33.3333333333" y2="80.0" /><line stroke="rgb(0%,0%,0%)" stroke-width="2" x1="560.0" x2="560.0" y1="33.3333333333" y2="20.0" /><text font-family="Verdana" font-size="10" style="fill: #ff0000; width:1000px; color:red; font-weight:50;" text-anchor="middle" x="506.666666667" y="35.0">2</text><text font-family="Verdana" font-size="10" style="fill: #ff0000; width:1000px; color:red; font-weight:50;" text-anchor="middle" x="513.333333333" y="35.0">3</text><text font-family="Verdana" font-size="10" style="fill: #ff0000; width:1000px; color:red; font-weight:50;" text-anchor="middle" x="520.0" y="35.0">4</text><text font-family="Verdana" font-size="10" style="fill: #ff0000; width:1000px; color:red; font-weight:50;" text-anchor="middle" x="526.666666667" y="35.0">5</text><text font-family="Verdana" font-size="10" style="fill: #ff0000; width:1000px; color:red; font-weight:50;" text-anchor="middle" x="533.333333333" y="35.0">6</text><text font-family="Verdana" font-size="10" style="fill: #ff0000; width:1000px; color:red; font-weight:50;" text-anchor="middle" x="540.0" y="35.0">7</text><text font-family="Verdana" font-size="10" style="fill: #ff0000; width:1000px; color:red; font-weight:50;" text-anchor="middle" x="546.666666667" y="35.0">8</text><text font-family="Verdana" font-size="10" style="fill: #ff0000; width:1000px; color:red; font-weight:50;" text-anchor="middle" x="553.333333333" y="35.0">9</text><line stroke="rgb(0%,0%,0%)" stroke-width="2" x1="506.666666667" x2="506.666666667" y1="20.0" y2="50.0" /><line stroke="rgb(0%,0%,0%)" stroke-width="2" x1="513.333333333" x2="513.333333333" y1="20.0" y2="50.0" /><line stroke="rgb(0%,0%,0%)" stroke-width="2" x1="520.0" x2="520.0" y1="20.0" y2="50.0" /><line stroke="rgb(0%,0%,0%)" stroke-width="2" x1="526.666666667" x2="526.666666667" y1="20.0" y2="50.0" /><line stroke="rgb(0%,0%,0%)" stroke-width="2" x1="533.333333333" x2="533.333333333" y1="20.0" y2="50.0" /><line stroke="rgb(0%,0%,0%)" stroke-width="2" x1="540.0" x2="540.0" y1="20.0" y2="50.0" /><line stroke="rgb(0%,0%,0%)" stroke-width="2" x1="546.666666667" x2="546.666666667" y1="20.0" y2="50.0" /><line stroke="rgb(0%,0%,0%)" stroke-width="2" x1="553.333333333" x2="553.333333333" y1="20.0" y2="50.0" /><text font-family="Verdana" font-size="12" style="fill: #ff0000; width:1000px; color:red; font-weight:100;" text-anchor="middle" x="610.0" y="50.0">X9</text><line stroke="rgb(0%,0%,0%)" stroke-width="2" x1="586.666666667" x2="640.0" y1="80.0" y2="80.0" /><line stroke="rgb(0%,0%,0%)" stroke-width="2" x1="586.666666667" x2="580.0" y1="80.0" y2="80.0" /><line stroke="rgb(0%,0%,0%)" stroke-width="2" x1="633.333333333" x2="580.0" y1="20.0" y2="20.0" /><line stroke="rgb(0%,0%,0%)" stroke-width="2" x1="633.333333333" x2="640.0" y1="20.0" y2="20.0" /><line stroke="rgb(0%,0%,0%)" stroke-width="2" x1="580.0" x2="580.0" y1="73.3333333333" y2="80.0" /><line stroke="rgb(0%,0%,0%)" stroke-width="2" x1="580.0" x2="580.0" y1="73.3333333333" y2="20.0" /><line stroke="rgb(0%,0%,0%)" stroke-width="2" x1="640.0" x2="640.0" y1="26.6666666667" y2="80.0" /><line stroke="rgb(0%,0%,0%)" stroke-width="2" x1="640.0" x2="640.0" y1="26.6666666667" y2="20.0" /><text font-family="Verdana" font-size="10" style="fill: #ff0000; width:1000px; color:red; font-weight:50;" text-anchor="middle" x="586.666666667" y="35.0">2</text><text font-family="Verdana" font-size="10" style="fill: #ff0000; width:1000px; color:red; font-weight:50;" text-anchor="middle" x="593.333333333" y="35.0">3</text><text font-family="Verdana" font-size="10" style="fill: #ff0000; width:1000px; color:red; font-weight:50;" text-anchor="middle" x="600.0" y="35.0">4</text><text font-family="Verdana" font-size="10" style="fill: #ff0000; width:1000px; color:red; font-weight:50;" text-anchor="middle" x="606.666666667" y="35.0">5</text><text font-family="Verdana" font-size="10" style="fill: #ff0000; width:1000px; color:red; font-weight:50;" text-anchor="middle" x="613.333333333" y="35.0">6</text><text font-family="Verdana" font-size="10" style="fill: #ff0000; width:1000px; color:red; font-weight:50;" text-anchor="middle" x="620.0" y="35.0">7</text><text font-family="Verdana" font-size="10" style="fill: #ff0000; width:1000px; color:red; font-weight:50;" text-anchor="middle" x="626.666666667" y="35.0">8</text><text font-family="Verdana" font-size="10" style="fill: #ff0000; width:1000px; color:red; font-weight:50;" text-anchor="middle" x="633.333333333" y="35.0">9</text><line stroke="rgb(0%,0%,0%)" stroke-width="2" x1="586.666666667" x2="586.666666667" y1="20.0" y2="50.0" /><line stroke="rgb(0%,0%,0%)" stroke-width="2" x1="593.333333333" x2="593.333333333" y1="20.0" y2="50.0" /><line stroke="rgb(0%,0%,0%)" stroke-width="2" x1="600.0" x2="600.0" y1="20.0" y2="50.0" /><line stroke="rgb(0%,0%,0%)" stroke-width="2" x1="606.666666667" x2="606.666666667" y1="20.0" y2="50.0" /><line stroke="rgb(0%,0%,0%)" stroke-width="2" x1="613.333333333" x2="613.333333333" y1="20.0" y2="50.0" /><line stroke="rgb(0%,0%,0%)" stroke-width="2" x1="620.0" x2="620.0" y1="20.0" y2="50.0" /><line stroke="rgb(0%,0%,0%)" stroke-width="2" x1="626.666666667" x2="626.666666667" y1="20.0" y2="50.0" /><line stroke="rgb(0%,0%,0%)" stroke-width="2" x1="633.333333333" x2="633.333333333" y1="20.0" y2="50.0" /><text font-family="Verdana" font-size="12" style="fill: #ff0000; width:1000px; color:red; font-weight:100;" text-anchor="middle" x="690.0" y="50.0">Y2</text><line stroke="rgb(0%,0%,0%)" stroke-width="2" x1="713.333333333" x2="720.0" y1="80.0" y2="80.0" /><line stroke="rgb(0%,0%,0%)" stroke-width="2" x1="713.333333333" x2="660.0" y1="80.0" y2="80.0" /><line stroke="rgb(0%,0%,0%)" stroke-width="2" x1="666.666666667" x2="720.0" y1="20.0" y2="20.0" /><line stroke="rgb(0%,0%,0%)" stroke-width="2" x1="666.666666667" x2="660.0" y1="20.0" y2="20.0" /><line stroke="rgb(0%,0%,0%)" stroke-width="2" x1="720.0" x2="720.0" y1="73.3333333333" y2="80.0" /><line stroke="rgb(0%,0%,0%)" stroke-width="2" x1="720.0" x2="720.0" y1="73.3333333333" y2="20.0" /><line stroke="rgb(0%,0%,0%)" stroke-width="2" x1="660.0" x2="660.0" y1="26.6666666667" y2="20.0" /><line stroke="rgb(0%,0%,0%)" stroke-width="2" x1="660.0" x2="660.0" y1="26.6666666667" y2="80.0" /><text font-family="Verdana" font-size="10" style="fill: #ff0000; width:1000px; color:red; font-weight:50;" text-anchor="middle" x="666.666666667" y="65.0">2</text><text font-family="Verdana" font-size="10" style="fill: #ff0000; width:1000px; color:red; font-weight:50;" text-anchor="middle" x="673.333333333" y="65.0">3</text><text font-family="Verdana" font-size="10" style="fill: #ff0000; width:1000px; color:red; font-weight:50;" text-anchor="middle" x="680.0" y="65.0">4</text><text font-family="Verdana" font-size="10" style="fill: #ff0000; width:1000px; color:red; font-weight:50;" text-anchor="middle" x="686.666666667" y="65.0">5</text><text font-family="Verdana" font-size="10" style="fill: #ff0000; width:1000px; color:red; font-weight:50;" text-anchor="middle" x="693.333333333" y="65.0">6</text><text font-family="Verdana" font-size="10" style="fill: #ff0000; width:1000px; color:red; font-weight:50;" text-anchor="middle" x="700.0" y="65.0">7</text><text font-family="Verdana" font-size="10" style="fill: #ff0000; width:1000px; color:red; font-weight:50;" text-anchor="middle" x="706.666666667" y="65.0">8</text><text font-family="Verdana" font-size="10" style="fill: #ff0000; width:1000px; color:red; font-weight:50;" text-anchor="middle" x="713.333333333" y="65.0">9</text><line stroke="rgb(0%,0%,0%)" stroke-width="2" x1="666.666666667" x2="666.666666667" y1="50.0" y2="80.0" /><line stroke="rgb(0%,0%,0%)" stroke-width="2" x1="673.333333333" x2="673.333333333" y1="50.0" y2="80.0" /><line stroke="rgb(0%,0%,0%)" stroke-width="2" x1="680.0" x2="680.0" y1="50.0" y2="80.0" /><line stroke="rgb(0%,0%,0%)" stroke-width="2" x1="686.666666667" x2="686.666666667" y1="50.0" y2="80.0" /><line stroke="rgb(0%,0%,0%)" stroke-width="2" x1="693.333333333" x2="693.333333333" y1="50.0" y2="80.0" /><line stroke="rgb(0%,0%,0%)" stroke-width="2" x1="700.0" x2="700.0" y1="50.0" y2="80.0" /><line stroke="rgb(0%,0%,0%)" stroke-width="2" x1="706.666666667" x2="706.666666667" y1="50.0" y2="80.0" /><line stroke="rgb(0%,0%,0%)" stroke-width="2" x1="713.333333333" x2="713.333333333" y1="50.0" y2="80.0" /><text font-family="Verdana" font-size="12" style="fill: #ff0000; width:1000px; color:red; font-weight:100;" text-anchor="middle" x="770.0" y="50.0">Y3</text><line stroke="rgb(0%,0%,0%)" stroke-width="2" x1="786.666666667" x2="800.0" y1="80.0" y2="80.0" /><line stroke="rgb(0%,0%,0%)" stroke-width="2" x1="786.666666667" x2="740.0" y1="80.0" y2="80.0" /><line stroke="rgb(0%,0%,0%)" stroke-width="2" x1="753.333333333" x2="800.0" y1="20.0" y2="20.0" /><line stroke="rgb(0%,0%,0%)" stroke-width="2" x1="753.333333333" x2="740.0" y1="20.0" y2="20.0" /><line stroke="rgb(0%,0%,0%)" stroke-width="2" x1="800.0" x2="800.0" y1="66.6666666667" y2="80.0" /><line stroke="rgb(0%,0%,0%)" stroke-width="2" x1="800.0" x2="800.0" y1="66.6666666667" y2="20.0" /><line stroke="rgb(0%,0%,0%)" stroke-width="2" x1="740.0" x2="740.0" y1="33.3333333333" y2="20.0" /><line stroke="rgb(0%,0%,0%)" stroke-width="2" x1="740.0" x2="740.0" y1="33.3333333333" y2="80.0" /><text font-family="Verdana" font-size="10" style="fill: #ff0000; width:1000px; color:red; font-weight:50;" text-anchor="middle" x="746.666666667" y="65.0">2</text><text font-family="Verdana" font-size="10" style="fill: #ff0000; width:1000px; color:red; font-weight:50;" text-anchor="middle" x="753.333333333" y="65.0">3</text><text font-family="Verdana" font-size="10" style="fill: #ff0000; width:1000px; color:red; font-weight:50;" text-anchor="middle" x="760.0" y="65.0">4</text><text font-family="Verdana" font-size="10" style="fill: #ff0000; width:1000px; color:red; font-weight:50;" text-anchor="middle" x="766.666666667" y="65.0">5</text><text font-family="Verdana" font-size="10" style="fill: #ff0000; width:1000px; color:red; font-weight:50;" text-anchor="middle" x="773.333333333" y="65.0">6</text><text font-family="Verdana" font-size="10" style="fill: #ff0000; width:1000px; color:red; font-weight:50;" text-anchor="middle" x="780.0" y="65.0">7</text><text font-family="Verdana" font-size="10" style="fill: #ff0000; width:1000px; color:red; font-weight:50;" text-anchor="middle" x="786.666666667" y="65.0">8</text><text font-family="Verdana" font-size="10" style="fill: #ff0000; width:1000px; color:red; font-weight:50;" text-anchor="middle" x="793.333333333" y="65.0">9</text><line stroke="rgb(0%,0%,0%)" stroke-width="2" x1="746.666666667" x2="746.666666667" y1="50.0" y2="80.0" /><line stroke="rgb(0%,0%,0%)" stroke-width="2" x1="753.333333333" x2="753.333333333" y1="50.0" y2="80.0" /><line stroke="rgb(0%,0%,0%)" stroke-width="2" x1="760.0" x2="760.0" y1="50.0" y2="80.0" /><line stroke="rgb(0%,0%,0%)" stroke-width="2" x1="766.666666667" x2="766.666666667" y1="50.0" y2="80.0" /><line stroke="rgb(0%,0%,0%)" stroke-width="2" x1="773.333333333" x2="773.333333333" y1="50.0" y2="80.0" /><line stroke="rgb(0%,0%,0%)" stroke-width="2" x1="780.0" x2="780.0" y1="50.0" y2="80.0" /><line stroke="rgb(0%,0%,0%)" stroke-width="2" x1="786.666666667" x2="786.666666667" y1="50.0" y2="80.0" /><line stroke="rgb(0%,0%,0%)" stroke-width="2" x1="793.333333333" x2="793.333333333" y1="50.0" y2="80.0" /><text font-family="Verdana" font-size="12" style="fill: #ff0000; width:1000px; color:red; font-weight:100;" text-anchor="middle" x="50.0" y="130.0">Y4</text><line stroke="rgb(0%,0%,0%)" stroke-width="2" x1="60.0" x2="80.0" y1="160.0" y2="160.0" /><line stroke="rgb(0%,0%,0%)" stroke-width="2" x1="60.0" x2="20.0" y1="160.0" y2="160.0" /><line stroke="rgb(0%,0%,0%)" stroke-width="2" x1="40.0" x2="80.0" y1="100.0" y2="100.0" /><line stroke="rgb(0%,0%,0%)" stroke-width="2" x1="40.0" x2="20.0" y1="100.0" y2="100.0" /><line stroke="rgb(0%,0%,0%)" stroke-width="2" x1="80.0" x2="80.0" y1="140.0" y2="160.0" /><line stroke="rgb(0%,0%,0%)" stroke-width="2" x1="80.0" x2="80.0" y1="140.0" y2="100.0" /><line stroke="rgb(0%,0%,0%)" stroke-width="2" x1="20.0" x2="20.0" y1="120.0" y2="100.0" /><line stroke="rgb(0%,0%,0%)" stroke-width="2" x1="20.0" x2="20.0" y1="120.0" y2="160.0" /><text font-family="Verdana" font-size="10" style="fill: #ff0000; width:1000px; color:red; font-weight:50;" text-anchor="middle" x="26.6666666667" y="145.0">2</text><text font-family="Verdana" font-size="10" style="fill: #ff0000; width:1000px; color:red; font-weight:50;" text-anchor="middle" x="33.3333333333" y="145.0">3</text><text font-family="Verdana" font-size="10" style="fill: #ff0000; width:1000px; color:red; font-weight:50;" text-anchor="middle" x="40.0" y="145.0">4</text><text font-family="Verdana" font-size="10" style="fill: #ff0000; width:1000px; color:red; font-weight:50;" text-anchor="middle" x="46.6666666667" y="145.0">5</text><text font-family="Verdana" font-size="10" style="fill: #ff0000; width:1000px; color:red; font-weight:50;" text-anchor="middle" x="53.3333333333" y="145.0">6</text><text font-family="Verdana" font-size="10" style="fill: #ff0000; width:1000px; color:red; font-weight:50;" text-anchor="middle" x="60.0" y="145.0">7</text><text font-family="Verdana" font-size="10" style="fill: #ff0000; width:1000px; color:red; font-weight:50;" text-anchor="middle" x="66.6666666667" y="145.0">8</text><text font-family="Verdana" font-size="10" style="fill: #ff0000; width:1000px; color:red; font-weight:50;" text-anchor="middle" x="73.3333333333" y="145.0">9</text><line stroke="rgb(0%,0%,0%)" stroke-width="2" x1="26.6666666667" x2="26.6666666667" y1="130.0" y2="160.0" /><line stroke="rgb(0%,0%,0%)" stroke-width="2" x1="33.3333333333" x2="33.3333333333" y1="130.0" y2="160.0" /><line stroke="rgb(0%,0%,0%)" stroke-width="2" x1="40.0" x2="40.0" y1="130.0" y2="160.0" /><line stroke="rgb(0%,0%,0%)" stroke-width="2" x1="46.6666666667" x2="46.6666666667" y1="130.0" y2="160.0" /><line stroke="rgb(0%,0%,0%)" stroke-width="2" x1="53.3333333333" x2="53.3333333333" y1="130.0" y2="160.0" /><line stroke="rgb(0%,0%,0%)" stroke-width="2" x1="60.0" x2="60.0" y1="130.0" y2="160.0" /><line stroke="rgb(0%,0%,0%)" stroke-width="2" x1="66.6666666667" x2="66.6666666667" y1="130.0" y2="160.0" /><line stroke="rgb(0%,0%,0%)" stroke-width="2" x1="73.3333333333" x2="73.3333333333" y1="130.0" y2="160.0" /><text font-family="Verdana" font-size="12" style="fill: #ff0000; width:1000px; color:red; font-weight:100;" text-anchor="middle" x="130.0" y="130.0">Y5</text><line stroke="rgb(0%,0%,0%)" stroke-width="2" x1="133.333333333" x2="160.0" y1="160.0" y2="160.0" /><line stroke="rgb(0%,0%,0%)" stroke-width="2" x1="133.333333333" x2="100.0" y1="160.0" y2="160.0" /><line stroke="rgb(0%,0%,0%)" stroke-width="2" x1="126.666666667" x2="160.0" y1="100.0" y2="100.0" /><line stroke="rgb(0%,0%,0%)" stroke-width="2" x1="126.666666667" x2="100.0" y1="100.0" y2="100.0" /><line stroke="rgb(0%,0%,0%)" stroke-width="2" x1="160.0" x2="160.0" y1="133.333333333" y2="160.0" /><line stroke="rgb(0%,0%,0%)" stroke-width="2" x1="160.0" x2="160.0" y1="133.333333333" y2="100.0" /><line stroke="rgb(0%,0%,0%)" stroke-width="2" x1="100.0" x2="100.0" y1="126.666666667" y2="100.0" /><line stroke="rgb(0%,0%,0%)" stroke-width="2" x1="100.0" x2="100.0" y1="126.666666667" y2="160.0" /><text font-family="Verdana" font-size="10" style="fill: #ff0000; width:1000px; color:red; font-weight:50;" text-anchor="middle" x="106.666666667" y="145.0">2</text><text font-family="Verdana" font-size="10" style="fill: #ff0000; width:1000px; color:red; font-weight:50;" text-anchor="middle" x="113.333333333" y="145.0">3</text><text font-family="Verdana" font-size="10" style="fill: #ff0000; width:1000px; color:red; font-weight:50;" text-anchor="middle" x="120.0" y="145.0">4</text><text font-family="Verdana" font-size="10" style="fill: #ff0000; width:1000px; color:red; font-weight:50;" text-anchor="middle" x="126.666666667" y="145.0">5</text><text font-family="Verdana" font-size="10" style="fill: #ff0000; width:1000px; color:red; font-weight:50;" text-anchor="middle" x="133.333333333" y="145.0">6</text><text font-family="Verdana" font-size="10" style="fill: #ff0000; width:1000px; color:red; font-weight:50;" text-anchor="middle" x="140.0" y="145.0">7</text><text font-family="Verdana" font-size="10" style="fill: #ff0000; width:1000px; color:red; font-weight:50;" text-anchor="middle" x="146.666666667" y="145.0">8</text><text font-family="Verdana" font-size="10" style="fill: #ff0000; width:1000px; color:red; font-weight:50;" text-anchor="middle" x="153.333333333" y="145.0">9</text><line stroke="rgb(0%,0%,0%)" stroke-width="2" x1="106.666666667" x2="106.666666667" y1="130.0" y2="160.0" /><line stroke="rgb(0%,0%,0%)" stroke-width="2" x1="113.333333333" x2="113.333333333" y1="130.0" y2="160.0" /><line stroke="rgb(0%,0%,0%)" stroke-width="2" x1="120.0" x2="120.0" y1="130.0" y2="160.0" /><line stroke="rgb(0%,0%,0%)" stroke-width="2" x1="126.666666667" x2="126.666666667" y1="130.0" y2="160.0" /><line stroke="rgb(0%,0%,0%)" stroke-width="2" x1="133.333333333" x2="133.333333333" y1="130.0" y2="160.0" /><line stroke="rgb(0%,0%,0%)" stroke-width="2" x1="140.0" x2="140.0" y1="130.0" y2="160.0" /><line stroke="rgb(0%,0%,0%)" stroke-width="2" x1="146.666666667" x2="146.666666667" y1="130.0" y2="160.0" /><line stroke="rgb(0%,0%,0%)" stroke-width="2" x1="153.333333333" x2="153.333333333" y1="130.0" y2="160.0" /><text font-family="Verdana" font-size="12" style="fill: #ff0000; width:1000px; color:red; font-weight:100;" text-anchor="middle" x="210.0" y="130.0">Y6</text><line stroke="rgb(0%,0%,0%)" stroke-width="2" x1="206.666666667" x2="240.0" y1="160.0" y2="160.0" /><line stroke="rgb(0%,0%,0%)" stroke-width="2" x1="206.666666667" x2="180.0" y1="160.0" y2="160.0" /><line stroke="rgb(0%,0%,0%)" stroke-width="2" x1="213.333333333" x2="240.0" y1="100.0" y2="100.0" /><line stroke="rgb(0%,0%,0%)" stroke-width="2" x1="213.333333333" x2="180.0" y1="100.0" y2="100.0" /><line stroke="rgb(0%,0%,0%)" stroke-width="2" x1="240.0" x2="240.0" y1="126.666666667" y2="160.0" /><line stroke="rgb(0%,0%,0%)" stroke-width="2" x1="240.0" x2="240.0" y1="126.666666667" y2="100.0" /><line stroke="rgb(0%,0%,0%)" stroke-width="2" x1="180.0" x2="180.0" y1="133.333333333" y2="100.0" /><line stroke="rgb(0%,0%,0%)" stroke-width="2" x1="180.0" x2="180.0" y1="133.333333333" y2="160.0" /><text font-family="Verdana" font-size="10" style="fill: #ff0000; width:1000px; color:red; font-weight:50;" text-anchor="middle" x="186.666666667" y="145.0">2</text><text font-family="Verdana" font-size="10" style="fill: #ff0000; width:1000px; color:red; font-weight:50;" text-anchor="middle" x="193.333333333" y="145.0">3</text><text font-family="Verdana" font-size="10" style="fill: #ff0000; width:1000px; color:red; font-weight:50;" text-anchor="middle" x="200.0" y="145.0">4</text><text font-family="Verdana" font-size="10" style="fill: #ff0000; width:1000px; color:red; font-weight:50;" text-anchor="middle" x="206.666666667" y="145.0">5</text><text font-family="Verdana" font-size="10" style="fill: #ff0000; width:1000px; color:red; font-weight:50;" text-anchor="middle" x="220.0" y="145.0">7</text><text font-family="Verdana" font-size="10" style="fill: #ff0000; width:1000px; color:red; font-weight:50;" text-anchor="middle" x="226.666666667" y="145.0">8</text><text font-family="Verdana" font-size="10" style="fill: #ff0000; width:1000px; color:red; font-weight:50;" text-anchor="middle" x="233.333333333" y="145.0">9</text><line stroke="rgb(0%,0%,0%)" stroke-width="2" x1="186.666666667" x2="186.666666667" y1="130.0" y2="160.0" /><line stroke="rgb(0%,0%,0%)" stroke-width="2" x1="193.333333333" x2="193.333333333" y1="130.0" y2="160.0" /><line stroke="rgb(0%,0%,0%)" stroke-width="2" x1="200.0" x2="200.0" y1="130.0" y2="160.0" /><line stroke="rgb(0%,0%,0%)" stroke-width="2" x1="206.666666667" x2="206.666666667" y1="130.0" y2="160.0" /><line stroke="rgb(0%,0%,0%)" stroke-width="2" x1="220.0" x2="220.0" y1="130.0" y2="160.0" /><line stroke="rgb(0%,0%,0%)" stroke-width="2" x1="226.666666667" x2="226.666666667" y1="130.0" y2="160.0" /><line stroke="rgb(0%,0%,0%)" stroke-width="2" x1="233.333333333" x2="233.333333333" y1="130.0" y2="160.0" /><text font-family="Verdana" font-size="12" style="fill: #ff0000; width:1000px; color:red; font-weight:100;" text-anchor="middle" x="290.0" y="130.0">Y7</text><line stroke="rgb(0%,0%,0%)" stroke-width="2" x1="280.0" x2="320.0" y1="160.0" y2="160.0" /><line stroke="rgb(0%,0%,0%)" stroke-width="2" x1="280.0" x2="260.0" y1="160.0" y2="160.0" /><line stroke="rgb(0%,0%,0%)" stroke-width="2" x1="300.0" x2="320.0" y1="100.0" y2="100.0" /><line stroke="rgb(0%,0%,0%)" stroke-width="2" x1="300.0" x2="260.0" y1="100.0" y2="100.0" /><line stroke="rgb(0%,0%,0%)" stroke-width="2" x1="320.0" x2="320.0" y1="120.0" y2="160.0" /><line stroke="rgb(0%,0%,0%)" stroke-width="2" x1="320.0" x2="320.0" y1="120.0" y2="100.0" /><line stroke="rgb(0%,0%,0%)" stroke-width="2" x1="260.0" x2="260.0" y1="140.0" y2="100.0" /><line stroke="rgb(0%,0%,0%)" stroke-width="2" x1="260.0" x2="260.0" y1="140.0" y2="160.0" /><text font-family="Verdana" font-size="10" style="fill: #ff0000; width:1000px; color:red; font-weight:50;" text-anchor="middle" x="266.666666667" y="145.0">2</text><text font-family="Verdana" font-size="10" style="fill: #ff0000; width:1000px; color:red; font-weight:50;" text-anchor="middle" x="273.333333333" y="145.0">3</text><text font-family="Verdana" font-size="10" style="fill: #ff0000; width:1000px; color:red; font-weight:50;" text-anchor="middle" x="280.0" y="145.0">4</text><text font-family="Verdana" font-size="10" style="fill: #ff0000; width:1000px; color:red; font-weight:50;" text-anchor="middle" x="286.666666667" y="145.0">5</text><text font-family="Verdana" font-size="10" style="fill: #ff0000; width:1000px; color:red; font-weight:50;" text-anchor="middle" x="293.333333333" y="145.0">6</text><text font-family="Verdana" font-size="10" style="fill: #ff0000; width:1000px; color:red; font-weight:50;" text-anchor="middle" x="300.0" y="145.0">7</text><text font-family="Verdana" font-size="10" style="fill: #ff0000; width:1000px; color:red; font-weight:50;" text-anchor="middle" x="306.666666667" y="145.0">8</text><text font-family="Verdana" font-size="10" style="fill: #ff0000; width:1000px; color:red; font-weight:50;" text-anchor="middle" x="313.333333333" y="145.0">9</text><line stroke="rgb(0%,0%,0%)" stroke-width="2" x1="266.666666667" x2="266.666666667" y1="130.0" y2="160.0" /><line stroke="rgb(0%,0%,0%)" stroke-width="2" x1="273.333333333" x2="273.333333333" y1="130.0" y2="160.0" /><line stroke="rgb(0%,0%,0%)" stroke-width="2" x1="280.0" x2="280.0" y1="130.0" y2="160.0" /><line stroke="rgb(0%,0%,0%)" stroke-width="2" x1="286.666666667" x2="286.666666667" y1="130.0" y2="160.0" /><line stroke="rgb(0%,0%,0%)" stroke-width="2" x1="293.333333333" x2="293.333333333" y1="130.0" y2="160.0" /><line stroke="rgb(0%,0%,0%)" stroke-width="2" x1="300.0" x2="300.0" y1="130.0" y2="160.0" /><line stroke="rgb(0%,0%,0%)" stroke-width="2" x1="306.666666667" x2="306.666666667" y1="130.0" y2="160.0" /><line stroke="rgb(0%,0%,0%)" stroke-width="2" x1="313.333333333" x2="313.333333333" y1="130.0" y2="160.0" /><text font-family="Verdana" font-size="12" style="fill: #ff0000; width:1000px; color:red; font-weight:100;" text-anchor="middle" x="370.0" y="130.0">Y8</text><line stroke="rgb(0%,0%,0%)" stroke-width="2" x1="353.333333333" x2="400.0" y1="160.0" y2="160.0" /><line stroke="rgb(0%,0%,0%)" stroke-width="2" x1="353.333333333" x2="340.0" y1="160.0" y2="160.0" /><line stroke="rgb(0%,0%,0%)" stroke-width="2" x1="386.666666667" x2="400.0" y1="100.0" y2="100.0" /><line stroke="rgb(0%,0%,0%)" stroke-width="2" x1="386.666666667" x2="340.0" y1="100.0" y2="100.0" /><line stroke="rgb(0%,0%,0%)" stroke-width="2" x1="400.0" x2="400.0" y1="113.333333333" y2="160.0" /><line stroke="rgb(0%,0%,0%)" stroke-width="2" x1="400.0" x2="400.0" y1="113.333333333" y2="100.0" /><line stroke="rgb(0%,0%,0%)" stroke-width="2" x1="340.0" x2="340.0" y1="146.666666667" y2="100.0" /><line stroke="rgb(0%,0%,0%)" stroke-width="2" x1="340.0" x2="340.0" y1="146.666666667" y2="160.0" /><text font-family="Verdana" font-size="10" style="fill: #ff0000; width:1000px; color:red; font-weight:50;" text-anchor="middle" x="346.666666667" y="145.0">2</text><text font-family="Verdana" font-size="10" style="fill: #ff0000; width:1000px; color:red; font-weight:50;" text-anchor="middle" x="353.333333333" y="145.0">3</text><text font-family="Verdana" font-size="10" style="fill: #ff0000; width:1000px; color:red; font-weight:50;" text-anchor="middle" x="360.0" y="145.0">4</text><text font-family="Verdana" font-size="10" style="fill: #ff0000; width:1000px; color:red; font-weight:50;" text-anchor="middle" x="366.666666667" y="145.0">5</text><text font-family="Verdana" font-size="10" style="fill: #ff0000; width:1000px; color:red; font-weight:50;" text-anchor="middle" x="373.333333333" y="145.0">6</text><text font-family="Verdana" font-size="10" style="fill: #ff0000; width:1000px; color:red; font-weight:50;" text-anchor="middle" x="380.0" y="145.0">7</text><text font-family="Verdana" font-size="10" style="fill: #ff0000; width:1000px; color:red; font-weight:50;" text-anchor="middle" x="386.666666667" y="145.0">8</text><text font-family="Verdana" font-size="10" style="fill: #ff0000; width:1000px; color:red; font-weight:50;" text-anchor="middle" x="393.333333333" y="145.0">9</text><line stroke="rgb(0%,0%,0%)" stroke-width="2" x1="346.666666667" x2="346.666666667" y1="130.0" y2="160.0" /><line stroke="rgb(0%,0%,0%)" stroke-width="2" x1="353.333333333" x2="353.333333333" y1="130.0" y2="160.0" /><line stroke="rgb(0%,0%,0%)" stroke-width="2" x1="360.0" x2="360.0" y1="130.0" y2="160.0" /><line stroke="rgb(0%,0%,0%)" stroke-width="2" x1="366.666666667" x2="366.666666667" y1="130.0" y2="160.0" /><line stroke="rgb(0%,0%,0%)" stroke-width="2" x1="373.333333333" x2="373.333333333" y1="130.0" y2="160.0" /><line stroke="rgb(0%,0%,0%)" stroke-width="2" x1="380.0" x2="380.0" y1="130.0" y2="160.0" /><line stroke="rgb(0%,0%,0%)" stroke-width="2" x1="386.666666667" x2="386.666666667" y1="130.0" y2="160.0" /><line stroke="rgb(0%,0%,0%)" stroke-width="2" x1="393.333333333" x2="393.333333333" y1="130.0" y2="160.0" /><text font-family="Verdana" font-size="12" style="fill: #ff0000; width:1000px; color:red; font-weight:100;" text-anchor="middle" x="450.0" y="130.0">Y9</text><line stroke="rgb(0%,0%,0%)" stroke-width="2" x1="426.666666667" x2="480.0" y1="160.0" y2="160.0" /><line stroke="rgb(0%,0%,0%)" stroke-width="2" x1="426.666666667" x2="420.0" y1="160.0" y2="160.0" /><line stroke="rgb(0%,0%,0%)" stroke-width="2" x1="473.333333333" x2="480.0" y1="100.0" y2="100.0" /><line stroke="rgb(0%,0%,0%)" stroke-width="2" x1="473.333333333" x2="420.0" y1="100.0" y2="100.0" /><line stroke="rgb(0%,0%,0%)" stroke-width="2" x1="480.0" x2="480.0" y1="106.666666667" y2="160.0" /><line stroke="rgb(0%,0%,0%)" stroke-width="2" x1="480.0" x2="480.0" y1="106.666666667" y2="100.0" /><line stroke="rgb(0%,0%,0%)" stroke-width="2" x1="420.0" x2="420.0" y1="153.333333333" y2="100.0" /><line stroke="rgb(0%,0%,0%)" stroke-width="2" x1="420.0" x2="420.0" y1="153.333333333" y2="160.0" /><text font-family="Verdana" font-size="10" style="fill: #ff0000; width:1000px; color:red; font-weight:50;" text-anchor="middle" x="426.666666667" y="145.0">2</text><text font-family="Verdana" font-size="10" style="fill: #ff0000; width:1000px; color:red; font-weight:50;" text-anchor="middle" x="433.333333333" y="145.0">3</text><text font-family="Verdana" font-size="10" style="fill: #ff0000; width:1000px; color:red; font-weight:50;" text-anchor="middle" x="440.0" y="145.0">4</text><text font-family="Verdana" font-size="10" style="fill: #ff0000; width:1000px; color:red; font-weight:50;" text-anchor="middle" x="446.666666667" y="145.0">5</text><text font-family="Verdana" font-size="10" style="fill: #ff0000; width:1000px; color:red; font-weight:50;" text-anchor="middle" x="453.333333333" y="145.0">6</text><text font-family="Verdana" font-size="10" style="fill: #ff0000; width:1000px; color:red; font-weight:50;" text-anchor="middle" x="460.0" y="145.0">7</text><text font-family="Verdana" font-size="10" style="fill: #ff0000; width:1000px; color:red; font-weight:50;" text-anchor="middle" x="466.666666667" y="145.0">8</text><text font-family="Verdana" font-size="10" style="fill: #ff0000; width:1000px; color:red; font-weight:50;" text-anchor="middle" x="473.333333333" y="145.0">9</text><line stroke="rgb(0%,0%,0%)" stroke-width="2" x1="426.666666667" x2="426.666666667" y1="130.0" y2="160.0" /><line stroke="rgb(0%,0%,0%)" stroke-width="2" x1="433.333333333" x2="433.333333333" y1="130.0" y2="160.0" /><line stroke="rgb(0%,0%,0%)" stroke-width="2" x1="440.0" x2="440.0" y1="130.0" y2="160.0" /><line stroke="rgb(0%,0%,0%)" stroke-width="2" x1="446.666666667" x2="446.666666667" y1="130.0" y2="160.0" /><line stroke="rgb(0%,0%,0%)" stroke-width="2" x1="453.333333333" x2="453.333333333" y1="130.0" y2="160.0" /><line stroke="rgb(0%,0%,0%)" stroke-width="2" x1="460.0" x2="460.0" y1="130.0" y2="160.0" /><line stroke="rgb(0%,0%,0%)" stroke-width="2" x1="466.666666667" x2="466.666666667" y1="130.0" y2="160.0" /><line stroke="rgb(0%,0%,0%)" stroke-width="2" x1="473.333333333" x2="473.333333333" y1="130.0" y2="160.0" /></svg>