<?xml version="1.0" encoding="utf-8" ?>
<svg baseProfile="full" height="100%" version="1.1" width="100%" xmlns="http://www.w3.org/2000/svg" xmlns:ev="http://www.w3.org/2001/xml-events" xmlns:xlink="http://www.w3.org/1999/xlink"><defs /><text font-family="Verdana" style="fill: #ff0000; width:1000px; color:red; text-size:15; font-weight:100;" text-anchor="middle" x="80.0" y="80.0">X=2</text><line stroke="rgb(0%,0%,0%)" stroke-width="2" x1="120.0" x2="140.0" y1="140.0" y2="140.0" /><line stroke="rgb(0%,0%,0%)" stroke-width="2" x1="120.0" x2="20.0" y1="140.0" y2="140.0" /><line stroke="rgb(0%,0%,0%)" stroke-width="2" x1="40.0" x2="20.0" y1="20.0" y2="20.0" /><line stroke="rgb(0%,0%,0%)" stroke-width="2" x1="40.0" x2="140.0" y1="20.0" y2="20.0" /><line stroke="rgb(0%,0%,0%)" stroke-width="2" x1="20.0" x2="20.0" y1="40.0" y2="140.0" /><line stroke="rgb(0%,0%,0%)" stroke-width="2" x1="20.0" x2="20.0" y1="40.0" y2="20.0" /><line stroke="rgb(0%,0%,0%)" stroke-width="2" x1="140.0" x2="140.0" y1="120.0" y2="140.0" /><line stroke="rgb(0%,0%,0%)" stroke-width="2" x1="140.0" x2="140.0" y1="120.0" y2="20.0" /><line stroke="rgb(0%,0%,0%)" stroke-width="2" x1="60.0" x2="60.0" y1="20.0" y2="80.0" /><line stroke="rgb(0%,0%,0%)" stroke-width="2" x1="80.0" x2="80.0" y1="20.0" y2="80.0" /><line stroke="rgb(0%,0%,0%)" stroke-width="2" x1="100.0" x2="100.0" y1="20.0" y2="80.0" /><text font-family="Verdana" style="fill: #ff0000; width:1000px; color:red; text-size:15; font-weight:100;" text-anchor="middle" x="60.0" y="50.0">3</text><text font-family="Verdana" style="fill: #ff0000; width:1000px; color:red; text-size:15; font-weight:100;" text-anchor="middle" x="80.0" y="50.0">4</text><text font-family="Verdana" style="fill: #ff0000; width:1000px; color:red; text-size:15; font-weight:100;" text-anchor="middle" x="100.0" y="50.0">5</text><text font-family="Verdana" style="fill: #ff0000; width:1000px; color:red; text-size:15; font-weight:100;" text-anchor="middle" x="220.0" y="80.0">X=3</text><line stroke="rgb(0%,0%,0%)" stroke-width="2" x1="240.0" x2="280.0" y1="140.0" y2="140.0" /><line stroke="rgb(0%,0%,0%)" stroke-width="2" x1="240.0" x2="160.0" y1="140.0" y2="140.0" /><line stroke="rgb(0%,0%,0%)" stroke-width="2" x1="200.0" x2="160.0" y1="20.0" y2="20.0" /><line stroke="rgb(0%,0%,0%)" stroke-width="2" x1="200.0" x2="280.0" y1="20.0" y2="20.0" /><line stroke="rgb(0%,0%,0%)" stroke-width="2" x1="160.0" x2="160.0" y1="60.0" y2="140.0" /><line stroke="rgb(0%,0%,0%)" stroke-width="2" x1="160.0" x2="160.0" y1="60.0" y2="20.0" /><line stroke="rgb(0%,0%,0%)" stroke-width="2" x1="280.0" x2="280.0" y1="100.0" y2="140.0" /><line stroke="rgb(0%,0%,0%)" stroke-width="2" x1="280.0" x2="280.0" y1="100.0" y2="20.0" /><line stroke="rgb(0%,0%,0%)" stroke-width="2" x1="180.0" x2="180.0" y1="20.0" y2="80.0" /><line stroke="rgb(0%,0%,0%)" stroke-width="2" x1="220.0" x2="220.0" y1="20.0" y2="80.0" /><line stroke="rgb(0%,0%,0%)" stroke-width="2" x1="260.0" x2="260.0" y1="20.0" y2="80.0" /><text font-family="Verdana" style="fill: #ff0000; width:1000px; color:red; text-size:15; font-weight:100;" text-anchor="middle" x="180.0" y="50.0">2</text><text font-family="Verdana" style="fill: #ff0000; width:1000px; color:red; text-size:15; font-weight:100;" text-anchor="middle" x="220.0" y="50.0">4</text><text font-family="Verdana" style="fill: #ff0000; width:1000px; color:red; text-size:15; font-weight:100;" text-anchor="middle" x="260.0" y="50.0">6</text><text font-family="Verdana" style="fill: #ff0000; width:1000px; color:red; text-size:15; font-weight:100;" text-anchor="middle" x="360.0" y="80.0">X=4</text><line stroke="rgb(0%,0%,0%)" stroke-width="2" x1="360.0" x2="420.0" y1="140.0" y2="140.0" /><line stroke="rgb(0%,0%,0%)" stroke-width="2" x1="360.0" x2="300.0" y1="140.0" y2="140.0" /><line stroke="rgb(0%,0%,0%)" stroke-width="2" x1="360.0" x2="300.0" y1="20.0" y2="20.0" /><line stroke="rgb(0%,0%,0%)" stroke-width="2" x1="360.0" x2="420.0" y1="20.0" y2="20.0" /><line stroke="rgb(0%,0%,0%)" stroke-width="2" x1="300.0" x2="300.0" y1="80.0" y2="140.0" /><line stroke="rgb(0%,0%,0%)" stroke-width="2" x1="300.0" x2="300.0" y1="80.0" y2="20.0" /><line stroke="rgb(0%,0%,0%)" stroke-width="2" x1="420.0" x2="420.0" y1="80.0" y2="140.0" /><line stroke="rgb(0%,0%,0%)" stroke-width="2" x1="420.0" x2="420.0" y1="80.0" y2="20.0" /><line stroke="rgb(0%,0%,0%)" stroke-width="2" x1="320.0" x2="320.0" y1="20.0" y2="80.0" /><line stroke="rgb(0%,0%,0%)" stroke-width="2" x1="340.0" x2="340.0" y1="20.0" y2="80.0" /><line stroke="rgb(0%,0%,0%)" stroke-width="2" x1="360.0" x2="360.0" y1="20.0" y2="20.0" /><line stroke="rgb(0%,0%,0%)" stroke-width="2" x1="360.0" x2="360.0" y1="140.0" y2="140.0" /><line stroke="rgb(0%,0%,0%)" stroke-width="2" x1="380.0" x2="380.0" y1="20.0" y2="80.0" /><line stroke="rgb(0%,0%,0%)" stroke-width="2" x1="400.0" x2="400.0" y1="20.0" y2="80.0" /><text font-family="Verdana" style="fill: #ff0000; width:1000px; color:red; text-size:15; font-weight:100;" text-anchor="middle" x="320.0" y="50.0">2</text><text font-family="Verdana" style="fill: #ff0000; width:1000px; color:red; text-size:15; font-weight:100;" text-anchor="middle" x="340.0" y="50.0">3</text><text font-family="Verdana" style="fill: #ff0000; width:1000px; color:red; text-size:15; font-weight:100;" text-anchor="middle" x="360.0" y="20.0">4</text><text font-family="Verdana" style="fill: #ff0000; width:1000px; color:red; text-size:15; font-weight:100;" text-anchor="middle" x="360.0" y="140.0">4</text><text font-family="Verdana" style="fill: #ff0000; width:1000px; color:red; text-size:15; font-weight:100;" text-anchor="middle" x="380.0" y="50.0">5</text><text font-family="Verdana" style="fill: #ff0000; width:1000px; color:red; text-size:15; font-weight:100;" text-anchor="middle" x="400.0" y="50.0">6</text><text font-family="Verdana" style="fill: #ff0000; width:1000px; color:red; text-size:15; font-weight:100;" text-anchor="middle" x="500.0" y="80.0">X=5</text><line stroke="rgb(0%,0%,0%)" stroke-width="2" x1="480.0" x2="560.0" y1="140.0" y2="140.0" /><line stroke="rgb(0%,0%,0%)" stroke-width="2" x1="480.0" x2="440.0" y1="140.0" y2="140.0" /><line stroke="rgb(0%,0%,0%)" stroke-width="2" x1="520.0" x2="440.0" y1="20.0" y2="20.0" /><line stroke="rgb(0%,0%,0%)" stroke-width="2" x1="520.0" x2="560.0" y1="20.0" y2="20.0" /><line stroke="rgb(0%,0%,0%)" stroke-width="2" x1="440.0" x2="440.0" y1="100.0" y2="140.0" /><line stroke="rgb(0%,0%,0%)" stroke-width="2" x1="440.0" x2="440.0" y1="100.0" y2="20.0" /><line stroke="rgb(0%,0%,0%)" stroke-width="2" x1="560.0" x2="560.0" y1="60.0" y2="140.0" /><line stroke="rgb(0%,0%,0%)" stroke-width="2" x1="560.0" x2="560.0" y1="60.0" y2="20.0" /><line stroke="rgb(0%,0%,0%)" stroke-width="2" x1="460.0" x2="460.0" y1="20.0" y2="80.0" /><line stroke="rgb(0%,0%,0%)" stroke-width="2" x1="500.0" x2="500.0" y1="20.0" y2="80.0" /><line stroke="rgb(0%,0%,0%)" stroke-width="2" x1="540.0" x2="540.0" y1="20.0" y2="80.0" /><text font-family="Verdana" style="fill: #ff0000; width:1000px; color:red; text-size:15; font-weight:100;" text-anchor="middle" x="460.0" y="50.0">2</text><text font-family="Verdana" style="fill: #ff0000; width:1000px; color:red; text-size:15; font-weight:100;" text-anchor="middle" x="500.0" y="50.0">4</text><text font-family="Verdana" style="fill: #ff0000; width:1000px; color:red; text-size:15; font-weight:100;" text-anchor="middle" x="540.0" y="50.0">6</text><text font-family="Verdana" style="fill: #ff0000; width:1000px; color:red; text-size:15; font-weight:100;" text-anchor="middle" x="640.0" y="80.0">X=6</text><line stroke="rgb(0%,0%,0%)" stroke-width="2" x1="600.0" x2="700.0" y1="140.0" y2="140.0" /><line stroke="rgb(0%,0%,0%)" stroke-width="2" x1="600.0" x2="580.0" y1="140.0" y2="140.0" /><line stroke="rgb(0%,0%,0%)" stroke-width="2" x1="680.0" x2="580.0" y1="20.0" y2="20.0" /><line stroke="rgb(0%,0%,0%)" stroke-width="2" x1="680.0" x2="700.0" y1="20.0" y2="20.0" /><line stroke="rgb(0%,0%,0%)" stroke-width="2" x1="580.0" x2="580.0" y1="120.0" y2="140.0" /><line stroke="rgb(0%,0%,0%)" stroke-width="2" x1="580.0" x2="580.0" y1="120.0" y2="20.0" /><line stroke="rgb(0%,0%,0%)" stroke-width="2" x1="700.0" x2="700.0" y1="40.0" y2="140.0" /><line stroke="rgb(0%,0%,0%)" stroke-width="2" x1="700.0" x2="700.0" y1="40.0" y2="20.0" /><line stroke="rgb(0%,0%,0%)" stroke-width="2" x1="620.0" x2="620.0" y1="20.0" y2="80.0" /><line stroke="rgb(0%,0%,0%)" stroke-width="2" x1="640.0" x2="640.0" y1="20.0" y2="80.0" /><line stroke="rgb(0%,0%,0%)" stroke-width="2" x1="660.0" x2="660.0" y1="20.0" y2="80.0" /><text font-family="Verdana" style="fill: #ff0000; width:1000px; color:red; text-size:15; font-weight:100;" text-anchor="middle" x="620.0" y="50.0">3</text><text font-family="Verdana" style="fill: #ff0000; width:1000px; color:red; text-size:15; font-weight:100;" text-anchor="middle" x="640.0" y="50.0">4</text><text font-family="Verdana" style="fill: #ff0000; width:1000px; color:red; text-size:15; font-weight:100;" text-anchor="middle" x="660.0" y="50.0">5</text><text font-family="Verdana" style="fill: #ff0000; width:1000px; color:red; text-size:15; font-weight:100;" text-anchor="middle" x="80.0" y="220.0">Y=2</text><line stroke="rgb(0%,0%,0%)" stroke-width="2" x1="120.0" x2="140.0" y1="280.0" y2="280.0" /><line stroke="rgb(0%,0%,0%)" stroke-width="2" x1="120.0" x2="20.0" y1="280.0" y2="280.0" /><line stroke="rgb(0%,0%,0%)" stroke-width="2" x1="40.0" x2="140.0" y1="160.0" y2="160.0" /><line stroke="rgb(0%,0%,0%)" stroke-width="2" x1="40.0" x2="20.0" y1="160.0" y2="160.0" /><line stroke="rgb(0%,0%,0%)" stroke-width="2" x1="140.0" x2="140.0" y1="260.0" y2="280.0" /><line stroke="rgb(0%,0%,0%)" stroke-width="2" x1="140.0" x2="140.0" y1="260.0" y2="160.0" /><line stroke="rgb(0%,0%,0%)" stroke-width="2" x1="20.0" x2="20.0" y1="180.0" y2="160.0" /><line stroke="rgb(0%,0%,0%)" stroke-width="2" x1="20.0" x2="20.0" y1="180.0" y2="280.0" /><line stroke="rgb(0%,0%,0%)" stroke-width="2" x1="60.0" x2="60.0" y1="220.0" y2="280.0" /><line stroke="rgb(0%,0%,0%)" stroke-width="2" x1="80.0" x2="80.0" y1="220.0" y2="280.0" /><line stroke="rgb(0%,0%,0%)" stroke-width="2" x1="100.0" x2="100.0" y1="220.0" y2="280.0" /><text font-family="Verdana" style="fill: #ff0000; width:1000px; color:red; text-size:15; font-weight:100;" text-anchor="middle" x="60.0" y="250.0">3</text><text font-family="Verdana" style="fill: #ff0000; width:1000px; color:red; text-size:15; font-weight:100;" text-anchor="middle" x="80.0" y="250.0">4</text><text font-family="Verdana" style="fill: #ff0000; width:1000px; color:red; text-size:15; font-weight:100;" text-anchor="middle" x="100.0" y="250.0">5</text><text font-family="Verdana" style="fill: #ff0000; width:1000px; color:red; text-size:15; font-weight:100;" text-anchor="middle" x="220.0" y="220.0">Y=3</text><line stroke="rgb(0%,0%,0%)" stroke-width="2" x1="240.0" x2="280.0" y1="280.0" y2="280.0" /><line stroke="rgb(0%,0%,0%)" stroke-width="2" x1="240.0" x2="160.0" y1="280.0" y2="280.0" /><line stroke="rgb(0%,0%,0%)" stroke-width="2" x1="200.0" x2="280.0" y1="160.0" y2="160.0" /><line stroke="rgb(0%,0%,0%)" stroke-width="2" x1="200.0" x2="160.0" y1="160.0" y2="160.0" /><line stroke="rgb(0%,0%,0%)" stroke-width="2" x1="280.0" x2="280.0" y1="240.0" y2="280.0" /><line stroke="rgb(0%,0%,0%)" stroke-width="2" x1="280.0" x2="280.0" y1="240.0" y2="160.0" /><line stroke="rgb(0%,0%,0%)" stroke-width="2" x1="160.0" x2="160.0" y1="200.0" y2="160.0" /><line stroke="rgb(0%,0%,0%)" stroke-width="2" x1="160.0" x2="160.0" y1="200.0" y2="280.0" /><line stroke="rgb(0%,0%,0%)" stroke-width="2" x1="180.0" x2="180.0" y1="220.0" y2="280.0" /><line stroke="rgb(0%,0%,0%)" stroke-width="2" x1="220.0" x2="220.0" y1="220.0" y2="280.0" /><line stroke="rgb(0%,0%,0%)" stroke-width="2" x1="260.0" x2="260.0" y1="220.0" y2="280.0" /><text font-family="Verdana" style="fill: #ff0000; width:1000px; color:red; text-size:15; font-weight:100;" text-anchor="middle" x="180.0" y="250.0">2</text><text font-family="Verdana" style="fill: #ff0000; width:1000px; color:red; text-size:15; font-weight:100;" text-anchor="middle" x="220.0" y="250.0">4</text><text font-family="Verdana" style="fill: #ff0000; width:1000px; color:red; text-size:15; font-weight:100;" text-anchor="middle" x="260.0" y="250.0">6</text><text font-family="Verdana" style="fill: #ff0000; width:1000px; color:red; text-size:15; font-weight:100;" text-anchor="middle" x="360.0" y="220.0">Y=4</text><line stroke="rgb(0%,0%,0%)" stroke-width="2" x1="360.0" x2="420.0" y1="280.0" y2="280.0" /><line stroke="rgb(0%,0%,0%)" stroke-width="2" x1="360.0" x2="300.0" y1="280.0" y2="280.0" /><line stroke="rgb(0%,0%,0%)" stroke-width="2" x1="360.0" x2="420.0" y1="160.0" y2="160.0" /><line stroke="rgb(0%,0%,0%)" stroke-width="2" x1="360.0" x2="300.0" y1="160.0" y2="160.0" /><line stroke="rgb(0%,0%,0%)" stroke-width="2" x1="420.0" x2="420.0" y1="220.0" y2="280.0" /><line stroke="rgb(0%,0%,0%)" stroke-width="2" x1="420.0" x2="420.0" y1="220.0" y2="160.0" /><line stroke="rgb(0%,0%,0%)" stroke-width="2" x1="300.0" x2="300.0" y1="220.0" y2="160.0" /><line stroke="rgb(0%,0%,0%)" stroke-width="2" x1="300.0" x2="300.0" y1="220.0" y2="280.0" /><line stroke="rgb(0%,0%,0%)" stroke-width="2" x1="320.0" x2="320.0" y1="220.0" y2="280.0" /><line stroke="rgb(0%,0%,0%)" stroke-width="2" x1="340.0" x2="340.0" y1="220.0" y2="280.0" /><line stroke="rgb(0%,0%,0%)" stroke-width="2" x1="360.0" x2="360.0" y1="160.0" y2="160.0" /><line stroke="rgb(0%,0%,0%)" stroke-width="2" x1="360.0" x2="360.0" y1="280.0" y2="280.0" /><line stroke="rgb(0%,0%,0%)" stroke-width="2" x1="380.0" x2="380.0" y1="220.0" y2="280.0" /><line stroke="rgb(0%,0%,0%)" stroke-width="2" x1="400.0" x2="400.0" y1="220.0" y2="280.0" /><text font-family="Verdana" style="fill: #ff0000; width:1000px; color:red; text-size:15; font-weight:100;" text-anchor="middle" x="320.0" y="250.0">2</text><text font-family="Verdana" style="fill: #ff0000; width:1000px; color:red; text-size:15; font-weight:100;" text-anchor="middle" x="340.0" y="250.0">3</text><text font-family="Verdana" style="fill: #ff0000; width:1000px; color:red; text-size:15; font-weight:100;" text-anchor="middle" x="360.0" y="160.0">4</text><text font-family="Verdana" style="fill: #ff0000; width:1000px; color:red; text-size:15; font-weight:100;" text-anchor="middle" x="360.0" y="280.0">4</text><text font-family="Verdana" style="fill: #ff0000; width:1000px; color:red; text-size:15; font-weight:100;" text-anchor="middle" x="380.0" y="250.0">5</text><text font-family="Verdana" style="fill: #ff0000; width:1000px; color:red; text-size:15; font-weight:100;" text-anchor="middle" x="400.0" y="250.0">6</text><text font-family="Verdana" style="fill: #ff0000; width:1000px; color:red; text-size:15; font-weight:100;" text-anchor="middle" x="500.0" y="220.0">Y=5</text><line stroke="rgb(0%,0%,0%)" stroke-width="2" x1="480.0" x2="560.0" y1="280.0" y2="280.0" /><line stroke="rgb(0%,0%,0%)" stroke-width="2" x1="480.0" x2="440.0" y1="280.0" y2="280.0" /><line stroke="rgb(0%,0%,0%)" stroke-width="2" x1="520.0" x2="560.0" y1="160.0" y2="160.0" /><line stroke="rgb(0%,0%,0%)" stroke-width="2" x1="520.0" x2="440.0" y1="160.0" y2="160.0" /><line stroke="rgb(0%,0%,0%)" stroke-width="2" x1="560.0" x2="560.0" y1="200.0" y2="280.0" /><line stroke="rgb(0%,0%,0%)" stroke-width="2" x1="560.0" x2="560.0" y1="200.0" y2="160.0" /><line stroke="rgb(0%,0%,0%)" stroke-width="2" x1="440.0" x2="440.0" y1="240.0" y2="160.0" /><line stroke="rgb(0%,0%,0%)" stroke-width="2" x1="440.0" x2="440.0" y1="240.0" y2="280.0" /><line stroke="rgb(0%,0%,0%)" stroke-width="2" x1="460.0" x2="460.0" y1="220.0" y2="280.0" /><line stroke="rgb(0%,0%,0%)" stroke-width="2" x1="500.0" x2="500.0" y1="220.0" y2="280.0" /><line stroke="rgb(0%,0%,0%)" stroke-width="2" x1="540.0" x2="540.0" y1="220.0" y2="280.0" /><text font-family="Verdana" style="fill: #ff0000; width:1000px; color:red; text-size:15; font-weight:100;" text-anchor="middle" x="460.0" y="250.0">2</text><text font-family="Verdana" style="fill: #ff0000; width:1000px; color:red; text-size:15; font-weight:100;" text-anchor="middle" x="500.0" y="250.0">4</text><text font-family="Verdana" style="fill: #ff0000; width:1000px; color:red; text-size:15; font-weight:100;" text-anchor="middle" x="540.0" y="250.0">6</text><text font-family="Verdana" style="fill: #ff0000; width:1000px; color:red; text-size:15; font-weight:100;" text-anchor="middle" x="640.0" y="220.0">Y=6</text><line stroke="rgb(0%,0%,0%)" stroke-width="2" x1="600.0" x2="700.0" y1="280.0" y2="280.0" /><line stroke="rgb(0%,0%,0%)" stroke-width="2" x1="600.0" x2="580.0" y1="280.0" y2="280.0" /><line stroke="rgb(0%,0%,0%)" stroke-width="2" x1="680.0" x2="700.0" y1="160.0" y2="160.0" /><line stroke="rgb(0%,0%,0%)" stroke-width="2" x1="680.0" x2="580.0" y1="160.0" y2="160.0" /><line stroke="rgb(0%,0%,0%)" stroke-width="2" x1="700.0" x2="700.0" y1="180.0" y2="280.0" /><line stroke="rgb(0%,0%,0%)" stroke-width="2" x1="700.0" x2="700.0" y1="180.0" y2="160.0" /><line stroke="rgb(0%,0%,0%)" stroke-width="2" x1="580.0" x2="580.0" y1="260.0" y2="160.0" /><line stroke="rgb(0%,0%,0%)" stroke-width="2" x1="580.0" x2="580.0" y1="260.0" y2="280.0" /><line stroke="rgb(0%,0%,0%)" stroke-width="2" x1="620.0" x2="620.0" y1="220.0" y2="280.0" /><line stroke="rgb(0%,0%,0%)" stroke-width="2" x1="640.0" x2="640.0" y1="220.0" y2="280.0" /><line stroke="rgb(0%,0%,0%)" stroke-width="2" x1="660.0" x2="660.0" y1="220.0" y2="280.0" /><text font-family="Verdana" style="fill: #ff0000; width:1000px; color:red; text-size:15; font-weight:100;" text-anchor="middle" x="620.0" y="250.0">3</text><text font-family="Verdana" style="fill: #ff0000; width:1000px; color:red; text-size:15; font-weight:100;" text-anchor="middle" x="640.0" y="250.0">4</text><text font-family="Verdana" style="fill: #ff0000; width:1000px; color:red; text-size:15; font-weight:100;" text-anchor="middle" x="660.0" y="250.0">5</text></svg>