<?xml version="1.0" encoding="utf-8" ?>
<svg baseProfile="full" height="100%" version="1.1" width="100%" xmlns="http://www.w3.org/2000/svg" xmlns:ev="http://www.w3.org/2001/xml-events" xmlns:xlink="http://www.w3.org/1999/xlink"><defs /><text font-family="Verdana" font-size="12" style="fill: #ff0000; width:1000px; color:red; font-weight:100;" text-anchor="middle" x="50.0" y="50.0">X2</text><text font-family="Verdana" font-size="10" style="fill: #ff0000; width:1000px; color:red; font-weight:50;" text-anchor="middle" x="40.0" y="35.0">2</text><text font-family="Verdana" font-size="10" style="fill: #ff0000; width:1000px; color:red; font-weight:50;" text-anchor="middle" x="60.0" y="35.0">3</text><line stroke="rgb(0%,0%,0%)" stroke-width="2" x1="40.0" x2="40.0" y1="20.0" y2="50.0" /><line stroke="rgb(0%,0%,0%)" stroke-width="2" x1="60.0" x2="60.0" y1="20.0" y2="50.0" /><line stroke="rgb(0%,0%,0%)" stroke-width="2" x1="20.0" x2="20.0" y1="20.0" y2="75.0" /><line stroke="rgb(0%,0%,0%)" stroke-width="2" x1="23.3333333333" x2="23.3333333333" y1="25.0" y2="80.0" /><line stroke="rgb(0%,0%,0%)" stroke-width="2" x1="26.6666666667" x2="26.6666666667" y1="20.0" y2="75.0" /><line stroke="rgb(0%,0%,0%)" stroke-width="2" x1="30.0" x2="30.0" y1="25.0" y2="80.0" /><line stroke="rgb(0%,0%,0%)" stroke-width="2" x1="33.3333333333" x2="33.3333333333" y1="20.0" y2="75.0" /><line stroke="rgb(0%,0%,0%)" stroke-width="2" x1="36.6666666667" x2="36.6666666667" y1="25.0" y2="80.0" /><line stroke="rgb(0%,0%,0%)" stroke-width="2" x1="43.3333333333" x2="43.3333333333" y1="20.0" y2="75.0" /><line stroke="rgb(0%,0%,0%)" stroke-width="2" x1="46.6666666667" x2="46.6666666667" y1="25.0" y2="80.0" /><line stroke="rgb(0%,0%,0%)" stroke-width="2" x1="50.0" x2="50.0" y1="20.0" y2="75.0" /><line stroke="rgb(0%,0%,0%)" stroke-width="2" x1="53.3333333333" x2="53.3333333333" y1="25.0" y2="80.0" /><line stroke="rgb(0%,0%,0%)" stroke-width="2" x1="56.6666666667" x2="56.6666666667" y1="20.0" y2="75.0" /><line stroke="rgb(0%,0%,0%)" stroke-width="2" x1="63.3333333333" x2="63.3333333333" y1="25.0" y2="80.0" /><line stroke="rgb(0%,0%,0%)" stroke-width="2" x1="66.6666666667" x2="66.6666666667" y1="20.0" y2="75.0" /><line stroke="rgb(0%,0%,0%)" stroke-width="2" x1="70.0" x2="70.0" y1="25.0" y2="80.0" /><line stroke="rgb(0%,0%,0%)" stroke-width="2" x1="73.3333333333" x2="73.3333333333" y1="20.0" y2="75.0" /><line stroke="rgb(0%,0%,0%)" stroke-width="2" x1="76.6666666667" x2="76.6666666667" y1="25.0" y2="80.0" /><line stroke="rgb(0%,0%,0%)" stroke-width="2" x1="60.0" x2="80.0" y1="80.0" y2="80.0" /><line stroke="rgb(0%,0%,0%)" stroke-width="2" x1="60.0" x2="20.0" y1="80.0" y2="80.0" /><line stroke="rgb(0%,0%,0%)" stroke-width="2" x1="40.0" x2="20.0" y1="20.0" y2="20.0" /><line stroke="rgb(0%,0%,0%)" stroke-width="2" x1="40.0" x2="80.0" y1="20.0" y2="20.0" /><line stroke="rgb(0%,0%,0%)" stroke-width="2" x1="20.0" x2="20.0" y1="40.0" y2="80.0" /><line stroke="rgb(0%,0%,0%)" stroke-width="2" x1="20.0" x2="20.0" y1="40.0" y2="20.0" /><line stroke="rgb(0%,0%,0%)" stroke-width="2" x1="80.0" x2="80.0" y1="60.0" y2="80.0" /><line stroke="rgb(0%,0%,0%)" stroke-width="2" x1="80.0" x2="80.0" y1="60.0" y2="20.0" /><text font-family="Verdana" font-size="12" style="fill: #ff0000; width:1000px; color:red; font-weight:100;" text-anchor="middle" x="130.0" y="50.0">X3</text><text font-family="Verdana" font-size="10" style="fill: #ff0000; width:1000px; color:red; font-weight:50;" text-anchor="middle" x="120.0" y="35.0">2</text><text font-family="Verdana" font-size="10" style="fill: #ff0000; width:1000px; color:red; font-weight:50;" text-anchor="middle" x="140.0" y="35.0">3</text><line stroke="rgb(0%,0%,0%)" stroke-width="2" x1="120.0" x2="120.0" y1="20.0" y2="50.0" /><line stroke="rgb(0%,0%,0%)" stroke-width="2" x1="140.0" x2="140.0" y1="20.0" y2="50.0" /><line stroke="rgb(0%,0%,0%)" stroke-width="2" x1="100.0" x2="100.0" y1="20.0" y2="75.0" /><line stroke="rgb(0%,0%,0%)" stroke-width="2" x1="103.333333333" x2="103.333333333" y1="25.0" y2="80.0" /><line stroke="rgb(0%,0%,0%)" stroke-width="2" x1="106.666666667" x2="106.666666667" y1="20.0" y2="75.0" /><line stroke="rgb(0%,0%,0%)" stroke-width="2" x1="110.0" x2="110.0" y1="25.0" y2="80.0" /><line stroke="rgb(0%,0%,0%)" stroke-width="2" x1="113.333333333" x2="113.333333333" y1="20.0" y2="75.0" /><line stroke="rgb(0%,0%,0%)" stroke-width="2" x1="116.666666667" x2="116.666666667" y1="25.0" y2="80.0" /><line stroke="rgb(0%,0%,0%)" stroke-width="2" x1="123.333333333" x2="123.333333333" y1="20.0" y2="75.0" /><line stroke="rgb(0%,0%,0%)" stroke-width="2" x1="126.666666667" x2="126.666666667" y1="25.0" y2="80.0" /><line stroke="rgb(0%,0%,0%)" stroke-width="2" x1="130.0" x2="130.0" y1="20.0" y2="75.0" /><line stroke="rgb(0%,0%,0%)" stroke-width="2" x1="133.333333333" x2="133.333333333" y1="25.0" y2="80.0" /><line stroke="rgb(0%,0%,0%)" stroke-width="2" x1="136.666666667" x2="136.666666667" y1="20.0" y2="75.0" /><line stroke="rgb(0%,0%,0%)" stroke-width="2" x1="143.333333333" x2="143.333333333" y1="25.0" y2="80.0" /><line stroke="rgb(0%,0%,0%)" stroke-width="2" x1="146.666666667" x2="146.666666667" y1="20.0" y2="75.0" /><line stroke="rgb(0%,0%,0%)" stroke-width="2" x1="150.0" x2="150.0" y1="25.0" y2="80.0" /><line stroke="rgb(0%,0%,0%)" stroke-width="2" x1="153.333333333" x2="153.333333333" y1="20.0" y2="75.0" /><line stroke="rgb(0%,0%,0%)" stroke-width="2" x1="156.666666667" x2="156.666666667" y1="25.0" y2="80.0" /><line stroke="rgb(0%,0%,0%)" stroke-width="2" x1="120.0" x2="160.0" y1="80.0" y2="80.0" /><line stroke="rgb(0%,0%,0%)" stroke-width="2" x1="120.0" x2="100.0" y1="80.0" y2="80.0" /><line stroke="rgb(0%,0%,0%)" stroke-width="2" x1="140.0" x2="100.0" y1="20.0" y2="20.0" /><line stroke="rgb(0%,0%,0%)" stroke-width="2" x1="140.0" x2="160.0" y1="20.0" y2="20.0" /><line stroke="rgb(0%,0%,0%)" stroke-width="2" x1="100.0" x2="100.0" y1="60.0" y2="80.0" /><line stroke="rgb(0%,0%,0%)" stroke-width="2" x1="100.0" x2="100.0" y1="60.0" y2="20.0" /><line stroke="rgb(0%,0%,0%)" stroke-width="2" x1="160.0" x2="160.0" y1="40.0" y2="80.0" /><line stroke="rgb(0%,0%,0%)" stroke-width="2" x1="160.0" x2="160.0" y1="40.0" y2="20.0" /><text font-family="Verdana" font-size="12" style="fill: #ff0000; width:1000px; color:red; font-weight:100;" text-anchor="middle" x="210.0" y="50.0">Y2</text><text font-family="Verdana" font-size="10" style="fill: #ff0000; width:1000px; color:red; font-weight:50;" text-anchor="middle" x="200.0" y="65.0">2</text><text font-family="Verdana" font-size="10" style="fill: #ff0000; width:1000px; color:red; font-weight:50;" text-anchor="middle" x="220.0" y="65.0">3</text><line stroke="rgb(0%,0%,0%)" stroke-width="2" x1="200.0" x2="200.0" y1="50.0" y2="80.0" /><line stroke="rgb(0%,0%,0%)" stroke-width="2" x1="220.0" x2="220.0" y1="50.0" y2="80.0" /><line stroke="rgb(0%,0%,0%)" stroke-width="2" x1="180.0" x2="180.0" y1="20.0" y2="75.0" /><line stroke="rgb(0%,0%,0%)" stroke-width="2" x1="183.333333333" x2="183.333333333" y1="25.0" y2="80.0" /><line stroke="rgb(0%,0%,0%)" stroke-width="2" x1="186.666666667" x2="186.666666667" y1="20.0" y2="75.0" /><line stroke="rgb(0%,0%,0%)" stroke-width="2" x1="190.0" x2="190.0" y1="25.0" y2="80.0" /><line stroke="rgb(0%,0%,0%)" stroke-width="2" x1="193.333333333" x2="193.333333333" y1="20.0" y2="75.0" /><line stroke="rgb(0%,0%,0%)" stroke-width="2" x1="196.666666667" x2="196.666666667" y1="25.0" y2="80.0" /><line stroke="rgb(0%,0%,0%)" stroke-width="2" x1="203.333333333" x2="203.333333333" y1="20.0" y2="75.0" /><line stroke="rgb(0%,0%,0%)" stroke-width="2" x1="206.666666667" x2="206.666666667" y1="25.0" y2="80.0" /><line stroke="rgb(0%,0%,0%)" stroke-width="2" x1="210.0" x2="210.0" y1="20.0" y2="75.0" /><line stroke="rgb(0%,0%,0%)" stroke-width="2" x1="213.333333333" x2="213.333333333" y1="25.0" y2="80.0" /><line stroke="rgb(0%,0%,0%)" stroke-width="2" x1="216.666666667" x2="216.666666667" y1="20.0" y2="75.0" /><line stroke="rgb(0%,0%,0%)" stroke-width="2" x1="223.333333333" x2="223.333333333" y1="25.0" y2="80.0" /><line stroke="rgb(0%,0%,0%)" stroke-width="2" x1="226.666666667" x2="226.666666667" y1="20.0" y2="75.0" /><line stroke="rgb(0%,0%,0%)" stroke-width="2" x1="230.0" x2="230.0" y1="25.0" y2="80.0" /><line stroke="rgb(0%,0%,0%)" stroke-width="2" x1="233.333333333" x2="233.333333333" y1="20.0" y2="75.0" /><line stroke="rgb(0%,0%,0%)" stroke-width="2" x1="236.666666667" x2="236.666666667" y1="25.0" y2="80.0" /><line stroke="rgb(0%,0%,0%)" stroke-width="2" x1="220.0" x2="240.0" y1="80.0" y2="80.0" /><line stroke="rgb(0%,0%,0%)" stroke-width="2" x1="220.0" x2="180.0" y1="80.0" y2="80.0" /><line stroke="rgb(0%,0%,0%)" stroke-width="2" x1="200.0" x2="240.0" y1="20.0" y2="20.0" /><line stroke="rgb(0%,0%,0%)" stroke-width="2" x1="200.0" x2="180.0" y1="20.0" y2="20.0" /><line stroke="rgb(0%,0%,0%)" stroke-width="2" x1="240.0" x2="240.0" y1="60.0" y2="80.0" /><line stroke="rgb(0%,0%,0%)" stroke-width="2" x1="240.0" x2="240.0" y1="60.0" y2="20.0" /><line stroke="rgb(0%,0%,0%)" stroke-width="2" x1="180.0" x2="180.0" y1="40.0" y2="20.0" /><line stroke="rgb(0%,0%,0%)" stroke-width="2" x1="180.0" x2="180.0" y1="40.0" y2="80.0" /><text font-family="Verdana" font-size="12" style="fill: #ff0000; width:1000px; color:red; font-weight:100;" text-anchor="middle" x="290.0" y="50.0">Y3</text><text font-family="Verdana" font-size="10" style="fill: #ff0000; width:1000px; color:red; font-weight:50;" text-anchor="middle" x="280.0" y="65.0">2</text><text font-family="Verdana" font-size="10" style="fill: #ff0000; width:1000px; color:red; font-weight:50;" text-anchor="middle" x="300.0" y="65.0">3</text><line stroke="rgb(0%,0%,0%)" stroke-width="2" x1="280.0" x2="280.0" y1="50.0" y2="80.0" /><line stroke="rgb(0%,0%,0%)" stroke-width="2" x1="300.0" x2="300.0" y1="50.0" y2="80.0" /><line stroke="rgb(0%,0%,0%)" stroke-width="2" x1="260.0" x2="260.0" y1="20.0" y2="75.0" /><line stroke="rgb(0%,0%,0%)" stroke-width="2" x1="263.333333333" x2="263.333333333" y1="25.0" y2="80.0" /><line stroke="rgb(0%,0%,0%)" stroke-width="2" x1="266.666666667" x2="266.666666667" y1="20.0" y2="75.0" /><line stroke="rgb(0%,0%,0%)" stroke-width="2" x1="270.0" x2="270.0" y1="25.0" y2="80.0" /><line stroke="rgb(0%,0%,0%)" stroke-width="2" x1="273.333333333" x2="273.333333333" y1="20.0" y2="75.0" /><line stroke="rgb(0%,0%,0%)" stroke-width="2" x1="276.666666667" x2="276.666666667" y1="25.0" y2="80.0" /><line stroke="rgb(0%,0%,0%)" stroke-width="2" x1="283.333333333" x2="283.333333333" y1="20.0" y2="75.0" /><line stroke="rgb(0%,0%,0%)" stroke-width="2" x1="286.666666667" x2="286.666666667" y1="25.0" y2="80.0" /><line stroke="rgb(0%,0%,0%)" stroke-width="2" x1="290.0" x2="290.0" y1="20.0" y2="75.0" /><line stroke="rgb(0%,0%,0%)" stroke-width="2" x1="293.333333333" x2="293.333333333" y1="25.0" y2="80.0" /><line stroke="rgb(0%,0%,0%)" stroke-width="2" x1="296.666666667" x2="296.666666667" y1="20.0" y2="75.0" /><line stroke="rgb(0%,0%,0%)" stroke-width="2" x1="303.333333333" x2="303.333333333" y1="25.0" y2="80.0" /><line stroke="rgb(0%,0%,0%)" stroke-width="2" x1="306.666666667" x2="306.666666667" y1="20.0" y2="75.0" /><line stroke="rgb(0%,0%,0%)" stroke-width="2" x1="310.0" x2="310.0" y1="25.0" y2="80.0" /><line stroke="rgb(0%,0%,0%)" stroke-width="2" x1="313.333333333" x2="313.333333333" y1="20.0" y2="75.0" /><line stroke="rgb(0%,0%,0%)" stroke-width="2" x1="316.666666667" x2="316.666666667" y1="25.0" y2="80.0" /><line stroke="rgb(0%,0%,0%)" stroke-width="2" x1="280.0" x2="320.0" y1="80.0" y2="80.0" /><line stroke="rgb(0%,0%,0%)" stroke-width="2" x1="280.0" x2="260.0" y1="80.0" y2="80.0" /><line stroke="rgb(0%,0%,0%)" stroke-width="2" x1="300.0" x2="320.0" y1="20.0" y2="20.0" /><line stroke="rgb(0%,0%,0%)" stroke-width="2" x1="300.0" x2="260.0" y1="20.0" y2="20.0" /><line stroke="rgb(0%,0%,0%)" stroke-width="2" x1="320.0" x2="320.0" y1="40.0" y2="80.0" /><line stroke="rgb(0%,0%,0%)" stroke-width="2" x1="320.0" x2="320.0" y1="40.0" y2="20.0" /><line stroke="rgb(0%,0%,0%)" stroke-width="2" x1="260.0" x2="260.0" y1="60.0" y2="20.0" /><line stroke="rgb(0%,0%,0%)" stroke-width="2" x1="260.0" x2="260.0" y1="60.0" y2="80.0" /></svg>