<?xml version="1.0" encoding="utf-8" ?>
<svg baseProfile="full" height="100%" version="1.1" width="100%" xmlns="http://www.w3.org/2000/svg" xmlns:ev="http://www.w3.org/2001/xml-events" xmlns:xlink="http://www.w3.org/1999/xlink"><defs /><text font-family="Verdana" font-size="12" style="fill: #ff0000; width:1000px; color:red; font-weight:100;" text-anchor="middle" x="20.0" y="20.0">X1</text><line stroke="rgb(0%,0%,0%)" stroke-width="2" x1="20.0" x2="20.0" y1="20.0" y2="20.0" /><line stroke="rgb(0%,0%,0%)" stroke-width="2" x1="20.0" x2="20.0" y1="20.0" y2="20.0" /><line stroke="rgb(0%,0%,0%)" stroke-width="2" x1="20.0" x2="20.0" y1="20.0" y2="20.0" /><line stroke="rgb(0%,0%,0%)" stroke-width="2" x1="20.0" x2="20.0" y1="20.0" y2="20.0" /><line stroke="rgb(0%,0%,0%)" stroke-width="2" x1="20.0" x2="20.0" y1="20.0" y2="20.0" /><line stroke="rgb(0%,0%,0%)" stroke-width="2" x1="20.0" x2="20.0" y1="20.0" y2="20.0" /><text font-family="Verdana" font-size="12" style="fill: #ff0000; width:1000px; color:red; font-weight:100;" text-anchor="middle" x="40.0" y="20.0">Y1</text><line stroke="rgb(0%,0%,0%)" stroke-width="2" x1="40.0" x2="40.0" y1="20.0" y2="20.0" /><line stroke="rgb(0%,0%,0%)" stroke-width="2" x1="40.0" x2="40.0" y1="20.0" y2="20.0" /><line stroke="rgb(0%,0%,0%)" stroke-width="2" x1="40.0" x2="40.0" y1="20.0" y2="20.0" /><line stroke="rgb(0%,0%,0%)" stroke-width="2" x1="40.0" x2="40.0" y1="20.0" y2="20.0" /><text font-family="Verdana" font-size="12" style="fill: #ff0000; width:1000px; color:red; font-weight:100;" text-anchor="middle" x="71.9496785975" y="32.0688270723">Y2</text><line stroke="rgb(0%,0%,0%)" stroke-width="2" x1="63.4097952234" x2="63.4097952234" y1="23.677499206" y2="34.5820752117" /><line stroke="rgb(0%,0%,0%)" stroke-width="2" x1="66.8195904468" x2="66.8195904468" y1="26.3835468128" y2="42.7853655414" /><line stroke="rgb(0%,0%,0%)" stroke-width="2" x1="70.2293856701" x2="70.2293856701" y1="20.156252999" y2="39.0596211331" /><line stroke="rgb(0%,0%,0%)" stroke-width="2" x1="73.6391808935" x2="73.6391808935" y1="25.1616855815" y2="44.0682646893" /><line stroke="rgb(0%,0%,0%)" stroke-width="2" x1="77.0489761169" x2="77.0489761169" y1="21.3831259902" y2="37.7959046566" /><line stroke="rgb(0%,0%,0%)" stroke-width="2" x1="80.4587713403" x2="80.4587713403" y1="28.6817170181" y2="39.5968665688" /><line stroke="rgb(0%,0%,0%)" stroke-width="2" x1="82.3344909901" x2="82.4641085842" y1="36.0851087903" y2="35.7387454888" /><line stroke="rgb(0%,0%,0%)" stroke-width="2" x1="82.3344909901" x2="82.0459043157" y1="36.0851087903" y2="36.7979218417" /><line stroke="rgb(0%,0%,0%)" stroke-width="2" x1="82.7362527323" x2="82.4641085842" y1="34.973316408" y2="35.7387454888" /><line stroke="rgb(0%,0%,0%)" stroke-width="2" x1="82.7362527323" x2="82.8140702828" y1="34.973316408" y2="34.7416573987" /><line stroke="rgb(0%,0%,0%)" stroke-width="2" x1="81.9360167273" x2="82.0459043157" y1="37.0594904331" y2="36.7979218417" /><line stroke="rgb(0%,0%,0%)" stroke-width="2" x1="82.9934126017" x2="82.8140702828" y1="34.1630459906" y2="34.7416573987" /><line stroke="rgb(0%,0%,0%)" stroke-width="2" x1="82.9934126017" x2="83.1434063615" y1="34.1630459906" y2="33.649532658" /><line stroke="rgb(0%,0%,0%)" stroke-width="2" x1="83.2630084909" x2="83.4034651087" y1="33.2228218513" y2="32.6794625758" /><line stroke="rgb(0%,0%,0%)" stroke-width="2" x1="81.8532381755" x2="81.9360167273" y1="37.2366319935" y2="37.0594904331" /><line stroke="rgb(0%,0%,0%)" stroke-width="2" x1="81.8532381755" x2="81.6468029329" y1="37.2366319935" y2="37.6710680432" /><line stroke="rgb(0%,0%,0%)" stroke-width="2" x1="81.4699910206" x2="81.6468029329" y1="38.0166782707" y2="37.6710680432" /><line stroke="rgb(0%,0%,0%)" stroke-width="2" x1="81.3249331339" x2="80.9378179173" y1="38.2763682904" y2="38.9188194382" /><line stroke="rgb(0%,0%,0%)" stroke-width="2" x1="81.3249331339" x2="81.4699910206" y1="38.2763682904" y2="38.0166782707" /><line stroke="rgb(0%,0%,0%)" stroke-width="2" x1="83.6990967787" x2="83.6560963547" y1="31.2532013" y2="31.50113304" /><line stroke="rgb(0%,0%,0%)" stroke-width="2" x1="80.8054865593" x2="80.6544597488" y1="39.1176521824" y2="39.3363360982" /><line stroke="rgb(0%,0%,0%)" stroke-width="2" x1="80.8054865593" x2="80.9378179173" y1="39.1176521824" y2="38.9188194382" /><line stroke="rgb(0%,0%,0%)" stroke-width="2" x1="83.4478874957" x2="83.6560963547" y1="32.4980023481" y2="31.50113304" /><line stroke="rgb(0%,0%,0%)" stroke-width="2" x1="80.2162888316" x2="80.4447167861" y1="39.9149700234" y2="39.6155781503" /><line stroke="rgb(0%,0%,0%)" stroke-width="2" x1="80.2162888316" x2="79.9845850327" y1="39.9149700234" y2="40.1830316807" /><line stroke="rgb(0%,0%,0%)" stroke-width="2" x1="83.6990967787" x2="83.7644283839" y1="31.2532013" y2="30.836971497" /><line stroke="rgb(0%,0%,0%)" stroke-width="2" x1="83.7644283839" x2="83.8121837459" y1="30.836971497" y2="30.3819679407" /><line stroke="rgb(0%,0%,0%)" stroke-width="2" x1="79.532299638" x2="79.2067276738" y1="40.6883837492" y2="41.002701541" /><line stroke="rgb(0%,0%,0%)" stroke-width="2" x1="79.532299638" x2="79.9845850327" y1="40.6883837492" y2="40.1830316807" /><line stroke="rgb(0%,0%,0%)" stroke-width="2" x1="83.8639662405" x2="83.8685665637" y1="29.6645409312" y2="29.1856513831" /><line stroke="rgb(0%,0%,0%)" stroke-width="2" x1="83.8685665637" x2="83.8478071051" y1="29.1856513831" y2="28.8071375149" /><line stroke="rgb(0%,0%,0%)" stroke-width="2" x1="83.8592278172" x2="83.8473621619" y1="29.9050274016" y2="30.0698753742" /><line stroke="rgb(0%,0%,0%)" stroke-width="2" x1="83.8592278172" x2="83.8639662405" y1="29.9050274016" y2="29.6645409312" /><line stroke="rgb(0%,0%,0%)" stroke-width="2" x1="78.9807401811" x2="79.2067276738" y1="41.2210767971" y2="41.002701541" /><line stroke="rgb(0%,0%,0%)" stroke-width="2" x1="78.9807401811" x2="78.6384755428" y1="41.2210767971" y2="41.5255719514" /><line stroke="rgb(0%,0%,0%)" stroke-width="2" x1="83.8478071051" x2="83.8058980868" y1="28.8071375149" y2="28.3589386257" /><line stroke="rgb(0%,0%,0%)" stroke-width="2" x1="83.6904809571" x2="83.7818006618" y1="27.783656965" y2="28.2166037117" /><line stroke="rgb(0%,0%,0%)" stroke-width="2" x1="83.6904809571" x2="83.6159859069" y1="27.783656965" y2="27.520770739" /><line stroke="rgb(0%,0%,0%)" stroke-width="2" x1="78.4476425519" x2="78.6384755428" y1="41.7006607884" y2="41.5255719514" /><line stroke="rgb(0%,0%,0%)" stroke-width="2" x1="78.4476425519" x2="77.9714903108" y1="41.7006607884" y2="42.0906953368" /><line stroke="rgb(0%,0%,0%)" stroke-width="2" x1="77.2763231095" x2="77.4705231272" y1="42.6368516253" y2="42.4851820144" /><line stroke="rgb(0%,0%,0%)" stroke-width="2" x1="77.4705231272" x2="77.8292888874" y1="42.4851820144" y2="42.2132034898" /><line stroke="rgb(0%,0%,0%)" stroke-width="2" x1="83.2806775578" x2="83.4148107884" y1="26.7025260563" y2="26.9829932334" /><line stroke="rgb(0%,0%,0%)" stroke-width="2" x1="83.4148107884" x2="83.5050662979" y1="26.9829932334" y2="27.1933390741" /><line stroke="rgb(0%,0%,0%)" stroke-width="2" x1="77.2763231095" x2="77.0294346003" y1="42.6368516253" y2="42.8095759941" /><line stroke="rgb(0%,0%,0%)" stroke-width="2" x1="83.7818006618" x2="83.8058980868" y1="28.2166037117" y2="28.3589386257" /><line stroke="rgb(0%,0%,0%)" stroke-width="2" x1="83.2234299208" x2="83.1014056768" y1="26.5901541006" y2="26.3839829957" /><line stroke="rgb(0%,0%,0%)" stroke-width="2" x1="83.2234299208" x2="83.2806775578" y1="26.5901541006" y2="26.7025260563" /><line stroke="rgb(0%,0%,0%)" stroke-width="2" x1="76.8019634945" x2="77.0294346003" y1="42.957071053" y2="42.8095759941" /><line stroke="rgb(0%,0%,0%)" stroke-width="2" x1="76.2708031984" x2="75.9656051968" y1="43.2622416867" y2="43.4130591131" /><line stroke="rgb(0%,0%,0%)" stroke-width="2" x1="76.2708031984" x2="76.5064183285" y1="43.2622416867" y2="43.1377066857" /><line stroke="rgb(0%,0%,0%)" stroke-width="2" x1="82.9834667763" x2="82.7876615702" y1="26.1994624871" y2="25.9354940891" /><line stroke="rgb(0%,0%,0%)" stroke-width="2" x1="82.7876615702" x2="82.5877446048" y1="25.9354940891" y2="25.6856395536" /><line stroke="rgb(0%,0%,0%)" stroke-width="2" x1="76.5064183285" x2="76.8019634945" y1="43.1377066857" y2="42.957071053" /><line stroke="rgb(0%,0%,0%)" stroke-width="2" x1="81.7470071412" x2="82.165028904" y1="24.7992200128" y2="25.2190464647" /><line stroke="rgb(0%,0%,0%)" stroke-width="2" x1="81.7470071412" x2="81.6619126841" y1="24.7992200128" y2="24.7153451493" /><line stroke="rgb(0%,0%,0%)" stroke-width="2" x1="82.3851588482" x2="82.165028904" y1="25.4546213941" y2="25.2190464647" /><line stroke="rgb(0%,0%,0%)" stroke-width="2" x1="74.0229722884" x2="74.360343838" y1="43.9985365988" y2="43.9423834908" /><line stroke="rgb(0%,0%,0%)" stroke-width="2" x1="74.360343838" x2="74.4862783606" y1="43.9423834908" y2="43.915442752" /><line stroke="rgb(0%,0%,0%)" stroke-width="2" x1="77.876806185" x2="78.2919166052" y1="21.8512237587" y2="22.1141133326" /><line stroke="rgb(0%,0%,0%)" stroke-width="2" x1="78.2919166052" x2="78.6968340624" y1="22.1141133326" y2="22.379027878" /><line stroke="rgb(0%,0%,0%)" stroke-width="2" x1="79.9284717117" x2="79.5341199128" y1="23.2603948608" y2="22.9710627153" /><line stroke="rgb(0%,0%,0%)" stroke-width="2" x1="79.5341199128" x2="79.1454786512" y1="22.9710627153" y2="22.6917526285" /><line stroke="rgb(0%,0%,0%)" stroke-width="2" x1="79.9284717117" x2="80.6828851885" y1="23.2603948608" y2="23.8597750911" /><line stroke="rgb(0%,0%,0%)" stroke-width="2" x1="80.6828851885" x2="80.8750357837" y1="23.8597750911" y2="24.01651899" /><line stroke="rgb(0%,0%,0%)" stroke-width="2" x1="81.6619126841" x2="81.5771216065" y1="24.7153451493" y2="24.6384155914" /><line stroke="rgb(0%,0%,0%)" stroke-width="2" x1="74.136100166" x2="74.3546992171" y1="20.2629155429" y2="20.3126782648" /><line stroke="rgb(0%,0%,0%)" stroke-width="2" x1="75.2194892661" x2="75.54347701" y1="20.5668961256" y2="20.6930870902" /><line stroke="rgb(0%,0%,0%)" stroke-width="2" x1="77.0153444735" x2="77.2491269333" y1="21.3651463354" y2="21.4901276768" /><line stroke="rgb(0%,0%,0%)" stroke-width="2" x1="77.2491269333" x2="77.5597622074" y1="21.4901276768" y2="21.6656387291" /><line stroke="rgb(0%,0%,0%)" stroke-width="2" x1="77.5597622074" x2="77.876806185" y1="21.6656387291" y2="21.8512237587" /><line stroke="rgb(0%,0%,0%)" stroke-width="2" x1="77.0153444735" x2="76.3709746931" y1="21.3651463354" y2="21.0433510126" /><line stroke="rgb(0%,0%,0%)" stroke-width="2" x1="76.3709746931" x2="76.1103811754" y1="21.0433510126" y2="20.9223561942" /><line stroke="rgb(0%,0%,0%)" stroke-width="2" x1="74.0229722884" x2="73.6751350929" y1="43.9985365988" y2="44.0642914361" /><line stroke="rgb(0%,0%,0%)" stroke-width="2" x1="73.6751350929" x2="73.5256047524" y1="44.0642914361" y2="44.0808158453" /><line stroke="rgb(0%,0%,0%)" stroke-width="2" x1="73.5256047524" x2="73.1050956223" y1="44.0808158453" y2="44.1277902808" /><line stroke="rgb(0%,0%,0%)" stroke-width="2" x1="72.5160686927" x2="72.9580526109" y1="20.0209319418" y2="20.0570012658" /><line stroke="rgb(0%,0%,0%)" stroke-width="2" x1="73.7218859845" x2="74.136100166" y1="20.1753188411" y2="20.2629155429" /><line stroke="rgb(0%,0%,0%)" stroke-width="2" x1="73.7218859845" x2="73.1840701479" y1="20.1753188411" y2="20.0866642875" /><line stroke="rgb(0%,0%,0%)" stroke-width="2" x1="75.54347701" x2="76.1103811754" y1="20.6930870902" y2="20.9223561942" /><line stroke="rgb(0%,0%,0%)" stroke-width="2" x1="72.3682745035" x2="72.830445188" y1="44.1668902764" y2="44.1414826595" /><line stroke="rgb(0%,0%,0%)" stroke-width="2" x1="72.830445188" x2="73.1050956223" y1="44.1414826595" y2="44.1277902808" /><line stroke="rgb(0%,0%,0%)" stroke-width="2" x1="72.1378309314" x2="72.2720650441" y1="20.0" y2="20.0024903074" /><line stroke="rgb(0%,0%,0%)" stroke-width="2" x1="72.9580526109" x2="73.0543069146" y1="20.0570012658" y2="20.0690871317" /><line stroke="rgb(0%,0%,0%)" stroke-width="2" x1="73.0543069146" x2="73.1840701479" y1="20.0690871317" y2="20.0866642875" /><line stroke="rgb(0%,0%,0%)" stroke-width="2" x1="72.3682745035" x2="72.0482611255" y1="44.1668902764" y2="44.1689472936" /><line stroke="rgb(0%,0%,0%)" stroke-width="2" x1="72.0482611255" x2="71.3920587369" y1="44.1689472936" y2="44.1623772077" /><line stroke="rgb(0%,0%,0%)" stroke-width="2" x1="71.6707269772" x2="72.1378309314" y1="20.0043313923" y2="20.0" /><line stroke="rgb(0%,0%,0%)" stroke-width="2" x1="71.6707269772" x2="71.3998067074" y1="20.0043313923" y2="20.0207640282" /><line stroke="rgb(0%,0%,0%)" stroke-width="2" x1="69.5536952444" x2="69.9725595535" y1="20.2978870139" y2="20.2078627854" /><line stroke="rgb(0%,0%,0%)" stroke-width="2" x1="71.3998067074" x2="70.9445329953" y1="20.0207640282" y2="20.0578818833" /><line stroke="rgb(0%,0%,0%)" stroke-width="2" x1="70.9445329953" x2="70.4626585497" y1="20.0578818833" y2="20.1151101079" /><line stroke="rgb(0%,0%,0%)" stroke-width="2" x1="71.3920587369" x2="71.0120489999" y1="44.1623772077" y2="44.1327251559" /><line stroke="rgb(0%,0%,0%)" stroke-width="2" x1="71.0120489999" x2="70.4478135293" y1="44.1327251559" y2="44.0974782798" /><line stroke="rgb(0%,0%,0%)" stroke-width="2" x1="70.4478135293" x2="69.9000688142" y1="44.0974782798" y2="44.0025450963" /><line stroke="rgb(0%,0%,0%)" stroke-width="2" x1="69.6978342666" x2="69.9000688142" y1="43.9734591414" y2="44.0025450963" /><line stroke="rgb(0%,0%,0%)" stroke-width="2" x1="69.6978342666" x2="69.5945302237" y1="43.9734591414" y2="43.9540886392" /><line stroke="rgb(0%,0%,0%)" stroke-width="2" x1="69.5536952444" x2="69.4844559097" y1="20.2978870139" y2="20.3174919503" /><line stroke="rgb(0%,0%,0%)" stroke-width="2" x1="69.4844559097" x2="68.5491346417" y1="20.3174919503" y2="20.5991051479" /><line stroke="rgb(0%,0%,0%)" stroke-width="2" x1="70.3445582353" x2="69.9725595535" y1="20.1331088127" y2="20.2078627854" /><line stroke="rgb(0%,0%,0%)" stroke-width="2" x1="65.1194254314" x2="64.9408358247" y1="22.4106249715" y2="22.5359791532" /><line stroke="rgb(0%,0%,0%)" stroke-width="2" x1="65.6044389299" x2="65.2447946029" y1="22.0970488443" y2="22.328381377" /><line stroke="rgb(0%,0%,0%)" stroke-width="2" x1="65.2447946029" x2="65.1194254314" y1="22.328381377" y2="22.4106249715" /><line stroke="rgb(0%,0%,0%)" stroke-width="2" x1="67.2055217317" x2="67.6003728195" y1="21.1877212062" y2="20.9943074658" /><line stroke="rgb(0%,0%,0%)" stroke-width="2" x1="68.4570378204" x2="68.5265494097" y1="20.6349946374" y2="20.6067118355" /><line stroke="rgb(0%,0%,0%)" stroke-width="2" x1="69.5945302237" x2="69.0004412637" y1="43.9540886392" y2="43.805058782" /><line stroke="rgb(0%,0%,0%)" stroke-width="2" x1="69.0004412637" x2="68.8640275811" y1="43.805058782" y2="43.7653807793" /><line stroke="rgb(0%,0%,0%)" stroke-width="2" x1="68.8640275811" x2="68.4081160866" y1="43.7653807793" y2="43.6091927684" /><line stroke="rgb(0%,0%,0%)" stroke-width="2" x1="68.4081160866" x2="68.1393075551" y1="43.6091927684" y2="43.5035341067" /><line stroke="rgb(0%,0%,0%)" stroke-width="2" x1="63.665393537" x2="64.2373308119" y1="23.4801332067" y2="23.0424575503" /><line stroke="rgb(0%,0%,0%)" stroke-width="2" x1="63.665393537" x2="63.4307848492" y1="23.4801332067" y2="23.6602100514" /><line stroke="rgb(0%,0%,0%)" stroke-width="2" x1="64.2373308119" x2="64.9408358247" y1="23.0424575503" y2="22.5359791532" /><line stroke="rgb(0%,0%,0%)" stroke-width="2" x1="65.9428821684" x2="66.1330329755" y1="21.8812151832" y2="21.7676796337" /><line stroke="rgb(0%,0%,0%)" stroke-width="2" x1="67.8466734189" x2="67.6053207749" y1="43.3817947776" y2="43.2564581502" /><line stroke="rgb(0%,0%,0%)" stroke-width="2" x1="67.8466734189" x2="68.1393075551" y1="43.3817947776" y2="43.5035341067" /><line stroke="rgb(0%,0%,0%)" stroke-width="2" x1="60.2791220489" x2="60.1601322025" y1="31.8427883745" y2="31.166482697" /><line stroke="rgb(0%,0%,0%)" stroke-width="2" x1="60.0204175095" x2="60.038598972" y1="29.9870852416" y2="30.2415641621" /><line stroke="rgb(0%,0%,0%)" stroke-width="2" x1="60.038598972" x2="60.0898013435" y1="30.2415641621" y2="30.6660708667" /><line stroke="rgb(0%,0%,0%)" stroke-width="2" x1="60.0" x2="60.01344843" y1="29.3839740783" y2="29.0914318722" /><line stroke="rgb(0%,0%,0%)" stroke-width="2" x1="60.01344843" x2="60.0151273667" y1="29.0914318722" y2="28.8899506065" /><line stroke="rgb(0%,0%,0%)" stroke-width="2" x1="61.9771369587" x2="61.8014479969" y1="24.9399592028" y2="25.1202009542" /><line stroke="rgb(0%,0%,0%)" stroke-width="2" x1="62.8318801919" x2="62.3955654175" y1="24.1597417481" y2="24.5519119689" /><line stroke="rgb(0%,0%,0%)" stroke-width="2" x1="62.3955654175" x2="61.9771369587" y1="24.5519119689" y2="24.9399592028" /><line stroke="rgb(0%,0%,0%)" stroke-width="2" x1="63.1712021627" x2="63.4307848492" y1="23.8740283067" y2="23.6602100514" /><line stroke="rgb(0%,0%,0%)" stroke-width="2" x1="66.7358262496" x2="67.2055217317" y1="21.4260496503" y2="21.1877212062" /><line stroke="rgb(0%,0%,0%)" stroke-width="2" x1="67.2926442868" x2="67.6053207749" y1="43.0898145521" y2="43.2564581502" /><line stroke="rgb(0%,0%,0%)" stroke-width="2" x1="67.16682198" x2="67.2926442868" y1="43.0057546779" y2="43.0898145521" /><line stroke="rgb(0%,0%,0%)" stroke-width="2" x1="67.16682198" x2="66.7852441181" y1="43.0057546779" y2="42.7635657998" /><line stroke="rgb(0%,0%,0%)" stroke-width="2" x1="62.0602382909" x2="62.2983169103" y1="37.3258068604" y2="37.8064591473" /><line stroke="rgb(0%,0%,0%)" stroke-width="2" x1="61.6961561328" x2="61.6962229953" y1="36.4955808412" y2="36.4957363956" /><line stroke="rgb(0%,0%,0%)" stroke-width="2" x1="61.6962229953" x2="61.6960411969" y1="36.4957363956" y2="36.4953218376" /><line stroke="rgb(0%,0%,0%)" stroke-width="2" x1="61.6961092661" x2="61.6961561328" y1="36.4954546029" y2="36.4955808412" /><line stroke="rgb(0%,0%,0%)" stroke-width="2" x1="61.6961092661" x2="61.291106102" y1="36.4954546029" y2="35.414468241" /><line stroke="rgb(0%,0%,0%)" stroke-width="2" x1="61.2179964609" x2="61.291106102" y1="35.1923066517" y2="35.414468241" /><line stroke="rgb(0%,0%,0%)" stroke-width="2" x1="61.2179964609" x2="60.9511611257" y1="35.1923066517" y2="34.4082075518" /><line stroke="rgb(0%,0%,0%)" stroke-width="2" x1="60.5485571943" x2="60.7395516643" y1="32.9904158176" y2="33.6787133903" /><line stroke="rgb(0%,0%,0%)" stroke-width="2" x1="60.7395516643" x2="60.9511611257" y1="33.6787133903" y2="34.4082075518" /><line stroke="rgb(0%,0%,0%)" stroke-width="2" x1="60.0" x2="60.0204175095" y1="29.3839740783" y2="29.9870852416" /><line stroke="rgb(0%,0%,0%)" stroke-width="2" x1="60.0425901251" x2="60.0481437243" y1="28.6042662621" y2="28.5499455786" /><line stroke="rgb(0%,0%,0%)" stroke-width="2" x1="60.0481437243" x2="60.0763361653" y1="28.5499455786" y2="28.2995309342" /><line stroke="rgb(0%,0%,0%)" stroke-width="2" x1="60.0151273667" x2="60.0425901251" y1="28.8899506065" y2="28.6042662621" /><line stroke="rgb(0%,0%,0%)" stroke-width="2" x1="60.2370161721" x2="60.2206765157" y1="27.5520115611" y2="27.6210309908" /><line stroke="rgb(0%,0%,0%)" stroke-width="2" x1="61.0103746855" x2="61.1530333127" y1="26.0228522566" y2="25.8512094444" /><line stroke="rgb(0%,0%,0%)" stroke-width="2" x1="61.3754340406" x2="61.4842116516" y1="25.5828579305" y2="25.4564674991" /><line stroke="rgb(0%,0%,0%)" stroke-width="2" x1="61.4842116516" x2="61.8014479969" y1="25.4564674991" y2="25.1202009542" /><line stroke="rgb(0%,0%,0%)" stroke-width="2" x1="60.3568888069" x2="60.5485571943" y1="32.1897765476" y2="32.9904158176" /><line stroke="rgb(0%,0%,0%)" stroke-width="2" x1="60.1244371958" x2="60.1601322025" y1="30.9518644043" y2="31.166482697" /><line stroke="rgb(0%,0%,0%)" stroke-width="2" x1="60.1168848774" x2="60.0898013435" y1="30.8779517563" y2="30.6660708667" /><line stroke="rgb(0%,0%,0%)" stroke-width="2" x1="60.1168848774" x2="60.1244371958" y1="30.8779517563" y2="30.9518644043" /><line stroke="rgb(0%,0%,0%)" stroke-width="2" x1="60.4443803962" x2="60.4918621179" y1="27.011118028" y2="26.8846471172" /><line stroke="rgb(0%,0%,0%)" stroke-width="2" x1="60.4918621179" x2="60.5464811428" y1="26.8846471172" y2="26.7662796195" /><line stroke="rgb(0%,0%,0%)" stroke-width="2" x1="60.2370161721" x2="60.4443803962" y1="27.5520115611" y2="27.011118028" /><line stroke="rgb(0%,0%,0%)" stroke-width="2" x1="60.8097458054" x2="61.0103746855" y1="26.3362786912" y2="26.0228522566" /><line stroke="rgb(0%,0%,0%)" stroke-width="2" x1="60.8097458054" x2="60.5464811428" y1="26.3362786912" y2="26.7662796195" /><line stroke="rgb(0%,0%,0%)" stroke-width="2" x1="61.3754340406" x2="61.1530333127" y1="25.5828579305" y2="25.8512094444" /><line stroke="rgb(0%,0%,0%)" stroke-width="2" x1="66.3419491438" x2="66.7852441181" y1="42.43599" y2="42.7635657998" /><line stroke="rgb(0%,0%,0%)" stroke-width="2" x1="62.5290900123" x2="62.4119881303" y1="38.231883791" y2="38.0320137856" /><line stroke="rgb(0%,0%,0%)" stroke-width="2" x1="62.2983169103" x2="62.4119881303" y1="37.8064591473" y2="38.0320137856" /><line stroke="rgb(0%,0%,0%)" stroke-width="2" x1="65.6843329145" x2="66.3140729921" y1="41.9079293244" y2="42.4146204752" /><line stroke="rgb(0%,0%,0%)" stroke-width="2" x1="66.3140729921" x2="66.3309238712" y1="42.4146204752" y2="42.4280666466" /><line stroke="rgb(0%,0%,0%)" stroke-width="2" x1="65.6843329145" x2="65.1028990383" y1="41.9079293244" y2="41.4043799816" /><line stroke="rgb(0%,0%,0%)" stroke-width="2" x1="65.044754529" x2="65.1028990383" y1="41.3554825917" y2="41.4043799816" /><line stroke="rgb(0%,0%,0%)" stroke-width="2" x1="64.0832620126" x2="64.3306184459" y1="40.4031428924" y2="40.6687211741" /><line stroke="rgb(0%,0%,0%)" stroke-width="2" x1="64.0832620126" x2="63.8220855202" y1="40.4031428924" y2="40.1085526823" /><line stroke="rgb(0%,0%,0%)" stroke-width="2" x1="63.5818490114" x2="63.4209094596" y1="39.8172067196" y2="39.5968787404" /><line stroke="rgb(0%,0%,0%)" stroke-width="2" x1="63.4209094596" x2="63.184919889" y1="39.5968787404" y2="39.2825540914" /><line stroke="rgb(0%,0%,0%)" stroke-width="2" x1="63.184919889" x2="63.0504342511" y1="39.2825540914" y2="39.084230375" /><line stroke="rgb(0%,0%,0%)" stroke-width="2" x1="62.8724553015" x2="62.5290900123" y1="38.8180004346" y2="38.231883791" /><line stroke="rgb(0%,0%,0%)" stroke-width="2" x1="62.8724553015" x2="63.0504342511" y1="38.8180004346" y2="39.084230375" /><line stroke="rgb(0%,0%,0%)" stroke-width="2" x1="65.044754529" x2="65.0260960396" y1="41.3554825917" y2="41.3393022022" /><line stroke="rgb(0%,0%,0%)" stroke-width="2" x1="65.0260960396" x2="64.4493288756" y1="41.3393022022" y2="40.7855974513" /><line stroke="rgb(0%,0%,0%)" stroke-width="2" x1="64.4493288756" x2="64.3306184459" y1="40.7855974513" y2="40.6687211741" /><line stroke="rgb(0%,0%,0%)" stroke-width="2" x1="74.9632921666" x2="75.2131134501" y1="43.7877321236" y2="43.7055583317" /><line stroke="rgb(0%,0%,0%)" stroke-width="2" x1="75.2131134501" x2="75.580141283" y1="43.7055583317" y2="43.5762479686" /><line stroke="rgb(0%,0%,0%)" stroke-width="2" x1="83.2630084909" x2="83.1434063615" y1="33.2228218513" y2="33.649532658" /><line stroke="rgb(0%,0%,0%)" stroke-width="2" x1="83.4478874957" x2="83.4034651087" y1="32.4980023481" y2="32.6794625758" /><line stroke="rgb(0%,0%,0%)" stroke-width="2" x1="80.6544597488" x2="80.4447167861" y1="39.3363360982" y2="39.6155781503" /><line stroke="rgb(0%,0%,0%)" stroke-width="2" x1="83.8473621619" x2="83.8121837459" y1="30.0698753742" y2="30.3819679407" /><line stroke="rgb(0%,0%,0%)" stroke-width="2" x1="77.8292888874" x2="77.9714903108" y1="42.2132034898" y2="42.0906953368" /><line stroke="rgb(0%,0%,0%)" stroke-width="2" x1="83.6159859069" x2="83.5050662979" y1="27.520770739" y2="27.1933390741" /><line stroke="rgb(0%,0%,0%)" stroke-width="2" x1="82.9834667763" x2="83.1014056768" y1="26.1994624871" y2="26.3839829957" /><line stroke="rgb(0%,0%,0%)" stroke-width="2" x1="82.5877446048" x2="82.3851588482" y1="25.6856395536" y2="25.4546213941" /><line stroke="rgb(0%,0%,0%)" stroke-width="2" x1="80.8750357837" x2="81.5771216065" y1="24.01651899" y2="24.6384155914" /><line stroke="rgb(0%,0%,0%)" stroke-width="2" x1="74.9632921666" x2="74.4862783606" y1="43.7877321236" y2="43.915442752" /><line stroke="rgb(0%,0%,0%)" stroke-width="2" x1="78.6968340624" x2="79.1454786512" y1="22.379027878" y2="22.6917526285" /><line stroke="rgb(0%,0%,0%)" stroke-width="2" x1="75.2194892661" x2="75.0889257425" y1="20.5668961256" y2="20.5251776887" /><line stroke="rgb(0%,0%,0%)" stroke-width="2" x1="72.5160686927" x2="72.2720650441" y1="20.0209319418" y2="20.0024903074" /><line stroke="rgb(0%,0%,0%)" stroke-width="2" x1="74.3546992171" x2="75.0889257425" y1="20.3126782648" y2="20.5251776887" /><line stroke="rgb(0%,0%,0%)" stroke-width="2" x1="70.3445582353" x2="70.4626585497" y1="20.1331088127" y2="20.1151101079" /><line stroke="rgb(0%,0%,0%)" stroke-width="2" x1="68.5491346417" x2="68.5265494097" y1="20.5991051479" y2="20.6067118355" /><line stroke="rgb(0%,0%,0%)" stroke-width="2" x1="67.6003728195" x2="68.4570378204" y1="20.9943074658" y2="20.6349946374" /><line stroke="rgb(0%,0%,0%)" stroke-width="2" x1="65.9428821684" x2="65.6044389299" y1="21.8812151832" y2="22.0970488443" /><line stroke="rgb(0%,0%,0%)" stroke-width="2" x1="66.7358262496" x2="66.1330329755" y1="21.4260496503" y2="21.7676796337" /><line stroke="rgb(0%,0%,0%)" stroke-width="2" x1="60.2791220489" x2="60.3568888069" y1="31.8427883745" y2="32.1897765476" /><line stroke="rgb(0%,0%,0%)" stroke-width="2" x1="62.8318801919" x2="63.1712021627" y1="24.1597417481" y2="23.8740283067" /><line stroke="rgb(0%,0%,0%)" stroke-width="2" x1="60.2206765157" x2="60.0763361653" y1="27.6210309908" y2="28.2995309342" /><line stroke="rgb(0%,0%,0%)" stroke-width="2" x1="66.3309238712" x2="66.3419491438" y1="42.4280666466" y2="42.43599" /><line stroke="rgb(0%,0%,0%)" stroke-width="2" x1="63.8220855202" x2="63.5818490114" y1="40.1085526823" y2="39.8172067196" /><line stroke="rgb(0%,0%,0%)" stroke-width="2" x1="75.9656051968" x2="75.8461361476" y1="43.4130591131" y2="43.4616320195" /><line stroke="rgb(0%,0%,0%)" stroke-width="2" x1="75.580141283" x2="75.8461361476" y1="43.5762479686" y2="43.4616320195" /></svg>