<?xml version="1.0" encoding="utf-8" ?>
<svg baseProfile="full" height="100%" version="1.1" width="100%" xmlns="http://www.w3.org/2000/svg" xmlns:ev="http://www.w3.org/2001/xml-events" xmlns:xlink="http://www.w3.org/1999/xlink"><defs /><text font-family="Verdana" font-size="12" style="fill: #ff0000; width:1000px; color:red; font-weight:100;" text-anchor="middle" x="20.0" y="20.0">X1</text><line stroke="rgb(0%,0%,0%)" stroke-width="2" x1="20.0" x2="20.0" y1="20.0" y2="20.0" /><line stroke="rgb(0%,0%,0%)" stroke-width="2" x1="20.0" x2="20.0" y1="20.0" y2="20.0" /><line stroke="rgb(0%,0%,0%)" stroke-width="2" x1="20.0" x2="20.0" y1="20.0" y2="20.0" /><line stroke="rgb(0%,0%,0%)" stroke-width="2" x1="20.0" x2="20.0" y1="20.0" y2="20.0" /><line stroke="rgb(0%,0%,0%)" stroke-width="2" x1="20.0" x2="20.0" y1="20.0" y2="20.0" /><text font-family="Verdana" font-size="12" style="fill: #ff0000; width:1000px; color:red; font-weight:100;" text-anchor="middle" x="40.0" y="20.0">Y1</text><line stroke="rgb(0%,0%,0%)" stroke-width="2" x1="40.0" x2="40.0" y1="20.0" y2="20.0" /><line stroke="rgb(0%,0%,0%)" stroke-width="2" x1="40.0" x2="40.0" y1="20.0" y2="20.0" /><line stroke="rgb(0%,0%,0%)" stroke-width="2" x1="40.0" x2="40.0" y1="20.0" y2="20.0" /><line stroke="rgb(0%,0%,0%)" stroke-width="2" x1="40.0" x2="40.0" y1="20.0" y2="20.0" /><line stroke="rgb(0%,0%,0%)" stroke-width="2" x1="40.0" x2="40.0" y1="20.0" y2="20.0" /><line stroke="rgb(0%,0%,0%)" stroke-width="2" x1="40.0" x2="40.0" y1="20.0" y2="20.0" /><line stroke="rgb(0%,0%,0%)" stroke-width="2" x1="40.0" x2="40.0" y1="20.0" y2="20.0" /><text font-family="Verdana" font-size="12" style="fill: #ff0000; width:1000px; color:red; font-weight:100;" text-anchor="middle" x="68.1965969381" y="29.8817713853">Y2</text><line stroke="rgb(0%,0%,0%)" stroke-width="2" x1="63.9502097519" x2="63.9502097519" y1="20.7724451566" y2="33.5822886572" /><line stroke="rgb(0%,0%,0%)" stroke-width="2" x1="67.9004195038" x2="67.9004195038" y1="25.0177932552" y2="41.2880471304" /><line stroke="rgb(0%,0%,0%)" stroke-width="2" x1="71.8506292558" x2="71.8506292558" y1="20.6424587225" y2="33.9664494928" /><line stroke="rgb(0%,0%,0%)" stroke-width="2" x1="75.7686358228" x2="75.7639196593" y1="28.8969315305" y2="28.52507116" /><line stroke="rgb(0%,0%,0%)" stroke-width="2" x1="63.559891256" x2="63.7490219945" y1="38.0861919796" y2="38.3333615405" /><line stroke="rgb(0%,0%,0%)" stroke-width="2" x1="69.1045118321" x2="69.1085202214" y1="41.0672956896" y2="41.0654934391" /><line stroke="rgb(0%,0%,0%)" stroke-width="2" x1="70.4288294512" x2="70.4790113507" y1="40.3005794748" y2="40.2662947303" /><line stroke="rgb(0%,0%,0%)" stroke-width="2" x1="62.4680024051" x2="62.391507608" y1="36.0378055249" y2="35.776263092" /><line stroke="rgb(0%,0%,0%)" stroke-width="2" x1="73.6129088673" x2="73.6159530013" y1="36.20616493" y2="36.1972357479" /><line stroke="rgb(0%,0%,0%)" stroke-width="2" x1="64.2323434716" x2="64.365344786" y1="20.6713403602" y2="20.6276016692" /><line stroke="rgb(0%,0%,0%)" stroke-width="2" x1="68.6466142749" x2="68.6153499124" y1="41.2226976315" y2="41.2316132478" /><line stroke="rgb(0%,0%,0%)" stroke-width="2" x1="68.2459949682" x2="68.0112704195" y1="20.0015077203" y2="20.0087124097" /><line stroke="rgb(0%,0%,0%)" stroke-width="2" x1="75.4525108335" x2="75.3826234413" y1="23.2895370782" y2="23.1343009534" /><line stroke="rgb(0%,0%,0%)" stroke-width="2" x1="60.5854996683" x2="60.5699774304" y1="23.5747282786" y2="23.6633524212" /><line stroke="rgb(0%,0%,0%)" stroke-width="2" x1="71.1563591901" x2="71.2367506018" y1="20.3267746575" y2="20.3690006526" /><line stroke="rgb(0%,0%,0%)" stroke-width="2" x1="74.4191918314" x2="74.1283225078" y1="33.5219724202" y2="33.8884775348" /><line stroke="rgb(0%,0%,0%)" stroke-width="2" x1="64.8652035395" x2="65.1484844229" y1="20.4208051443" y2="20.2969463884" /><line stroke="rgb(0%,0%,0%)" stroke-width="2" x1="73.7490398164" x2="73.7234434903" y1="35.7024270961" y2="35.8166011014" /><line stroke="rgb(0%,0%,0%)" stroke-width="2" x1="69.4012022148" x2="69.3728987273" y1="20.0079211176" y2="20.0094556538" /><line stroke="rgb(0%,0%,0%)" stroke-width="2" x1="75.6588321842" x2="75.6602965423" y1="26.2978192551" y2="26.4737311849" /><line stroke="rgb(0%,0%,0%)" stroke-width="2" x1="61.366590916" x2="61.3194023873" y1="33.2952135577" y2="33.2209495575" /><line stroke="rgb(0%,0%,0%)" stroke-width="2" x1="73.2875351326" x2="73.1375812579" y1="36.9775675108" y2="37.2419396742" /><line stroke="rgb(0%,0%,0%)" stroke-width="2" x1="72.8158343838" x2="72.8937931692" y1="37.7457269772" y2="37.6251969706" /><line stroke="rgb(0%,0%,0%)" stroke-width="2" x1="75.4936948764" x2="75.5266578685" y1="23.3952493495" y2="23.5079571452" /><line stroke="rgb(0%,0%,0%)" stroke-width="2" x1="72.9281115448" x2="73.2225387552" y1="21.0856479467" y2="21.253774727" /><line stroke="rgb(0%,0%,0%)" stroke-width="2" x1="68.4328659236" x2="68.6153499124" y1="41.2702385725" y2="41.2316132478" /><line stroke="rgb(0%,0%,0%)" stroke-width="2" x1="63.5901358413" x2="63.7219682706" y1="20.9078153165" y2="20.8553449091" /><line stroke="rgb(0%,0%,0%)" stroke-width="2" x1="66.7415475646" x2="66.5378140579" y1="40.9453880897" y2="40.8402261531" /><line stroke="rgb(0%,0%,0%)" stroke-width="2" x1="65.7665292405" x2="66.0880604597" y1="40.3544415369" y2="40.5734419651" /><line stroke="rgb(0%,0%,0%)" stroke-width="2" x1="73.9164300555" x2="73.9483515902" y1="34.3356256895" y2="34.1999443677" /><line stroke="rgb(0%,0%,0%)" stroke-width="2" x1="74.9989381266" x2="75.1355100428" y1="32.6778312717" y2="32.4110243326" /><line stroke="rgb(0%,0%,0%)" stroke-width="2" x1="62.7951246146" x2="62.8202910495" y1="36.8730855998" y2="36.9247258391" /><line stroke="rgb(0%,0%,0%)" stroke-width="2" x1="61.2203225337" x2="61.225832502" y1="22.5440710988" y2="22.5385569431" /><line stroke="rgb(0%,0%,0%)" stroke-width="2" x1="69.4012022148" x2="69.4657813766" y1="20.0079211176" y2="20.0075818415" /><line stroke="rgb(0%,0%,0%)" stroke-width="2" x1="60.0428936887" x2="60.0239906936" y1="27.3618183036" y2="27.4953927246" /><line stroke="rgb(0%,0%,0%)" stroke-width="2" x1="72.5191427014" x2="72.4636412351" y1="20.8940761772" y2="20.8704493549" /><line stroke="rgb(0%,0%,0%)" stroke-width="2" x1="68.0112704195" x2="67.7165967623" y1="20.0087124097" y2="20.0328519124" /><line stroke="rgb(0%,0%,0%)" stroke-width="2" x1="70.5656359309" x2="70.787003828" y1="40.2001683245" y2="40.0185902068" /><line stroke="rgb(0%,0%,0%)" stroke-width="2" x1="61.9543695698" x2="61.976765217" y1="34.2843096973" y2="34.3478858438" /><line stroke="rgb(0%,0%,0%)" stroke-width="2" x1="63.3995096083" x2="63.1137379312" y1="20.9950928455" y2="21.1368061857" /><line stroke="rgb(0%,0%,0%)" stroke-width="2" x1="60.4619030624" x2="60.4811671802" y1="24.4719907954" y2="24.3569441599" /><line stroke="rgb(0%,0%,0%)" stroke-width="2" x1="62.576603807" x2="62.5765276106" y1="36.3611487436" y2="36.3609265649" /><line stroke="rgb(0%,0%,0%)" stroke-width="2" x1="75.7084663196" x2="75.7220744833" y1="25.4297594187" y2="25.3530734525" /><line stroke="rgb(0%,0%,0%)" stroke-width="2" x1="70.0695925191" x2="70.130878458" y1="40.5457823497" y2="40.5080988724" /><line stroke="rgb(0%,0%,0%)" stroke-width="2" x1="73.7457769526" x2="74.3637764407" y1="21.5891965816" y2="22.0791570314" /><line stroke="rgb(0%,0%,0%)" stroke-width="2" x1="75.3542085058" x2="75.258515804" y1="31.9021251291" y2="32.1502522966" /><line stroke="rgb(0%,0%,0%)" stroke-width="2" x1="75.5982328178" x2="75.5980159325" y1="30.9540905849" y2="30.955154477" /><line stroke="rgb(0%,0%,0%)" stroke-width="2" x1="70.787003828" x2="70.8464097343" y1="40.0185902068" y2="39.9685559264" /><line stroke="rgb(0%,0%,0%)" stroke-width="2" x1="65.0197765448" x2="65.2576497355" y1="39.7300574567" y2="39.948171854" /><line stroke="rgb(0%,0%,0%)" stroke-width="2" x1="68.4328659236" x2="68.4096624736" y1="41.2702385725" y2="41.2747641997" /><line stroke="rgb(0%,0%,0%)" stroke-width="2" x1="67.5410806167" x2="67.6212090295" y1="41.2388720348" y2="41.2580035138" /><line stroke="rgb(0%,0%,0%)" stroke-width="2" x1="75.7220744833" x2="75.7297723578" y1="25.3530734525" y2="25.1099784798" /><line stroke="rgb(0%,0%,0%)" stroke-width="2" x1="72.7512077375" x2="72.7145036375" y1="37.8368065088" y2="37.8876274784" /><line stroke="rgb(0%,0%,0%)" stroke-width="2" x1="61.5256312663" x2="62.1666422904" y1="22.280105238" y2="21.7662946859" /><line stroke="rgb(0%,0%,0%)" stroke-width="2" x1="61.225832502" x2="61.2335630972" y1="22.5385569431" y2="22.5311920927" /><line stroke="rgb(0%,0%,0%)" stroke-width="2" x1="66.4605716098" x2="66.3991859943" y1="40.7975243548" y2="40.7626014906" /><line stroke="rgb(0%,0%,0%)" stroke-width="2" x1="60.8546563687" x2="60.7709471023" y1="32.361810524" y2="32.1688021306" /><line stroke="rgb(0%,0%,0%)" stroke-width="2" x1="62.3750709821" x2="62.2495547081" y1="35.7170278951" y2="35.2207641589" /><line stroke="rgb(0%,0%,0%)" stroke-width="2" x1="73.7234434903" x2="73.6303636403" y1="35.8166011014" y2="36.1453506883" /><line stroke="rgb(0%,0%,0%)" stroke-width="2" x1="60.6575149836" x2="60.7360445921" y1="23.3506040977" y2="23.1697855433" /><line stroke="rgb(0%,0%,0%)" stroke-width="2" x1="75.6588321842" x2="75.6611567967" y1="26.2978192551" y2="26.2462205288" /><line stroke="rgb(0%,0%,0%)" stroke-width="2" x1="74.9989381266" x2="74.9660095877" y1="32.6778312717" y2="32.7302086073" /><line stroke="rgb(0%,0%,0%)" stroke-width="2" x1="67.781366974" x2="67.8249573119" y1="41.2797468107" y2="41.2836319177" /><line stroke="rgb(0%,0%,0%)" stroke-width="2" x1="60.1153936907" x2="60.1929510869" y1="29.299094121" y2="29.9147328084" /><line stroke="rgb(0%,0%,0%)" stroke-width="2" x1="60.4905076235" x2="60.4827562361" y1="24.2429802451" y2="24.3361800953" /><line stroke="rgb(0%,0%,0%)" stroke-width="2" x1="75.5975199892" x2="75.4647860563" y1="30.9574685998" y2="31.5318109798" /><line stroke="rgb(0%,0%,0%)" stroke-width="2" x1="60.1929510869" x2="60.2141286459" y1="29.9147328084" y2="30.0436659015" /><line stroke="rgb(0%,0%,0%)" stroke-width="2" x1="68.713151044" x2="68.4484311171" y1="20.0035905076" y2="20.0" /><line stroke="rgb(0%,0%,0%)" stroke-width="2" x1="66.0108745227" x2="65.9255769979" y1="20.1037502668" y2="20.1062413398" /><line stroke="rgb(0%,0%,0%)" stroke-width="2" x1="65.9255769979" x2="65.6170477948" y1="20.1062413398" y2="20.1483076135" /><line stroke="rgb(0%,0%,0%)" stroke-width="2" x1="60.5689985891" x2="60.4528925033" y1="31.5707856779" y2="31.1539588411" /><line stroke="rgb(0%,0%,0%)" stroke-width="2" x1="60.7709471023" x2="60.6830981792" y1="32.1688021306" y2="31.9281669404" /><line stroke="rgb(0%,0%,0%)" stroke-width="2" x1="75.7035464141" x2="75.7142558699" y1="27.0695499984" y2="27.162857412" /><line stroke="rgb(0%,0%,0%)" stroke-width="2" x1="62.5766983142" x2="62.5765276106" y1="36.3614348149" y2="36.3609265649" /><line stroke="rgb(0%,0%,0%)" stroke-width="2" x1="74.0219207402" x2="73.9751474489" y1="34.0595541116" y2="34.1369310336" /><line stroke="rgb(0%,0%,0%)" stroke-width="2" x1="67.0491112372" x2="67.1804802586" y1="41.0795082353" y2="41.1265776842" /><line stroke="rgb(0%,0%,0%)" stroke-width="2" x1="62.5767821229" x2="62.576603807" y1="36.3616027856" y2="36.3611487436" /><line stroke="rgb(0%,0%,0%)" stroke-width="2" x1="68.070492497" x2="67.8249573119" y1="41.2979979206" y2="41.2836319177" /><line stroke="rgb(0%,0%,0%)" stroke-width="2" x1="64.8494258634" x2="65.0197765448" y1="39.5666223742" y2="39.7300574567" /><line stroke="rgb(0%,0%,0%)" stroke-width="2" x1="60.0024706594" x2="60.0" y1="27.9726408056" y2="27.8536001611" /><line stroke="rgb(0%,0%,0%)" stroke-width="2" x1="69.1006199383" x2="68.8351515065" y1="41.0687987703" y2="41.1706274892" /><line stroke="rgb(0%,0%,0%)" stroke-width="2" x1="63.7490219945" x2="63.8600392531" y1="38.3333615405" y2="38.4744657422" /><line stroke="rgb(0%,0%,0%)" stroke-width="2" x1="60.0192584762" x2="60.0239906936" y1="27.5431376252" y2="27.4953927246" /><line stroke="rgb(0%,0%,0%)" stroke-width="2" x1="72.5191427014" x2="72.6103688013" y1="20.8940761772" y2="20.9302837941" /><line stroke="rgb(0%,0%,0%)" stroke-width="2" x1="61.2203225337" x2="60.9884591266" y1="22.5440710988" y2="22.8015483381" /><line stroke="rgb(0%,0%,0%)" stroke-width="2" x1="63.9798336881" x2="63.7219682706" y1="20.7616854254" y2="20.8553449091" /><line stroke="rgb(0%,0%,0%)" stroke-width="2" x1="71.4764721261" x2="71.3464850289" y1="39.3701990057" y2="39.5009534598" /><line stroke="rgb(0%,0%,0%)" stroke-width="2" x1="73.7490398164" x2="73.7756956819" y1="35.7024270961" y2="35.5517227871" /><line stroke="rgb(0%,0%,0%)" stroke-width="2" x1="73.7756956819" x2="73.8040540234" y1="35.5517227871" y2="35.4062879255" /><line stroke="rgb(0%,0%,0%)" stroke-width="2" x1="75.258515804" x2="75.2019257931" y1="32.1502522966" y2="32.2731613187" /><line stroke="rgb(0%,0%,0%)" stroke-width="2" x1="60.5076547223" x2="60.5402987521" y1="24.1499882067" y2="23.9130010597" /><line stroke="rgb(0%,0%,0%)" stroke-width="2" x1="75.5766355008" x2="75.5549185179" y1="23.7832992861" y2="23.6128247783" /><line stroke="rgb(0%,0%,0%)" stroke-width="2" x1="68.7193489229" x2="68.713151044" y1="20.0038943555" y2="20.0035905076" /><line stroke="rgb(0%,0%,0%)" stroke-width="2" x1="71.9525661474" x2="71.9094878031" y1="20.68098638" y2="20.6650778888" /><line stroke="rgb(0%,0%,0%)" stroke-width="2" x1="75.7229595081" x2="75.7458348224" y1="27.2171947568" y2="27.336703465" /><line stroke="rgb(0%,0%,0%)" stroke-width="2" x1="75.7639196593" x2="75.7864365766" y1="28.52507116" y2="28.197233862" /><line stroke="rgb(0%,0%,0%)" stroke-width="2" x1="71.1479467675" x2="71.3464850289" y1="39.6960477923" y2="39.5009534598" /><line stroke="rgb(0%,0%,0%)" stroke-width="2" x1="65.4820576771" x2="65.3405805945" y1="40.1316073973" y2="40.0199879537" /><line stroke="rgb(0%,0%,0%)" stroke-width="2" x1="63.1137379312" x2="63.0911563841" y1="21.1368061857" y2="21.1487802458" /><line stroke="rgb(0%,0%,0%)" stroke-width="2" x1="70.5154659524" x2="70.5069330079" y1="20.0767359305" y2="20.0749056022" /><line stroke="rgb(0%,0%,0%)" stroke-width="2" x1="73.8625735108" x2="73.8743895386" y1="34.6555602847" y2="34.595332933" /><line stroke="rgb(0%,0%,0%)" stroke-width="2" x1="73.857774445" x2="73.8625735108" y1="34.8225822912" y2="34.6555602847" /><line stroke="rgb(0%,0%,0%)" stroke-width="2" x1="71.3892502829" x2="71.2367506018" y1="20.4459921959" y2="20.3690006526" /><line stroke="rgb(0%,0%,0%)" stroke-width="2" x1="75.7084663196" x2="75.674393159" y1="25.4297594187" y2="25.7140531639" /><line stroke="rgb(0%,0%,0%)" stroke-width="2" x1="61.366590916" x2="61.3876943163" y1="33.2952135577" y2="33.3268545286" /><line stroke="rgb(0%,0%,0%)" stroke-width="2" x1="61.3194023873" x2="61.1341372647" y1="33.2209495575" y2="32.9062282972" /><line stroke="rgb(0%,0%,0%)" stroke-width="2" x1="60.9254986999" x2="61.0310813077" y1="32.5156418903" y2="32.7198939432" /><line stroke="rgb(0%,0%,0%)" stroke-width="2" x1="65.3377334193" x2="65.2265412462" y1="20.227392593" y2="20.266137313" /><line stroke="rgb(0%,0%,0%)" stroke-width="2" x1="75.7326355271" x2="75.7483922416" y1="29.9303850184" y2="29.3760999847" /><line stroke="rgb(0%,0%,0%)" stroke-width="2" x1="75.7326355271" x2="75.7104520224" y1="29.9303850184" y2="30.1347824193" /><line stroke="rgb(0%,0%,0%)" stroke-width="2" x1="73.4877438772" x2="73.5282257908" y1="36.5469300535" y2="36.4466492839" /><line stroke="rgb(0%,0%,0%)" stroke-width="2" x1="75.5266578685" x2="75.5549185179" y1="23.5079571452" y2="23.6128247783" /><line stroke="rgb(0%,0%,0%)" stroke-width="2" x1="62.159591376" x2="62.096561006" y1="34.8686512761" y2="34.6433101036" /><line stroke="rgb(0%,0%,0%)" stroke-width="2" x1="62.0697185191" x2="62.0452142321" y1="34.5717392732" y2="34.5250738312" /><line stroke="rgb(0%,0%,0%)" stroke-width="2" x1="72.1781246592" x2="72.2490966295" y1="38.5836805319" y2="38.4943102189" /><line stroke="rgb(0%,0%,0%)" stroke-width="2" x1="72.7145036375" x2="72.478797061" y1="37.8876274784" y2="38.2035242696" /><line stroke="rgb(0%,0%,0%)" stroke-width="2" x1="73.1375812579" x2="72.8937931692" y1="37.2419396742" y2="37.6251969706" /><line stroke="rgb(0%,0%,0%)" stroke-width="2" x1="75.6223896033" x2="75.6020239346" y1="24.3247506621" y2="24.1403469125" /><line stroke="rgb(0%,0%,0%)" stroke-width="2" x1="75.7010986883" x2="75.6417722295" y1="24.8052232828" y2="24.4699867737" /><line stroke="rgb(0%,0%,0%)" stroke-width="2" x1="66.8373773775" x2="66.7415475646" y1="40.9900594583" y2="40.9453880897" /><line stroke="rgb(0%,0%,0%)" stroke-width="2" x1="74.9660095877" x2="74.8529001974" y1="32.7302086073" y2="32.8976875472" /><line stroke="rgb(0%,0%,0%)" stroke-width="2" x1="70.1517767228" x2="70.5069330079" y1="20.0199558906" y2="20.0749056022" /><line stroke="rgb(0%,0%,0%)" stroke-width="2" x1="67.6212090295" x2="67.781366974" y1="41.2580035138" y2="41.2797468107" /><line stroke="rgb(0%,0%,0%)" stroke-width="2" x1="75.796194737" x2="75.7870607254" y1="27.779111022" y2="27.6155936338" /><line stroke="rgb(0%,0%,0%)" stroke-width="2" x1="60.542514292" x2="60.5418681662" y1="23.8781512689" y2="23.8571514391" /><line stroke="rgb(0%,0%,0%)" stroke-width="2" x1="60.5699774304" x2="60.5418681662" y1="23.6633524212" y2="23.8571514391" /><line stroke="rgb(0%,0%,0%)" stroke-width="2" x1="75.6020239346" x2="75.5997187513" y1="24.1403469125" y2="24.0728471099" /><line stroke="rgb(0%,0%,0%)" stroke-width="2" x1="65.4739447863" x2="65.3377334193" y1="20.1864843003" y2="20.227392593" /><line stroke="rgb(0%,0%,0%)" stroke-width="2" x1="75.8008390077" x2="75.796194737" y1="27.9414420572" y2="27.779111022" /><line stroke="rgb(0%,0%,0%)" stroke-width="2" x1="69.836784475" x2="70.0695925191" y1="40.6926977165" y2="40.5457823497" /><line stroke="rgb(0%,0%,0%)" stroke-width="2" x1="61.8398425322" x2="61.9543695698" y1="34.0551506334" y2="34.2843096973" /><line stroke="rgb(0%,0%,0%)" stroke-width="2" x1="73.8408700809" x2="73.8119258105" y1="35.111617982" y2="35.3372650268" /><line stroke="rgb(0%,0%,0%)" stroke-width="2" x1="73.8040540234" x2="73.8119258105" y1="35.4062879255" y2="35.3372650268" /><line stroke="rgb(0%,0%,0%)" stroke-width="2" x1="75.4647860563" x2="75.3884909781" y1="31.5318109798" y2="31.8020183179" /><line stroke="rgb(0%,0%,0%)" stroke-width="2" x1="75.6892095091" x2="75.6602965423" y1="26.8370084518" y2="26.4737311849" /><line stroke="rgb(0%,0%,0%)" stroke-width="2" x1="60.6575149836" x2="60.6212919807" y1="23.3506040977" y2="23.4602396385" /><line stroke="rgb(0%,0%,0%)" stroke-width="2" x1="73.7457769526" x2="73.6213926684" y1="21.5891965816" y2="21.5038531318" /><line stroke="rgb(0%,0%,0%)" stroke-width="2" x1="67.2086654325" x2="67.2685108009" y1="20.0709129543" y2="20.0653968705" /><line stroke="rgb(0%,0%,0%)" stroke-width="2" x1="66.5489829124" x2="66.0108745227" y1="20.1028357845" y2="20.1037502668" /><line stroke="rgb(0%,0%,0%)" stroke-width="2" x1="60.0024706594" x2="60.0086803858" y1="27.9726408056" y2="28.0415981385" /><line stroke="rgb(0%,0%,0%)" stroke-width="2" x1="60.0193681027" x2="60.0211111161" y1="28.2088153517" y2="28.2199139518" /><line stroke="rgb(0%,0%,0%)" stroke-width="2" x1="63.3621089616" x2="63.559891256" y1="37.8113857866" y2="38.0861919796" /><line stroke="rgb(0%,0%,0%)" stroke-width="2" x1="63.3001166588" x2="63.1933113967" y1="37.7226014919" y2="37.5529445483" /><line stroke="rgb(0%,0%,0%)" stroke-width="2" x1="60.0428936887" x2="60.1113466196" y1="27.3618183036" y2="26.8177218054" /><line stroke="rgb(0%,0%,0%)" stroke-width="2" x1="67.1074992966" x2="66.7347296076" y1="20.077764322" y2="20.0976618565" /><line stroke="rgb(0%,0%,0%)" stroke-width="2" x1="67.1804802586" x2="67.3119546792" y1="41.1265776842" y2="41.1769814983" /><line stroke="rgb(0%,0%,0%)" stroke-width="2" x1="67.5041721659" x2="67.5410806167" y1="41.2306070036" y2="41.2388720348" /><line stroke="rgb(0%,0%,0%)" stroke-width="2" x1="62.2298481491" x2="62.2495547081" y1="35.1219552088" y2="35.2207641589" /><line stroke="rgb(0%,0%,0%)" stroke-width="2" x1="62.2298481491" x2="62.159591376" y1="35.1219552088" y2="34.8686512761" /><line stroke="rgb(0%,0%,0%)" stroke-width="2" x1="74.9377554244" x2="75.0776875961" y1="22.5847182309" y2="22.7206446678" /><line stroke="rgb(0%,0%,0%)" stroke-width="2" x1="75.2184604247" x2="75.0776875961" y1="22.89110014" y2="22.7206446678" /><line stroke="rgb(0%,0%,0%)" stroke-width="2" x1="62.7951246146" x2="62.670282703" y1="36.8730855998" y2="36.5950309836" /><line stroke="rgb(0%,0%,0%)" stroke-width="2" x1="70.1912201163" x2="70.4288294512" y1="40.4685459997" y2="40.3005794748" /><line stroke="rgb(0%,0%,0%)" stroke-width="2" x1="73.2875351326" x2="73.3257176862" y1="36.9775675108" y2="36.9064923058" /><line stroke="rgb(0%,0%,0%)" stroke-width="2" x1="64.6451247484" x2="64.4898769708" y1="39.3653782386" y2="39.2007967707" /><line stroke="rgb(0%,0%,0%)" stroke-width="2" x1="64.4898769708" x2="64.275296418" y1="39.2007967707" y2="38.9658427831" /><line stroke="rgb(0%,0%,0%)" stroke-width="2" x1="60.3305659086" x2="60.2832442878" y1="25.2491859824" y2="25.7682166714" /><line stroke="rgb(0%,0%,0%)" stroke-width="2" x1="60.2796832913" x2="60.1514535526" y1="25.794167626" y2="26.4775189084" /><line stroke="rgb(0%,0%,0%)" stroke-width="2" x1="64.1609082972" x2="64.275296418" y1="38.8342525679" y2="38.9658427831" /><line stroke="rgb(0%,0%,0%)" stroke-width="2" x1="74.1283225078" x2="74.0219207402" y1="33.8884775348" y2="34.0595541116" /><line stroke="rgb(0%,0%,0%)" stroke-width="2" x1="65.3405805945" x2="65.2576497355" y1="40.0199879537" y2="39.948171854" /><line stroke="rgb(0%,0%,0%)" stroke-width="2" x1="75.3826234413" x2="75.359941965" y1="23.1343009534" y2="23.0942978143" /><line stroke="rgb(0%,0%,0%)" stroke-width="2" x1="75.2184604247" x2="75.2665279622" y1="22.89110014" y2="22.953458488" /><line stroke="rgb(0%,0%,0%)" stroke-width="2" x1="71.8966302735" x2="71.5632509278" y1="20.6605004228" y2="20.5297483103" /><line stroke="rgb(0%,0%,0%)" stroke-width="2" x1="72.4636412351" x2="71.9525661474" y1="20.8704493549" y2="20.68098638" /><line stroke="rgb(0%,0%,0%)" stroke-width="2" x1="72.1781246592" x2="71.9931123055" y1="38.5836805319" y2="38.8024671372" /><line stroke="rgb(0%,0%,0%)" stroke-width="2" x1="71.1563591901" x2="70.8222881158" y1="20.3267746575" y2="20.1744094362" /><line stroke="rgb(0%,0%,0%)" stroke-width="2" x1="60.6830981792" x2="60.6290697951" y1="31.9281669404" y2="31.7668471763" /><line stroke="rgb(0%,0%,0%)" stroke-width="2" x1="60.0049060799" x2="60.0192584762" y1="27.7208751096" y2="27.5431376252" /><line stroke="rgb(0%,0%,0%)" stroke-width="2" x1="60.5076547223" x2="60.4905076235" y1="24.1499882067" y2="24.2429802451" /><line stroke="rgb(0%,0%,0%)" stroke-width="2" x1="60.3718959421" x2="60.4619030624" y1="24.8991154988" y2="24.4719907954" /><line stroke="rgb(0%,0%,0%)" stroke-width="2" x1="60.3305659086" x2="60.3421660773" y1="25.2491859824" y2="25.1156090923" /><line stroke="rgb(0%,0%,0%)" stroke-width="2" x1="72.6103688013" x2="72.8327704697" y1="20.9302837941" y2="21.0349030182" /><line stroke="rgb(0%,0%,0%)" stroke-width="2" x1="63.0520325454" x2="63.0911563841" y1="21.1715473854" y2="21.1487802458" /><line stroke="rgb(0%,0%,0%)" stroke-width="2" x1="62.502262982" x2="62.7911319407" y1="21.5133548658" y2="21.3303402225" /><line stroke="rgb(0%,0%,0%)" stroke-width="2" x1="67.2086654325" x2="67.1074992966" y1="20.0709129543" y2="20.077764322" /><line stroke="rgb(0%,0%,0%)" stroke-width="2" x1="61.8315693449" x2="61.8398425322" y1="34.0359828264" y2="34.0551506334" /><line stroke="rgb(0%,0%,0%)" stroke-width="2" x1="60.8394713676" x2="60.9102682362" y1="23.0003858766" y2="22.8967191757" /><line stroke="rgb(0%,0%,0%)" stroke-width="2" x1="75.6892095091" x2="75.7035464141" y1="26.8370084518" y2="27.0695499984" /><line stroke="rgb(0%,0%,0%)" stroke-width="2" x1="64.8007417931" x2="64.7858215248" y1="20.4500012575" y2="20.4574813442" /><line stroke="rgb(0%,0%,0%)" stroke-width="2" x1="64.6618531474" x2="64.365344786" y1="20.5071688339" y2="20.6276016692" /><line stroke="rgb(0%,0%,0%)" stroke-width="2" x1="64.7633928106" x2="64.7858215248" y1="20.4672857972" y2="20.4574813442" /><line stroke="rgb(0%,0%,0%)" stroke-width="2" x1="60.9254986999" x2="60.8546563687" y1="32.5156418903" y2="32.361810524" /><line stroke="rgb(0%,0%,0%)" stroke-width="2" x1="66.1450724573" x2="66.0880604597" y1="40.6098678959" y2="40.5734419651" /><line stroke="rgb(0%,0%,0%)" stroke-width="2" x1="66.2182724726" x2="66.3991859943" y1="40.6517205658" y2="40.7626014906" /><line stroke="rgb(0%,0%,0%)" stroke-width="2" x1="60.3421660773" x2="60.3718959421" y1="25.1156090923" y2="24.8991154988" /><line stroke="rgb(0%,0%,0%)" stroke-width="2" x1="68.1726469627" x2="68.4096624736" y1="41.2942284442" y2="41.2747641997" /><line stroke="rgb(0%,0%,0%)" stroke-width="2" x1="61.8222371002" x2="61.8315693449" y1="34.0175027172" y2="34.0359828264" /><line stroke="rgb(0%,0%,0%)" stroke-width="2" x1="61.8222371002" x2="61.4447024345" y1="34.0175027172" y2="33.4214017976" /><line stroke="rgb(0%,0%,0%)" stroke-width="2" x1="61.4447024345" x2="61.3876943163" y1="33.4214017976" y2="33.3268545286" /><line stroke="rgb(0%,0%,0%)" stroke-width="2" x1="66.8373773775" x2="67.0491112372" y1="40.9900594583" y2="41.0795082353" /><line stroke="rgb(0%,0%,0%)" stroke-width="2" x1="73.6303636403" x2="73.6159530013" y1="36.1453506883" y2="36.1972357479" /><line stroke="rgb(0%,0%,0%)" stroke-width="2" x1="69.5321552734" x2="69.6133154919" y1="40.867152316" y2="40.82356053" /><line stroke="rgb(0%,0%,0%)" stroke-width="2" x1="75.7864365766" x2="75.8008390077" y1="28.197233862" y2="27.9414420572" /><line stroke="rgb(0%,0%,0%)" stroke-width="2" x1="60.368041929" x2="60.4528925033" y1="30.8197357026" y2="31.1539588411" /><line stroke="rgb(0%,0%,0%)" stroke-width="2" x1="66.1450724573" x2="66.2182724726" y1="40.6098678959" y2="40.6517205658" /><line stroke="rgb(0%,0%,0%)" stroke-width="2" x1="75.7305057927" x2="75.7299571275" y1="25.1007200447" y2="25.0948368096" /><line stroke="rgb(0%,0%,0%)" stroke-width="2" x1="75.7297723578" x2="75.7305057927" y1="25.1099784798" y2="25.1007200447" /><line stroke="rgb(0%,0%,0%)" stroke-width="2" x1="74.9377554244" x2="74.7723330426" y1="22.5847182309" y2="22.4321206161" /><line stroke="rgb(0%,0%,0%)" stroke-width="2" x1="74.3637764407" x2="74.4086175713" y1="22.0791570314" y2="22.1154280226" /><line stroke="rgb(0%,0%,0%)" stroke-width="2" x1="64.6451247484" x2="64.8494258634" y1="39.3653782386" y2="39.5666223742" /><line stroke="rgb(0%,0%,0%)" stroke-width="2" x1="64.8652035395" x2="64.8007417931" y1="20.4208051443" y2="20.4500012575" /><line stroke="rgb(0%,0%,0%)" stroke-width="2" x1="68.8807257306" x2="69.0550982029" y1="20.0015524946" y2="20.0052796511" /><line stroke="rgb(0%,0%,0%)" stroke-width="2" x1="71.6646443444" x2="71.4764721261" y1="39.1726877746" y2="39.3701990057" /><line stroke="rgb(0%,0%,0%)" stroke-width="2" x1="71.9931123055" x2="71.7918165032" y1="38.8024671372" y2="39.0341365174" /><line stroke="rgb(0%,0%,0%)" stroke-width="2" x1="63.0196079834" x2="63.1933113967" y1="37.277679924" y2="37.5529445483" /><line stroke="rgb(0%,0%,0%)" stroke-width="2" x1="62.9406966197" x2="62.8202910495" y1="37.1429357688" y2="36.9247258391" /><line stroke="rgb(0%,0%,0%)" stroke-width="2" x1="74.5054780386" x2="74.4191918314" y1="33.4053622523" y2="33.5219724202" /><line stroke="rgb(0%,0%,0%)" stroke-width="2" x1="74.5804316547" x2="74.5054780386" y1="33.3035827945" y2="33.4053622523" /><line stroke="rgb(0%,0%,0%)" stroke-width="2" x1="65.1995470197" x2="65.2265412462" y1="20.2753925668" y2="20.266137313" /><line stroke="rgb(0%,0%,0%)" stroke-width="2" x1="72.4243622432" x2="72.2490966295" y1="38.2750758959" y2="38.4943102189" /><line stroke="rgb(0%,0%,0%)" stroke-width="2" x1="62.096561006" x2="62.0697185191" y1="34.6433101036" y2="34.5717392732" /><line stroke="rgb(0%,0%,0%)" stroke-width="2" x1="71.0231533601" x2="70.8464097343" y1="39.8100939049" y2="39.9685559264" /><line stroke="rgb(0%,0%,0%)" stroke-width="2" x1="60.1357449973" x2="60.1113466196" y1="26.5986781734" y2="26.8177218054" /><line stroke="rgb(0%,0%,0%)" stroke-width="2" x1="74.7723330426" x2="74.4086175713" y1="22.4321206161" y2="22.1154280226" /><line stroke="rgb(0%,0%,0%)" stroke-width="2" x1="63.9798336881" x2="64.2323434716" y1="20.7616854254" y2="20.6713403602" /><line stroke="rgb(0%,0%,0%)" stroke-width="2" x1="65.4820576771" x2="65.5397892106" y1="40.1316073973" y2="40.1826011623" /><line stroke="rgb(0%,0%,0%)" stroke-width="2" x1="75.5871414499" x2="75.5766355008" y1="23.8323422222" y2="23.7832992861" /><line stroke="rgb(0%,0%,0%)" stroke-width="2" x1="75.5978173044" x2="75.5997187513" y1="23.9504974712" y2="24.0728471099" /><line stroke="rgb(0%,0%,0%)" stroke-width="2" x1="60.3269819561" x2="60.2599703198" y1="30.6443916744" y2="30.3022813556" /><line stroke="rgb(0%,0%,0%)" stroke-width="2" x1="60.368041929" x2="60.3269819561" y1="30.8197357026" y2="30.6443916744" /><line stroke="rgb(0%,0%,0%)" stroke-width="2" x1="73.3257176862" x2="73.3610255506" y1="36.9064923058" y2="36.834454314" /><line stroke="rgb(0%,0%,0%)" stroke-width="2" x1="73.3610255506" x2="73.4877438772" y1="36.834454314" y2="36.5469300535" /><line stroke="rgb(0%,0%,0%)" stroke-width="2" x1="65.614989954" x2="65.5397892106" y1="40.2434158861" y2="40.1826011623" /><line stroke="rgb(0%,0%,0%)" stroke-width="2" x1="65.7665292405" x2="65.7204499177" y1="40.3544415369" y2="40.3220736911" /><line stroke="rgb(0%,0%,0%)" stroke-width="2" x1="75.7026233525" x2="75.7010986883" y1="24.8126031323" y2="24.8052232828" /><line stroke="rgb(0%,0%,0%)" stroke-width="2" x1="75.7026233525" x2="75.7299571275" y1="24.8126031323" y2="25.0948368096" /><line stroke="rgb(0%,0%,0%)" stroke-width="2" x1="73.9751474489" x2="73.9483515902" y1="34.1369310336" y2="34.1999443677" /><line stroke="rgb(0%,0%,0%)" stroke-width="2" x1="68.2459949682" x2="68.4484311171" y1="20.0015077203" y2="20.0" /><line stroke="rgb(0%,0%,0%)" stroke-width="2" x1="75.65343269" x2="75.6611567967" y1="26.0480262249" y2="26.2462205288" /><line stroke="rgb(0%,0%,0%)" stroke-width="2" x1="75.6684293836" x2="75.674393159" y1="25.7447954893" y2="25.7140531639" /><line stroke="rgb(0%,0%,0%)" stroke-width="2" x1="75.65343269" x2="75.6588365654" y1="26.0480262249" y2="25.8870763959" /><line stroke="rgb(0%,0%,0%)" stroke-width="2" x1="60.5689985891" x2="60.6290697951" y1="31.5707856779" y2="31.7668471763" /><line stroke="rgb(0%,0%,0%)" stroke-width="2" x1="70.8073803306" x2="70.5154659524" y1="20.1685284757" y2="20.0767359305" /><line stroke="rgb(0%,0%,0%)" stroke-width="2" x1="70.8222881158" x2="70.8073803306" y1="20.1744094362" y2="20.1685284757" /><line stroke="rgb(0%,0%,0%)" stroke-width="2" x1="69.1035694496" x2="69.1045118321" y1="41.0676867557" y2="41.0672956896" /><line stroke="rgb(0%,0%,0%)" stroke-width="2" x1="69.1006199383" x2="69.1035694496" y1="41.0687987703" y2="41.0676867557" /><line stroke="rgb(0%,0%,0%)" stroke-width="2" x1="60.5402987521" x2="60.542514292" y1="23.9130010597" y2="23.8781512689" /><line stroke="rgb(0%,0%,0%)" stroke-width="2" x1="75.3884909781" x2="75.3542085058" y1="31.8020183179" y2="31.9021251291" /><line stroke="rgb(0%,0%,0%)" stroke-width="2" x1="70.4790113507" x2="70.5656359309" y1="40.2662947303" y2="40.2001683245" /><line stroke="rgb(0%,0%,0%)" stroke-width="2" x1="60.0049060799" x2="60.0" y1="27.7208751096" y2="27.8536001611" /><line stroke="rgb(0%,0%,0%)" stroke-width="2" x1="61.2335630972" x2="61.2709906748" y1="22.5311920927" y2="22.4984636497" /><line stroke="rgb(0%,0%,0%)" stroke-width="2" x1="61.5256312663" x2="61.2709906748" y1="22.280105238" y2="22.4984636497" /><line stroke="rgb(0%,0%,0%)" stroke-width="2" x1="60.5854996683" x2="60.6212919807" y1="23.5747282786" y2="23.4602396385" /><line stroke="rgb(0%,0%,0%)" stroke-width="2" x1="75.359941965" x2="75.2665279622" y1="23.0942978143" y2="22.953458488" /><line stroke="rgb(0%,0%,0%)" stroke-width="2" x1="60.1153936907" x2="60.1082344439" y1="29.299094121" y2="29.224120463" /><line stroke="rgb(0%,0%,0%)" stroke-width="2" x1="69.4657813766" x2="69.7659187872" y1="20.0075818415" y2="20.0090039152" /><line stroke="rgb(0%,0%,0%)" stroke-width="2" x1="73.5282257908" x2="73.6129088673" y1="36.4466492839" y2="36.20616493" /><line stroke="rgb(0%,0%,0%)" stroke-width="2" x1="75.6359568346" x2="75.6223896033" y1="24.3905941658" y2="24.3247506621" /><line stroke="rgb(0%,0%,0%)" stroke-width="2" x1="61.976765217" x2="62.0452142321" y1="34.3478858438" y2="34.5250738312" /><line stroke="rgb(0%,0%,0%)" stroke-width="2" x1="62.391507608" x2="62.3750709821" y1="35.776263092" y2="35.7170278951" /><line stroke="rgb(0%,0%,0%)" stroke-width="2" x1="75.6576246528" x2="75.7104520224" y1="30.5858768181" y2="30.1347824193" /><line stroke="rgb(0%,0%,0%)" stroke-width="2" x1="75.5982328178" x2="75.598376145" y1="30.9540905849" y2="30.9532940058" /><line stroke="rgb(0%,0%,0%)" stroke-width="2" x1="68.070492497" x2="68.1089320543" y1="41.2979979206" y2="41.2982867879" /><line stroke="rgb(0%,0%,0%)" stroke-width="2" x1="68.1089320543" x2="68.1726469627" y1="41.2982867879" y2="41.2942284442" /><line stroke="rgb(0%,0%,0%)" stroke-width="2" x1="73.8824571095" x2="73.9164300555" y1="34.4367380618" y2="34.3356256895" /><line stroke="rgb(0%,0%,0%)" stroke-width="2" x1="73.8743895386" x2="73.8824571095" y1="34.595332933" y2="34.4367380618" /><line stroke="rgb(0%,0%,0%)" stroke-width="2" x1="69.0986416879" x2="69.3728987273" y1="20.0032414217" y2="20.0094556538" /><line stroke="rgb(0%,0%,0%)" stroke-width="2" x1="69.071055724" x2="69.0986416879" y1="20.0040682436" y2="20.0032414217" /><line stroke="rgb(0%,0%,0%)" stroke-width="2" x1="73.8408700809" x2="73.8465366541" y1="35.111617982" y2="35.0016323601" /><line stroke="rgb(0%,0%,0%)" stroke-width="2" x1="70.1517767228" x2="70.0858998952" y1="20.0199558906" y2="20.0140966594" /><line stroke="rgb(0%,0%,0%)" stroke-width="2" x1="70.0858998952" x2="69.7659187872" y1="20.0140966594" y2="20.0090039152" /><line stroke="rgb(0%,0%,0%)" stroke-width="2" x1="62.2422341457" x2="62.3722449931" y1="21.7075285255" y2="21.6196532757" /><line stroke="rgb(0%,0%,0%)" stroke-width="2" x1="62.2422341457" x2="62.1666422904" y1="21.7075285255" y2="21.7662946859" /><line stroke="rgb(0%,0%,0%)" stroke-width="2" x1="62.502262982" x2="62.483066689" y1="21.5133548658" y2="21.5261106364" /><line stroke="rgb(0%,0%,0%)" stroke-width="2" x1="62.3722449931" x2="62.483066689" y1="21.6196532757" y2="21.5261106364" /><line stroke="rgb(0%,0%,0%)" stroke-width="2" x1="68.6466142749" x2="68.8351515065" y1="41.2226976315" y2="41.1706274892" /><line stroke="rgb(0%,0%,0%)" stroke-width="2" x1="75.598376145" x2="75.6576246528" y1="30.9532940058" y2="30.5858768181" /><line stroke="rgb(0%,0%,0%)" stroke-width="2" x1="63.3621089616" x2="63.3001166588" y1="37.8113857866" y2="37.7226014919" /><line stroke="rgb(0%,0%,0%)" stroke-width="2" x1="60.1082344439" x2="60.0806787664" y1="29.224120463" y2="28.8798731157" /><line stroke="rgb(0%,0%,0%)" stroke-width="2" x1="60.0773843261" x2="60.0806787664" y1="28.8393723189" y2="28.8798731157" /><line stroke="rgb(0%,0%,0%)" stroke-width="2" x1="67.347816597" x2="67.2685108009" y1="20.0587393293" y2="20.0653968705" /><line stroke="rgb(0%,0%,0%)" stroke-width="2" x1="67.5041721659" x2="67.3119546792" y1="41.2306070036" y2="41.1769814983" /><line stroke="rgb(0%,0%,0%)" stroke-width="2" x1="61.1341372647" x2="61.0310813077" y1="32.9062282972" y2="32.7198939432" /><line stroke="rgb(0%,0%,0%)" stroke-width="2" x1="68.7261928802" x2="68.7193489229" y1="20.004229813" y2="20.0038943555" /><line stroke="rgb(0%,0%,0%)" stroke-width="2" x1="68.8807257306" x2="68.7261928802" y1="20.0015524946" y2="20.004229813" /><line stroke="rgb(0%,0%,0%)" stroke-width="2" x1="75.5980159325" x2="75.5975199892" y1="30.955154477" y2="30.9574685998" /><line stroke="rgb(0%,0%,0%)" stroke-width="2" x1="75.7870607254" x2="75.7541804042" y1="27.6155936338" y2="27.3964103346" /><line stroke="rgb(0%,0%,0%)" stroke-width="2" x1="72.7512077375" x2="72.8158343838" y1="37.8368065088" y2="37.7457269772" /><line stroke="rgb(0%,0%,0%)" stroke-width="2" x1="62.7911319407" x2="63.0520325454" y1="21.3303402225" y2="21.1715473854" /><line stroke="rgb(0%,0%,0%)" stroke-width="2" x1="65.7204499177" x2="65.614989954" y1="40.3220736911" y2="40.2434158861" /><line stroke="rgb(0%,0%,0%)" stroke-width="2" x1="69.8071229548" x2="69.6133154919" y1="40.7093371396" y2="40.82356053" /><line stroke="rgb(0%,0%,0%)" stroke-width="2" x1="69.8071229548" x2="69.836784475" y1="40.7093371396" y2="40.6926977165" /><line stroke="rgb(0%,0%,0%)" stroke-width="2" x1="69.1085202214" x2="69.3655783245" y1="41.0654934391" y2="40.9525498279" /><line stroke="rgb(0%,0%,0%)" stroke-width="2" x1="69.3655783245" x2="69.5321552734" y1="40.9525498279" y2="40.867152316" /><line stroke="rgb(0%,0%,0%)" stroke-width="2" x1="67.347816597" x2="67.7165967623" y1="20.0587393293" y2="20.0328519124" /><line stroke="rgb(0%,0%,0%)" stroke-width="2" x1="60.2796832913" x2="60.2832442878" y1="25.794167626" y2="25.7682166714" /><line stroke="rgb(0%,0%,0%)" stroke-width="2" x1="60.7611673571" x2="60.8394713676" y1="23.1211168914" y2="23.0003858766" /><line stroke="rgb(0%,0%,0%)" stroke-width="2" x1="60.7360445921" x2="60.7611673571" y1="23.1697855433" y2="23.1211168914" /><line stroke="rgb(0%,0%,0%)" stroke-width="2" x1="62.9406966197" x2="63.0196079834" y1="37.1429357688" y2="37.277679924" /><line stroke="rgb(0%,0%,0%)" stroke-width="2" x1="60.0193681027" x2="60.0086803858" y1="28.2088153517" y2="28.0415981385" /><line stroke="rgb(0%,0%,0%)" stroke-width="2" x1="64.7633928106" x2="64.6618531474" y1="20.4672857972" y2="20.5071688339" /><line stroke="rgb(0%,0%,0%)" stroke-width="2" x1="60.2599703198" x2="60.2141286459" y1="30.3022813556" y2="30.0436659015" /><line stroke="rgb(0%,0%,0%)" stroke-width="2" x1="74.5804316547" x2="74.8529001974" y1="33.3035827945" y2="32.8976875472" /><line stroke="rgb(0%,0%,0%)" stroke-width="2" x1="63.9347685499" x2="63.8600392531" y1="38.5638232917" y2="38.4744657422" /><line stroke="rgb(0%,0%,0%)" stroke-width="2" x1="63.9347685499" x2="64.1609082972" y1="38.5638232917" y2="38.8342525679" /><line stroke="rgb(0%,0%,0%)" stroke-width="2" x1="75.7498633865" x2="75.7483922416" y1="29.3425262157" y2="29.3760999847" /><line stroke="rgb(0%,0%,0%)" stroke-width="2" x1="69.0550982029" x2="69.071055724" y1="20.0052796511" y2="20.0040682436" /><line stroke="rgb(0%,0%,0%)" stroke-width="2" x1="75.4525108335" x2="75.4936948764" y1="23.2895370782" y2="23.3952493495" /><line stroke="rgb(0%,0%,0%)" stroke-width="2" x1="60.4811671802" x2="60.4827562361" y1="24.3569441599" y2="24.3361800953" /><line stroke="rgb(0%,0%,0%)" stroke-width="2" x1="71.9007911209" x2="71.9094878031" y1="20.6621678048" y2="20.6650778888" /><line stroke="rgb(0%,0%,0%)" stroke-width="2" x1="71.8966302735" x2="71.9007911209" y1="20.6605004228" y2="20.6621678048" /><line stroke="rgb(0%,0%,0%)" stroke-width="2" x1="75.1355100428" x2="75.2019257931" y1="32.4110243326" y2="32.2731613187" /><line stroke="rgb(0%,0%,0%)" stroke-width="2" x1="75.6684293836" x2="75.6588365654" y1="25.7447954893" y2="25.8870763959" /><line stroke="rgb(0%,0%,0%)" stroke-width="2" x1="60.9102682362" x2="60.9884591266" y1="22.8967191757" y2="22.8015483381" /><line stroke="rgb(0%,0%,0%)" stroke-width="2" x1="71.7918165032" x2="71.6646443444" y1="39.0341365174" y2="39.1726877746" /><line stroke="rgb(0%,0%,0%)" stroke-width="2" x1="75.7498633865" x2="75.7503794616" y1="29.3425262157" y2="29.2940170486" /><line stroke="rgb(0%,0%,0%)" stroke-width="2" x1="75.7503794616" x2="75.7686358228" y1="29.2940170486" y2="28.8969315305" /><line stroke="rgb(0%,0%,0%)" stroke-width="2" x1="60.0227679682" x2="60.0211111161" y1="28.2338468017" y2="28.2199139518" /><line stroke="rgb(0%,0%,0%)" stroke-width="2" x1="60.0773843261" x2="60.0227679682" y1="28.8393723189" y2="28.2338468017" /><line stroke="rgb(0%,0%,0%)" stroke-width="2" x1="62.5767821229" x2="62.5765025727" y1="36.3616027856" y2="36.3609048764" /><line stroke="rgb(0%,0%,0%)" stroke-width="2" x1="73.8465366541" x2="73.8569153869" y1="35.0016323601" y2="34.9036279293" /><line stroke="rgb(0%,0%,0%)" stroke-width="2" x1="72.4243622432" x2="72.478797061" y1="38.2750758959" y2="38.2035242696" /><line stroke="rgb(0%,0%,0%)" stroke-width="2" x1="73.3241962116" x2="73.6213926684" y1="21.3142850581" y2="21.5038531318" /><line stroke="rgb(0%,0%,0%)" stroke-width="2" x1="73.2225387552" x2="73.3241962116" y1="21.253774727" y2="21.3142850581" /><line stroke="rgb(0%,0%,0%)" stroke-width="2" x1="71.3892502829" x2="71.5632509278" y1="20.4459921959" y2="20.5297483103" /><line stroke="rgb(0%,0%,0%)" stroke-width="2" x1="75.6359568346" x2="75.6417722295" y1="24.3905941658" y2="24.4699867737" /><line stroke="rgb(0%,0%,0%)" stroke-width="2" x1="63.3995096083" x2="63.5901358413" y1="20.9950928455" y2="20.9078153165" /><line stroke="rgb(0%,0%,0%)" stroke-width="2" x1="75.7541804042" x2="75.7458348224" y1="27.3964103346" y2="27.336703465" /><line stroke="rgb(0%,0%,0%)" stroke-width="2" x1="75.7142558699" x2="75.7229595081" y1="27.162857412" y2="27.2171947568" /><line stroke="rgb(0%,0%,0%)" stroke-width="2" x1="66.5489829124" x2="66.7347296076" y1="20.1028357845" y2="20.0976618565" /><line stroke="rgb(0%,0%,0%)" stroke-width="2" x1="65.1484844229" x2="65.1995470197" y1="20.2969463884" y2="20.2753925668" /><line stroke="rgb(0%,0%,0%)" stroke-width="2" x1="66.5378140579" x2="66.4605716098" y1="40.8402261531" y2="40.7975243548" /><line stroke="rgb(0%,0%,0%)" stroke-width="2" x1="71.1479467675" x2="71.0231533601" y1="39.6960477923" y2="39.8100939049" /><line stroke="rgb(0%,0%,0%)" stroke-width="2" x1="75.5978173044" x2="75.5871414499" y1="23.9504974712" y2="23.8323422222" /><line stroke="rgb(0%,0%,0%)" stroke-width="2" x1="72.8327704697" x2="72.9281115448" y1="21.0349030182" y2="21.0856479467" /><line stroke="rgb(0%,0%,0%)" stroke-width="2" x1="70.130878458" x2="70.1912201163" y1="40.5080988724" y2="40.4685459997" /><line stroke="rgb(0%,0%,0%)" stroke-width="2" x1="65.5910359213" x2="65.6170477948" y1="20.153393932" y2="20.1483076135" /><line stroke="rgb(0%,0%,0%)" stroke-width="2" x1="65.4739447863" x2="65.5910359213" y1="20.1864843003" y2="20.153393932" /><line stroke="rgb(0%,0%,0%)" stroke-width="2" x1="73.8569153869" x2="73.857774445" y1="34.9036279293" y2="34.8225822912" /><line stroke="rgb(0%,0%,0%)" stroke-width="2" x1="60.1514535526" x2="60.1471863318" y1="26.4775189084" y2="26.5080183061" /><line stroke="rgb(0%,0%,0%)" stroke-width="2" x1="60.1471863318" x2="60.1357449973" y1="26.5080183061" y2="26.5986781734" /><text font-family="Verdana" font-size="12" style="fill: #ff0000; width:1000px; color:red; font-weight:100;" text-anchor="middle" x="108.075856315" y="33.9912739869">Y3</text><line stroke="rgb(0%,0%,0%)" stroke-width="2" x1="99.3529562425" x2="99.3529562425" y1="25.0897662901" y2="38.1991799748" /><line stroke="rgb(0%,0%,0%)" stroke-width="2" x1="102.905073477" x2="102.905073477" y1="26.9019903847" y2="45.3731885691" /><line stroke="rgb(0%,0%,0%)" stroke-width="2" x1="106.457190712" x2="106.457190712" y1="20.1744157213" y2="41.9957867969" /><line stroke="rgb(0%,0%,0%)" stroke-width="2" x1="110.009307947" x2="110.009307947" y1="25.1350812847" y2="47.0814123254" /><line stroke="rgb(0%,0%,0%)" stroke-width="2" x1="113.561425182" x2="113.561425182" y1="21.8426040689" y2="40.4965847038" /><line stroke="rgb(0%,0%,0%)" stroke-width="2" x1="117.113542417" x2="117.113542417" y1="29.8908681185" y2="43.578181786" /><line stroke="rgb(0%,0%,0%)" stroke-width="2" x1="111.780686129" x2="111.246601556" y1="46.2938848975" y2="46.5637147339" /><line stroke="rgb(0%,0%,0%)" stroke-width="2" x1="96.7672043606" x2="96.8521399507" y1="39.4491608704" y2="39.6567527456" /><line stroke="rgb(0%,0%,0%)" stroke-width="2" x1="119.905316468" x2="119.732641586" y1="30.48651121" y2="30.0893130247" /><line stroke="rgb(0%,0%,0%)" stroke-width="2" x1="95.9398205211" x2="95.8903323619" y1="36.2499074236" y2="35.8841353983" /><line stroke="rgb(0%,0%,0%)" stroke-width="2" x1="97.997978044" x2="97.7620717535" y1="27.4766894843" y2="28.166030048" /><line stroke="rgb(0%,0%,0%)" stroke-width="2" x1="107.252114078" x2="107.510016389" y1="20.0445902255" y2="20.0224835389" /><line stroke="rgb(0%,0%,0%)" stroke-width="2" x1="117.60351165" x2="117.822981705" y1="25.5116404301" y2="25.8388420119" /><line stroke="rgb(0%,0%,0%)" stroke-width="2" x1="117.955399251" x2="117.807352034" y1="42.6870918426" y2="42.8644867644" /><line stroke="rgb(0%,0%,0%)" stroke-width="2" x1="96.7098217121" x2="96.4496434867" y1="30.5144233026" y2="31.0713085542" /><line stroke="rgb(0%,0%,0%)" stroke-width="2" x1="119.952011507" x2="120.038263993" y1="38.3130309432" y2="37.9917624548" /><line stroke="rgb(0%,0%,0%)" stroke-width="2" x1="106.918244231" x2="106.864004984" y1="20.0845338834" y2="20.0932302661" /><line stroke="rgb(0%,0%,0%)" stroke-width="2" x1="116.38045882" x2="116.003090578" y1="24.1099708336" y2="23.7438875962" /><line stroke="rgb(0%,0%,0%)" stroke-width="2" x1="118.860179395" x2="118.717508279" y1="28.1356128167" y2="27.7144621625" /><line stroke="rgb(0%,0%,0%)" stroke-width="2" x1="112.724116117" x2="112.909311443" y1="21.3135912918" y2="21.4289932874" /><line stroke="rgb(0%,0%,0%)" stroke-width="2" x1="98.7771330593" x2="98.7788344478" y1="25.8857630485" y2="25.8831331571" /><line stroke="rgb(0%,0%,0%)" stroke-width="2" x1="96.072810828" x2="96.0148488988" y1="37.0468961618" y2="36.7233893625" /><line stroke="rgb(0%,0%,0%)" stroke-width="2" x1="120.64303847" x2="120.623152231" y1="33.4461195303" y2="33.2313146696" /><line stroke="rgb(0%,0%,0%)" stroke-width="2" x1="95.8583936559" x2="95.9076944352" y1="33.5362624014" y2="33.0180525133" /><line stroke="rgb(0%,0%,0%)" stroke-width="2" x1="105.220179965" x2="105.249818033" y1="20.5872948441" y2="20.5743193548" /><line stroke="rgb(0%,0%,0%)" stroke-width="2" x1="117.663695016" x2="117.603838876" y1="43.031226777" y2="43.0968911803" /><line stroke="rgb(0%,0%,0%)" stroke-width="2" x1="116.333018773" x2="116.247366509" y1="44.1993814192" y2="44.2572372432" /><line stroke="rgb(0%,0%,0%)" stroke-width="2" x1="102.904208338" x2="103.510670252" y1="21.9025263064" y2="21.5268458314" /><line stroke="rgb(0%,0%,0%)" stroke-width="2" x1="98.756527828" x2="98.7078903956" y1="42.6075612144" y2="42.5555681645" /><line stroke="rgb(0%,0%,0%)" stroke-width="2" x1="120.112077238" x2="120.038263993" y1="37.7131828552" y2="37.9917624548" /><line stroke="rgb(0%,0%,0%)" stroke-width="2" x1="110.824371104" x2="111.11394381" y1="20.3590558303" y2="20.4646717153" /><line stroke="rgb(0%,0%,0%)" stroke-width="2" x1="103.017024689" x2="103.90408655" y1="45.4260462395" y2="45.8305047257" /><line stroke="rgb(0%,0%,0%)" stroke-width="2" x1="101.220787513" x2="101.811934056" y1="44.5318364574" y2="44.8368973426" /><line stroke="rgb(0%,0%,0%)" stroke-width="2" x1="99.2030029528" x2="99.0480788608" y1="25.2744368219" y2="25.4831770718" /><line stroke="rgb(0%,0%,0%)" stroke-width="2" x1="106.478164036" x2="106.686627053" y1="47.0032001742" y2="47.0695182749" /><line stroke="rgb(0%,0%,0%)" stroke-width="2" x1="117.603838876" x2="117.407572794" y1="43.0968911803" y2="43.2975110803" /><line stroke="rgb(0%,0%,0%)" stroke-width="2" x1="120.517713641" x2="120.502835999" y1="32.4590091657" y2="32.3763969215" /><line stroke="rgb(0%,0%,0%)" stroke-width="2" x1="119.62919433" x2="119.675355982" y1="39.4326437921" y2="39.2843436116" /><line stroke="rgb(0%,0%,0%)" stroke-width="2" x1="109.240069813" x2="109.396993887" y1="47.2774170136" y2="47.2496000994" /><line stroke="rgb(0%,0%,0%)" stroke-width="2" x1="110.406560559" x2="110.329394725" y1="46.9357060133" y2="46.966230762" /><line stroke="rgb(0%,0%,0%)" stroke-width="2" x1="96.4101928175" x2="96.3301754624" y1="38.4236435927" y2="38.1555969081" /><line stroke="rgb(0%,0%,0%)" stroke-width="2" x1="96.1733073907" x2="96.1664449839" y1="37.5396496208" y2="37.5092995294" /><line stroke="rgb(0%,0%,0%)" stroke-width="2" x1="109.687531029" x2="109.564916293" y1="47.1800254741" y2="47.2106075328" /><line stroke="rgb(0%,0%,0%)" stroke-width="2" x1="106.306220916" x2="106.478164036" y1="46.9424239609" y2="47.0032001742" /><line stroke="rgb(0%,0%,0%)" stroke-width="2" x1="104.730134443" x2="105.212808899" y1="46.2291886847" y2="46.4704809175" /><line stroke="rgb(0%,0%,0%)" stroke-width="2" x1="106.43112368" x2="106.650857361" y1="20.1800681378" y2="20.1324207386" /><line stroke="rgb(0%,0%,0%)" stroke-width="2" x1="102.405375634" x2="102.046815925" y1="45.1353052047" y2="44.9558302004" /><line stroke="rgb(0%,0%,0%)" stroke-width="2" x1="115.104293876" x2="115.198455185" y1="22.9552581151" y2="23.0315278404" /><line stroke="rgb(0%,0%,0%)" stroke-width="2" x1="109.830822357" x2="109.890977059" y1="47.1386526226" y2="47.1202649339" /><line stroke="rgb(0%,0%,0%)" stroke-width="2" x1="111.18114486" x2="111.152377339" y1="20.4901738656" y2="20.4788808937" /><line stroke="rgb(0%,0%,0%)" stroke-width="2" x1="96.7672043606" x2="96.7018902174" y1="39.4491608704" y2="39.2768017788" /><line stroke="rgb(0%,0%,0%)" stroke-width="2" x1="109.285336727" x2="109.612055797" y1="20.0343583305" y2="20.0697270616" /><line stroke="rgb(0%,0%,0%)" stroke-width="2" x1="112.428724623" x2="112.724116117" y1="21.1327225951" y2="21.3135912918" /><line stroke="rgb(0%,0%,0%)" stroke-width="2" x1="96.4101928175" x2="96.4466492396" y1="38.4236435927" y2="38.5418250061" /><line stroke="rgb(0%,0%,0%)" stroke-width="2" x1="99.2787563606" x2="99.3257686028" y1="43.1316347869" y2="43.1748959579" /><line stroke="rgb(0%,0%,0%)" stroke-width="2" x1="98.9542180829" x2="99.0109848379" y1="42.8171739082" y2="42.8741965259" /><line stroke="rgb(0%,0%,0%)" stroke-width="2" x1="112.075866289" x2="111.780686129" y1="46.1442540154" y2="46.2938848975" /><line stroke="rgb(0%,0%,0%)" stroke-width="2" x1="117.321787832" x2="117.377081055" y1="25.1415148322" y2="25.2107608106" /><line stroke="rgb(0%,0%,0%)" stroke-width="2" x1="97.9447685144" x2="98.0351800413" y1="41.5910965931" y2="41.7161655364" /><line stroke="rgb(0%,0%,0%)" stroke-width="2" x1="120.627488709" x2="120.645251407" y1="34.7732915743" y2="34.501113676" /><line stroke="rgb(0%,0%,0%)" stroke-width="2" x1="118.40822656" x2="118.330668994" y1="42.049384524" y2="42.1661107166" /><line stroke="rgb(0%,0%,0%)" stroke-width="2" x1="105.212808899" x2="105.485617079" y1="46.4704809175" y2="46.6019206908" /><line stroke="rgb(0%,0%,0%)" stroke-width="2" x1="108.616737739" x2="108.429428487" y1="47.333551847" y2="47.3372932524" /><line stroke="rgb(0%,0%,0%)" stroke-width="2" x1="108.016066349" x2="108.19456872" y1="47.3196867777" y2="47.3336952224" /><line stroke="rgb(0%,0%,0%)" stroke-width="2" x1="98.1843789496" x2="98.332273171" y1="27.0160919586" y2="26.697700441" /><line stroke="rgb(0%,0%,0%)" stroke-width="2" x1="98.0351800413" x2="98.1838033746" y1="41.7161655364" y2="41.9138190682" /><line stroke="rgb(0%,0%,0%)" stroke-width="2" x1="114.79837237" x2="115.104293876" y1="22.7100784508" y2="22.9552581151" /><line stroke="rgb(0%,0%,0%)" stroke-width="2" x1="99.6663542254" x2="99.8748054948" y1="24.7250513505" y2="24.4989285269" /><line stroke="rgb(0%,0%,0%)" stroke-width="2" x1="120.151800935" x2="120.20094959" y1="31.1071293104" y2="31.2451954402" /><line stroke="rgb(0%,0%,0%)" stroke-width="2" x1="102.405375634" x2="102.849157908" y1="45.1353052047" y2="45.3467880803" /><line stroke="rgb(0%,0%,0%)" stroke-width="2" x1="96.0887784582" x2="96.1885167773" y1="31.9909569143" y2="31.684509908" /><line stroke="rgb(0%,0%,0%)" stroke-width="2" x1="119.303166483" x2="119.250409171" y1="29.2103529175" y2="29.0969133018" /><line stroke="rgb(0%,0%,0%)" stroke-width="2" x1="119.433678082" x2="119.517622079" y1="29.473347728" y2="29.6312471556" /><line stroke="rgb(0%,0%,0%)" stroke-width="2" x1="95.8165779352" x2="95.8137215588" y1="35.1755695482" y2="35.1201280471" /><line stroke="rgb(0%,0%,0%)" stroke-width="2" x1="110.444704376" x2="110.327382289" y1="20.2391993168" y2="20.2088255363" /><line stroke="rgb(0%,0%,0%)" stroke-width="2" x1="113.53493393" x2="113.770616631" y1="21.825373474" y2="21.9786675947" /><line stroke="rgb(0%,0%,0%)" stroke-width="2" x1="108.619955363" x2="108.616737739" y1="47.3335990965" y2="47.333551847" /><line stroke="rgb(0%,0%,0%)" stroke-width="2" x1="103.880736113" x2="103.87761663" y1="21.302807644" y2="21.3046406299" /><line stroke="rgb(0%,0%,0%)" stroke-width="2" x1="117.073826637" x2="116.821763983" y1="43.6140505714" y2="43.8324532315" /><line stroke="rgb(0%,0%,0%)" stroke-width="2" x1="97.6027899561" x2="97.6295752499" y1="28.6008757575" y2="28.5319799657" /><line stroke="rgb(0%,0%,0%)" stroke-width="2" x1="118.466039521" x2="118.40822656" y1="41.958120325" y2="42.049384524" /><line stroke="rgb(0%,0%,0%)" stroke-width="2" x1="118.777959312" x2="118.60650501" y1="41.4291046707" y2="41.72589167" /><line stroke="rgb(0%,0%,0%)" stroke-width="2" x1="120.334465769" x2="120.312724691" y1="31.652841479" y2="31.5814025378" /><line stroke="rgb(0%,0%,0%)" stroke-width="2" x1="120.478199258" x2="120.435869442" y1="32.2546506076" y2="32.0508570697" /><line stroke="rgb(0%,0%,0%)" stroke-width="2" x1="109.285336727" x2="109.236306412" y1="20.0343583305" y2="20.0300195206" /><line stroke="rgb(0%,0%,0%)" stroke-width="2" x1="108.952952507" x2="109.236306412" y1="20.0130628552" y2="20.0300195206" /><line stroke="rgb(0%,0%,0%)" stroke-width="2" x1="108.745190482" x2="108.952952507" y1="20.0056938947" y2="20.0130628552" /><line stroke="rgb(0%,0%,0%)" stroke-width="2" x1="120.530663687" x2="120.483794149" y1="35.6154397567" y2="35.9384224647" /><line stroke="rgb(0%,0%,0%)" stroke-width="2" x1="120.456227568" x2="120.483794149" y1="36.1072902372" y2="35.9384224647" /><line stroke="rgb(0%,0%,0%)" stroke-width="2" x1="115.848021535" x2="116.003090578" y1="23.5993597032" y2="23.7438875962" /><line stroke="rgb(0%,0%,0%)" stroke-width="2" x1="106.832343516" x2="106.686627053" y1="47.1132360277" y2="47.0695182749" /><line stroke="rgb(0%,0%,0%)" stroke-width="2" x1="107.550199695" x2="107.278050183" y1="47.2718250351" y2="47.2233974502" /><line stroke="rgb(0%,0%,0%)" stroke-width="2" x1="120.402034382" x2="120.334465769" y1="31.9092250717" y2="31.652841479" /><line stroke="rgb(0%,0%,0%)" stroke-width="2" x1="98.7758160583" x2="98.5861587931" y1="25.8879428134" y2="26.2128587572" /><line stroke="rgb(0%,0%,0%)" stroke-width="2" x1="99.6045499386" x2="99.8181336535" y1="43.4217973806" y2="43.6005508641" /><line stroke="rgb(0%,0%,0%)" stroke-width="2" x1="118.555839957" x2="118.397824591" y1="27.2704659767" y2="26.8955620837" /><line stroke="rgb(0%,0%,0%)" stroke-width="2" x1="96.1922245376" x2="96.1885167773" y1="31.6747382767" y2="31.684509908" /><line stroke="rgb(0%,0%,0%)" stroke-width="2" x1="102.884418597" x2="102.896344115" y1="21.915365515" y2="21.9074618196" /><line stroke="rgb(0%,0%,0%)" stroke-width="2" x1="106.832343516" x2="106.987352496" y1="47.1132360277" y2="47.1555683854" /><line stroke="rgb(0%,0%,0%)" stroke-width="2" x1="118.992980794" x2="118.933634132" y1="28.5033572383" y2="28.3435078843" /><line stroke="rgb(0%,0%,0%)" stroke-width="2" x1="117.152072545" x2="117.073826637" y1="43.5433838055" y2="43.6140505714" /><line stroke="rgb(0%,0%,0%)" stroke-width="2" x1="105.643811637" x2="105.888899178" y1="46.6759645383" y2="46.781828185" /><line stroke="rgb(0%,0%,0%)" stroke-width="2" x1="96.2378482722" x2="96.1733073907" y1="37.8071660834" y2="37.5396496208" /><line stroke="rgb(0%,0%,0%)" stroke-width="2" x1="115.859095014" x2="115.70299885" y1="44.4934612349" y2="44.5797992206" /><line stroke="rgb(0%,0%,0%)" stroke-width="2" x1="96.1664449839" x2="96.1547254214" y1="37.5092995294" y2="37.4493735635" /><line stroke="rgb(0%,0%,0%)" stroke-width="2" x1="108.394568972" x2="108.079811704" y1="20.0" y2="20.0019393785" /><line stroke="rgb(0%,0%,0%)" stroke-width="2" x1="101.150664595" x2="101.437140657" y1="23.2482080951" y2="23.0001654659" /><line stroke="rgb(0%,0%,0%)" stroke-width="2" x1="111.855944124" x2="111.582081269" y1="20.8064964043" y2="20.6668701305" /><line stroke="rgb(0%,0%,0%)" stroke-width="2" x1="120.623152231" x2="120.582165584" y1="33.2313146696" y2="32.8717774508" /><line stroke="rgb(0%,0%,0%)" stroke-width="2" x1="110.759437282" x2="110.501511376" y1="46.7925620241" y2="46.8998424445" /><line stroke="rgb(0%,0%,0%)" stroke-width="2" x1="115.13564779" x2="115.460618793" y1="44.8543125637" y2="44.7025683055" /><line stroke="rgb(0%,0%,0%)" stroke-width="2" x1="114.495830364" x2="114.772069702" y1="45.125763899" y2="45.0108216437" /><line stroke="rgb(0%,0%,0%)" stroke-width="2" x1="114.268058911" x2="113.397993186" y1="45.217168241" y2="45.5612088342" /><line stroke="rgb(0%,0%,0%)" stroke-width="2" x1="104.767186001" x2="105.032891754" y1="20.8034976319" y2="20.67432402" /><line stroke="rgb(0%,0%,0%)" stroke-width="2" x1="119.876748196" x2="119.790051621" y1="38.5851178656" y2="38.8909803808" /><line stroke="rgb(0%,0%,0%)" stroke-width="2" x1="97.4913042331" x2="97.6027899561" y1="28.8691763634" y2="28.6008757575" /><line stroke="rgb(0%,0%,0%)" stroke-width="2" x1="108.934890212" x2="109.158858108" y1="47.3174658972" y2="47.2914918634" /><line stroke="rgb(0%,0%,0%)" stroke-width="2" x1="97.6712796274" x2="97.7939574444" y1="41.1988942952" y2="41.3797748589" /><line stroke="rgb(0%,0%,0%)" stroke-width="2" x1="97.3229145303" x2="97.4762074353" y1="40.6354719243" y2="40.8957573224" /><line stroke="rgb(0%,0%,0%)" stroke-width="2" x1="95.9661412999" x2="95.9983552999" y1="32.5639273189" y2="32.3854473761" /><line stroke="rgb(0%,0%,0%)" stroke-width="2" x1="98.577652618" x2="98.7078903956" y1="42.4046530076" y2="42.5555681645" /><line stroke="rgb(0%,0%,0%)" stroke-width="2" x1="101.150664595" x2="100.963148486" y1="23.2482080951" y2="23.4147518673" /><line stroke="rgb(0%,0%,0%)" stroke-width="2" x1="100.409130031" x2="100.664108391" y1="23.948959891" y2="23.696929151" /><line stroke="rgb(0%,0%,0%)" stroke-width="2" x1="107.550199695" x2="107.640864896" y1="47.2718250351" y2="47.2856328633" /><line stroke="rgb(0%,0%,0%)" stroke-width="2" x1="107.957386079" x2="108.016066349" y1="47.3173297836" y2="47.3196867777" /><line stroke="rgb(0%,0%,0%)" stroke-width="2" x1="110.501511376" x2="110.406560559" y1="46.8998424445" y2="46.9357060133" /><line stroke="rgb(0%,0%,0%)" stroke-width="2" x1="98.1838033746" x2="98.2576297593" y1="41.9138190682" y2="42.0111987194" /><line stroke="rgb(0%,0%,0%)" stroke-width="2" x1="100.500071524" x2="100.265587335" y1="44.1084093333" y2="43.945299634" /><line stroke="rgb(0%,0%,0%)" stroke-width="2" x1="112.111365054" x2="112.492319391" y1="46.1264525839" y2="45.9461410925" /><line stroke="rgb(0%,0%,0%)" stroke-width="2" x1="96.6104548679" x2="96.5672038971" y1="39.0279080266" y2="38.9051647614" /><line stroke="rgb(0%,0%,0%)" stroke-width="2" x1="99.0109848379" x2="99.2787563606" y1="42.8741965259" y2="43.1316347869" /><line stroke="rgb(0%,0%,0%)" stroke-width="2" x1="114.207312886" x2="114.375019185" y1="22.2739601223" y2="22.3943379828" /><line stroke="rgb(0%,0%,0%)" stroke-width="2" x1="119.5927529" x2="119.653594366" y1="29.7899231004" y2="29.9153449053" /><line stroke="rgb(0%,0%,0%)" stroke-width="2" x1="104.244659732" x2="103.880736113" y1="21.0896746796" y2="21.302807644" /><line stroke="rgb(0%,0%,0%)" stroke-width="2" x1="105.888899178" x2="106.013326843" y1="46.781828185" y2="46.8320913749" /><line stroke="rgb(0%,0%,0%)" stroke-width="2" x1="119.653594366" x2="119.732641586" y1="29.9153449053" y2="30.0893130247" /><line stroke="rgb(0%,0%,0%)" stroke-width="2" x1="99.3168214129" x2="99.2030029528" y1="25.1333388139" y2="25.2744368219" /><line stroke="rgb(0%,0%,0%)" stroke-width="2" x1="109.703722677" x2="109.978863334" y1="20.0822633868" y2="20.1284210348" /><line stroke="rgb(0%,0%,0%)" stroke-width="2" x1="109.564916293" x2="109.396993887" y1="47.2106075328" y2="47.2496000994" /><line stroke="rgb(0%,0%,0%)" stroke-width="2" x1="102.109147837" x2="102.448491676" y1="22.4569565855" y2="22.2096793276" /><line stroke="rgb(0%,0%,0%)" stroke-width="2" x1="97.0413330098" x2="97.0809359311" y1="40.0886856598" y2="40.1744025253" /><line stroke="rgb(0%,0%,0%)" stroke-width="2" x1="97.1109216814" x2="97.2458802239" y1="40.2358300738" y2="40.4972711899" /><line stroke="rgb(0%,0%,0%)" stroke-width="2" x1="119.264610071" x2="119.283606564" y1="40.4500357281" y2="40.40226262" /><line stroke="rgb(0%,0%,0%)" stroke-width="2" x1="119.790051621" x2="119.675355982" y1="38.8909803808" y2="39.2843436116" /><line stroke="rgb(0%,0%,0%)" stroke-width="2" x1="109.890977059" x2="110.035484967" y1="47.1202649339" y2="47.072817397" /><line stroke="rgb(0%,0%,0%)" stroke-width="2" x1="116.486514664" x2="116.333018773" y1="44.0926760254" y2="44.1993814192" /><line stroke="rgb(0%,0%,0%)" stroke-width="2" x1="116.645422938" x2="116.78289385" y1="43.9711990559" y2="43.8648367104" /><line stroke="rgb(0%,0%,0%)" stroke-width="2" x1="120.665637513" x2="120.658061556" y1="34.0079100954" y2="33.6274882972" /><line stroke="rgb(0%,0%,0%)" stroke-width="2" x1="98.0448167865" x2="98.1843789496" y1="27.3529859249" y2="27.0160919586" /><line stroke="rgb(0%,0%,0%)" stroke-width="2" x1="113.397993186" x2="113.344590044" y1="45.5612088342" y2="45.581765063" /><line stroke="rgb(0%,0%,0%)" stroke-width="2" x1="95.8185866418" x2="95.8583936559" y1="34.0426421021" y2="33.5362624014" /><line stroke="rgb(0%,0%,0%)" stroke-width="2" x1="95.8158323242" x2="95.8185866418" y1="34.0870240021" y2="34.0426421021" /><line stroke="rgb(0%,0%,0%)" stroke-width="2" x1="95.8136243617" x2="95.8154352795" y1="34.147424916" y2="34.0977353952" /><line stroke="rgb(0%,0%,0%)" stroke-width="2" x1="120.665659651" x2="120.665637513" y1="34.0151173911" y2="34.0079100954" /><line stroke="rgb(0%,0%,0%)" stroke-width="2" x1="120.652638041" x2="120.665630003" y1="34.3853388137" y2="34.0186828201" /><line stroke="rgb(0%,0%,0%)" stroke-width="2" x1="117.807352034" x2="117.663695016" y1="42.8644867644" y2="43.031226777" /><line stroke="rgb(0%,0%,0%)" stroke-width="2" x1="102.448491676" x2="102.884418597" y1="22.2096793276" y2="21.915365515" /><line stroke="rgb(0%,0%,0%)" stroke-width="2" x1="110.542846481" x2="110.444704376" y1="20.2695167446" y2="20.2391993168" /><line stroke="rgb(0%,0%,0%)" stroke-width="2" x1="104.244659732" x2="104.608921468" y1="21.0896746796" y2="20.8859200977" /><line stroke="rgb(0%,0%,0%)" stroke-width="2" x1="104.608921468" x2="104.699497337" y1="20.8859200977" y2="20.8383259645" /><line stroke="rgb(0%,0%,0%)" stroke-width="2" x1="111.246601556" x2="110.952761971" y1="46.5637147339" y2="46.7043628924" /><line stroke="rgb(0%,0%,0%)" stroke-width="2" x1="96.6104548679" x2="96.7018902174" y1="39.0279080266" y2="39.2768017788" /><line stroke="rgb(0%,0%,0%)" stroke-width="2" x1="107.278050183" x2="107.14512018" y1="47.2233974502" y2="47.1927169315" /><line stroke="rgb(0%,0%,0%)" stroke-width="2" x1="95.8165779352" x2="95.8217327589" y1="35.1755695482" y2="35.2341873557" /><line stroke="rgb(0%,0%,0%)" stroke-width="2" x1="118.60650501" x2="118.466039521" y1="41.72589167" y2="41.958120325" /><line stroke="rgb(0%,0%,0%)" stroke-width="2" x1="117.972179578" x2="117.984308056" y1="42.6663405288" y2="42.6507506477" /><line stroke="rgb(0%,0%,0%)" stroke-width="2" x1="118.216170808" x2="118.330668994" y1="42.334765786" y2="42.1661107166" /><line stroke="rgb(0%,0%,0%)" stroke-width="2" x1="116.38045882" x2="116.426678804" y1="24.1099708336" y2="24.1556166367" /><line stroke="rgb(0%,0%,0%)" stroke-width="2" x1="115.613221538" x2="115.848021535" y1="23.3853290071" y2="23.5993597032" /><line stroke="rgb(0%,0%,0%)" stroke-width="2" x1="115.465182249" x2="115.613221538" y1="23.2579017272" y2="23.3853290071" /><line stroke="rgb(0%,0%,0%)" stroke-width="2" x1="107.142469314" x2="106.918244231" y1="20.0554030418" y2="20.0845338834" /><line stroke="rgb(0%,0%,0%)" stroke-width="2" x1="100.828373333" x2="101.126421772" y1="44.3113590352" y2="44.4809512848" /><line stroke="rgb(0%,0%,0%)" stroke-width="2" x1="120.312724691" x2="120.289735108" y1="31.5814025378" y2="31.5096903052" /><line stroke="rgb(0%,0%,0%)" stroke-width="2" x1="111.512059733" x2="111.215288025" y1="20.6342116952" y2="20.5046900994" /><line stroke="rgb(0%,0%,0%)" stroke-width="2" x1="117.377081055" x2="117.558050777" y1="25.2107608106" y2="25.447899302" /><line stroke="rgb(0%,0%,0%)" stroke-width="2" x1="97.0295620317" x2="97.0065406173" y1="29.8312105525" y2="29.8754458311" /><line stroke="rgb(0%,0%,0%)" stroke-width="2" x1="116.757208028" x2="117.02348334" y1="24.4964863658" y2="24.7889820346" /><line stroke="rgb(0%,0%,0%)" stroke-width="2" x1="120.578817552" x2="120.582165584" y1="32.8471777843" y2="32.8717774508" /><line stroke="rgb(0%,0%,0%)" stroke-width="2" x1="120.232432078" x2="120.327700452" y1="37.2288137161" y2="36.8113221481" /><line stroke="rgb(0%,0%,0%)" stroke-width="2" x1="100.168672545" x2="100.265587335" y1="43.8743486685" y2="43.945299634" /><line stroke="rgb(0%,0%,0%)" stroke-width="2" x1="96.3301754624" x2="96.3157714729" y1="38.1555969081" y2="38.1045983469" /><line stroke="rgb(0%,0%,0%)" stroke-width="2" x1="110.542846481" x2="110.824371104" y1="20.2695167446" y2="20.3590558303" /><line stroke="rgb(0%,0%,0%)" stroke-width="2" x1="108.394568972" x2="108.574555382" y1="20.0" y2="20.0015112022" /><line stroke="rgb(0%,0%,0%)" stroke-width="2" x1="113.344590044" x2="113.319262309" y1="45.581765063" y2="45.5919491298" /><line stroke="rgb(0%,0%,0%)" stroke-width="2" x1="112.883819821" x2="113.319262309" y1="45.7718295686" y2="45.5919491298" /><line stroke="rgb(0%,0%,0%)" stroke-width="2" x1="112.883819821" x2="112.841983799" y1="45.7718295686" y2="45.7896985424" /><line stroke="rgb(0%,0%,0%)" stroke-width="2" x1="112.501573177" x2="112.492319391" y1="45.9416400581" y2="45.9461410925" /><line stroke="rgb(0%,0%,0%)" stroke-width="2" x1="98.9909245692" x2="99.0480788608" y1="25.5626371725" y2="25.4831770718" /><line stroke="rgb(0%,0%,0%)" stroke-width="2" x1="97.1935556826" x2="97.1576567987" y1="29.4996106348" y2="29.5675522323" /><line stroke="rgb(0%,0%,0%)" stroke-width="2" x1="97.0295620317" x2="97.1576567987" y1="29.8312105525" y2="29.5675522323" /><line stroke="rgb(0%,0%,0%)" stroke-width="2" x1="104.016802646" x2="103.90408655" y1="45.8814848842" y2="45.8305047257" /><line stroke="rgb(0%,0%,0%)" stroke-width="2" x1="104.016802646" x2="104.032565239" y1="45.8814848842" y2="45.8888417983" /><line stroke="rgb(0%,0%,0%)" stroke-width="2" x1="104.47058214" x2="104.730134443" y1="46.0992776608" y2="46.2291886847" /><line stroke="rgb(0%,0%,0%)" stroke-width="2" x1="118.397824591" x2="118.390955783" y1="26.8955620837" y2="26.8809266068" /><line stroke="rgb(0%,0%,0%)" stroke-width="2" x1="118.198178096" x2="118.271486319" y1="26.4949358216" y2="26.6363103566" /><line stroke="rgb(0%,0%,0%)" stroke-width="2" x1="119.303166483" x2="119.433678082" y1="29.2103529175" y2="29.473347728" /><line stroke="rgb(0%,0%,0%)" stroke-width="2" x1="103.017024689" x2="102.849157908" y1="45.4260462395" y2="45.3467880803" /><line stroke="rgb(0%,0%,0%)" stroke-width="2" x1="118.867017474" x2="118.777959312" y1="41.2721534602" y2="41.4291046707" /><line stroke="rgb(0%,0%,0%)" stroke-width="2" x1="101.437140657" x2="101.538464922" y1="23.0001654659" y2="22.9137655307" /><line stroke="rgb(0%,0%,0%)" stroke-width="2" x1="101.573711745" x2="101.869616722" y1="22.884353943" y2="22.6457260168" /><line stroke="rgb(0%,0%,0%)" stroke-width="2" x1="98.578245727" x2="98.5861587931" y1="26.2271042024" y2="26.2128587572" /><line stroke="rgb(0%,0%,0%)" stroke-width="2" x1="98.332273171" x2="98.3770175724" y1="26.697700441" y2="26.6059927221" /><line stroke="rgb(0%,0%,0%)" stroke-width="2" x1="102.048338985" x2="101.869616722" y1="22.5025780606" y2="22.6457260168" /><line stroke="rgb(0%,0%,0%)" stroke-width="2" x1="102.048338985" x2="102.109147837" y1="22.5025780606" y2="22.4569565855" /><line stroke="rgb(0%,0%,0%)" stroke-width="2" x1="117.407572794" x2="117.314444425" y1="43.2975110803" y2="43.3893813" /><line stroke="rgb(0%,0%,0%)" stroke-width="2" x1="96.0148488988" x2="96.0055939541" y1="36.7233893625" y2="36.666038567" /><line stroke="rgb(0%,0%,0%)" stroke-width="2" x1="120.578817552" x2="120.517713641" y1="32.8471777843" y2="32.4590091657" /><line stroke="rgb(0%,0%,0%)" stroke-width="2" x1="117.314444425" x2="117.152072545" y1="43.3893813" y2="43.5433838055" /><line stroke="rgb(0%,0%,0%)" stroke-width="2" x1="96.1922245376" x2="96.3088703722" y1="31.6747382767" y2="31.3883542463" /><line stroke="rgb(0%,0%,0%)" stroke-width="2" x1="116.645422938" x2="116.486514664" y1="43.9711990559" y2="44.0926760254" /><line stroke="rgb(0%,0%,0%)" stroke-width="2" x1="97.2805113456" x2="97.3229145303" y1="40.5622067827" y2="40.6354719243" /><line stroke="rgb(0%,0%,0%)" stroke-width="2" x1="97.2458802239" x2="97.2805113456" y1="40.4972711899" y2="40.5622067827" /><line stroke="rgb(0%,0%,0%)" stroke-width="2" x1="113.770616631" x2="114.068644666" y1="21.9786675947" y2="22.1785856638" /><line stroke="rgb(0%,0%,0%)" stroke-width="2" x1="114.068644666" x2="114.207312886" y1="22.1785856638" y2="22.2739601223" /><line stroke="rgb(0%,0%,0%)" stroke-width="2" x1="100.826457618" x2="100.963148486" y1="23.5422222013" y2="23.4147518673" /><line stroke="rgb(0%,0%,0%)" stroke-width="2" x1="102.896344115" x2="102.904208338" y1="21.9074618196" y2="21.9025263064" /><line stroke="rgb(0%,0%,0%)" stroke-width="2" x1="119.516826079" x2="119.62919433" y1="39.7833129413" y2="39.4326437921" /><line stroke="rgb(0%,0%,0%)" stroke-width="2" x1="99.5208356838" x2="99.3257686028" y1="43.3491299975" y2="43.1748959579" /><line stroke="rgb(0%,0%,0%)" stroke-width="2" x1="117.60351165" x2="117.558050777" y1="25.5116404301" y2="25.447899302" /><line stroke="rgb(0%,0%,0%)" stroke-width="2" x1="118.169228348" x2="117.984308056" y1="42.4012313016" y2="42.6507506477" /><line stroke="rgb(0%,0%,0%)" stroke-width="2" x1="120.403925977" x2="120.332126994" y1="36.4076909572" y2="36.7893861722" /><line stroke="rgb(0%,0%,0%)" stroke-width="2" x1="120.327700452" x2="120.332126994" y1="36.8113221481" y2="36.7893861722" /><line stroke="rgb(0%,0%,0%)" stroke-width="2" x1="97.6712796274" x2="97.5736198972" y1="41.1988942952" y2="41.0510113511" /><line stroke="rgb(0%,0%,0%)" stroke-width="2" x1="110.837512608" x2="110.952761971" y1="46.7593024571" y2="46.7043628924" /><line stroke="rgb(0%,0%,0%)" stroke-width="2" x1="110.759437282" x2="110.837512608" y1="46.7925620241" y2="46.7593024571" /><line stroke="rgb(0%,0%,0%)" stroke-width="2" x1="96.9398181507" x2="97.0413330098" y1="39.8641260171" y2="40.0886856598" /><line stroke="rgb(0%,0%,0%)" stroke-width="2" x1="115.460618793" x2="115.550833907" y1="44.7025683055" y2="44.6578641499" /><line stroke="rgb(0%,0%,0%)" stroke-width="2" x1="107.640864896" x2="107.88193424" y1="47.2856328633" y2="47.3111335511" /><line stroke="rgb(0%,0%,0%)" stroke-width="2" x1="95.8154352795" x2="95.8158323242" y1="34.0977353952" y2="34.0870240021" /><line stroke="rgb(0%,0%,0%)" stroke-width="2" x1="96.1547254214" x2="96.1049502503" y1="37.4493735635" y2="37.2151249896" /><line stroke="rgb(0%,0%,0%)" stroke-width="2" x1="117.02348334" x2="117.109000161" y1="24.7889820346" y2="24.8854010047" /><line stroke="rgb(0%,0%,0%)" stroke-width="2" x1="117.109000161" x2="117.321787832" y1="24.8854010047" y2="25.1415148322" /><line stroke="rgb(0%,0%,0%)" stroke-width="2" x1="98.9909245692" x2="98.7788344478" y1="25.5626371725" y2="25.8831331571" /><line stroke="rgb(0%,0%,0%)" stroke-width="2" x1="107.957386079" x2="107.88193424" y1="47.3173297836" y2="47.3111335511" /><line stroke="rgb(0%,0%,0%)" stroke-width="2" x1="97.4731748529" x2="97.4913042331" y1="28.9105016485" y2="28.8691763634" /><line stroke="rgb(0%,0%,0%)" stroke-width="2" x1="120.665630003" x2="120.665659651" y1="34.0186828201" y2="34.0151173911" /><line stroke="rgb(0%,0%,0%)" stroke-width="2" x1="109.240069813" x2="109.158858108" y1="47.2774170136" y2="47.2914918634" /><line stroke="rgb(0%,0%,0%)" stroke-width="2" x1="119.971010646" x2="119.905316468" y1="30.6412907885" y2="30.48651121" /><line stroke="rgb(0%,0%,0%)" stroke-width="2" x1="120.151800935" x2="120.0251356" y1="31.1071293104" y2="30.7780705389" /><line stroke="rgb(0%,0%,0%)" stroke-width="2" x1="95.8137215588" x2="95.8021639077" y1="35.1201280471" y2="34.777250721" /><line stroke="rgb(0%,0%,0%)" stroke-width="2" x1="95.8008390077" x2="95.8136243617" y1="34.6037194525" y2="34.147424916" /><line stroke="rgb(0%,0%,0%)" stroke-width="2" x1="115.033281424" x2="114.772069702" y1="44.8993186497" y2="45.0108216437" /><line stroke="rgb(0%,0%,0%)" stroke-width="2" x1="115.13564779" x2="115.033281424" y1="44.8543125637" y2="44.8993186497" /><line stroke="rgb(0%,0%,0%)" stroke-width="2" x1="109.703722677" x2="109.612055797" y1="20.0822633868" y2="20.0697270616" /><line stroke="rgb(0%,0%,0%)" stroke-width="2" x1="97.4762074353" x2="97.5736198972" y1="40.8957573224" y2="41.0510113511" /><line stroke="rgb(0%,0%,0%)" stroke-width="2" x1="120.598842503" x2="120.618955256" y1="35.067648105" y2="34.8742548953" /><line stroke="rgb(0%,0%,0%)" stroke-width="2" x1="96.8521399507" x2="96.9398181507" y1="39.6567527456" y2="39.8641260171" /><line stroke="rgb(0%,0%,0%)" stroke-width="2" x1="97.6544937468" x2="97.7620717535" y1="28.4626738486" y2="28.166030048" /><line stroke="rgb(0%,0%,0%)" stroke-width="2" x1="108.336768691" x2="108.429428487" y1="47.3342558756" y2="47.3372932524" /><line stroke="rgb(0%,0%,0%)" stroke-width="2" x1="120.435869442" x2="120.402034382" y1="32.0508570697" y2="31.9092250717" /><line stroke="rgb(0%,0%,0%)" stroke-width="2" x1="98.0241757001" x2="98.0448167865" y1="27.4048888158" y2="27.3529859249" /><line stroke="rgb(0%,0%,0%)" stroke-width="2" x1="108.624155191" x2="108.619955363" y1="47.3334492268" y2="47.3335990965" /><line stroke="rgb(0%,0%,0%)" stroke-width="2" x1="100.003383929" x2="100.168672545" y1="43.7495681089" y2="43.8743486685" /><line stroke="rgb(0%,0%,0%)" stroke-width="2" x1="99.8181336535" x2="100.003383929" y1="43.6005508641" y2="43.7495681089" /><line stroke="rgb(0%,0%,0%)" stroke-width="2" x1="98.578245727" x2="98.539670598" y1="26.2271042024" y2="26.2993255388" /><line stroke="rgb(0%,0%,0%)" stroke-width="2" x1="100.54805073" x2="100.828373333" y1="44.1391801554" y2="44.3113590352" /><line stroke="rgb(0%,0%,0%)" stroke-width="2" x1="96.0831240469" x2="96.0747183729" y1="32.0098894071" y2="32.0406939492" /><line stroke="rgb(0%,0%,0%)" stroke-width="2" x1="120.20094959" x2="120.289735108" y1="31.2451954402" y2="31.5096903052" /><line stroke="rgb(0%,0%,0%)" stroke-width="2" x1="119.952011507" x2="119.876748196" y1="38.3130309432" y2="38.5851178656" /><line stroke="rgb(0%,0%,0%)" stroke-width="2" x1="111.512059733" x2="111.554941885" y1="20.6342116952" y2="20.6532942015" /><line stroke="rgb(0%,0%,0%)" stroke-width="2" x1="111.554941885" x2="111.582081269" y1="20.6532942015" y2="20.6668701305" /><line stroke="rgb(0%,0%,0%)" stroke-width="2" x1="96.8739952193" x2="96.9958544181" y1="30.158182367" y2="29.8967543252" /><line stroke="rgb(0%,0%,0%)" stroke-width="2" x1="115.859095014" x2="116.001218258" y1="44.4934612349" y2="44.412891782" /><line stroke="rgb(0%,0%,0%)" stroke-width="2" x1="116.247366509" x2="116.157207932" y1="44.2572372432" y2="44.3153513949" /><line stroke="rgb(0%,0%,0%)" stroke-width="2" x1="98.539670598" x2="98.3770175724" y1="26.2993255388" y2="26.6059927221" /><line stroke="rgb(0%,0%,0%)" stroke-width="2" x1="120.456227568" x2="120.403925977" y1="36.1072902372" y2="36.4076909572" /><line stroke="rgb(0%,0%,0%)" stroke-width="2" x1="110.056936185" x2="109.978863334" y1="20.1455007296" y2="20.1284210348" /><line stroke="rgb(0%,0%,0%)" stroke-width="2" x1="110.056936185" x2="110.327382289" y1="20.1455007296" y2="20.2088255363" /><line stroke="rgb(0%,0%,0%)" stroke-width="2" x1="97.9447685144" x2="97.7939574444" y1="41.5910965931" y2="41.3797748589" /><line stroke="rgb(0%,0%,0%)" stroke-width="2" x1="120.563842664" x2="120.598842503" y1="35.3790135522" y2="35.067648105" /><line stroke="rgb(0%,0%,0%)" stroke-width="2" x1="120.563842664" x2="120.530663687" y1="35.3790135522" y2="35.6154397567" /><line stroke="rgb(0%,0%,0%)" stroke-width="2" x1="105.643811637" x2="105.574187805" y1="46.6759645383" y2="46.6447004014" /><line stroke="rgb(0%,0%,0%)" stroke-width="2" x1="105.574187805" x2="105.485617079" y1="46.6447004014" y2="46.6019206908" /><line stroke="rgb(0%,0%,0%)" stroke-width="2" x1="116.450477625" x2="116.426678804" y1="24.1795651521" y2="24.1556166367" /><line stroke="rgb(0%,0%,0%)" stroke-width="2" x1="116.525905657" x2="116.757208028" y1="24.2566593178" y2="24.4964863658" /><line stroke="rgb(0%,0%,0%)" stroke-width="2" x1="119.045785329" x2="118.992980794" y1="28.6397830201" y2="28.5033572383" /><line stroke="rgb(0%,0%,0%)" stroke-width="2" x1="119.140011978" x2="119.045785329" y1="28.8588268153" y2="28.6397830201" /><line stroke="rgb(0%,0%,0%)" stroke-width="2" x1="120.19249049" x2="120.112077238" y1="37.3947501003" y2="37.7131828552" /><line stroke="rgb(0%,0%,0%)" stroke-width="2" x1="120.19249049" x2="120.232432078" y1="37.3947501003" y2="37.2288137161" /><line stroke="rgb(0%,0%,0%)" stroke-width="2" x1="96.0831240469" x2="96.0887784582" y1="32.0098894071" y2="31.9909569143" /><line stroke="rgb(0%,0%,0%)" stroke-width="2" x1="116.821763983" x2="116.78289385" y1="43.8324532315" y2="43.8648367104" /><line stroke="rgb(0%,0%,0%)" stroke-width="2" x1="99.6663542254" x2="99.5209140524" y1="24.7250513505" y2="24.8872374345" /><line stroke="rgb(0%,0%,0%)" stroke-width="2" x1="99.3168214129" x2="99.5209140524" y1="25.1333388139" y2="24.8872374345" /><line stroke="rgb(0%,0%,0%)" stroke-width="2" x1="108.624155191" x2="108.895760451" y1="47.3334492268" y2="47.3216266558" /><line stroke="rgb(0%,0%,0%)" stroke-width="2" x1="108.934890212" x2="108.895760451" y1="47.3174658972" y2="47.3216266558" /><line stroke="rgb(0%,0%,0%)" stroke-width="2" x1="100.500071524" x2="100.512606401" y1="44.1084093333" y2="44.1168592132" /><line stroke="rgb(0%,0%,0%)" stroke-width="2" x1="100.512606401" x2="100.54805073" y1="44.1168592132" y2="44.1391801554" /><line stroke="rgb(0%,0%,0%)" stroke-width="2" x1="114.495830364" x2="114.268058911" y1="45.125763899" y2="45.217168241" /><line stroke="rgb(0%,0%,0%)" stroke-width="2" x1="110.232629688" x2="110.035484967" y1="47.0023755469" y2="47.072817397" /><line stroke="rgb(0%,0%,0%)" stroke-width="2" x1="104.032565239" x2="104.47058214" y1="45.8888417983" y2="46.0992776608" /><line stroke="rgb(0%,0%,0%)" stroke-width="2" x1="120.64303847" x2="120.658061556" y1="33.4461195303" y2="33.6274882972" /><line stroke="rgb(0%,0%,0%)" stroke-width="2" x1="96.0055939541" x2="95.9398205211" y1="36.666038567" y2="36.2499074236" /><line stroke="rgb(0%,0%,0%)" stroke-width="2" x1="118.612263774" x2="118.555839957" y1="27.4128605665" y2="27.2704659767" /><line stroke="rgb(0%,0%,0%)" stroke-width="2" x1="118.612263774" x2="118.717508279" y1="27.4128605665" y2="27.7144621625" /><line stroke="rgb(0%,0%,0%)" stroke-width="2" x1="118.271486319" x2="118.390955783" y1="26.6363103566" y2="26.8809266068" /><line stroke="rgb(0%,0%,0%)" stroke-width="2" x1="112.841983799" x2="112.515204509" y1="45.7896985424" y2="45.9355474442" /><line stroke="rgb(0%,0%,0%)" stroke-width="2" x1="108.336768691" x2="108.19456872" y1="47.3342558756" y2="47.3336952224" /><line stroke="rgb(0%,0%,0%)" stroke-width="2" x1="120.618955256" x2="120.627488709" y1="34.8742548953" y2="34.7732915743" /><line stroke="rgb(0%,0%,0%)" stroke-width="2" x1="98.756527828" x2="98.9542180829" y1="42.6075612144" y2="42.8171739082" /><line stroke="rgb(0%,0%,0%)" stroke-width="2" x1="95.9127101664" x2="95.9147841301" y1="32.9685079709" y2="32.949559533" /><line stroke="rgb(0%,0%,0%)" stroke-width="2" x1="95.9213672661" x2="95.9661412999" y1="32.8991738234" y2="32.5639273189" /><line stroke="rgb(0%,0%,0%)" stroke-width="2" x1="98.0167322298" x2="98.0241757001" y1="27.423689862" y2="27.4048888158" /><line stroke="rgb(0%,0%,0%)" stroke-width="2" x1="97.997978044" x2="98.0167322298" y1="27.4766894843" y2="27.423689862" /><line stroke="rgb(0%,0%,0%)" stroke-width="2" x1="106.013326843" x2="106.210228514" y1="46.8320913749" y2="46.9080053696" /><line stroke="rgb(0%,0%,0%)" stroke-width="2" x1="106.210228514" x2="106.306220916" y1="46.9080053696" y2="46.9424239609" /><line stroke="rgb(0%,0%,0%)" stroke-width="2" x1="115.198455185" x2="115.465182249" y1="23.0315278404" y2="23.2579017272" /><line stroke="rgb(0%,0%,0%)" stroke-width="2" x1="113.100275379" x2="113.53493393" y1="21.5488711985" y2="21.825373474" /><line stroke="rgb(0%,0%,0%)" stroke-width="2" x1="111.11394381" x2="111.152377339" y1="20.4646717153" y2="20.4788808937" /><line stroke="rgb(0%,0%,0%)" stroke-width="2" x1="95.9076944352" x2="95.9127101664" y1="33.0180525133" y2="32.9685079709" /><line stroke="rgb(0%,0%,0%)" stroke-width="2" x1="99.8748054948" x2="99.9638381854" y1="24.4989285269" y2="24.4042124252" /><line stroke="rgb(0%,0%,0%)" stroke-width="2" x1="96.8076802822" x2="96.8739952193" y1="30.29855702" y2="30.158182367" /><line stroke="rgb(0%,0%,0%)" stroke-width="2" x1="96.7098217121" x2="96.8076802822" y1="30.5144233026" y2="30.29855702" /><line stroke="rgb(0%,0%,0%)" stroke-width="2" x1="118.216170808" x2="118.169228348" y1="42.334765786" y2="42.4012313016" /><line stroke="rgb(0%,0%,0%)" stroke-width="2" x1="120.0251356" x2="119.971010646" y1="30.7780705389" y2="30.6412907885" /><line stroke="rgb(0%,0%,0%)" stroke-width="2" x1="119.050447955" x2="118.867017474" y1="40.9198652945" y2="41.2721534602" /><line stroke="rgb(0%,0%,0%)" stroke-width="2" x1="119.081025925" x2="119.065676384" y1="40.8579040114" y2="40.890204946" /><line stroke="rgb(0%,0%,0%)" stroke-width="2" x1="119.065676384" x2="119.050447955" y1="40.890204946" y2="40.9198652945" /><line stroke="rgb(0%,0%,0%)" stroke-width="2" x1="107.14512018" x2="106.987352496" y1="47.1927169315" y2="47.1555683854" /><line stroke="rgb(0%,0%,0%)" stroke-width="2" x1="107.510016389" x2="107.566608305" y1="20.0224835389" y2="20.0192571016" /><line stroke="rgb(0%,0%,0%)" stroke-width="2" x1="106.43112368" x2="106.275297668" y1="20.1800681378" y2="20.2177710397" /><line stroke="rgb(0%,0%,0%)" stroke-width="2" x1="106.02364513" x2="106.275297668" y1="20.2910193185" y2="20.2177710397" /><line stroke="rgb(0%,0%,0%)" stroke-width="2" x1="106.791974571" x2="106.864004984" y1="20.1071325473" y2="20.0932302661" /><line stroke="rgb(0%,0%,0%)" stroke-width="2" x1="116.157207932" x2="116.001218258" y1="44.3153513949" y2="44.412891782" /><line stroke="rgb(0%,0%,0%)" stroke-width="2" x1="98.2576297593" x2="98.3766763706" y1="42.0111987194" y2="42.1638864946" /><line stroke="rgb(0%,0%,0%)" stroke-width="2" x1="105.530061566" x2="105.896301859" y1="20.4606434475" y2="20.3303230581" /><line stroke="rgb(0%,0%,0%)" stroke-width="2" x1="106.02364513" x2="105.896301859" y1="20.2910193185" y2="20.3303230581" /><line stroke="rgb(0%,0%,0%)" stroke-width="2" x1="96.0172309109" x2="95.9983552999" y1="32.2859102378" y2="32.3854473761" /><line stroke="rgb(0%,0%,0%)" stroke-width="2" x1="96.0172309109" x2="96.0747183729" y1="32.2859102378" y2="32.0406939492" /><line stroke="rgb(0%,0%,0%)" stroke-width="2" x1="114.650630726" x2="114.79837237" y1="22.5947306157" y2="22.7100784508" /><line stroke="rgb(0%,0%,0%)" stroke-width="2" x1="114.650630726" x2="114.375019185" y1="22.5947306157" y2="22.3943379828" /><line stroke="rgb(0%,0%,0%)" stroke-width="2" x1="96.9958544181" x2="97.0065406173" y1="29.8967543252" y2="29.8754458311" /><line stroke="rgb(0%,0%,0%)" stroke-width="2" x1="107.566608305" x2="107.863260705" y1="20.0192571016" y2="20.0052319981" /><line stroke="rgb(0%,0%,0%)" stroke-width="2" x1="108.079811704" x2="107.863260705" y1="20.0019393785" y2="20.0052319981" /><line stroke="rgb(0%,0%,0%)" stroke-width="2" x1="101.811934056" x2="102.046815925" y1="44.8368973426" y2="44.9558302004" /><line stroke="rgb(0%,0%,0%)" stroke-width="2" x1="115.70299885" x2="115.550833907" y1="44.5797992206" y2="44.6578641499" /><line stroke="rgb(0%,0%,0%)" stroke-width="2" x1="97.0809359311" x2="97.1109216814" y1="40.1744025253" y2="40.2358300738" /><line stroke="rgb(0%,0%,0%)" stroke-width="2" x1="112.016841638" x2="111.855944124" y1="20.8934168436" y2="20.8064964043" /><line stroke="rgb(0%,0%,0%)" stroke-width="2" x1="96.376997519" x2="96.3088703722" y1="31.2324448307" y2="31.3883542463" /><line stroke="rgb(0%,0%,0%)" stroke-width="2" x1="96.376997519" x2="96.4496434867" y1="31.2324448307" y2="31.0713085542" /><line stroke="rgb(0%,0%,0%)" stroke-width="2" x1="96.4466492396" x2="96.5146969311" y1="38.5418250061" y2="38.7500564092" /><line stroke="rgb(0%,0%,0%)" stroke-width="2" x1="105.511479424" x2="105.249818033" y1="20.4674688713" y2="20.5743193548" /><line stroke="rgb(0%,0%,0%)" stroke-width="2" x1="105.516636428" x2="105.530061566" y1="20.4654944886" y2="20.4606434475" /><line stroke="rgb(0%,0%,0%)" stroke-width="2" x1="105.511479424" x2="105.516636428" y1="20.4674688713" y2="20.4654944886" /><line stroke="rgb(0%,0%,0%)" stroke-width="2" x1="95.8021639077" x2="95.8008390077" y1="34.777250721" y2="34.6037194525" /><line stroke="rgb(0%,0%,0%)" stroke-width="2" x1="99.5208356838" x2="99.6045499386" y1="43.3491299975" y2="43.4217973806" /><line stroke="rgb(0%,0%,0%)" stroke-width="2" x1="119.14670893" x2="119.250409171" y1="28.8748717981" y2="29.0969133018" /><line stroke="rgb(0%,0%,0%)" stroke-width="2" x1="119.140011978" x2="119.14670893" y1="28.8588268153" y2="28.8748717981" /><line stroke="rgb(0%,0%,0%)" stroke-width="2" x1="119.403588817" x2="119.283606564" y1="40.1003568205" y2="40.40226262" /><line stroke="rgb(0%,0%,0%)" stroke-width="2" x1="119.516826079" x2="119.50206192" y1="39.7833129413" y2="39.825961865" /><line stroke="rgb(0%,0%,0%)" stroke-width="2" x1="119.50206192" x2="119.403588817" y1="39.825961865" y2="40.1003568205" /><line stroke="rgb(0%,0%,0%)" stroke-width="2" x1="100.192876333" x2="100.409130031" y1="24.1677683346" y2="23.948959891" /><line stroke="rgb(0%,0%,0%)" stroke-width="2" x1="99.9638381854" x2="100.192876333" y1="24.4042124252" y2="24.1677683346" /><line stroke="rgb(0%,0%,0%)" stroke-width="2" x1="110.329394725" x2="110.232629688" y1="46.966230762" y2="47.0023755469" /><line stroke="rgb(0%,0%,0%)" stroke-width="2" x1="97.6544937468" x2="97.6295752499" y1="28.4626738486" y2="28.5319799657" /><line stroke="rgb(0%,0%,0%)" stroke-width="2" x1="117.822981705" x2="117.862055759" y1="25.8388420119" y2="25.8994600429" /><line stroke="rgb(0%,0%,0%)" stroke-width="2" x1="117.989856938" x2="117.862055759" y1="26.1154938757" y2="25.8994600429" /><line stroke="rgb(0%,0%,0%)" stroke-width="2" x1="116.450477625" x2="116.525905657" y1="24.1795651521" y2="24.2566593178" /><line stroke="rgb(0%,0%,0%)" stroke-width="2" x1="117.955399251" x2="117.972179578" y1="42.6870918426" y2="42.6663405288" /><line stroke="rgb(0%,0%,0%)" stroke-width="2" x1="106.650857361" x2="106.791974571" y1="20.1324207386" y2="20.1071325473" /><line stroke="rgb(0%,0%,0%)" stroke-width="2" x1="107.182961756" x2="107.252114078" y1="20.0507386871" y2="20.0445902255" /><line stroke="rgb(0%,0%,0%)" stroke-width="2" x1="107.142469314" x2="107.182961756" y1="20.0554030418" y2="20.0507386871" /><line stroke="rgb(0%,0%,0%)" stroke-width="2" x1="112.428724623" x2="112.179351346" y1="21.1327225951" y2="20.9847808231" /><line stroke="rgb(0%,0%,0%)" stroke-width="2" x1="112.016841638" x2="112.179351346" y1="20.8934168436" y2="20.9847808231" /><line stroke="rgb(0%,0%,0%)" stroke-width="2" x1="97.3876652907" x2="97.3161456598" y1="29.0994289803" y2="29.2472312861" /><line stroke="rgb(0%,0%,0%)" stroke-width="2" x1="97.1935556826" x2="97.3161456598" y1="29.4996106348" y2="29.2472312861" /><line stroke="rgb(0%,0%,0%)" stroke-width="2" x1="97.444723404" x2="97.4731748529" y1="28.9711305974" y2="28.9105016485" /><line stroke="rgb(0%,0%,0%)" stroke-width="2" x1="97.3876652907" x2="97.444723404" y1="29.0994289803" y2="28.9711305974" /><line stroke="rgb(0%,0%,0%)" stroke-width="2" x1="100.664108391" x2="100.826457618" y1="23.696929151" y2="23.5422222013" /><line stroke="rgb(0%,0%,0%)" stroke-width="2" x1="96.2533517949" x2="96.3157714729" y1="37.8701293524" y2="38.1045983469" /><line stroke="rgb(0%,0%,0%)" stroke-width="2" x1="101.538464922" x2="101.573711745" y1="22.9137655307" y2="22.884353943" /><line stroke="rgb(0%,0%,0%)" stroke-width="2" x1="98.3766763706" x2="98.4502465467" y1="42.1638864946" y2="42.2540173447" /><line stroke="rgb(0%,0%,0%)" stroke-width="2" x1="98.4502465467" x2="98.577652618" y1="42.2540173447" y2="42.4046530076" /><line stroke="rgb(0%,0%,0%)" stroke-width="2" x1="95.9147841301" x2="95.9213672661" y1="32.949559533" y2="32.8991738234" /><line stroke="rgb(0%,0%,0%)" stroke-width="2" x1="98.7758160583" x2="98.7771330593" y1="25.8879428134" y2="25.8857630485" /><line stroke="rgb(0%,0%,0%)" stroke-width="2" x1="104.699497337" x2="104.767186001" y1="20.8383259645" y2="20.8034976319" /><line stroke="rgb(0%,0%,0%)" stroke-width="2" x1="112.515204509" x2="112.501573177" y1="45.9355474442" y2="45.9416400581" /><line stroke="rgb(0%,0%,0%)" stroke-width="2" x1="120.478199258" x2="120.502835999" y1="32.2546506076" y2="32.3763969215" /><line stroke="rgb(0%,0%,0%)" stroke-width="2" x1="103.875212008" x2="103.87761663" y1="21.3061163278" y2="21.3046406299" /><line stroke="rgb(0%,0%,0%)" stroke-width="2" x1="119.517622079" x2="119.5927529" y1="29.6312471556" y2="29.7899231004" /><line stroke="rgb(0%,0%,0%)" stroke-width="2" x1="95.870171507" x2="95.8217327589" y1="35.728171892" y2="35.2341873557" /><line stroke="rgb(0%,0%,0%)" stroke-width="2" x1="95.870171507" x2="95.8903323619" y1="35.728171892" y2="35.8841353983" /><line stroke="rgb(0%,0%,0%)" stroke-width="2" x1="108.574555382" x2="108.745190482" y1="20.0015112022" y2="20.0056938947" /><line stroke="rgb(0%,0%,0%)" stroke-width="2" x1="118.860179395" x2="118.933634132" y1="28.1356128167" y2="28.3435078843" /><line stroke="rgb(0%,0%,0%)" stroke-width="2" x1="113.100275379" x2="112.968746507" y1="21.5488711985" y2="21.465821213" /><line stroke="rgb(0%,0%,0%)" stroke-width="2" x1="112.968746507" x2="112.909311443" y1="21.465821213" y2="21.4289932874" /><line stroke="rgb(0%,0%,0%)" stroke-width="2" x1="120.645251407" x2="120.652638041" y1="34.501113676" y2="34.3853388137" /><line stroke="rgb(0%,0%,0%)" stroke-width="2" x1="96.091836505" x2="96.072810828" y1="37.1512380972" y2="37.0468961618" /><line stroke="rgb(0%,0%,0%)" stroke-width="2" x1="96.1049502503" x2="96.091836505" y1="37.2151249896" y2="37.1512380972" /><line stroke="rgb(0%,0%,0%)" stroke-width="2" x1="101.220787513" x2="101.171572533" y1="44.5318364574" y2="44.5060667494" /><line stroke="rgb(0%,0%,0%)" stroke-width="2" x1="101.126421772" x2="101.171572533" y1="44.4809512848" y2="44.5060667494" /><line stroke="rgb(0%,0%,0%)" stroke-width="2" x1="118.060425444" x2="118.198178096" y1="26.2358709111" y2="26.4949358216" /><line stroke="rgb(0%,0%,0%)" stroke-width="2" x1="117.989856938" x2="118.060425444" y1="26.1154938757" y2="26.2358709111" /><line stroke="rgb(0%,0%,0%)" stroke-width="2" x1="112.111365054" x2="112.075866289" y1="46.1264525839" y2="46.1442540154" /><line stroke="rgb(0%,0%,0%)" stroke-width="2" x1="111.215288025" x2="111.18114486" y1="20.5046900994" y2="20.4901738656" /><line stroke="rgb(0%,0%,0%)" stroke-width="2" x1="103.510670252" x2="103.875212008" y1="21.5268458314" y2="21.3061163278" /><line stroke="rgb(0%,0%,0%)" stroke-width="2" x1="119.241289004" x2="119.081025925" y1="40.50781675" y2="40.8579040114" /><line stroke="rgb(0%,0%,0%)" stroke-width="2" x1="119.264610071" x2="119.241289004" y1="40.4500357281" y2="40.50781675" /><line stroke="rgb(0%,0%,0%)" stroke-width="2" x1="109.830822357" x2="109.687531029" y1="47.1386526226" y2="47.1800254741" /><line stroke="rgb(0%,0%,0%)" stroke-width="2" x1="96.2533517949" x2="96.2378482722" y1="37.8701293524" y2="37.8071660834" /><line stroke="rgb(0%,0%,0%)" stroke-width="2" x1="105.032891754" x2="105.220179965" y1="20.67432402" y2="20.5872948441" /><line stroke="rgb(0%,0%,0%)" stroke-width="2" x1="96.5672038971" x2="96.5146969311" y1="38.9051647614" y2="38.7500564092" /></svg>