<?xml version="1.0" encoding="utf-8" ?>
<svg baseProfile="full" height="100%" version="1.1" width="100%" xmlns="http://www.w3.org/2000/svg" xmlns:ev="http://www.w3.org/2001/xml-events" xmlns:xlink="http://www.w3.org/1999/xlink"><defs /><text font-family="Verdana" font-size="12" style="fill: #ff0000; width:1000px; color:red; font-weight:100;" text-anchor="middle" x="20.0" y="20.0">X1</text><line stroke="rgb(0%,0%,0%)" stroke-width="2" x1="20.0" x2="20.0" y1="20.0" y2="20.0" /><line stroke="rgb(0%,0%,0%)" stroke-width="2" x1="20.0" x2="20.0" y1="20.0" y2="20.0" /><line stroke="rgb(0%,0%,0%)" stroke-width="2" x1="20.0" x2="20.0" y1="20.0" y2="20.0" /><line stroke="rgb(0%,0%,0%)" stroke-width="2" x1="20.0" x2="20.0" y1="20.0" y2="20.0" /><line stroke="rgb(0%,0%,0%)" stroke-width="2" x1="20.0" x2="20.0" y1="20.0" y2="20.0" /><line stroke="rgb(0%,0%,0%)" stroke-width="2" x1="20.0" x2="20.0" y1="20.0" y2="20.0" /><text font-family="Verdana" font-size="12" style="fill: #ff0000; width:1000px; color:red; font-weight:100;" text-anchor="middle" x="68.2069144546" y="48.2069144546">X2</text><line stroke="rgb(0%,0%,0%)" stroke-width="2" x1="43.5258643068" x2="43.5258643068" y1="34.8874079939" y2="56.5264427685" /><line stroke="rgb(0%,0%,0%)" stroke-width="2" x1="47.0517286136" x2="47.0517286136" y1="34.7425108344" y2="66.6713126459" /><line stroke="rgb(0%,0%,0%)" stroke-width="2" x1="50.5775929205" x2="50.5775929205" y1="26.1455652666" y2="65.2682625154" /><line stroke="rgb(0%,0%,0%)" stroke-width="2" x1="54.1034572273" x2="54.1034572273" y1="28.9575102969" y2="72.4563335918" /><line stroke="rgb(0%,0%,0%)" stroke-width="2" x1="57.6293215341" x2="57.6293215341" y1="22.0431793519" y2="69.3706499428" /><line stroke="rgb(0%,0%,0%)" stroke-width="2" x1="61.1551858409" x2="61.1551858409" y1="26.0031862883" y2="75.4106431949" /><line stroke="rgb(0%,0%,0%)" stroke-width="2" x1="64.6810501478" x2="64.6810501478" y1="20.2931829695" y2="71.1206498925" /><line stroke="rgb(0%,0%,0%)" stroke-width="2" x1="68.2069144546" x2="68.2069144546" y1="25.0" y2="76.4138289091" /><line stroke="rgb(0%,0%,0%)" stroke-width="2" x1="71.7327787614" x2="71.7327787614" y1="20.2931790166" y2="71.1206459396" /><line stroke="rgb(0%,0%,0%)" stroke-width="2" x1="75.2586430682" x2="75.2586430682" y1="26.0031857143" y2="75.4106426209" /><line stroke="rgb(0%,0%,0%)" stroke-width="2" x1="78.784507375" x2="78.784507375" y1="22.0431789663" y2="69.3706495573" /><line stroke="rgb(0%,0%,0%)" stroke-width="2" x1="82.3103716819" x2="82.3103716819" y1="28.9574953173" y2="72.4563186122" /><line stroke="rgb(0%,0%,0%)" stroke-width="2" x1="85.8362359887" x2="85.8362359887" y1="26.1455663937" y2="65.2682636425" /><line stroke="rgb(0%,0%,0%)" stroke-width="2" x1="89.3621002955" x2="89.3621002955" y1="34.7425162632" y2="66.6713180748" /><line stroke="rgb(0%,0%,0%)" stroke-width="2" x1="92.8879646023" x2="92.8879646023" y1="34.8873861406" y2="56.5264209153" /><line stroke="rgb(0%,0%,0%)" stroke-width="2" x1="79.3809953959" x2="79.3327523079" y1="74.1877150832" y2="74.205187667" /><line stroke="rgb(0%,0%,0%)" stroke-width="2" x1="79.3130219323" x2="79.3327523079" y1="74.2123334863" y2="74.205187667" /><line stroke="rgb(0%,0%,0%)" stroke-width="2" x1="79.3130219323" x2="76.3298980836" y1="74.2123334863" y2="75.1059256127" /><line stroke="rgb(0%,0%,0%)" stroke-width="2" x1="75.4723233653" x2="76.3298980836" y1="75.3628138423" y2="75.1059256127" /><line stroke="rgb(0%,0%,0%)" stroke-width="2" x1="75.4723233653" x2="73.9187439295" y1="75.3628138423" y2="75.7105567454" /><line stroke="rgb(0%,0%,0%)" stroke-width="2" x1="72.6592022739" x2="73.9187439295" y1="75.9924887129" y2="75.7105567454" /><line stroke="rgb(0%,0%,0%)" stroke-width="2" x1="72.6592022739" x2="71.8166628629" y1="75.9924887129" y2="76.1090413613" /><line stroke="rgb(0%,0%,0%)" stroke-width="2" x1="70.3324828917" x2="71.8166628629" y1="76.3143637328" y2="76.1090413613" /><line stroke="rgb(0%,0%,0%)" stroke-width="2" x1="70.3324828917" x2="69.8315159964" y1="76.3143637328" y2="76.3378073789" /><line stroke="rgb(0%,0%,0%)" stroke-width="2" x1="68.2069144546" x2="69.8315159964" y1="76.4138289091" y2="76.3378073789" /><line stroke="rgb(0%,0%,0%)" stroke-width="2" x1="68.2069144546" x2="67.7857413507" y1="76.4138289091" y2="76.3941193978" /><line stroke="rgb(0%,0%,0%)" stroke-width="2" x1="66.0813460175" x2="67.7857413507" y1="76.3143637328" y2="76.3941193978" /><line stroke="rgb(0%,0%,0%)" stroke-width="2" x1="66.0813460175" x2="65.4402283328" y1="76.3143637328" y2="76.2256743985" /><line stroke="rgb(0%,0%,0%)" stroke-width="2" x1="63.7546266352" x2="65.4402283328" y1="75.9924887129" y2="76.2256743985" /><line stroke="rgb(0%,0%,0%)" stroke-width="2" x1="63.7546266352" x2="62.3290834435" y1="75.9924887129" y2="75.6734037917" /><line stroke="rgb(0%,0%,0%)" stroke-width="2" x1="60.9415055439" x2="62.3290834435" y1="75.3628138423" y2="75.6734037917" /><line stroke="rgb(0%,0%,0%)" stroke-width="2" x1="60.9415055439" x2="57.1428165686" y1="75.3628138423" y2="74.224917501" /><line stroke="rgb(0%,0%,0%)" stroke-width="2" x1="57.1008069769" x2="57.1428165686" y1="74.2123334863" y2="74.224917501" /><line stroke="rgb(0%,0%,0%)" stroke-width="2" x1="57.0328335133" x2="57.1008069769" y1="74.1877150832" y2="74.2123334863" /><line stroke="rgb(0%,0%,0%)" stroke-width="2" x1="85.607888027" x2="85.5700531807" y1="70.5012145339" y2="70.526465505" /><line stroke="rgb(0%,0%,0%)" stroke-width="2" x1="85.5273312298" x2="85.5700531807" y1="70.5549786015" y2="70.526465505" /><line stroke="rgb(0%,0%,0%)" stroke-width="2" x1="85.5273312298" x2="82.0095901601" y1="70.5549786015" y2="72.6340914233" /><line stroke="rgb(0%,0%,0%)" stroke-width="2" x1="82.0095901601" x2="79.3809953959" y1="72.6340914233" y2="74.1877150832" /><line stroke="rgb(0%,0%,0%)" stroke-width="2" x1="50.8864976793" x2="57.0328335133" y1="70.5549786015" y2="74.1877150832" /><line stroke="rgb(0%,0%,0%)" stroke-width="2" x1="50.8059408821" x2="50.8864976793" y1="70.5012145339" y2="70.5549786015" /><line stroke="rgb(0%,0%,0%)" stroke-width="2" x1="90.176479413" x2="88.5320000602" y1="65.8405146896" y2="67.5181596388" /><line stroke="rgb(0%,0%,0%)" stroke-width="2" x1="88.5320000602" x2="85.607888027" y1="67.5181596388" y2="70.5012145339" /><line stroke="rgb(0%,0%,0%)" stroke-width="2" x1="46.2373494961" x2="50.7393126513" y1="65.8405146896" y2="70.4332427059" /><line stroke="rgb(0%,0%,0%)" stroke-width="2" x1="50.7393126513" x2="50.8059408821" y1="70.4332427059" y2="70.5012145339" /><line stroke="rgb(0%,0%,0%)" stroke-width="2" x1="93.5902840244" x2="91.5522818561" y1="60.4090142547" y2="63.6515234685" /><line stroke="rgb(0%,0%,0%)" stroke-width="2" x1="91.5522818561" x2="90.176479413" y1="63.6515234685" y2="65.8405146896" /><line stroke="rgb(0%,0%,0%)" stroke-width="2" x1="42.8235448847" x2="44.2490768441" y1="60.4090142547" y2="62.6771133684" /><line stroke="rgb(0%,0%,0%)" stroke-width="2" x1="44.2490768441" x2="46.2373494961" y1="62.6771133684" y2="65.8405146896" /><line stroke="rgb(0%,0%,0%)" stroke-width="2" x1="95.700126661" x2="94.110998413" y1="54.4442644416" y2="58.9368877429" /><line stroke="rgb(0%,0%,0%)" stroke-width="2" x1="94.110998413" x2="93.5902840244" y1="58.9368877429" y2="60.4090142547" /><line stroke="rgb(0%,0%,0%)" stroke-width="2" x1="40.7137022481" x2="41.1379511806" y1="54.4442644416" y2="55.6436687685" /><line stroke="rgb(0%,0%,0%)" stroke-width="2" x1="41.1379511806" x2="42.8235448847" y1="55.6436687685" y2="60.4090142547" /><line stroke="rgb(0%,0%,0%)" stroke-width="2" x1="96.4138289091" x2="95.8122734192" y1="48.2069144546" y2="53.4642278544" /><line stroke="rgb(0%,0%,0%)" stroke-width="2" x1="95.8122734192" x2="95.700126661" y1="53.4642278544" y2="54.4442644416" /><line stroke="rgb(0%,0%,0%)" stroke-width="2" x1="40.0" x2="40.0963901288" y1="48.2069144546" y2="49.0492593101" /><line stroke="rgb(0%,0%,0%)" stroke-width="2" x1="40.0963901288" x2="40.7137022481" y1="49.0492593101" y2="54.4442644416" /><line stroke="rgb(0%,0%,0%)" stroke-width="2" x1="95.700126661" x2="96.3174387803" y1="41.9695644675" y2="47.3645695991" /><line stroke="rgb(0%,0%,0%)" stroke-width="2" x1="96.3174387803" x2="96.4138289091" y1="47.3645695991" y2="48.2069144546" /><line stroke="rgb(0%,0%,0%)" stroke-width="2" x1="40.7137022481" x2="40.6015554899" y1="41.9695644675" y2="42.9496010547" /><line stroke="rgb(0%,0%,0%)" stroke-width="2" x1="40.6015554899" x2="40.0" y1="42.9496010547" y2="48.2069144546" /><line stroke="rgb(0%,0%,0%)" stroke-width="2" x1="93.5902840244" x2="95.2758777285" y1="36.0048146545" y2="40.7701601406" /><line stroke="rgb(0%,0%,0%)" stroke-width="2" x1="95.2758777285" x2="95.700126661" y1="40.7701601406" y2="41.9695644675" /><line stroke="rgb(0%,0%,0%)" stroke-width="2" x1="42.8235448847" x2="42.3028304962" y1="36.0048146545" y2="37.4769411663" /><line stroke="rgb(0%,0%,0%)" stroke-width="2" x1="42.3028304962" x2="40.7137022481" y1="37.4769411663" y2="41.9695644675" /><line stroke="rgb(0%,0%,0%)" stroke-width="2" x1="90.176479413" x2="92.164752065" y1="30.5733142196" y2="33.7367155407" /><line stroke="rgb(0%,0%,0%)" stroke-width="2" x1="92.164752065" x2="93.5902840244" y1="33.7367155407" y2="36.0048146545" /><line stroke="rgb(0%,0%,0%)" stroke-width="2" x1="46.2373494961" x2="44.8615470531" y1="30.5733142196" y2="32.7623054406" /><line stroke="rgb(0%,0%,0%)" stroke-width="2" x1="44.8615470531" x2="42.8235448847" y1="32.7623054406" y2="36.0048146545" /><line stroke="rgb(0%,0%,0%)" stroke-width="2" x1="85.607888027" x2="85.6745162578" y1="25.9126143752" y2="25.9805862033" /><line stroke="rgb(0%,0%,0%)" stroke-width="2" x1="85.6745162578" x2="90.176479413" y1="25.9805862033" y2="30.5733142196" /><line stroke="rgb(0%,0%,0%)" stroke-width="2" x1="50.8059408821" x2="47.8818288489" y1="25.9126143752" y2="28.8956692704" /><line stroke="rgb(0%,0%,0%)" stroke-width="2" x1="47.8818288489" x2="46.2373494961" y1="28.8956692704" y2="30.5733142196" /><line stroke="rgb(0%,0%,0%)" stroke-width="2" x1="85.5273312298" x2="85.607888027" y1="25.8588503077" y2="25.9126143752" /><line stroke="rgb(0%,0%,0%)" stroke-width="2" x1="79.3809953959" x2="85.5273312298" y1="22.2261138259" y2="25.8588503077" /><line stroke="rgb(0%,0%,0%)" stroke-width="2" x1="57.0328335133" x2="54.4042387491" y1="22.2261138259" y2="23.7797374859" /><line stroke="rgb(0%,0%,0%)" stroke-width="2" x1="50.8864976793" x2="54.4042387491" y1="25.8588503077" y2="23.7797374859" /><line stroke="rgb(0%,0%,0%)" stroke-width="2" x1="50.8864976793" x2="50.8437757285" y1="25.8588503077" y2="25.8873634041" /><line stroke="rgb(0%,0%,0%)" stroke-width="2" x1="50.8437757285" x2="50.8059408821" y1="25.8873634041" y2="25.9126143752" /><line stroke="rgb(0%,0%,0%)" stroke-width="2" x1="79.3130219323" x2="79.3809953959" y1="22.2014954229" y2="22.2261138259" /><line stroke="rgb(0%,0%,0%)" stroke-width="2" x1="79.3130219323" x2="79.2710123405" y1="22.2014954229" y2="22.1889114082" /><line stroke="rgb(0%,0%,0%)" stroke-width="2" x1="75.4723233653" x2="79.2710123405" y1="21.0510150669" y2="22.1889114082" /><line stroke="rgb(0%,0%,0%)" stroke-width="2" x1="75.4723233653" x2="74.0847454656" y1="21.0510150669" y2="20.7404251174" /><line stroke="rgb(0%,0%,0%)" stroke-width="2" x1="72.6592022739" x2="74.0847454656" y1="20.4213401962" y2="20.7404251174" /><line stroke="rgb(0%,0%,0%)" stroke-width="2" x1="72.6592022739" x2="70.9736005764" y1="20.4213401962" y2="20.1881545106" /><line stroke="rgb(0%,0%,0%)" stroke-width="2" x1="70.3324828917" x2="70.9736005764" y1="20.0994651763" y2="20.1881545106" /><line stroke="rgb(0%,0%,0%)" stroke-width="2" x1="70.3324828917" x2="68.6280875585" y1="20.0994651763" y2="20.0197095114" /><line stroke="rgb(0%,0%,0%)" stroke-width="2" x1="68.2069144546" x2="68.6280875585" y1="20.0" y2="20.0197095114" /><line stroke="rgb(0%,0%,0%)" stroke-width="2" x1="68.2069144546" x2="66.5823129128" y1="20.0" y2="20.0760215302" /><line stroke="rgb(0%,0%,0%)" stroke-width="2" x1="66.0813460175" x2="66.5823129128" y1="20.0994651763" y2="20.0760215302" /><line stroke="rgb(0%,0%,0%)" stroke-width="2" x1="66.0813460175" x2="64.5971660462" y1="20.0994651763" y2="20.3047875478" /><line stroke="rgb(0%,0%,0%)" stroke-width="2" x1="63.7546266352" x2="64.5971660462" y1="20.4213401962" y2="20.3047875478" /><line stroke="rgb(0%,0%,0%)" stroke-width="2" x1="63.7546266352" x2="62.4950849797" y1="20.4213401962" y2="20.7032721637" /><line stroke="rgb(0%,0%,0%)" stroke-width="2" x1="60.9415055439" x2="62.4950849797" y1="21.0510150669" y2="20.7032721637" /><line stroke="rgb(0%,0%,0%)" stroke-width="2" x1="60.9415055439" x2="60.0839308256" y1="21.0510150669" y2="21.3079032965" /><line stroke="rgb(0%,0%,0%)" stroke-width="2" x1="57.1008069769" x2="60.0839308256" y1="22.2014954229" y2="21.3079032965" /><line stroke="rgb(0%,0%,0%)" stroke-width="2" x1="57.1008069769" x2="57.0810766013" y1="22.2014954229" y2="22.2086412421" /><line stroke="rgb(0%,0%,0%)" stroke-width="2" x1="57.0810766013" x2="57.0328335133" y1="22.2086412421" y2="22.2261138259" /><text font-family="Verdana" font-size="12" style="fill: #ff0000; width:1000px; color:red; font-weight:100;" text-anchor="middle" x="144.620743364" y="48.2069144546">X3</text><line stroke="rgb(0%,0%,0%)" stroke-width="2" x1="119.939693216" x2="119.939693216" y1="34.8873861406" y2="56.5264209153" /><line stroke="rgb(0%,0%,0%)" stroke-width="2" x1="123.465557523" x2="123.465557523" y1="34.7425162632" y2="66.6713180748" /><line stroke="rgb(0%,0%,0%)" stroke-width="2" x1="126.99142183" x2="126.99142183" y1="26.1455663937" y2="65.2682636425" /><line stroke="rgb(0%,0%,0%)" stroke-width="2" x1="130.517286136" x2="130.517286136" y1="28.9574953173" y2="72.4563186122" /><line stroke="rgb(0%,0%,0%)" stroke-width="2" x1="134.043150443" x2="134.043150443" y1="22.0431789663" y2="69.3706495573" /><line stroke="rgb(0%,0%,0%)" stroke-width="2" x1="137.56901475" x2="137.56901475" y1="26.0031857143" y2="75.4106426209" /><line stroke="rgb(0%,0%,0%)" stroke-width="2" x1="141.094879057" x2="141.094879057" y1="20.2931790166" y2="71.1206459396" /><line stroke="rgb(0%,0%,0%)" stroke-width="2" x1="144.620743364" x2="144.620743364" y1="25.0" y2="76.4138289091" /><line stroke="rgb(0%,0%,0%)" stroke-width="2" x1="148.146607671" x2="148.146607671" y1="20.2931829695" y2="71.1206498925" /><line stroke="rgb(0%,0%,0%)" stroke-width="2" x1="151.672471977" x2="151.672471977" y1="26.0031862883" y2="75.4106431949" /><line stroke="rgb(0%,0%,0%)" stroke-width="2" x1="155.198336284" x2="155.198336284" y1="22.0431793519" y2="69.3706499428" /><line stroke="rgb(0%,0%,0%)" stroke-width="2" x1="158.724200591" x2="158.724200591" y1="28.9575102969" y2="72.4563335918" /><line stroke="rgb(0%,0%,0%)" stroke-width="2" x1="162.250064898" x2="162.250064898" y1="26.1455652666" y2="65.2682625154" /><line stroke="rgb(0%,0%,0%)" stroke-width="2" x1="165.775929205" x2="165.775929205" y1="34.7425108344" y2="66.6713126459" /><line stroke="rgb(0%,0%,0%)" stroke-width="2" x1="169.301793511" x2="169.301793511" y1="34.8874079939" y2="56.5264427685" /><line stroke="rgb(0%,0%,0%)" stroke-width="2" x1="144.620743364" x2="145.041916468" y1="76.4138289091" y2="76.3941193978" /><line stroke="rgb(0%,0%,0%)" stroke-width="2" x1="146.746311801" x2="145.041916468" y1="76.3143637328" y2="76.3941193978" /><line stroke="rgb(0%,0%,0%)" stroke-width="2" x1="146.746311801" x2="147.387429486" y1="76.3143637328" y2="76.2256743985" /><line stroke="rgb(0%,0%,0%)" stroke-width="2" x1="149.073031183" x2="147.387429486" y1="75.9924887129" y2="76.2256743985" /><line stroke="rgb(0%,0%,0%)" stroke-width="2" x1="149.073031183" x2="150.498574375" y1="75.9924887129" y2="75.6734037917" /><line stroke="rgb(0%,0%,0%)" stroke-width="2" x1="151.886152274" x2="150.498574375" y1="75.3628138423" y2="75.6734037917" /><line stroke="rgb(0%,0%,0%)" stroke-width="2" x1="151.886152274" x2="155.68484125" y1="75.3628138423" y2="74.224917501" /><line stroke="rgb(0%,0%,0%)" stroke-width="2" x1="155.726850841" x2="155.68484125" y1="74.2123334863" y2="74.224917501" /><line stroke="rgb(0%,0%,0%)" stroke-width="2" x1="155.794824305" x2="155.726850841" y1="74.1877150832" y2="74.2123334863" /><line stroke="rgb(0%,0%,0%)" stroke-width="2" x1="133.446662422" x2="133.49490551" y1="74.1877150832" y2="74.205187667" /><line stroke="rgb(0%,0%,0%)" stroke-width="2" x1="133.514635886" x2="133.49490551" y1="74.2123334863" y2="74.205187667" /><line stroke="rgb(0%,0%,0%)" stroke-width="2" x1="133.514635886" x2="136.497759735" y1="74.2123334863" y2="75.1059256127" /><line stroke="rgb(0%,0%,0%)" stroke-width="2" x1="137.355334453" x2="136.497759735" y1="75.3628138423" y2="75.1059256127" /><line stroke="rgb(0%,0%,0%)" stroke-width="2" x1="137.355334453" x2="138.908913889" y1="75.3628138423" y2="75.7105567454" /><line stroke="rgb(0%,0%,0%)" stroke-width="2" x1="140.168455544" x2="138.908913889" y1="75.9924887129" y2="75.7105567454" /><line stroke="rgb(0%,0%,0%)" stroke-width="2" x1="140.168455544" x2="141.010994955" y1="75.9924887129" y2="76.1090413613" /><line stroke="rgb(0%,0%,0%)" stroke-width="2" x1="142.495174927" x2="141.010994955" y1="76.3143637328" y2="76.1090413613" /><line stroke="rgb(0%,0%,0%)" stroke-width="2" x1="142.495174927" x2="142.996141822" y1="76.3143637328" y2="76.3378073789" /><line stroke="rgb(0%,0%,0%)" stroke-width="2" x1="144.620743364" x2="142.996141822" y1="76.4138289091" y2="76.3378073789" /><line stroke="rgb(0%,0%,0%)" stroke-width="2" x1="161.941160139" x2="155.794824305" y1="70.5549786015" y2="74.1877150832" /><line stroke="rgb(0%,0%,0%)" stroke-width="2" x1="162.021716936" x2="161.941160139" y1="70.5012145339" y2="70.5549786015" /><line stroke="rgb(0%,0%,0%)" stroke-width="2" x1="127.219769791" x2="127.257604638" y1="70.5012145339" y2="70.526465505" /><line stroke="rgb(0%,0%,0%)" stroke-width="2" x1="127.300326588" x2="127.257604638" y1="70.5549786015" y2="70.526465505" /><line stroke="rgb(0%,0%,0%)" stroke-width="2" x1="127.300326588" x2="130.818067658" y1="70.5549786015" y2="72.6340914233" /><line stroke="rgb(0%,0%,0%)" stroke-width="2" x1="130.818067658" x2="133.446662422" y1="72.6340914233" y2="74.1877150832" /><line stroke="rgb(0%,0%,0%)" stroke-width="2" x1="166.590308322" x2="162.088345167" y1="65.8405146896" y2="70.4332427059" /><line stroke="rgb(0%,0%,0%)" stroke-width="2" x1="162.088345167" x2="162.021716936" y1="70.4332427059" y2="70.5012145339" /><line stroke="rgb(0%,0%,0%)" stroke-width="2" x1="122.651178405" x2="124.295657758" y1="65.8405146896" y2="67.5181596388" /><line stroke="rgb(0%,0%,0%)" stroke-width="2" x1="124.295657758" x2="127.219769791" y1="67.5181596388" y2="70.5012145339" /><line stroke="rgb(0%,0%,0%)" stroke-width="2" x1="170.004112934" x2="168.578580974" y1="60.4090142547" y2="62.6771133684" /><line stroke="rgb(0%,0%,0%)" stroke-width="2" x1="168.578580974" x2="166.590308322" y1="62.6771133684" y2="65.8405146896" /><line stroke="rgb(0%,0%,0%)" stroke-width="2" x1="119.237373794" x2="121.275375962" y1="60.4090142547" y2="63.6515234685" /><line stroke="rgb(0%,0%,0%)" stroke-width="2" x1="121.275375962" x2="122.651178405" y1="63.6515234685" y2="65.8405146896" /><line stroke="rgb(0%,0%,0%)" stroke-width="2" x1="172.11395557" x2="171.689706638" y1="54.4442644416" y2="55.6436687685" /><line stroke="rgb(0%,0%,0%)" stroke-width="2" x1="171.689706638" x2="170.004112934" y1="55.6436687685" y2="60.4090142547" /><line stroke="rgb(0%,0%,0%)" stroke-width="2" x1="117.127531157" x2="118.716659405" y1="54.4442644416" y2="58.9368877429" /><line stroke="rgb(0%,0%,0%)" stroke-width="2" x1="118.716659405" x2="119.237373794" y1="58.9368877429" y2="60.4090142547" /><line stroke="rgb(0%,0%,0%)" stroke-width="2" x1="172.827657818" x2="172.731267689" y1="48.2069144546" y2="49.0492593101" /><line stroke="rgb(0%,0%,0%)" stroke-width="2" x1="172.731267689" x2="172.11395557" y1="49.0492593101" y2="54.4442644416" /><line stroke="rgb(0%,0%,0%)" stroke-width="2" x1="116.413828909" x2="117.015384399" y1="48.2069144546" y2="53.4642278544" /><line stroke="rgb(0%,0%,0%)" stroke-width="2" x1="117.015384399" x2="117.127531157" y1="53.4642278544" y2="54.4442644416" /><line stroke="rgb(0%,0%,0%)" stroke-width="2" x1="172.11395557" x2="172.226102328" y1="41.9695644675" y2="42.9496010547" /><line stroke="rgb(0%,0%,0%)" stroke-width="2" x1="172.226102328" x2="172.827657818" y1="42.9496010547" y2="48.2069144546" /><line stroke="rgb(0%,0%,0%)" stroke-width="2" x1="117.127531157" x2="116.510219038" y1="41.9695644675" y2="47.3645695991" /><line stroke="rgb(0%,0%,0%)" stroke-width="2" x1="116.510219038" x2="116.413828909" y1="47.3645695991" y2="48.2069144546" /><line stroke="rgb(0%,0%,0%)" stroke-width="2" x1="170.004112934" x2="170.524827322" y1="36.0048146545" y2="37.4769411663" /><line stroke="rgb(0%,0%,0%)" stroke-width="2" x1="170.524827322" x2="172.11395557" y1="37.4769411663" y2="41.9695644675" /><line stroke="rgb(0%,0%,0%)" stroke-width="2" x1="119.237373794" x2="117.55178009" y1="36.0048146545" y2="40.7701601406" /><line stroke="rgb(0%,0%,0%)" stroke-width="2" x1="117.55178009" x2="117.127531157" y1="40.7701601406" y2="41.9695644675" /><line stroke="rgb(0%,0%,0%)" stroke-width="2" x1="166.590308322" x2="167.966110765" y1="30.5733142196" y2="32.7623054406" /><line stroke="rgb(0%,0%,0%)" stroke-width="2" x1="167.966110765" x2="170.004112934" y1="32.7623054406" y2="36.0048146545" /><line stroke="rgb(0%,0%,0%)" stroke-width="2" x1="122.651178405" x2="120.662905753" y1="30.5733142196" y2="33.7367155407" /><line stroke="rgb(0%,0%,0%)" stroke-width="2" x1="120.662905753" x2="119.237373794" y1="33.7367155407" y2="36.0048146545" /><line stroke="rgb(0%,0%,0%)" stroke-width="2" x1="162.021716936" x2="164.945828969" y1="25.9126143752" y2="28.8956692704" /><line stroke="rgb(0%,0%,0%)" stroke-width="2" x1="164.945828969" x2="166.590308322" y1="28.8956692704" y2="30.5733142196" /><line stroke="rgb(0%,0%,0%)" stroke-width="2" x1="127.219769791" x2="127.15314156" y1="25.9126143752" y2="25.9805862033" /><line stroke="rgb(0%,0%,0%)" stroke-width="2" x1="127.15314156" x2="122.651178405" y1="25.9805862033" y2="30.5733142196" /><line stroke="rgb(0%,0%,0%)" stroke-width="2" x1="155.794824305" x2="158.423419069" y1="22.2261138259" y2="23.7797374859" /><line stroke="rgb(0%,0%,0%)" stroke-width="2" x1="161.941160139" x2="158.423419069" y1="25.8588503077" y2="23.7797374859" /><line stroke="rgb(0%,0%,0%)" stroke-width="2" x1="161.941160139" x2="161.98388209" y1="25.8588503077" y2="25.8873634041" /><line stroke="rgb(0%,0%,0%)" stroke-width="2" x1="161.98388209" x2="162.021716936" y1="25.8873634041" y2="25.9126143752" /><line stroke="rgb(0%,0%,0%)" stroke-width="2" x1="127.300326588" x2="127.219769791" y1="25.8588503077" y2="25.9126143752" /><line stroke="rgb(0%,0%,0%)" stroke-width="2" x1="133.446662422" x2="127.300326588" y1="22.2261138259" y2="25.8588503077" /><line stroke="rgb(0%,0%,0%)" stroke-width="2" x1="144.620743364" x2="146.245344906" y1="20.0" y2="20.0760215302" /><line stroke="rgb(0%,0%,0%)" stroke-width="2" x1="146.746311801" x2="146.245344906" y1="20.0994651763" y2="20.0760215302" /><line stroke="rgb(0%,0%,0%)" stroke-width="2" x1="146.746311801" x2="148.230491772" y1="20.0994651763" y2="20.3047875478" /><line stroke="rgb(0%,0%,0%)" stroke-width="2" x1="149.073031183" x2="148.230491772" y1="20.4213401962" y2="20.3047875478" /><line stroke="rgb(0%,0%,0%)" stroke-width="2" x1="149.073031183" x2="150.332572839" y1="20.4213401962" y2="20.7032721637" /><line stroke="rgb(0%,0%,0%)" stroke-width="2" x1="151.886152274" x2="150.332572839" y1="21.0510150669" y2="20.7032721637" /><line stroke="rgb(0%,0%,0%)" stroke-width="2" x1="151.886152274" x2="152.743726993" y1="21.0510150669" y2="21.3079032965" /><line stroke="rgb(0%,0%,0%)" stroke-width="2" x1="155.726850841" x2="152.743726993" y1="22.2014954229" y2="21.3079032965" /><line stroke="rgb(0%,0%,0%)" stroke-width="2" x1="155.726850841" x2="155.746581217" y1="22.2014954229" y2="22.2086412421" /><line stroke="rgb(0%,0%,0%)" stroke-width="2" x1="155.746581217" x2="155.794824305" y1="22.2086412421" y2="22.2261138259" /><line stroke="rgb(0%,0%,0%)" stroke-width="2" x1="133.514635886" x2="133.446662422" y1="22.2014954229" y2="22.2261138259" /><line stroke="rgb(0%,0%,0%)" stroke-width="2" x1="133.514635886" x2="133.556645478" y1="22.2014954229" y2="22.1889114082" /><line stroke="rgb(0%,0%,0%)" stroke-width="2" x1="137.355334453" x2="133.556645478" y1="21.0510150669" y2="22.1889114082" /><line stroke="rgb(0%,0%,0%)" stroke-width="2" x1="137.355334453" x2="138.742912353" y1="21.0510150669" y2="20.7404251174" /><line stroke="rgb(0%,0%,0%)" stroke-width="2" x1="140.168455544" x2="138.742912353" y1="20.4213401962" y2="20.7404251174" /><line stroke="rgb(0%,0%,0%)" stroke-width="2" x1="140.168455544" x2="141.854057242" y1="20.4213401962" y2="20.1881545106" /><line stroke="rgb(0%,0%,0%)" stroke-width="2" x1="142.495174927" x2="141.854057242" y1="20.0994651763" y2="20.1881545106" /><line stroke="rgb(0%,0%,0%)" stroke-width="2" x1="142.495174927" x2="144.19957026" y1="20.0994651763" y2="20.0197095114" /><line stroke="rgb(0%,0%,0%)" stroke-width="2" x1="144.620743364" x2="144.19957026" y1="20.0" y2="20.0197095114" /><text font-family="Verdana" font-size="12" style="fill: #ff0000; width:1000px; color:red; font-weight:100;" text-anchor="middle" x="195.963507771" y="20.0">Y1</text><line stroke="rgb(0%,0%,0%)" stroke-width="2" x1="192.827657818" x2="192.827657818" y1="20.0" y2="20.0" /><line stroke="rgb(0%,0%,0%)" stroke-width="2" x1="192.827657818" x2="192.827657818" y1="20.0" y2="20.0" /><line stroke="rgb(0%,0%,0%)" stroke-width="2" x1="192.827657818" x2="199.099357724" y1="20.0" y2="20.0" /><line stroke="rgb(0%,0%,0%)" stroke-width="2" x1="199.099357724" x2="199.099357724" y1="20.0" y2="20.0" /><line stroke="rgb(0%,0%,0%)" stroke-width="2" x1="199.099357724" x2="199.099357724" y1="20.0" y2="20.0" /><line stroke="rgb(0%,0%,0%)" stroke-width="2" x1="192.827657818" x2="192.827657818" y1="20.0" y2="20.0" /><line stroke="rgb(0%,0%,0%)" stroke-width="2" x1="192.827657818" x2="192.827657818" y1="20.0" y2="20.0" /><line stroke="rgb(0%,0%,0%)" stroke-width="2" x1="199.099357724" x2="192.827657818" y1="20.0" y2="20.0" /><line stroke="rgb(0%,0%,0%)" stroke-width="2" x1="199.099357724" x2="199.099357724" y1="20.0" y2="20.0" /><line stroke="rgb(0%,0%,0%)" stroke-width="2" x1="199.099357724" x2="199.099357724" y1="20.0" y2="20.0" /></svg>