<?xml version="1.0" encoding="utf-8" ?>
<svg baseProfile="full" height="100%" version="1.1" width="100%" xmlns="http://www.w3.org/2000/svg" xmlns:ev="http://www.w3.org/2001/xml-events" xmlns:xlink="http://www.w3.org/1999/xlink"><defs /><text font-family="Verdana" style="fill: #ff0000; width:1000px; color:red; text-size:15; font-weight:100;" text-anchor="middle" x="20.0" y="20.0">X=1</text><line stroke="rgb(0%,0%,0%)" stroke-width="2" x1="20.0" x2="20.0" y1="20.0" y2="20.0" /><line stroke="rgb(0%,0%,0%)" stroke-width="2" x1="20.0" x2="20.0" y1="20.0" y2="20.0" /><line stroke="rgb(0%,0%,0%)" stroke-width="2" x1="20.0" x2="20.0" y1="20.0" y2="20.0" /><line stroke="rgb(0%,0%,0%)" stroke-width="2" x1="20.0" x2="20.0" y1="20.0" y2="20.0" /><line stroke="rgb(0%,0%,0%)" stroke-width="2" x1="20.0" x2="20.0" y1="20.0" y2="20.0" /><line stroke="rgb(0%,0%,0%)" stroke-width="2" x1="20.0" x2="20.0" y1="20.0" y2="20.0" /><text font-family="Verdana" style="fill: #ff0000; width:1000px; color:red; text-size:15; font-weight:100;" text-anchor="middle" x="84.6959862719" y="64.6959862719">X=2</text><line stroke="rgb(0%,0%,0%)" stroke-width="2" x1="86.1024140169" x2="84.7813190915" y1="109.284586431" y2="109.385455865" /><line stroke="rgb(0%,0%,0%)" stroke-width="2" x1="84.6959862719" x2="84.7813190915" y1="109.391972544" y2="109.385455865" /><line stroke="rgb(0%,0%,0%)" stroke-width="2" x1="83.2895585269" x2="84.6959862719" y1="109.284586431" y2="109.391972544" /><line stroke="rgb(0%,0%,0%)" stroke-width="2" x1="111.964213398" x2="105.851011919" y1="99.9631867419" y2="103.376470892" /><line stroke="rgb(0%,0%,0%)" stroke-width="2" x1="102.505163378" x2="105.851011919" y1="105.244615292" y2="103.376470892" /><line stroke="rgb(0%,0%,0%)" stroke-width="2" x1="102.505163378" x2="99.1069314086" y1="105.244615292" y2="106.417260221" /><line stroke="rgb(0%,0%,0%)" stroke-width="2" x1="93.1982286743" x2="99.1069314086" y1="108.456405655" y2="106.417260221" /><line stroke="rgb(0%,0%,0%)" stroke-width="2" x1="93.1982286743" x2="92.3864240007" y1="108.456405655" y2="108.551173189" /><line stroke="rgb(0%,0%,0%)" stroke-width="2" x1="92.3864240007" x2="86.1024140169" y1="108.551173189" y2="109.284586431" /><line stroke="rgb(0%,0%,0%)" stroke-width="2" x1="76.1937438695" x2="83.2895585269" y1="108.456405655" y2="109.284586431" /><line stroke="rgb(0%,0%,0%)" stroke-width="2" x1="76.1937438695" x2="74.7104850037" y1="108.456405655" y2="107.944558047" /><line stroke="rgb(0%,0%,0%)" stroke-width="2" x1="66.8868091658" x2="74.7104850037" y1="105.244615292" y2="107.944558047" /><line stroke="rgb(0%,0%,0%)" stroke-width="2" x1="57.4277591455" x2="66.8868091658" y1="99.9631867419" y2="105.244615292" /><line stroke="rgb(0%,0%,0%)" stroke-width="2" x1="121.739055051" x2="118.325727304" y1="89.1001858721" y2="93.0779692445" /><line stroke="rgb(0%,0%,0%)" stroke-width="2" x1="113.757566459" x2="118.325727304" y1="98.4015404248" y2="93.0779692445" /><line stroke="rgb(0%,0%,0%)" stroke-width="2" x1="113.757566459" x2="112.806477383" y1="98.4015404248" y2="99.2297622365" /><line stroke="rgb(0%,0%,0%)" stroke-width="2" x1="112.806477383" x2="111.964213398" y1="99.2297622365" y2="99.9631867419" /><line stroke="rgb(0%,0%,0%)" stroke-width="2" x1="55.6344060845" x2="57.4277591455" y1="98.4015404248" y2="99.9631867419" /><line stroke="rgb(0%,0%,0%)" stroke-width="2" x1="47.6529174926" x2="55.6344060845" y1="89.1001858721" y2="98.4015404248" /><line stroke="rgb(0%,0%,0%)" stroke-width="2" x1="127.500275954" x2="123.511118394" y1="77.170686246" y2="85.430590309" /><line stroke="rgb(0%,0%,0%)" stroke-width="2" x1="123.511118394" x2="121.739055051" y1="85.430590309" y2="89.1001858721" /><line stroke="rgb(0%,0%,0%)" stroke-width="2" x1="41.8916965903" x2="42.719885174" y1="77.170686246" y2="78.8856505895" /><line stroke="rgb(0%,0%,0%)" stroke-width="2" x1="42.719885174" x2="47.6529174926" y1="78.8856505895" y2="89.1001858721" /><line stroke="rgb(0%,0%,0%)" stroke-width="2" x1="129.391972544" x2="129.369919798" y1="64.6959862719" y2="64.8666516372" /><line stroke="rgb(0%,0%,0%)" stroke-width="2" x1="129.120442342" x2="129.369919798" y1="66.7978603527" y2="64.8666516372" /><line stroke="rgb(0%,0%,0%)" stroke-width="2" x1="129.120442342" x2="127.653622713" y1="66.7978603527" y2="76.1891694725" /><line stroke="rgb(0%,0%,0%)" stroke-width="2" x1="127.653622713" x2="127.500275954" y1="76.1891694725" y2="77.170686246" /><line stroke="rgb(0%,0%,0%)" stroke-width="2" x1="40.2715302017" x2="41.8916965903" y1="66.7978603527" y2="77.170686246" /><line stroke="rgb(0%,0%,0%)" stroke-width="2" x1="40.0" x2="40.2715302017" y1="64.6959862719" y2="66.7978603527" /><line stroke="rgb(0%,0%,0%)" stroke-width="2" x1="129.120442342" x2="129.391972544" y1="62.5941121911" y2="64.6959862719" /><line stroke="rgb(0%,0%,0%)" stroke-width="2" x1="127.500275954" x2="129.120442342" y1="52.2212862978" y2="62.5941121911" /><line stroke="rgb(0%,0%,0%)" stroke-width="2" x1="41.8916965903" x2="41.7383498304" y1="52.2212862978" y2="53.2028030713" /><line stroke="rgb(0%,0%,0%)" stroke-width="2" x1="40.2715302017" x2="41.7383498304" y1="62.5941121911" y2="53.2028030713" /><line stroke="rgb(0%,0%,0%)" stroke-width="2" x1="40.2715302017" x2="40.0220527456" y1="62.5941121911" y2="64.5253209066" /><line stroke="rgb(0%,0%,0%)" stroke-width="2" x1="40.0220527456" x2="40.0" y1="64.5253209066" y2="64.6959862719" /><line stroke="rgb(0%,0%,0%)" stroke-width="2" x1="121.739055051" x2="126.67208737" y1="40.2917866717" y2="50.5063219543" /><line stroke="rgb(0%,0%,0%)" stroke-width="2" x1="126.67208737" x2="127.500275954" y1="50.5063219543" y2="52.2212862978" /><line stroke="rgb(0%,0%,0%)" stroke-width="2" x1="47.6529174926" x2="45.8808541493" y1="40.2917866717" y2="43.9613822348" /><line stroke="rgb(0%,0%,0%)" stroke-width="2" x1="45.8808541493" x2="41.8916965903" y1="43.9613822348" y2="52.2212862978" /><line stroke="rgb(0%,0%,0%)" stroke-width="2" x1="113.757566459" x2="121.739055051" y1="30.990432119" y2="40.2917866717" /><line stroke="rgb(0%,0%,0%)" stroke-width="2" x1="111.964213398" x2="113.757566459" y1="29.4287858019" y2="30.990432119" /><line stroke="rgb(0%,0%,0%)" stroke-width="2" x1="57.4277591455" x2="56.5854951604" y1="29.4287858019" y2="30.1622103074" /><line stroke="rgb(0%,0%,0%)" stroke-width="2" x1="55.6344060845" x2="56.5854951604" y1="30.990432119" y2="30.1622103074" /><line stroke="rgb(0%,0%,0%)" stroke-width="2" x1="55.6344060845" x2="51.0662452401" y1="30.990432119" y2="36.3140032993" /><line stroke="rgb(0%,0%,0%)" stroke-width="2" x1="51.0662452401" x2="47.6529174926" y1="36.3140032993" y2="40.2917866717" /><line stroke="rgb(0%,0%,0%)" stroke-width="2" x1="102.505163378" x2="111.964213398" y1="24.147357252" y2="29.4287858019" /><line stroke="rgb(0%,0%,0%)" stroke-width="2" x1="102.505163378" x2="94.6814875401" y1="24.147357252" y2="21.4474144965" /><line stroke="rgb(0%,0%,0%)" stroke-width="2" x1="93.1982286743" x2="94.6814875401" y1="20.9355668892" y2="21.4474144965" /><line stroke="rgb(0%,0%,0%)" stroke-width="2" x1="86.1024140169" x2="93.1982286743" y1="20.1073861132" y2="20.9355668892" /><line stroke="rgb(0%,0%,0%)" stroke-width="2" x1="83.2895585269" x2="77.0055485431" y1="20.1073861132" y2="20.8407993549" /><line stroke="rgb(0%,0%,0%)" stroke-width="2" x1="76.1937438695" x2="77.0055485431" y1="20.9355668892" y2="20.8407993549" /><line stroke="rgb(0%,0%,0%)" stroke-width="2" x1="76.1937438695" x2="70.2850411352" y1="20.9355668892" y2="22.9747123224" /><line stroke="rgb(0%,0%,0%)" stroke-width="2" x1="66.8868091658" x2="70.2850411352" y1="24.147357252" y2="22.9747123224" /><line stroke="rgb(0%,0%,0%)" stroke-width="2" x1="66.8868091658" x2="63.5409606243" y1="24.147357252" y2="26.015501652" /><line stroke="rgb(0%,0%,0%)" stroke-width="2" x1="63.5409606243" x2="57.4277591455" y1="26.015501652" y2="29.4287858019" /><line stroke="rgb(0%,0%,0%)" stroke-width="2" x1="84.6959862719" x2="86.1024140169" y1="20.0" y2="20.1073861132" /><line stroke="rgb(0%,0%,0%)" stroke-width="2" x1="84.6959862719" x2="84.6106534523" y1="20.0" y2="20.0065166792" /><line stroke="rgb(0%,0%,0%)" stroke-width="2" x1="84.6106534523" x2="83.2895585269" y1="20.0065166792" y2="20.1073861132" /><line stroke="rgb(0%,0%,0%)" stroke-width="2" x1="48.8931473742" x2="48.8931473742" y1="38.8464622945" y2="64.6959848829" /><line stroke="rgb(0%,0%,0%)" stroke-width="2" x1="72.7617066393" x2="72.7617066393" y1="22.1199932107" y2="64.6960148907" /><line stroke="rgb(0%,0%,0%)" stroke-width="2" x1="96.6302659045" x2="96.6302659045" y1="22.1199359731" y2="64.6959576531" /><line stroke="rgb(0%,0%,0%)" stroke-width="2" x1="120.49882517" x2="120.49882517" y1="38.8464650724" y2="64.6959876609" /><text font-family="Verdana" style="fill: #ff0000; width:1000px; color:red; text-size:15; font-weight:100;" text-anchor="middle" x="48.8931473742" y="51.7712235887">2</text><text font-family="Verdana" style="fill: #ff0000; width:1000px; color:red; text-size:15; font-weight:100;" text-anchor="middle" x="72.7617066393" y="43.4080040507">3</text><text font-family="Verdana" style="fill: #ff0000; width:1000px; color:red; text-size:15; font-weight:100;" text-anchor="middle" x="96.6302659045" y="43.4079468131">4</text><text font-family="Verdana" style="fill: #ff0000; width:1000px; color:red; text-size:15; font-weight:100;" text-anchor="middle" x="120.49882517" y="51.7712263667">5</text><text font-family="Verdana" style="fill: #ff0000; width:1000px; color:red; text-size:15; font-weight:100;" text-anchor="middle" x="205.805801453" y="76.4138289091">X=3</text><line stroke="rgb(0%,0%,0%)" stroke-width="2" x1="228.153963336" x2="228.05747716" y1="128.375430166" y2="128.410375334" /><line stroke="rgb(0%,0%,0%)" stroke-width="2" x1="228.018016408" x2="228.05747716" y1="128.424666973" y2="128.410375334" /><line stroke="rgb(0%,0%,0%)" stroke-width="2" x1="228.018016408" x2="222.051768711" y1="128.424666973" y2="130.211851225" /><line stroke="rgb(0%,0%,0%)" stroke-width="2" x1="220.336619274" x2="222.051768711" y1="130.725627685" y2="130.211851225" /><line stroke="rgb(0%,0%,0%)" stroke-width="2" x1="220.336619274" x2="217.229460403" y1="130.725627685" y2="131.421113491" /><line stroke="rgb(0%,0%,0%)" stroke-width="2" x1="214.710377092" x2="217.229460403" y1="131.984977426" y2="131.421113491" /><line stroke="rgb(0%,0%,0%)" stroke-width="2" x1="214.710377092" x2="213.02529827" y1="131.984977426" y2="132.218082723" /><line stroke="rgb(0%,0%,0%)" stroke-width="2" x1="210.056938327" x2="213.02529827" y1="132.628727466" y2="132.218082723" /><line stroke="rgb(0%,0%,0%)" stroke-width="2" x1="210.056938327" x2="209.055004537" y1="132.628727466" y2="132.675614758" /><line stroke="rgb(0%,0%,0%)" stroke-width="2" x1="205.805801453" x2="209.055004537" y1="132.827657818" y2="132.675614758" /><line stroke="rgb(0%,0%,0%)" stroke-width="2" x1="205.805801453" x2="204.963455245" y1="132.827657818" y2="132.788238796" /><line stroke="rgb(0%,0%,0%)" stroke-width="2" x1="201.554664579" x2="204.963455245" y1="132.628727466" y2="132.788238796" /><line stroke="rgb(0%,0%,0%)" stroke-width="2" x1="201.554664579" x2="200.272429209" y1="132.628727466" y2="132.451348797" /><line stroke="rgb(0%,0%,0%)" stroke-width="2" x1="196.901225814" x2="200.272429209" y1="131.984977426" y2="132.451348797" /><line stroke="rgb(0%,0%,0%)" stroke-width="2" x1="196.901225814" x2="194.050139431" y1="131.984977426" y2="131.346807583" /><line stroke="rgb(0%,0%,0%)" stroke-width="2" x1="191.274983632" x2="194.050139431" y1="130.725627685" y2="131.346807583" /><line stroke="rgb(0%,0%,0%)" stroke-width="2" x1="191.274983632" x2="183.677605681" y1="130.725627685" y2="128.449835002" /><line stroke="rgb(0%,0%,0%)" stroke-width="2" x1="183.593586498" x2="183.677605681" y1="128.424666973" y2="128.449835002" /><line stroke="rgb(0%,0%,0%)" stroke-width="2" x1="183.45763957" x2="183.593586498" y1="128.375430166" y2="128.424666973" /><line stroke="rgb(0%,0%,0%)" stroke-width="2" x1="240.607748598" x2="240.532078905" y1="121.002429068" y2="121.05293101" /><line stroke="rgb(0%,0%,0%)" stroke-width="2" x1="240.446635003" x2="240.532078905" y1="121.109957203" y2="121.05293101" /><line stroke="rgb(0%,0%,0%)" stroke-width="2" x1="240.446635003" x2="233.411152864" y1="121.109957203" y2="125.268182847" /><line stroke="rgb(0%,0%,0%)" stroke-width="2" x1="233.411152864" x2="228.153963336" y1="125.268182847" y2="128.375430166" /><line stroke="rgb(0%,0%,0%)" stroke-width="2" x1="171.164967902" x2="183.45763957" y1="121.109957203" y2="128.375430166" /><line stroke="rgb(0%,0%,0%)" stroke-width="2" x1="171.003854308" x2="171.164967902" y1="121.002429068" y2="121.109957203" /><line stroke="rgb(0%,0%,0%)" stroke-width="2" x1="249.74493137" x2="246.455972664" y1="111.681029379" y2="115.036319278" /><line stroke="rgb(0%,0%,0%)" stroke-width="2" x1="246.455972664" x2="240.607748598" y1="115.036319278" y2="121.002429068" /><line stroke="rgb(0%,0%,0%)" stroke-width="2" x1="161.866671536" x2="170.870597846" y1="111.681029379" y2="120.866485412" /><line stroke="rgb(0%,0%,0%)" stroke-width="2" x1="170.870597846" x2="171.003854308" y1="120.866485412" y2="121.002429068" /><line stroke="rgb(0%,0%,0%)" stroke-width="2" x1="256.572540593" x2="252.496536256" y1="100.818028509" y2="107.303046937" /><line stroke="rgb(0%,0%,0%)" stroke-width="2" x1="252.496536256" x2="249.74493137" y1="107.303046937" y2="111.681029379" /><line stroke="rgb(0%,0%,0%)" stroke-width="2" x1="155.039062313" x2="157.890126232" y1="100.818028509" y2="105.354226737" /><line stroke="rgb(0%,0%,0%)" stroke-width="2" x1="157.890126232" x2="161.866671536" y1="105.354226737" y2="111.681029379" /><line stroke="rgb(0%,0%,0%)" stroke-width="2" x1="260.792225866" x2="257.61396937" y1="88.8885288832" y2="97.8737754858" /><line stroke="rgb(0%,0%,0%)" stroke-width="2" x1="257.61396937" x2="256.572540593" y1="97.8737754858" y2="100.818028509" /><line stroke="rgb(0%,0%,0%)" stroke-width="2" x1="150.81937704" x2="151.667874905" y1="88.8885288832" y2="91.287337537" /><line stroke="rgb(0%,0%,0%)" stroke-width="2" x1="151.667874905" x2="155.039062313" y1="91.287337537" y2="100.818028509" /><line stroke="rgb(0%,0%,0%)" stroke-width="2" x1="262.219630362" x2="261.016519382" y1="76.4138289091" y2="86.9284557089" /><line stroke="rgb(0%,0%,0%)" stroke-width="2" x1="261.016519382" x2="260.792225866" y1="86.9284557089" y2="88.8885288832" /><line stroke="rgb(0%,0%,0%)" stroke-width="2" x1="149.391972544" x2="149.584752801" y1="76.4138289091" y2="78.0985186202" /><line stroke="rgb(0%,0%,0%)" stroke-width="2" x1="149.584752801" x2="150.81937704" y1="78.0985186202" y2="88.8885288832" /><line stroke="rgb(0%,0%,0%)" stroke-width="2" x1="260.792225866" x2="262.026850104" y1="63.9391289351" y2="74.7291391981" /><line stroke="rgb(0%,0%,0%)" stroke-width="2" x1="262.026850104" x2="262.219630362" y1="74.7291391981" y2="76.4138289091" /><line stroke="rgb(0%,0%,0%)" stroke-width="2" x1="150.81937704" x2="150.595083524" y1="63.9391289351" y2="65.8992021094" /><line stroke="rgb(0%,0%,0%)" stroke-width="2" x1="150.595083524" x2="149.391972544" y1="65.8992021094" y2="76.4138289091" /><line stroke="rgb(0%,0%,0%)" stroke-width="2" x1="256.572540593" x2="259.943728001" y1="52.0096293089" y2="61.5403202813" /><line stroke="rgb(0%,0%,0%)" stroke-width="2" x1="259.943728001" x2="260.792225866" y1="61.5403202813" y2="63.9391289351" /><line stroke="rgb(0%,0%,0%)" stroke-width="2" x1="155.039062313" x2="153.997633536" y1="52.0096293089" y2="54.9538823325" /><line stroke="rgb(0%,0%,0%)" stroke-width="2" x1="153.997633536" x2="150.81937704" y1="54.9538823325" y2="63.9391289351" /><line stroke="rgb(0%,0%,0%)" stroke-width="2" x1="249.74493137" x2="253.721476674" y1="41.1466284392" y2="47.4734310814" /><line stroke="rgb(0%,0%,0%)" stroke-width="2" x1="253.721476674" x2="256.572540593" y1="47.4734310814" y2="52.0096293089" /><line stroke="rgb(0%,0%,0%)" stroke-width="2" x1="161.866671536" x2="159.11506665" y1="41.1466284392" y2="45.5246108813" /><line stroke="rgb(0%,0%,0%)" stroke-width="2" x1="159.11506665" x2="155.039062313" y1="45.5246108813" y2="52.0096293089" /><line stroke="rgb(0%,0%,0%)" stroke-width="2" x1="240.607748598" x2="240.741005059" y1="31.8252287505" y2="31.9611724065" /><line stroke="rgb(0%,0%,0%)" stroke-width="2" x1="240.741005059" x2="249.74493137" y1="31.9611724065" y2="41.1466284392" /><line stroke="rgb(0%,0%,0%)" stroke-width="2" x1="171.003854308" x2="165.155630242" y1="31.8252287505" y2="37.7913385407" /><line stroke="rgb(0%,0%,0%)" stroke-width="2" x1="165.155630242" x2="161.866671536" y1="37.7913385407" y2="41.1466284392" /><line stroke="rgb(0%,0%,0%)" stroke-width="2" x1="240.446635003" x2="240.607748598" y1="31.7177006153" y2="31.8252287505" /><line stroke="rgb(0%,0%,0%)" stroke-width="2" x1="228.153963336" x2="240.446635003" y1="24.4522276518" y2="31.7177006153" /><line stroke="rgb(0%,0%,0%)" stroke-width="2" x1="183.45763957" x2="178.200450042" y1="24.4522276518" y2="27.5594749718" /><line stroke="rgb(0%,0%,0%)" stroke-width="2" x1="171.164967902" x2="178.200450042" y1="31.7177006153" y2="27.5594749718" /><line stroke="rgb(0%,0%,0%)" stroke-width="2" x1="171.164967902" x2="171.079524001" y1="31.7177006153" y2="31.7747268082" /><line stroke="rgb(0%,0%,0%)" stroke-width="2" x1="171.079524001" x2="171.003854308" y1="31.7747268082" y2="31.8252287505" /><line stroke="rgb(0%,0%,0%)" stroke-width="2" x1="228.018016408" x2="228.153963336" y1="24.4029908457" y2="24.4522276518" /><line stroke="rgb(0%,0%,0%)" stroke-width="2" x1="228.018016408" x2="227.933997225" y1="24.4029908457" y2="24.3778228164" /><line stroke="rgb(0%,0%,0%)" stroke-width="2" x1="220.336619274" x2="227.933997225" y1="22.1020301338" y2="24.3778228164" /><line stroke="rgb(0%,0%,0%)" stroke-width="2" x1="220.336619274" x2="217.561463475" y1="22.1020301338" y2="21.4808502349" /><line stroke="rgb(0%,0%,0%)" stroke-width="2" x1="214.710377092" x2="217.561463475" y1="20.8426803924" y2="21.4808502349" /><line stroke="rgb(0%,0%,0%)" stroke-width="2" x1="214.710377092" x2="211.339173697" y1="20.8426803924" y2="20.3763090213" /><line stroke="rgb(0%,0%,0%)" stroke-width="2" x1="210.056938327" x2="211.339173697" y1="20.1989303527" y2="20.3763090213" /><line stroke="rgb(0%,0%,0%)" stroke-width="2" x1="210.056938327" x2="206.648147661" y1="20.1989303527" y2="20.0394190227" /><line stroke="rgb(0%,0%,0%)" stroke-width="2" x1="205.805801453" x2="206.648147661" y1="20.0" y2="20.0394190227" /><line stroke="rgb(0%,0%,0%)" stroke-width="2" x1="205.805801453" x2="202.556598369" y1="20.0" y2="20.1520430605" /><line stroke="rgb(0%,0%,0%)" stroke-width="2" x1="201.554664579" x2="202.556598369" y1="20.1989303527" y2="20.1520430605" /><line stroke="rgb(0%,0%,0%)" stroke-width="2" x1="201.554664579" x2="198.586304636" y1="20.1989303527" y2="20.6095750956" /><line stroke="rgb(0%,0%,0%)" stroke-width="2" x1="196.901225814" x2="198.586304636" y1="20.8426803924" y2="20.6095750956" /><line stroke="rgb(0%,0%,0%)" stroke-width="2" x1="196.901225814" x2="194.382142503" y1="20.8426803924" y2="21.4065443274" /><line stroke="rgb(0%,0%,0%)" stroke-width="2" x1="191.274983632" x2="194.382142503" y1="22.1020301338" y2="21.4065443274" /><line stroke="rgb(0%,0%,0%)" stroke-width="2" x1="191.274983632" x2="189.559834195" y1="22.1020301338" y2="22.615806593" /><line stroke="rgb(0%,0%,0%)" stroke-width="2" x1="183.593586498" x2="189.559834195" y1="24.4029908457" y2="22.615806593" /><line stroke="rgb(0%,0%,0%)" stroke-width="2" x1="183.593586498" x2="183.554125746" y1="24.4029908457" y2="24.4172824842" /><line stroke="rgb(0%,0%,0%)" stroke-width="2" x1="183.554125746" x2="183.45763957" y1="24.4172824842" y2="24.4522276518" /><line stroke="rgb(0%,0%,0%)" stroke-width="2" x1="170.002962555" x2="170.002962555" y1="32.8462960039" y2="76.4138267893" /><line stroke="rgb(0%,0%,0%)" stroke-width="2" x1="193.87152182" x2="193.87152182" y1="21.5208382699" y2="76.4138323969" /><line stroke="rgb(0%,0%,0%)" stroke-width="2" x1="217.740081086" x2="217.740081086" y1="21.5208312944" y2="76.4138254214" /><line stroke="rgb(0%,0%,0%)" stroke-width="2" x1="241.608640351" x2="241.608640351" y1="32.8463002436" y2="76.413831029" /><text font-family="Verdana" style="fill: #ff0000; width:1000px; color:red; text-size:15; font-weight:100;" text-anchor="middle" x="170.002962555" y="54.6300613966">2</text><text font-family="Verdana" style="fill: #ff0000; width:1000px; color:red; text-size:15; font-weight:100;" text-anchor="middle" x="193.87152182" y="48.9673353334">3</text><text font-family="Verdana" style="fill: #ff0000; width:1000px; color:red; text-size:15; font-weight:100;" text-anchor="middle" x="217.740081086" y="48.9673283579">4</text><text font-family="Verdana" style="fill: #ff0000; width:1000px; color:red; text-size:15; font-weight:100;" text-anchor="middle" x="241.608640351" y="54.6300656363">5</text><text font-family="Verdana" style="fill: #ff0000; width:1000px; color:red; text-size:15; font-weight:100;" text-anchor="middle" x="338.633459271" y="76.4138289091">X=5</text><line stroke="rgb(0%,0%,0%)" stroke-width="2" x1="338.633459271" x2="339.475805479" y1="132.827657818" y2="132.788238796" /><line stroke="rgb(0%,0%,0%)" stroke-width="2" x1="342.884596145" x2="339.475805479" y1="132.628727466" y2="132.788238796" /><line stroke="rgb(0%,0%,0%)" stroke-width="2" x1="342.884596145" x2="344.166831515" y1="132.628727466" y2="132.451348797" /><line stroke="rgb(0%,0%,0%)" stroke-width="2" x1="347.53803491" x2="344.166831515" y1="131.984977426" y2="132.451348797" /><line stroke="rgb(0%,0%,0%)" stroke-width="2" x1="347.53803491" x2="350.389121293" y1="131.984977426" y2="131.346807583" /><line stroke="rgb(0%,0%,0%)" stroke-width="2" x1="353.164277093" x2="350.389121293" y1="130.725627685" y2="131.346807583" /><line stroke="rgb(0%,0%,0%)" stroke-width="2" x1="353.164277093" x2="360.761655043" y1="130.725627685" y2="128.449835002" /><line stroke="rgb(0%,0%,0%)" stroke-width="2" x1="360.845674227" x2="360.761655043" y1="128.424666973" y2="128.449835002" /><line stroke="rgb(0%,0%,0%)" stroke-width="2" x1="360.981621154" x2="360.845674227" y1="128.375430166" y2="128.424666973" /><line stroke="rgb(0%,0%,0%)" stroke-width="2" x1="316.285297389" x2="316.381783565" y1="128.375430166" y2="128.410375334" /><line stroke="rgb(0%,0%,0%)" stroke-width="2" x1="316.421244316" x2="316.381783565" y1="128.424666973" y2="128.410375334" /><line stroke="rgb(0%,0%,0%)" stroke-width="2" x1="316.421244316" x2="322.387492013" y1="128.424666973" y2="130.211851225" /><line stroke="rgb(0%,0%,0%)" stroke-width="2" x1="324.10264145" x2="322.387492013" y1="130.725627685" y2="130.211851225" /><line stroke="rgb(0%,0%,0%)" stroke-width="2" x1="324.10264145" x2="327.209800321" y1="130.725627685" y2="131.421113491" /><line stroke="rgb(0%,0%,0%)" stroke-width="2" x1="329.728883633" x2="327.209800321" y1="131.984977426" y2="131.421113491" /><line stroke="rgb(0%,0%,0%)" stroke-width="2" x1="329.728883633" x2="331.413962455" y1="131.984977426" y2="132.218082723" /><line stroke="rgb(0%,0%,0%)" stroke-width="2" x1="334.382322397" x2="331.413962455" y1="132.628727466" y2="132.218082723" /><line stroke="rgb(0%,0%,0%)" stroke-width="2" x1="334.382322397" x2="335.384256188" y1="132.628727466" y2="132.675614758" /><line stroke="rgb(0%,0%,0%)" stroke-width="2" x1="338.633459271" x2="335.384256188" y1="132.827657818" y2="132.675614758" /><line stroke="rgb(0%,0%,0%)" stroke-width="2" x1="373.274292822" x2="360.981621154" y1="121.109957203" y2="128.375430166" /><line stroke="rgb(0%,0%,0%)" stroke-width="2" x1="373.435406416" x2="373.274292822" y1="121.002429068" y2="121.109957203" /><line stroke="rgb(0%,0%,0%)" stroke-width="2" x1="303.831512126" x2="303.907181819" y1="121.002429068" y2="121.05293101" /><line stroke="rgb(0%,0%,0%)" stroke-width="2" x1="303.992625721" x2="303.907181819" y1="121.109957203" y2="121.05293101" /><line stroke="rgb(0%,0%,0%)" stroke-width="2" x1="303.992625721" x2="311.02810786" y1="121.109957203" y2="125.268182847" /><line stroke="rgb(0%,0%,0%)" stroke-width="2" x1="311.02810786" x2="316.285297389" y1="125.268182847" y2="128.375430166" /><line stroke="rgb(0%,0%,0%)" stroke-width="2" x1="382.572589188" x2="373.568662878" y1="111.681029379" y2="120.866485412" /><line stroke="rgb(0%,0%,0%)" stroke-width="2" x1="373.568662878" x2="373.435406416" y1="120.866485412" y2="121.002429068" /><line stroke="rgb(0%,0%,0%)" stroke-width="2" x1="294.694329354" x2="297.98328806" y1="111.681029379" y2="115.036319278" /><line stroke="rgb(0%,0%,0%)" stroke-width="2" x1="297.98328806" x2="303.831512126" y1="115.036319278" y2="121.002429068" /><line stroke="rgb(0%,0%,0%)" stroke-width="2" x1="389.400198411" x2="386.549134492" y1="100.818028509" y2="105.354226737" /><line stroke="rgb(0%,0%,0%)" stroke-width="2" x1="386.549134492" x2="382.572589188" y1="105.354226737" y2="111.681029379" /><line stroke="rgb(0%,0%,0%)" stroke-width="2" x1="287.866720132" x2="291.942724468" y1="100.818028509" y2="107.303046937" /><line stroke="rgb(0%,0%,0%)" stroke-width="2" x1="291.942724468" x2="294.694329354" y1="107.303046937" y2="111.681029379" /><line stroke="rgb(0%,0%,0%)" stroke-width="2" x1="393.619883684" x2="392.771385819" y1="88.8885288832" y2="91.287337537" /><line stroke="rgb(0%,0%,0%)" stroke-width="2" x1="392.771385819" x2="389.400198411" y1="91.287337537" y2="100.818028509" /><line stroke="rgb(0%,0%,0%)" stroke-width="2" x1="283.647034858" x2="286.825291354" y1="88.8885288832" y2="97.8737754858" /><line stroke="rgb(0%,0%,0%)" stroke-width="2" x1="286.825291354" x2="287.866720132" y1="97.8737754858" y2="100.818028509" /><line stroke="rgb(0%,0%,0%)" stroke-width="2" x1="395.04728818" x2="394.854507923" y1="76.4138289091" y2="78.0985186202" /><line stroke="rgb(0%,0%,0%)" stroke-width="2" x1="394.854507923" x2="393.619883684" y1="78.0985186202" y2="88.8885288832" /><line stroke="rgb(0%,0%,0%)" stroke-width="2" x1="282.219630362" x2="283.422741342" y1="76.4138289091" y2="86.9284557089" /><line stroke="rgb(0%,0%,0%)" stroke-width="2" x1="283.422741342" x2="283.647034858" y1="86.9284557089" y2="88.8885288832" /><line stroke="rgb(0%,0%,0%)" stroke-width="2" x1="393.619883684" x2="393.844177201" y1="63.9391289351" y2="65.8992021094" /><line stroke="rgb(0%,0%,0%)" stroke-width="2" x1="393.844177201" x2="395.04728818" y1="65.8992021094" y2="76.4138289091" /><line stroke="rgb(0%,0%,0%)" stroke-width="2" x1="283.647034858" x2="282.41241062" y1="63.9391289351" y2="74.7291391981" /><line stroke="rgb(0%,0%,0%)" stroke-width="2" x1="282.41241062" x2="282.219630362" y1="74.7291391981" y2="76.4138289091" /><line stroke="rgb(0%,0%,0%)" stroke-width="2" x1="389.400198411" x2="390.441627188" y1="52.0096293089" y2="54.9538823325" /><line stroke="rgb(0%,0%,0%)" stroke-width="2" x1="390.441627188" x2="393.619883684" y1="54.9538823325" y2="63.9391289351" /><line stroke="rgb(0%,0%,0%)" stroke-width="2" x1="287.866720132" x2="284.495532723" y1="52.0096293089" y2="61.5403202813" /><line stroke="rgb(0%,0%,0%)" stroke-width="2" x1="284.495532723" x2="283.647034858" y1="61.5403202813" y2="63.9391289351" /><line stroke="rgb(0%,0%,0%)" stroke-width="2" x1="382.572589188" x2="385.324194074" y1="41.1466284392" y2="45.5246108813" /><line stroke="rgb(0%,0%,0%)" stroke-width="2" x1="385.324194074" x2="389.400198411" y1="45.5246108813" y2="52.0096293089" /><line stroke="rgb(0%,0%,0%)" stroke-width="2" x1="294.694329354" x2="290.71778405" y1="41.1466284392" y2="47.4734310814" /><line stroke="rgb(0%,0%,0%)" stroke-width="2" x1="290.71778405" x2="287.866720132" y1="47.4734310814" y2="52.0096293089" /><line stroke="rgb(0%,0%,0%)" stroke-width="2" x1="373.435406416" x2="379.283630483" y1="31.8252287505" y2="37.7913385407" /><line stroke="rgb(0%,0%,0%)" stroke-width="2" x1="379.283630483" x2="382.572589188" y1="37.7913385407" y2="41.1466284392" /><line stroke="rgb(0%,0%,0%)" stroke-width="2" x1="303.831512126" x2="303.698255665" y1="31.8252287505" y2="31.9611724065" /><line stroke="rgb(0%,0%,0%)" stroke-width="2" x1="303.698255665" x2="294.694329354" y1="31.9611724065" y2="41.1466284392" /><line stroke="rgb(0%,0%,0%)" stroke-width="2" x1="360.981621154" x2="366.238810682" y1="24.4522276518" y2="27.5594749718" /><line stroke="rgb(0%,0%,0%)" stroke-width="2" x1="373.274292822" x2="366.238810682" y1="31.7177006153" y2="27.5594749718" /><line stroke="rgb(0%,0%,0%)" stroke-width="2" x1="373.274292822" x2="373.359736723" y1="31.7177006153" y2="31.7747268082" /><line stroke="rgb(0%,0%,0%)" stroke-width="2" x1="373.359736723" x2="373.435406416" y1="31.7747268082" y2="31.8252287505" /><line stroke="rgb(0%,0%,0%)" stroke-width="2" x1="303.992625721" x2="303.831512126" y1="31.7177006153" y2="31.8252287505" /><line stroke="rgb(0%,0%,0%)" stroke-width="2" x1="316.285297389" x2="303.992625721" y1="24.4522276518" y2="31.7177006153" /><line stroke="rgb(0%,0%,0%)" stroke-width="2" x1="338.633459271" x2="341.882662355" y1="20.0" y2="20.1520430605" /><line stroke="rgb(0%,0%,0%)" stroke-width="2" x1="342.884596145" x2="341.882662355" y1="20.1989303527" y2="20.1520430605" /><line stroke="rgb(0%,0%,0%)" stroke-width="2" x1="342.884596145" x2="345.852956088" y1="20.1989303527" y2="20.6095750956" /><line stroke="rgb(0%,0%,0%)" stroke-width="2" x1="347.53803491" x2="345.852956088" y1="20.8426803924" y2="20.6095750956" /><line stroke="rgb(0%,0%,0%)" stroke-width="2" x1="347.53803491" x2="350.057118221" y1="20.8426803924" y2="21.4065443274" /><line stroke="rgb(0%,0%,0%)" stroke-width="2" x1="353.164277093" x2="350.057118221" y1="22.1020301338" y2="21.4065443274" /><line stroke="rgb(0%,0%,0%)" stroke-width="2" x1="353.164277093" x2="354.879426529" y1="22.1020301338" y2="22.615806593" /><line stroke="rgb(0%,0%,0%)" stroke-width="2" x1="360.845674227" x2="354.879426529" y1="24.4029908457" y2="22.615806593" /><line stroke="rgb(0%,0%,0%)" stroke-width="2" x1="360.845674227" x2="360.885134978" y1="24.4029908457" y2="24.4172824842" /><line stroke="rgb(0%,0%,0%)" stroke-width="2" x1="360.885134978" x2="360.981621154" y1="24.4172824842" y2="24.4522276518" /><line stroke="rgb(0%,0%,0%)" stroke-width="2" x1="316.421244316" x2="316.285297389" y1="24.4029908457" y2="24.4522276518" /><line stroke="rgb(0%,0%,0%)" stroke-width="2" x1="316.421244316" x2="316.505263499" y1="24.4029908457" y2="24.3778228164" /><line stroke="rgb(0%,0%,0%)" stroke-width="2" x1="324.10264145" x2="316.505263499" y1="22.1020301338" y2="24.3778228164" /><line stroke="rgb(0%,0%,0%)" stroke-width="2" x1="324.10264145" x2="326.877797249" y1="22.1020301338" y2="21.4808502349" /><line stroke="rgb(0%,0%,0%)" stroke-width="2" x1="329.728883633" x2="326.877797249" y1="20.8426803924" y2="21.4808502349" /><line stroke="rgb(0%,0%,0%)" stroke-width="2" x1="329.728883633" x2="333.100087028" y1="20.8426803924" y2="20.3763090213" /><line stroke="rgb(0%,0%,0%)" stroke-width="2" x1="334.382322397" x2="333.100087028" y1="20.1989303527" y2="20.3763090213" /><line stroke="rgb(0%,0%,0%)" stroke-width="2" x1="334.382322397" x2="337.791113063" y1="20.1989303527" y2="20.0394190227" /><line stroke="rgb(0%,0%,0%)" stroke-width="2" x1="338.633459271" x2="337.791113063" y1="20.0" y2="20.0394190227" /><line stroke="rgb(0%,0%,0%)" stroke-width="2" x1="302.830620374" x2="302.830620374" y1="32.8463002436" y2="76.413831029" /><line stroke="rgb(0%,0%,0%)" stroke-width="2" x1="326.699179639" x2="326.699179639" y1="21.5208312944" y2="76.4138254214" /><line stroke="rgb(0%,0%,0%)" stroke-width="2" x1="350.567738904" x2="350.567738904" y1="21.5208382699" y2="76.4138323969" /><line stroke="rgb(0%,0%,0%)" stroke-width="2" x1="374.436298169" x2="374.436298169" y1="32.8462960039" y2="76.4138267893" /><text font-family="Verdana" style="fill: #ff0000; width:1000px; color:red; text-size:15; font-weight:100;" text-anchor="middle" x="302.830620374" y="54.6300656363">2</text><text font-family="Verdana" style="fill: #ff0000; width:1000px; color:red; text-size:15; font-weight:100;" text-anchor="middle" x="326.699179639" y="48.9673283579">3</text><text font-family="Verdana" style="fill: #ff0000; width:1000px; color:red; text-size:15; font-weight:100;" text-anchor="middle" x="350.567738904" y="48.9673353334">4</text><text font-family="Verdana" style="fill: #ff0000; width:1000px; color:red; text-size:15; font-weight:100;" text-anchor="middle" x="374.436298169" y="54.6300613966">5</text><text font-family="Verdana" style="fill: #ff0000; width:1000px; color:red; text-size:15; font-weight:100;" text-anchor="middle" x="459.743274452" y="64.6959862719">X=6</text><line stroke="rgb(0%,0%,0%)" stroke-width="2" x1="461.149702197" x2="459.743274452" y1="109.284586431" y2="109.391972544" /><line stroke="rgb(0%,0%,0%)" stroke-width="2" x1="458.336846707" x2="459.657941633" y1="109.284586431" y2="109.385455865" /><line stroke="rgb(0%,0%,0%)" stroke-width="2" x1="459.743274452" x2="459.657941633" y1="109.391972544" y2="109.385455865" /><line stroke="rgb(0%,0%,0%)" stroke-width="2" x1="468.245516855" x2="461.149702197" y1="108.456405655" y2="109.284586431" /><line stroke="rgb(0%,0%,0%)" stroke-width="2" x1="468.245516855" x2="469.728775721" y1="108.456405655" y2="107.944558047" /><line stroke="rgb(0%,0%,0%)" stroke-width="2" x1="477.552451558" x2="469.728775721" y1="105.244615292" y2="107.944558047" /><line stroke="rgb(0%,0%,0%)" stroke-width="2" x1="487.011501579" x2="477.552451558" y1="99.9631867419" y2="105.244615292" /><line stroke="rgb(0%,0%,0%)" stroke-width="2" x1="432.475047326" x2="438.588248805" y1="99.9631867419" y2="103.376470892" /><line stroke="rgb(0%,0%,0%)" stroke-width="2" x1="441.934097346" x2="438.588248805" y1="105.244615292" y2="103.376470892" /><line stroke="rgb(0%,0%,0%)" stroke-width="2" x1="441.934097346" x2="445.332329316" y1="105.244615292" y2="106.417260221" /><line stroke="rgb(0%,0%,0%)" stroke-width="2" x1="451.24103205" x2="445.332329316" y1="108.456405655" y2="106.417260221" /><line stroke="rgb(0%,0%,0%)" stroke-width="2" x1="451.24103205" x2="452.052836723" y1="108.456405655" y2="108.551173189" /><line stroke="rgb(0%,0%,0%)" stroke-width="2" x1="452.052836723" x2="458.336846707" y1="108.551173189" y2="109.284586431" /><line stroke="rgb(0%,0%,0%)" stroke-width="2" x1="488.80485464" x2="487.011501579" y1="98.4015404248" y2="99.9631867419" /><line stroke="rgb(0%,0%,0%)" stroke-width="2" x1="496.786343232" x2="488.80485464" y1="89.1001858721" y2="98.4015404248" /><line stroke="rgb(0%,0%,0%)" stroke-width="2" x1="422.700205673" x2="426.113533421" y1="89.1001858721" y2="93.0779692445" /><line stroke="rgb(0%,0%,0%)" stroke-width="2" x1="430.681694265" x2="426.113533421" y1="98.4015404248" y2="93.0779692445" /><line stroke="rgb(0%,0%,0%)" stroke-width="2" x1="430.681694265" x2="431.632783341" y1="98.4015404248" y2="99.2297622365" /><line stroke="rgb(0%,0%,0%)" stroke-width="2" x1="431.632783341" x2="432.475047326" y1="99.2297622365" y2="99.9631867419" /><line stroke="rgb(0%,0%,0%)" stroke-width="2" x1="502.547564134" x2="501.71937555" y1="77.170686246" y2="78.8856505895" /><line stroke="rgb(0%,0%,0%)" stroke-width="2" x1="501.71937555" x2="496.786343232" y1="78.8856505895" y2="89.1001858721" /><line stroke="rgb(0%,0%,0%)" stroke-width="2" x1="416.938984771" x2="420.92814233" y1="77.170686246" y2="85.430590309" /><line stroke="rgb(0%,0%,0%)" stroke-width="2" x1="420.92814233" x2="422.700205673" y1="85.430590309" y2="89.1001858721" /><line stroke="rgb(0%,0%,0%)" stroke-width="2" x1="504.167730522" x2="502.547564134" y1="66.7978603527" y2="77.170686246" /><line stroke="rgb(0%,0%,0%)" stroke-width="2" x1="504.439260724" x2="504.167730522" y1="64.6959862719" y2="66.7978603527" /><line stroke="rgb(0%,0%,0%)" stroke-width="2" x1="415.04728818" x2="415.069340926" y1="64.6959862719" y2="64.8666516372" /><line stroke="rgb(0%,0%,0%)" stroke-width="2" x1="415.318818382" x2="415.069340926" y1="66.7978603527" y2="64.8666516372" /><line stroke="rgb(0%,0%,0%)" stroke-width="2" x1="415.318818382" x2="416.785638011" y1="66.7978603527" y2="76.1891694725" /><line stroke="rgb(0%,0%,0%)" stroke-width="2" x1="416.785638011" x2="416.938984771" y1="76.1891694725" y2="77.170686246" /><line stroke="rgb(0%,0%,0%)" stroke-width="2" x1="502.547564134" x2="502.700910894" y1="52.2212862978" y2="53.2028030713" /><line stroke="rgb(0%,0%,0%)" stroke-width="2" x1="504.167730522" x2="502.700910894" y1="62.5941121911" y2="53.2028030713" /><line stroke="rgb(0%,0%,0%)" stroke-width="2" x1="504.167730522" x2="504.417207979" y1="62.5941121911" y2="64.5253209066" /><line stroke="rgb(0%,0%,0%)" stroke-width="2" x1="504.417207979" x2="504.439260724" y1="64.5253209066" y2="64.6959862719" /><line stroke="rgb(0%,0%,0%)" stroke-width="2" x1="415.318818382" x2="415.04728818" y1="62.5941121911" y2="64.6959862719" /><line stroke="rgb(0%,0%,0%)" stroke-width="2" x1="416.938984771" x2="415.318818382" y1="52.2212862978" y2="62.5941121911" /><line stroke="rgb(0%,0%,0%)" stroke-width="2" x1="496.786343232" x2="498.558406575" y1="40.2917866717" y2="43.9613822348" /><line stroke="rgb(0%,0%,0%)" stroke-width="2" x1="498.558406575" x2="502.547564134" y1="43.9613822348" y2="52.2212862978" /><line stroke="rgb(0%,0%,0%)" stroke-width="2" x1="422.700205673" x2="417.767173354" y1="40.2917866717" y2="50.5063219543" /><line stroke="rgb(0%,0%,0%)" stroke-width="2" x1="417.767173354" x2="416.938984771" y1="50.5063219543" y2="52.2212862978" /><line stroke="rgb(0%,0%,0%)" stroke-width="2" x1="487.011501579" x2="487.853765564" y1="29.4287858019" y2="30.1622103074" /><line stroke="rgb(0%,0%,0%)" stroke-width="2" x1="488.80485464" x2="487.853765564" y1="30.990432119" y2="30.1622103074" /><line stroke="rgb(0%,0%,0%)" stroke-width="2" x1="488.80485464" x2="493.373015484" y1="30.990432119" y2="36.3140032993" /><line stroke="rgb(0%,0%,0%)" stroke-width="2" x1="493.373015484" x2="496.786343232" y1="36.3140032993" y2="40.2917866717" /><line stroke="rgb(0%,0%,0%)" stroke-width="2" x1="430.681694265" x2="422.700205673" y1="30.990432119" y2="40.2917866717" /><line stroke="rgb(0%,0%,0%)" stroke-width="2" x1="432.475047326" x2="430.681694265" y1="29.4287858019" y2="30.990432119" /><line stroke="rgb(0%,0%,0%)" stroke-width="2" x1="461.149702197" x2="467.433712181" y1="20.1073861132" y2="20.8407993549" /><line stroke="rgb(0%,0%,0%)" stroke-width="2" x1="468.245516855" x2="467.433712181" y1="20.9355668892" y2="20.8407993549" /><line stroke="rgb(0%,0%,0%)" stroke-width="2" x1="468.245516855" x2="474.154219589" y1="20.9355668892" y2="22.9747123224" /><line stroke="rgb(0%,0%,0%)" stroke-width="2" x1="477.552451558" x2="474.154219589" y1="24.147357252" y2="22.9747123224" /><line stroke="rgb(0%,0%,0%)" stroke-width="2" x1="477.552451558" x2="480.8983001" y1="24.147357252" y2="26.015501652" /><line stroke="rgb(0%,0%,0%)" stroke-width="2" x1="480.8983001" x2="487.011501579" y1="26.015501652" y2="29.4287858019" /><line stroke="rgb(0%,0%,0%)" stroke-width="2" x1="441.934097346" x2="432.475047326" y1="24.147357252" y2="29.4287858019" /><line stroke="rgb(0%,0%,0%)" stroke-width="2" x1="441.934097346" x2="449.757773184" y1="24.147357252" y2="21.4474144965" /><line stroke="rgb(0%,0%,0%)" stroke-width="2" x1="451.24103205" x2="449.757773184" y1="20.9355668892" y2="21.4474144965" /><line stroke="rgb(0%,0%,0%)" stroke-width="2" x1="458.336846707" x2="451.24103205" y1="20.1073861132" y2="20.9355668892" /><line stroke="rgb(0%,0%,0%)" stroke-width="2" x1="459.743274452" x2="459.828607272" y1="20.0" y2="20.0065166792" /><line stroke="rgb(0%,0%,0%)" stroke-width="2" x1="459.828607272" x2="461.149702197" y1="20.0065166792" y2="20.1073861132" /><line stroke="rgb(0%,0%,0%)" stroke-width="2" x1="459.743274452" x2="458.336846707" y1="20.0" y2="20.1073861132" /><line stroke="rgb(0%,0%,0%)" stroke-width="2" x1="423.940435555" x2="423.940435555" y1="38.8464650724" y2="64.6959876609" /><line stroke="rgb(0%,0%,0%)" stroke-width="2" x1="447.80899482" x2="447.80899482" y1="22.1199359731" y2="64.6959576531" /><line stroke="rgb(0%,0%,0%)" stroke-width="2" x1="471.677554085" x2="471.677554085" y1="22.1199932107" y2="64.6960148907" /><line stroke="rgb(0%,0%,0%)" stroke-width="2" x1="495.54611335" x2="495.54611335" y1="38.8464622945" y2="64.6959848829" /><text font-family="Verdana" style="fill: #ff0000; width:1000px; color:red; text-size:15; font-weight:100;" text-anchor="middle" x="423.940435555" y="51.7712263667">2</text><text font-family="Verdana" style="fill: #ff0000; width:1000px; color:red; text-size:15; font-weight:100;" text-anchor="middle" x="447.80899482" y="43.4079468131">3</text><text font-family="Verdana" style="fill: #ff0000; width:1000px; color:red; text-size:15; font-weight:100;" text-anchor="middle" x="471.677554085" y="43.4080040507">4</text><text font-family="Verdana" style="fill: #ff0000; width:1000px; color:red; text-size:15; font-weight:100;" text-anchor="middle" x="495.54611335" y="51.7712235887">5</text><text font-family="Verdana" style="fill: #ff0000; width:1000px; color:red; text-size:15; font-weight:100;" text-anchor="middle" x="530.71096063" y="26.2716999054">Y=1</text><line stroke="rgb(0%,0%,0%)" stroke-width="2" x1="524.439260724" x2="524.439260724" y1="26.2716999054" y2="26.2716999054" /><line stroke="rgb(0%,0%,0%)" stroke-width="2" x1="524.439260724" x2="524.439260724" y1="26.2716999054" y2="26.2716999054" /><line stroke="rgb(0%,0%,0%)" stroke-width="2" x1="524.439260724" x2="536.982660535" y1="26.2716999054" y2="26.2716999054" /><line stroke="rgb(0%,0%,0%)" stroke-width="2" x1="536.982660535" x2="536.982660535" y1="26.2716999054" y2="26.2716999054" /><line stroke="rgb(0%,0%,0%)" stroke-width="2" x1="536.982660535" x2="536.982660535" y1="26.2716999054" y2="26.2716999054" /><line stroke="rgb(0%,0%,0%)" stroke-width="2" x1="524.439260724" x2="524.439260724" y1="26.2716999054" y2="26.2716999054" /><line stroke="rgb(0%,0%,0%)" stroke-width="2" x1="524.439260724" x2="524.439260724" y1="26.2716999054" y2="26.2716999054" /><line stroke="rgb(0%,0%,0%)" stroke-width="2" x1="536.982660535" x2="524.439260724" y1="26.2716999054" y2="26.2716999054" /><line stroke="rgb(0%,0%,0%)" stroke-width="2" x1="536.982660535" x2="536.982660535" y1="26.2716999054" y2="26.2716999054" /><line stroke="rgb(0%,0%,0%)" stroke-width="2" x1="536.982660535" x2="536.982660535" y1="26.2716999054" y2="26.2716999054" /><text font-family="Verdana" style="fill: #ff0000; width:1000px; color:red; text-size:15; font-weight:100;" text-anchor="middle" x="605.041359899" y="68.0586993643">Y=2</text><line stroke="rgb(0%,0%,0%)" stroke-width="2" x1="587.289435058" x2="592.129118894" y1="112.647299523" y2="114.08538004" /><line stroke="rgb(0%,0%,0%)" stroke-width="2" x1="593.408295261" x2="592.129118894" y1="114.465462982" y2="114.08538004" /><line stroke="rgb(0%,0%,0%)" stroke-width="2" x1="593.408295261" x2="599.008156965" y1="114.465462982" y2="115.316109541" /><line stroke="rgb(0%,0%,0%)" stroke-width="2" x1="601.278326207" x2="599.008156965" y1="115.660935839" y2="115.316109541" /><line stroke="rgb(0%,0%,0%)" stroke-width="2" x1="601.278326207" x2="606.240894319" y1="115.660935839" y2="115.660935839" /><line stroke="rgb(0%,0%,0%)" stroke-width="2" x1="608.804393592" x2="606.240894319" y1="115.660935839" y2="115.660935839" /><line stroke="rgb(0%,0%,0%)" stroke-width="2" x1="608.804393592" x2="614.804506234" y1="115.660935839" y2="114.749496326" /><line stroke="rgb(0%,0%,0%)" stroke-width="2" x1="616.674424537" x2="614.804506234" y1="114.465462982" y2="114.749496326" /><line stroke="rgb(0%,0%,0%)" stroke-width="2" x1="622.793284741" x2="616.674424537" y1="112.647299523" y2="114.465462982" /><line stroke="rgb(0%,0%,0%)" stroke-width="2" x1="572.317899137" x2="572.561158178" y1="103.325899834" y2="103.527773771" /><line stroke="rgb(0%,0%,0%)" stroke-width="2" x1="572.804406171" x2="572.561158178" y1="103.729641165" y2="103.527773771" /><line stroke="rgb(0%,0%,0%)" stroke-width="2" x1="572.804406171" x2="579.445507512" y1="103.729641165" y2="108.0888576" /><line stroke="rgb(0%,0%,0%)" stroke-width="2" x1="584.370480026" x2="579.445507512" y1="111.321521163" y2="108.0888576" /><line stroke="rgb(0%,0%,0%)" stroke-width="2" x1="584.370480026" x2="585.427662493" y1="111.321521163" y2="111.801682769" /><line stroke="rgb(0%,0%,0%)" stroke-width="2" x1="585.427662493" x2="587.289435058" y1="111.801682769" y2="112.647299523" /><line stroke="rgb(0%,0%,0%)" stroke-width="2" x1="625.712239773" x2="622.793284741" y1="111.321521163" y2="112.647299523" /><line stroke="rgb(0%,0%,0%)" stroke-width="2" x1="625.712239773" x2="634.951243989" y1="111.321521163" y2="105.2571079" /><line stroke="rgb(0%,0%,0%)" stroke-width="2" x1="637.278313627" x2="634.951243989" y1="103.729641165" y2="105.2571079" /><line stroke="rgb(0%,0%,0%)" stroke-width="2" x1="637.764820662" x2="637.278313627" y1="103.325899834" y2="103.729641165" /><line stroke="rgb(0%,0%,0%)" stroke-width="2" x1="563.924634482" x2="567.316394687" y1="92.4628989645" y2="96.852683784" /><line stroke="rgb(0%,0%,0%)" stroke-width="2" x1="567.316394687" x2="572.317899137" y1="96.852683784" y2="103.325899834" /><line stroke="rgb(0%,0%,0%)" stroke-width="2" x1="646.158085316" x2="638.353061461" y1="92.4628989645" y2="102.564568607" /><line stroke="rgb(0%,0%,0%)" stroke-width="2" x1="638.353061461" x2="637.764820662" y1="102.564568607" y2="103.325899834" /><line stroke="rgb(0%,0%,0%)" stroke-width="2" x1="558.737441643" x2="562.292908911" y1="80.5333993384" y2="88.7105124921" /><line stroke="rgb(0%,0%,0%)" stroke-width="2" x1="562.292908911" x2="563.924634482" y1="88.7105124921" y2="92.4628989645" /><line stroke="rgb(0%,0%,0%)" stroke-width="2" x1="651.345278155" x2="650.258760451" y1="80.5333993384" y2="83.0320646507" /><line stroke="rgb(0%,0%,0%)" stroke-width="2" x1="650.258760451" x2="646.158085316" y1="83.0320646507" y2="92.4628989645" /><line stroke="rgb(0%,0%,0%)" stroke-width="2" x1="556.982660535" x2="558.510340809" y1="68.0586993643" y2="78.9185438368" /><line stroke="rgb(0%,0%,0%)" stroke-width="2" x1="558.510340809" x2="558.737441643" y1="78.9185438368" y2="80.5333993384" /><line stroke="rgb(0%,0%,0%)" stroke-width="2" x1="653.100059264" x2="652.987480076" y1="68.0586993643" y2="68.8591989201" /><line stroke="rgb(0%,0%,0%)" stroke-width="2" x1="652.987480076" x2="651.345278155" y1="68.8591989201" y2="80.5333993384" /><line stroke="rgb(0%,0%,0%)" stroke-width="2" x1="558.737441643" x2="557.095239722" y1="55.5839993902" y2="67.2581998085" /><line stroke="rgb(0%,0%,0%)" stroke-width="2" x1="557.095239722" x2="556.982660535" y1="67.2581998085" y2="68.0586993643" /><line stroke="rgb(0%,0%,0%)" stroke-width="2" x1="651.345278155" x2="651.57237899" y1="55.5839993902" y2="57.1988548918" /><line stroke="rgb(0%,0%,0%)" stroke-width="2" x1="651.57237899" x2="653.100059264" y1="57.1988548918" y2="68.0586993643" /><line stroke="rgb(0%,0%,0%)" stroke-width="2" x1="563.924634482" x2="559.823959347" y1="43.6544997641" y2="53.0853340779" /><line stroke="rgb(0%,0%,0%)" stroke-width="2" x1="559.823959347" x2="558.737441643" y1="53.0853340779" y2="55.5839993902" /><line stroke="rgb(0%,0%,0%)" stroke-width="2" x1="646.158085316" x2="647.789810887" y1="43.6544997641" y2="47.4068862365" /><line stroke="rgb(0%,0%,0%)" stroke-width="2" x1="647.789810887" x2="651.345278155" y1="47.4068862365" y2="55.5839993902" /><line stroke="rgb(0%,0%,0%)" stroke-width="2" x1="572.317899137" x2="571.729658337" y1="32.7914988943" y2="33.5528301215" /><line stroke="rgb(0%,0%,0%)" stroke-width="2" x1="571.729658337" x2="563.924634482" y1="33.5528301215" y2="43.6544997641" /><line stroke="rgb(0%,0%,0%)" stroke-width="2" x1="637.764820662" x2="642.766325112" y1="32.7914988943" y2="39.2647149446" /><line stroke="rgb(0%,0%,0%)" stroke-width="2" x1="642.766325112" x2="646.158085316" y1="39.2647149446" y2="43.6544997641" /><line stroke="rgb(0%,0%,0%)" stroke-width="2" x1="572.804406171" x2="572.317899137" y1="32.3877575638" y2="32.7914988943" /><line stroke="rgb(0%,0%,0%)" stroke-width="2" x1="572.804406171" x2="575.13147581" y1="32.3877575638" y2="30.8602908291" /><line stroke="rgb(0%,0%,0%)" stroke-width="2" x1="584.370480026" x2="575.13147581" y1="24.7958775659" y2="30.8602908291" /><line stroke="rgb(0%,0%,0%)" stroke-width="2" x1="587.289435058" x2="584.370480026" y1="23.4700992056" y2="24.7958775659" /><line stroke="rgb(0%,0%,0%)" stroke-width="2" x1="622.793284741" x2="624.655057306" y1="23.4700992056" y2="24.3157159596" /><line stroke="rgb(0%,0%,0%)" stroke-width="2" x1="625.712239773" x2="624.655057306" y1="24.7958775659" y2="24.3157159596" /><line stroke="rgb(0%,0%,0%)" stroke-width="2" x1="625.712239773" x2="630.637212286" y1="24.7958775659" y2="28.0285411287" /><line stroke="rgb(0%,0%,0%)" stroke-width="2" x1="637.278313627" x2="630.637212286" y1="32.3877575638" y2="28.0285411287" /><line stroke="rgb(0%,0%,0%)" stroke-width="2" x1="637.278313627" x2="637.52156162" y1="32.3877575638" y2="32.5896249573" /><line stroke="rgb(0%,0%,0%)" stroke-width="2" x1="637.52156162" x2="637.764820662" y1="32.5896249573" y2="32.7914988943" /><line stroke="rgb(0%,0%,0%)" stroke-width="2" x1="593.408295261" x2="587.289435058" y1="21.6519357461" y2="23.4700992056" /><line stroke="rgb(0%,0%,0%)" stroke-width="2" x1="593.408295261" x2="595.278213565" y1="21.6519357461" y2="21.3679024026" /><line stroke="rgb(0%,0%,0%)" stroke-width="2" x1="601.278326207" x2="595.278213565" y1="20.4564628896" y2="21.3679024026" /><line stroke="rgb(0%,0%,0%)" stroke-width="2" x1="601.278326207" x2="603.841825479" y1="20.4564628896" y2="20.4564628896" /><line stroke="rgb(0%,0%,0%)" stroke-width="2" x1="608.804393592" x2="603.841825479" y1="20.4564628896" y2="20.4564628896" /><line stroke="rgb(0%,0%,0%)" stroke-width="2" x1="608.804393592" x2="611.074562833" y1="20.4564628896" y2="20.801289188" /><line stroke="rgb(0%,0%,0%)" stroke-width="2" x1="616.674424537" x2="611.074562833" y1="21.6519357461" y2="20.801289188" /><line stroke="rgb(0%,0%,0%)" stroke-width="2" x1="616.674424537" x2="617.953600905" y1="21.6519357461" y2="22.0320186889" /><line stroke="rgb(0%,0%,0%)" stroke-width="2" x1="617.953600905" x2="622.793284741" y1="22.0320186889" y2="23.4700992056" /><line stroke="rgb(0%,0%,0%)" stroke-width="2" x1="565.041359899" x2="565.041359899" y1="68.0586979753" y2="93.9082205637" /><line stroke="rgb(0%,0%,0%)" stroke-width="2" x1="585.041359899" x2="585.041359899" y1="68.0586972445" y2="111.62622803" /><line stroke="rgb(0%,0%,0%)" stroke-width="2" x1="625.041359899" x2="625.041359899" y1="68.0587014841" y2="111.626232269" /><line stroke="rgb(0%,0%,0%)" stroke-width="2" x1="645.041359899" x2="645.041359899" y1="68.0587007533" y2="93.9082233418" /><text font-family="Verdana" style="fill: #ff0000; width:1000px; color:red; text-size:15; font-weight:100;" text-anchor="middle" x="565.041359899" y="80.9834592695">2</text><text font-family="Verdana" style="fill: #ff0000; width:1000px; color:red; text-size:15; font-weight:100;" text-anchor="middle" x="585.041359899" y="89.8424626372">3</text><text font-family="Verdana" style="fill: #ff0000; width:1000px; color:red; text-size:15; font-weight:100;" text-anchor="middle" x="625.041359899" y="89.8424668768">5</text><text font-family="Verdana" style="fill: #ff0000; width:1000px; color:red; text-size:15; font-weight:100;" text-anchor="middle" x="645.041359899" y="80.9834620475">6</text><text font-family="Verdana" style="fill: #ff0000; width:1000px; color:red; text-size:15; font-weight:100;" text-anchor="middle" x="731.845662942" y="78.7456036779">Y=3</text><line stroke="rgb(0%,0%,0%)" stroke-width="2" x1="717.778610389" x2="720.779323628" y1="135.809003946" y2="136.285621597" /><line stroke="rgb(0%,0%,0%)" stroke-width="2" x1="721.099987373" x2="720.779323628" y1="136.336554179" y2="136.285621597" /><line stroke="rgb(0%,0%,0%)" stroke-width="2" x1="721.099987373" x2="724.410707275" y1="136.336554179" y2="136.752478596" /><line stroke="rgb(0%,0%,0%)" stroke-width="2" x1="724.955409123" x2="724.410707275" y1="136.820909664" y2="136.752478596" /><line stroke="rgb(0%,0%,0%)" stroke-width="2" x1="724.955409123" x2="727.327584176" y1="136.820909664" y2="137.027131263" /><line stroke="rgb(0%,0%,0%)" stroke-width="2" x1="727.967974689" x2="727.327584176" y1="137.082801227" y2="137.027131263" /><line stroke="rgb(0%,0%,0%)" stroke-width="2" x1="727.967974689" x2="729.907598962" y1="137.082801227" y2="137.16899418" /><line stroke="rgb(0%,0%,0%)" stroke-width="2" x1="730.59132079" x2="729.907598962" y1="137.199379179" y2="137.16899418" /><line stroke="rgb(0%,0%,0%)" stroke-width="2" x1="730.59132079" x2="732.401008311" y1="137.199379179" y2="137.199379179" /><line stroke="rgb(0%,0%,0%)" stroke-width="2" x1="733.100005093" x2="732.401008311" y1="137.199379179" y2="137.199379179" /><line stroke="rgb(0%,0%,0%)" stroke-width="2" x1="733.100005093" x2="735.037673273" y1="137.199379179" y2="137.113273039" /><line stroke="rgb(0%,0%,0%)" stroke-width="2" x1="735.723351194" x2="735.037673273" y1="137.082801227" y2="137.113273039" /><line stroke="rgb(0%,0%,0%)" stroke-width="2" x1="735.723351194" x2="738.120839972" y1="137.082801227" y2="136.874379254" /><line stroke="rgb(0%,0%,0%)" stroke-width="2" x1="738.73591676" x2="738.120839972" y1="136.820909664" y2="136.874379254" /><line stroke="rgb(0%,0%,0%)" stroke-width="2" x1="738.73591676" x2="742.203631997" y1="136.820909664" y2="136.385261817" /><line stroke="rgb(0%,0%,0%)" stroke-width="2" x1="742.59133851" x2="742.203631997" y1="136.336554179" y2="136.385261817" /><line stroke="rgb(0%,0%,0%)" stroke-width="2" x1="745.912715494" x2="742.59133851" y1="135.809003946" y2="136.336554179" /><line stroke="rgb(0%,0%,0%)" stroke-width="2" x1="704.352244985" x2="704.736707831" y1="130.707204935" y2="130.870896314" /><line stroke="rgb(0%,0%,0%)" stroke-width="2" x1="705.040799467" x2="704.736707831" y1="131.00036717" y2="130.870896314" /><line stroke="rgb(0%,0%,0%)" stroke-width="2" x1="705.040799467" x2="711.715887938" y1="131.00036717" y2="133.588288114" /><line stroke="rgb(0%,0%,0%)" stroke-width="2" x1="715.419525369" x2="711.715887938" y1="135.024171492" y2="133.588288114" /><line stroke="rgb(0%,0%,0%)" stroke-width="2" x1="715.419525369" x2="716.384338574" y1="135.024171492" y2="135.345152059" /><line stroke="rgb(0%,0%,0%)" stroke-width="2" x1="716.384338574" x2="717.778610389" y1="135.345152059" y2="135.809003946" /><line stroke="rgb(0%,0%,0%)" stroke-width="2" x1="748.271800514" x2="745.912715494" y1="135.024171492" y2="135.809003946" /><line stroke="rgb(0%,0%,0%)" stroke-width="2" x1="748.271800514" x2="756.703914369" y1="135.024171492" y2="131.755062866" /><line stroke="rgb(0%,0%,0%)" stroke-width="2" x1="758.650526416" x2="756.703914369" y1="131.00036717" y2="131.755062866" /><line stroke="rgb(0%,0%,0%)" stroke-width="2" x1="759.339080898" x2="758.650526416" y1="130.707204935" y2="131.00036717" /><line stroke="rgb(0%,0%,0%)" stroke-width="2" x1="693.740648594" x2="698.362231708" y1="123.334203837" y2="126.545255033" /><line stroke="rgb(0%,0%,0%)" stroke-width="2" x1="698.362231708" x2="704.352244985" y1="126.545255033" y2="130.707204935" /><line stroke="rgb(0%,0%,0%)" stroke-width="2" x1="769.950677289" x2="760.076332" y1="123.334203837" y2="130.194963711" /><line stroke="rgb(0%,0%,0%)" stroke-width="2" x1="760.076332" x2="759.339080898" y1="130.194963711" y2="130.707204935" /><line stroke="rgb(0%,0%,0%)" stroke-width="2" x1="684.963965567" x2="690.978032216" y1="114.012804148" y2="120.400195763" /><line stroke="rgb(0%,0%,0%)" stroke-width="2" x1="690.978032216" x2="693.740648594" y1="120.400195763" y2="123.334203837" /><line stroke="rgb(0%,0%,0%)" stroke-width="2" x1="778.727360316" x2="776.135365158" y1="114.012804148" y2="116.765633417" /><line stroke="rgb(0%,0%,0%)" stroke-width="2" x1="776.135365158" x2="769.950677289" y1="116.765633417" y2="123.334203837" /><line stroke="rgb(0%,0%,0%)" stroke-width="2" x1="678.405491941" x2="683.973900939" y1="103.149803278" y2="112.372924302" /><line stroke="rgb(0%,0%,0%)" stroke-width="2" x1="683.973900939" x2="684.963965567" y1="112.372924302" y2="114.012804148" /><line stroke="rgb(0%,0%,0%)" stroke-width="2" x1="785.285833942" x2="784.863061897" y1="103.149803278" y2="103.85005533" /><line stroke="rgb(0%,0%,0%)" stroke-width="2" x1="784.863061897" x2="778.727360316" y1="103.85005533" y2="114.012804148" /><line stroke="rgb(0%,0%,0%)" stroke-width="2" x1="674.411117117" x2="674.496190247" y1="91.220303652" y2="91.4821406014" /><line stroke="rgb(0%,0%,0%)" stroke-width="2" x1="675.699238215" x2="674.496190247" y1="95.1847683434" y2="91.4821406014" /><line stroke="rgb(0%,0%,0%)" stroke-width="2" x1="675.699238215" x2="678.230661263" y1="95.1847683434" y2="102.635244442" /><line stroke="rgb(0%,0%,0%)" stroke-width="2" x1="678.230661263" x2="678.405491941" y1="102.635244442" y2="103.149803278" /><line stroke="rgb(0%,0%,0%)" stroke-width="2" x1="787.992087668" x2="785.285833942" y1="95.1847683434" y2="103.149803278" /><line stroke="rgb(0%,0%,0%)" stroke-width="2" x1="789.280208766" x2="787.992087668" y1="91.220303652" y2="95.1847683434" /><line stroke="rgb(0%,0%,0%)" stroke-width="2" x1="673.100059264" x2="673.15686213" y1="78.7456036779" y2="79.2860240194" /><line stroke="rgb(0%,0%,0%)" stroke-width="2" x1="673.15686213" x2="674.411117117" y1="79.2860240194" y2="91.220303652" /><line stroke="rgb(0%,0%,0%)" stroke-width="2" x1="790.591266619" x2="789.308987877" y1="78.7456036779" y2="90.9465002664" /><line stroke="rgb(0%,0%,0%)" stroke-width="2" x1="789.308987877" x2="789.280208766" y1="90.9465002664" y2="91.220303652" /><line stroke="rgb(0%,0%,0%)" stroke-width="2" x1="674.411117117" x2="674.382338006" y1="66.2709037039" y2="66.5447070895" /><line stroke="rgb(0%,0%,0%)" stroke-width="2" x1="674.382338006" x2="673.100059264" y1="66.5447070895" y2="78.7456036779" /><line stroke="rgb(0%,0%,0%)" stroke-width="2" x1="789.280208766" x2="790.534463753" y1="66.2709037039" y2="78.2051833364" /><line stroke="rgb(0%,0%,0%)" stroke-width="2" x1="790.534463753" x2="790.591266619" y1="78.2051833364" y2="78.7456036779" /><line stroke="rgb(0%,0%,0%)" stroke-width="2" x1="675.699238215" x2="674.411117117" y1="62.3064390124" y2="66.2709037039" /><line stroke="rgb(0%,0%,0%)" stroke-width="2" x1="678.405491941" x2="675.699238215" y1="54.3414040777" y2="62.3064390124" /><line stroke="rgb(0%,0%,0%)" stroke-width="2" x1="785.285833942" x2="785.46066462" y1="54.3414040777" y2="54.855962914" /><line stroke="rgb(0%,0%,0%)" stroke-width="2" x1="787.992087668" x2="785.46066462" y1="62.3064390124" y2="54.855962914" /><line stroke="rgb(0%,0%,0%)" stroke-width="2" x1="787.992087668" x2="789.195135636" y1="62.3064390124" y2="66.0090667544" /><line stroke="rgb(0%,0%,0%)" stroke-width="2" x1="789.195135636" x2="789.280208766" y1="66.0090667544" y2="66.2709037039" /><line stroke="rgb(0%,0%,0%)" stroke-width="2" x1="684.963965567" x2="678.828263986" y1="43.478403208" y2="53.6411520257" /><line stroke="rgb(0%,0%,0%)" stroke-width="2" x1="678.828263986" x2="678.405491941" y1="53.6411520257" y2="54.3414040777" /><line stroke="rgb(0%,0%,0%)" stroke-width="2" x1="778.727360316" x2="779.717424944" y1="43.478403208" y2="45.1182830543" /><line stroke="rgb(0%,0%,0%)" stroke-width="2" x1="779.717424944" x2="785.285833942" y1="45.1182830543" y2="54.3414040777" /><line stroke="rgb(0%,0%,0%)" stroke-width="2" x1="693.740648594" x2="687.555960725" y1="34.1570035192" y2="40.7255739385" /><line stroke="rgb(0%,0%,0%)" stroke-width="2" x1="687.555960725" x2="684.963965567" y1="40.7255739385" y2="43.478403208" /><line stroke="rgb(0%,0%,0%)" stroke-width="2" x1="769.950677289" x2="772.713293667" y1="34.1570035192" y2="37.0910115931" /><line stroke="rgb(0%,0%,0%)" stroke-width="2" x1="772.713293667" x2="778.727360316" y1="37.0910115931" y2="43.478403208" /><line stroke="rgb(0%,0%,0%)" stroke-width="2" x1="704.352244985" x2="703.614993883" y1="26.7840024206" y2="27.2962436444" /><line stroke="rgb(0%,0%,0%)" stroke-width="2" x1="703.614993883" x2="693.740648594" y1="27.2962436444" y2="34.1570035192" /><line stroke="rgb(0%,0%,0%)" stroke-width="2" x1="759.339080898" x2="765.329094175" y1="26.7840024206" y2="30.9459523233" /><line stroke="rgb(0%,0%,0%)" stroke-width="2" x1="765.329094175" x2="769.950677289" y1="30.9459523233" y2="34.1570035192" /><line stroke="rgb(0%,0%,0%)" stroke-width="2" x1="705.040799467" x2="704.352244985" y1="26.490840186" y2="26.7840024206" /><line stroke="rgb(0%,0%,0%)" stroke-width="2" x1="705.040799467" x2="706.987411514" y1="26.490840186" y2="25.7361444903" /><line stroke="rgb(0%,0%,0%)" stroke-width="2" x1="715.419525369" x2="706.987411514" y1="22.467035864" y2="25.7361444903" /><line stroke="rgb(0%,0%,0%)" stroke-width="2" x1="717.778610389" x2="715.419525369" y1="21.6822034094" y2="22.467035864" /><line stroke="rgb(0%,0%,0%)" stroke-width="2" x1="745.912715494" x2="747.306987309" y1="21.6822034094" y2="22.1460552968" /><line stroke="rgb(0%,0%,0%)" stroke-width="2" x1="748.271800514" x2="747.306987309" y1="22.467035864" y2="22.1460552968" /><line stroke="rgb(0%,0%,0%)" stroke-width="2" x1="748.271800514" x2="751.975437945" y1="22.467035864" y2="23.9029192415" /><line stroke="rgb(0%,0%,0%)" stroke-width="2" x1="758.650526416" x2="751.975437945" y1="26.490840186" y2="23.9029192415" /><line stroke="rgb(0%,0%,0%)" stroke-width="2" x1="758.650526416" x2="758.954618052" y1="26.490840186" y2="26.6203110415" /><line stroke="rgb(0%,0%,0%)" stroke-width="2" x1="758.954618052" x2="759.339080898" y1="26.6203110415" y2="26.7840024206" /><line stroke="rgb(0%,0%,0%)" stroke-width="2" x1="721.099987373" x2="717.778610389" y1="21.1546531766" y2="21.6822034094" /><line stroke="rgb(0%,0%,0%)" stroke-width="2" x1="721.099987373" x2="721.487693886" y1="21.1546531766" y2="21.1059455391" /><line stroke="rgb(0%,0%,0%)" stroke-width="2" x1="724.955409123" x2="721.487693886" y1="20.6702976923" y2="21.1059455391" /><line stroke="rgb(0%,0%,0%)" stroke-width="2" x1="724.955409123" x2="725.570485911" y1="20.6702976923" y2="20.616828102" /><line stroke="rgb(0%,0%,0%)" stroke-width="2" x1="727.967974689" x2="725.570485911" y1="20.4084061289" y2="20.616828102" /><line stroke="rgb(0%,0%,0%)" stroke-width="2" x1="727.967974689" x2="728.65365261" y1="20.4084061289" y2="20.3779343167" /><line stroke="rgb(0%,0%,0%)" stroke-width="2" x1="730.59132079" x2="728.65365261" y1="20.2918281773" y2="20.3779343167" /><line stroke="rgb(0%,0%,0%)" stroke-width="2" x1="730.59132079" x2="731.290317572" y1="20.2918281773" y2="20.2918281773" /><line stroke="rgb(0%,0%,0%)" stroke-width="2" x1="733.100005093" x2="731.290317572" y1="20.2918281773" y2="20.2918281773" /><line stroke="rgb(0%,0%,0%)" stroke-width="2" x1="733.100005093" x2="733.783726921" y1="20.2918281773" y2="20.3222131756" /><line stroke="rgb(0%,0%,0%)" stroke-width="2" x1="735.723351194" x2="733.783726921" y1="20.4084061289" y2="20.3222131756" /><line stroke="rgb(0%,0%,0%)" stroke-width="2" x1="735.723351194" x2="736.363741707" y1="20.4084061289" y2="20.4640760927" /><line stroke="rgb(0%,0%,0%)" stroke-width="2" x1="738.73591676" x2="736.363741707" y1="20.6702976923" y2="20.4640760927" /><line stroke="rgb(0%,0%,0%)" stroke-width="2" x1="738.73591676" x2="739.280618608" y1="20.6702976923" y2="20.7387287597" /><line stroke="rgb(0%,0%,0%)" stroke-width="2" x1="742.59133851" x2="739.280618608" y1="21.1546531766" y2="20.7387287597" /><line stroke="rgb(0%,0%,0%)" stroke-width="2" x1="742.59133851" x2="742.912002255" y1="21.1546531766" y2="21.2055857591" /><line stroke="rgb(0%,0%,0%)" stroke-width="2" x1="742.912002255" x2="745.912715494" y1="21.2055857591" y2="21.6822034094" /><line stroke="rgb(0%,0%,0%)" stroke-width="2" x1="691.845662942" x2="691.845662942" y1="78.7456322967" y2="121.321653977" /><line stroke="rgb(0%,0%,0%)" stroke-width="2" x1="711.845662942" x2="711.845662942" y1="78.7456071656" y2="133.638601293" /><line stroke="rgb(0%,0%,0%)" stroke-width="2" x1="751.845662942" x2="751.845662942" y1="78.7456001902" y2="133.638594317" /><line stroke="rgb(0%,0%,0%)" stroke-width="2" x1="771.845662942" x2="771.845662942" y1="78.7455750592" y2="121.321596739" /><text font-family="Verdana" style="fill: #ff0000; width:1000px; color:red; text-size:15; font-weight:100;" text-anchor="middle" x="691.845662942" y="100.033643137">2</text><text font-family="Verdana" style="fill: #ff0000; width:1000px; color:red; text-size:15; font-weight:100;" text-anchor="middle" x="711.845662942" y="106.192104229">3</text><text font-family="Verdana" style="fill: #ff0000; width:1000px; color:red; text-size:15; font-weight:100;" text-anchor="middle" x="751.845662942" y="106.192097254">5</text><text font-family="Verdana" style="fill: #ff0000; width:1000px; color:red; text-size:15; font-weight:100;" text-anchor="middle" x="771.845662942" y="100.033585899">6</text><text font-family="Verdana" style="fill: #ff0000; width:1000px; color:red; text-size:15; font-weight:100;" text-anchor="middle" x="78.7456036779" y="216.236811034">Y=4</text><line stroke="rgb(0%,0%,0%)" stroke-width="2" x1="92.8126562308" x2="89.8119429911" y1="273.300211302" y2="273.776828953" /><line stroke="rgb(0%,0%,0%)" stroke-width="2" x1="89.4912792461" x2="89.8119429911" y1="273.827761535" y2="273.776828953" /><line stroke="rgb(0%,0%,0%)" stroke-width="2" x1="89.4912792461" x2="86.1805593441" y1="273.827761535" y2="274.243685952" /><line stroke="rgb(0%,0%,0%)" stroke-width="2" x1="85.6358574961" x2="86.1805593441" y1="274.312117019" y2="274.243685952" /><line stroke="rgb(0%,0%,0%)" stroke-width="2" x1="85.6358574961" x2="83.2636824432" y1="274.312117019" y2="274.518338619" /><line stroke="rgb(0%,0%,0%)" stroke-width="2" x1="82.6232919309" x2="83.2636824432" y1="274.574008583" y2="274.518338619" /><line stroke="rgb(0%,0%,0%)" stroke-width="2" x1="82.6232919309" x2="80.6836676571" y1="274.574008583" y2="274.660201536" /><line stroke="rgb(0%,0%,0%)" stroke-width="2" x1="79.9999458293" x2="80.6836676571" y1="274.690586534" y2="274.660201536" /><line stroke="rgb(0%,0%,0%)" stroke-width="2" x1="79.9999458293" x2="78.1902583085" y1="274.690586534" y2="274.690586534" /><line stroke="rgb(0%,0%,0%)" stroke-width="2" x1="77.4912615266" x2="78.1902583085" y1="274.690586534" y2="274.690586534" /><line stroke="rgb(0%,0%,0%)" stroke-width="2" x1="77.4912615266" x2="75.553593346" y1="274.690586534" y2="274.604480395" /><line stroke="rgb(0%,0%,0%)" stroke-width="2" x1="74.867915425" x2="75.553593346" y1="274.574008583" y2="274.604480395" /><line stroke="rgb(0%,0%,0%)" stroke-width="2" x1="74.867915425" x2="72.4704266473" y1="274.574008583" y2="274.36558661" /><line stroke="rgb(0%,0%,0%)" stroke-width="2" x1="71.8553498598" x2="72.4704266473" y1="274.312117019" y2="274.36558661" /><line stroke="rgb(0%,0%,0%)" stroke-width="2" x1="71.8553498598" x2="68.3876346228" y1="274.312117019" y2="273.876469173" /><line stroke="rgb(0%,0%,0%)" stroke-width="2" x1="67.9999281097" x2="68.3876346228" y1="273.827761535" y2="273.876469173" /><line stroke="rgb(0%,0%,0%)" stroke-width="2" x1="64.678551125" x2="67.9999281097" y1="273.300211302" y2="273.827761535" /><line stroke="rgb(0%,0%,0%)" stroke-width="2" x1="106.239021635" x2="105.854558788" y1="268.198412291" y2="268.36210367" /><line stroke="rgb(0%,0%,0%)" stroke-width="2" x1="105.550467152" x2="105.854558788" y1="268.491574526" y2="268.36210367" /><line stroke="rgb(0%,0%,0%)" stroke-width="2" x1="105.550467152" x2="98.8753786814" y1="268.491574526" y2="271.07949547" /><line stroke="rgb(0%,0%,0%)" stroke-width="2" x1="95.1717412501" x2="98.8753786814" y1="272.515378848" y2="271.07949547" /><line stroke="rgb(0%,0%,0%)" stroke-width="2" x1="95.1717412501" x2="94.2069280452" y1="272.515378848" y2="272.836359415" /><line stroke="rgb(0%,0%,0%)" stroke-width="2" x1="94.2069280452" x2="92.8126562308" y1="272.836359415" y2="273.300211302" /><line stroke="rgb(0%,0%,0%)" stroke-width="2" x1="62.3194661058" x2="64.678551125" y1="272.515378848" y2="273.300211302" /><line stroke="rgb(0%,0%,0%)" stroke-width="2" x1="62.3194661058" x2="53.8873522504" y1="272.515378848" y2="269.246270221" /><line stroke="rgb(0%,0%,0%)" stroke-width="2" x1="51.9407402035" x2="53.8873522504" y1="268.491574526" y2="269.246270221" /><line stroke="rgb(0%,0%,0%)" stroke-width="2" x1="51.2521857211" x2="51.9407402035" y1="268.198412291" y2="268.491574526" /><line stroke="rgb(0%,0%,0%)" stroke-width="2" x1="116.850618026" x2="112.229034911" y1="260.825411192" y2="264.036462388" /><line stroke="rgb(0%,0%,0%)" stroke-width="2" x1="112.229034911" x2="106.239021635" y1="264.036462388" y2="268.198412291" /><line stroke="rgb(0%,0%,0%)" stroke-width="2" x1="40.6405893302" x2="50.5149346198" y1="260.825411192" y2="267.686171067" /><line stroke="rgb(0%,0%,0%)" stroke-width="2" x1="50.5149346198" x2="51.2521857211" y1="267.686171067" y2="268.198412291" /><line stroke="rgb(0%,0%,0%)" stroke-width="2" x1="125.627301052" x2="119.613234403" y1="251.504011504" y2="257.891403119" /><line stroke="rgb(0%,0%,0%)" stroke-width="2" x1="119.613234403" x2="116.850618026" y1="257.891403119" y2="260.825411192" /><line stroke="rgb(0%,0%,0%)" stroke-width="2" x1="31.8639063035" x2="34.4559014614" y1="251.504011504" y2="254.256840773" /><line stroke="rgb(0%,0%,0%)" stroke-width="2" x1="34.4559014614" x2="40.6405893302" y1="254.256840773" y2="260.825411192" /><line stroke="rgb(0%,0%,0%)" stroke-width="2" x1="132.185774678" x2="126.61736568" y1="240.641010634" y2="249.864131657" /><line stroke="rgb(0%,0%,0%)" stroke-width="2" x1="126.61736568" x2="125.627301052" y1="249.864131657" y2="251.504011504" /><line stroke="rgb(0%,0%,0%)" stroke-width="2" x1="25.3054326778" x2="25.7282047225" y1="240.641010634" y2="241.341262686" /><line stroke="rgb(0%,0%,0%)" stroke-width="2" x1="25.7282047225" x2="31.8639063035" y1="241.341262686" y2="251.504011504" /><line stroke="rgb(0%,0%,0%)" stroke-width="2" x1="136.180149502" x2="136.095076372" y1="228.711511008" y2="228.973347957" /><line stroke="rgb(0%,0%,0%)" stroke-width="2" x1="134.892028405" x2="136.095076372" y1="232.675975699" y2="228.973347957" /><line stroke="rgb(0%,0%,0%)" stroke-width="2" x1="134.892028405" x2="132.360605356" y1="232.675975699" y2="240.126451798" /><line stroke="rgb(0%,0%,0%)" stroke-width="2" x1="132.360605356" x2="132.185774678" y1="240.126451798" y2="240.641010634" /><line stroke="rgb(0%,0%,0%)" stroke-width="2" x1="22.599178951" x2="25.3054326778" y1="232.675975699" y2="240.641010634" /><line stroke="rgb(0%,0%,0%)" stroke-width="2" x1="21.3110578535" x2="22.599178951" y1="228.711511008" y2="232.675975699" /><line stroke="rgb(0%,0%,0%)" stroke-width="2" x1="137.491207356" x2="137.43440449" y1="216.236811034" y2="216.777231375" /><line stroke="rgb(0%,0%,0%)" stroke-width="2" x1="137.43440449" x2="136.180149502" y1="216.777231375" y2="228.711511008" /><line stroke="rgb(0%,0%,0%)" stroke-width="2" x1="20.0" x2="21.2822787423" y1="216.236811034" y2="228.437707622" /><line stroke="rgb(0%,0%,0%)" stroke-width="2" x1="21.2822787423" x2="21.3110578535" y1="228.437707622" y2="228.711511008" /><line stroke="rgb(0%,0%,0%)" stroke-width="2" x1="136.180149502" x2="136.208928614" y1="203.76211106" y2="204.035914445" /><line stroke="rgb(0%,0%,0%)" stroke-width="2" x1="136.208928614" x2="137.491207356" y1="204.035914445" y2="216.236811034" /><line stroke="rgb(0%,0%,0%)" stroke-width="2" x1="21.3110578535" x2="20.0568028662" y1="203.76211106" y2="215.696390692" /><line stroke="rgb(0%,0%,0%)" stroke-width="2" x1="20.0568028662" x2="20.0" y1="215.696390692" y2="216.236811034" /><line stroke="rgb(0%,0%,0%)" stroke-width="2" x1="134.892028405" x2="136.180149502" y1="199.797646368" y2="203.76211106" /><line stroke="rgb(0%,0%,0%)" stroke-width="2" x1="132.185774678" x2="134.892028405" y1="191.832611434" y2="199.797646368" /><line stroke="rgb(0%,0%,0%)" stroke-width="2" x1="25.3054326778" x2="25.1306019995" y1="191.832611434" y2="192.34717027" /><line stroke="rgb(0%,0%,0%)" stroke-width="2" x1="22.599178951" x2="25.1306019995" y1="199.797646368" y2="192.34717027" /><line stroke="rgb(0%,0%,0%)" stroke-width="2" x1="22.599178951" x2="21.3961309834" y1="199.797646368" y2="203.50027411" /><line stroke="rgb(0%,0%,0%)" stroke-width="2" x1="21.3961309834" x2="21.3110578535" y1="203.50027411" y2="203.76211106" /><line stroke="rgb(0%,0%,0%)" stroke-width="2" x1="125.627301052" x2="131.763002633" y1="180.969610564" y2="191.132359382" /><line stroke="rgb(0%,0%,0%)" stroke-width="2" x1="131.763002633" x2="132.185774678" y1="191.132359382" y2="191.832611434" /><line stroke="rgb(0%,0%,0%)" stroke-width="2" x1="31.8639063035" x2="30.8738416756" y1="180.969610564" y2="182.60949041" /><line stroke="rgb(0%,0%,0%)" stroke-width="2" x1="30.8738416756" x2="25.3054326778" y1="182.60949041" y2="191.832611434" /><line stroke="rgb(0%,0%,0%)" stroke-width="2" x1="116.850618026" x2="123.035305894" y1="171.648210875" y2="178.216781294" /><line stroke="rgb(0%,0%,0%)" stroke-width="2" x1="123.035305894" x2="125.627301052" y1="178.216781294" y2="180.969610564" /><line stroke="rgb(0%,0%,0%)" stroke-width="2" x1="40.6405893302" x2="37.8779729527" y1="171.648210875" y2="174.582218949" /><line stroke="rgb(0%,0%,0%)" stroke-width="2" x1="37.8779729527" x2="31.8639063035" y1="174.582218949" y2="180.969610564" /><line stroke="rgb(0%,0%,0%)" stroke-width="2" x1="106.239021635" x2="106.976272736" y1="164.275209776" y2="164.787451" /><line stroke="rgb(0%,0%,0%)" stroke-width="2" x1="106.976272736" x2="116.850618026" y1="164.787451" y2="171.648210875" /><line stroke="rgb(0%,0%,0%)" stroke-width="2" x1="51.2521857211" x2="45.2621724447" y1="164.275209776" y2="168.437159679" /><line stroke="rgb(0%,0%,0%)" stroke-width="2" x1="45.2621724447" x2="40.6405893302" y1="168.437159679" y2="171.648210875" /><line stroke="rgb(0%,0%,0%)" stroke-width="2" x1="105.550467152" x2="106.239021635" y1="163.982047542" y2="164.275209776" /><line stroke="rgb(0%,0%,0%)" stroke-width="2" x1="105.550467152" x2="103.603855105" y1="163.982047542" y2="163.227351846" /><line stroke="rgb(0%,0%,0%)" stroke-width="2" x1="95.1717412501" x2="103.603855105" y1="159.95824322" y2="163.227351846" /><line stroke="rgb(0%,0%,0%)" stroke-width="2" x1="92.8126562308" x2="95.1717412501" y1="159.173410765" y2="159.95824322" /><line stroke="rgb(0%,0%,0%)" stroke-width="2" x1="64.678551125" x2="63.2842793107" y1="159.173410765" y2="159.637262653" /><line stroke="rgb(0%,0%,0%)" stroke-width="2" x1="62.3194661058" x2="63.2842793107" y1="159.95824322" y2="159.637262653" /><line stroke="rgb(0%,0%,0%)" stroke-width="2" x1="62.3194661058" x2="58.6158286745" y1="159.95824322" y2="161.394126597" /><line stroke="rgb(0%,0%,0%)" stroke-width="2" x1="51.9407402035" x2="58.6158286745" y1="163.982047542" y2="161.394126597" /><line stroke="rgb(0%,0%,0%)" stroke-width="2" x1="51.9407402035" x2="51.6366485677" y1="163.982047542" y2="164.111518397" /><line stroke="rgb(0%,0%,0%)" stroke-width="2" x1="51.6366485677" x2="51.2521857211" y1="164.111518397" y2="164.275209776" /><line stroke="rgb(0%,0%,0%)" stroke-width="2" x1="89.4912792461" x2="92.8126562308" y1="158.645860532" y2="159.173410765" /><line stroke="rgb(0%,0%,0%)" stroke-width="2" x1="89.4912792461" x2="89.1035727331" y1="158.645860532" y2="158.597152895" /><line stroke="rgb(0%,0%,0%)" stroke-width="2" x1="85.6358574961" x2="89.1035727331" y1="158.161505048" y2="158.597152895" /><line stroke="rgb(0%,0%,0%)" stroke-width="2" x1="85.6358574961" x2="85.0207807085" y1="158.161505048" y2="158.108035458" /><line stroke="rgb(0%,0%,0%)" stroke-width="2" x1="82.6232919309" x2="85.0207807085" y1="157.899613485" y2="158.108035458" /><line stroke="rgb(0%,0%,0%)" stroke-width="2" x1="82.6232919309" x2="81.9376140099" y1="157.899613485" y2="157.869141673" /><line stroke="rgb(0%,0%,0%)" stroke-width="2" x1="79.9999458293" x2="81.9376140099" y1="157.783035533" y2="157.869141673" /><line stroke="rgb(0%,0%,0%)" stroke-width="2" x1="79.9999458293" x2="79.3009490474" y1="157.783035533" y2="157.783035533" /><line stroke="rgb(0%,0%,0%)" stroke-width="2" x1="77.4912615266" x2="79.3009490474" y1="157.783035533" y2="157.783035533" /><line stroke="rgb(0%,0%,0%)" stroke-width="2" x1="77.4912615266" x2="76.8075396988" y1="157.783035533" y2="157.813420531" /><line stroke="rgb(0%,0%,0%)" stroke-width="2" x1="74.867915425" x2="76.8075396988" y1="157.899613485" y2="157.813420531" /><line stroke="rgb(0%,0%,0%)" stroke-width="2" x1="74.867915425" x2="74.2275249127" y1="157.899613485" y2="157.955283449" /><line stroke="rgb(0%,0%,0%)" stroke-width="2" x1="71.8553498598" x2="74.2275249127" y1="158.161505048" y2="157.955283449" /><line stroke="rgb(0%,0%,0%)" stroke-width="2" x1="71.8553498598" x2="71.3106480118" y1="158.161505048" y2="158.229936116" /><line stroke="rgb(0%,0%,0%)" stroke-width="2" x1="67.9999281097" x2="71.3106480118" y1="158.645860532" y2="158.229936116" /><line stroke="rgb(0%,0%,0%)" stroke-width="2" x1="67.9999281097" x2="67.6792643648" y1="158.645860532" y2="158.696793115" /><line stroke="rgb(0%,0%,0%)" stroke-width="2" x1="67.6792643648" x2="64.678551125" y1="158.696793115" y2="159.173410765" /><line stroke="rgb(0%,0%,0%)" stroke-width="2" x1="38.7456036779" x2="38.7456036779" y1="216.236782415" y2="258.812804095" /><line stroke="rgb(0%,0%,0%)" stroke-width="2" x1="58.7456036779" x2="58.7456036779" y1="216.236807546" y2="271.129801673" /><line stroke="rgb(0%,0%,0%)" stroke-width="2" x1="98.7456036779" x2="98.7456036779" y1="216.236814522" y2="271.129808649" /><line stroke="rgb(0%,0%,0%)" stroke-width="2" x1="118.745603678" x2="118.745603678" y1="216.236839653" y2="258.812861333" /><text font-family="Verdana" style="fill: #ff0000; width:1000px; color:red; text-size:15; font-weight:100;" text-anchor="middle" x="38.7456036779" y="237.524793255">2</text><text font-family="Verdana" style="fill: #ff0000; width:1000px; color:red; text-size:15; font-weight:100;" text-anchor="middle" x="58.7456036779" y="243.68330461">3</text><text font-family="Verdana" style="fill: #ff0000; width:1000px; color:red; text-size:15; font-weight:100;" text-anchor="middle" x="98.7456036779" y="243.683311585">5</text><text font-family="Verdana" style="fill: #ff0000; width:1000px; color:red; text-size:15; font-weight:100;" text-anchor="middle" x="118.745603678" y="237.524850493">6</text><text font-family="Verdana" style="fill: #ff0000; width:1000px; color:red; text-size:15; font-weight:100;" text-anchor="middle" x="205.54990672" y="205.54990672">Y=5</text><line stroke="rgb(0%,0%,0%)" stroke-width="2" x1="223.301831561" x2="218.462147725" y1="250.138506879" y2="251.576587396" /><line stroke="rgb(0%,0%,0%)" stroke-width="2" x1="217.182971358" x2="218.462147725" y1="251.956670338" y2="251.576587396" /><line stroke="rgb(0%,0%,0%)" stroke-width="2" x1="217.182971358" x2="211.583109654" y1="251.956670338" y2="252.807316896" /><line stroke="rgb(0%,0%,0%)" stroke-width="2" x1="209.312940413" x2="211.583109654" y1="253.152143195" y2="252.807316896" /><line stroke="rgb(0%,0%,0%)" stroke-width="2" x1="209.312940413" x2="204.3503723" y1="253.152143195" y2="253.152143195" /><line stroke="rgb(0%,0%,0%)" stroke-width="2" x1="201.786873028" x2="204.3503723" y1="253.152143195" y2="253.152143195" /><line stroke="rgb(0%,0%,0%)" stroke-width="2" x1="201.786873028" x2="195.786760386" y1="253.152143195" y2="252.240703682" /><line stroke="rgb(0%,0%,0%)" stroke-width="2" x1="193.916842082" x2="195.786760386" y1="251.956670338" y2="252.240703682" /><line stroke="rgb(0%,0%,0%)" stroke-width="2" x1="187.797981879" x2="193.916842082" y1="250.138506879" y2="251.956670338" /><line stroke="rgb(0%,0%,0%)" stroke-width="2" x1="238.273367482" x2="238.030108441" y1="240.81710719" y2="241.018981127" /><line stroke="rgb(0%,0%,0%)" stroke-width="2" x1="237.786860448" x2="238.030108441" y1="241.220848521" y2="241.018981127" /><line stroke="rgb(0%,0%,0%)" stroke-width="2" x1="237.786860448" x2="231.145759107" y1="241.220848521" y2="245.580064956" /><line stroke="rgb(0%,0%,0%)" stroke-width="2" x1="226.220786594" x2="231.145759107" y1="248.812728519" y2="245.580064956" /><line stroke="rgb(0%,0%,0%)" stroke-width="2" x1="226.220786594" x2="225.163604126" y1="248.812728519" y2="249.292890125" /><line stroke="rgb(0%,0%,0%)" stroke-width="2" x1="225.163604126" x2="223.301831561" y1="249.292890125" y2="250.138506879" /><line stroke="rgb(0%,0%,0%)" stroke-width="2" x1="184.879026847" x2="187.797981879" y1="248.812728519" y2="250.138506879" /><line stroke="rgb(0%,0%,0%)" stroke-width="2" x1="184.879026847" x2="175.640022631" y1="248.812728519" y2="242.748315255" /><line stroke="rgb(0%,0%,0%)" stroke-width="2" x1="173.312952992" x2="175.640022631" y1="241.220848521" y2="242.748315255" /><line stroke="rgb(0%,0%,0%)" stroke-width="2" x1="172.826445958" x2="173.312952992" y1="240.81710719" y2="241.220848521" /><line stroke="rgb(0%,0%,0%)" stroke-width="2" x1="246.666632137" x2="243.274871933" y1="229.95410632" y2="234.34389114" /><line stroke="rgb(0%,0%,0%)" stroke-width="2" x1="243.274871933" x2="238.273367482" y1="234.34389114" y2="240.81710719" /><line stroke="rgb(0%,0%,0%)" stroke-width="2" x1="164.433181303" x2="172.238205158" y1="229.95410632" y2="240.055775963" /><line stroke="rgb(0%,0%,0%)" stroke-width="2" x1="172.238205158" x2="172.826445958" y1="240.055775963" y2="240.81710719" /><line stroke="rgb(0%,0%,0%)" stroke-width="2" x1="251.853824976" x2="248.298357708" y1="218.024606694" y2="226.201719848" /><line stroke="rgb(0%,0%,0%)" stroke-width="2" x1="248.298357708" x2="246.666632137" y1="226.201719848" y2="229.95410632" /><line stroke="rgb(0%,0%,0%)" stroke-width="2" x1="159.245988464" x2="160.332506168" y1="218.024606694" y2="220.523272007" /><line stroke="rgb(0%,0%,0%)" stroke-width="2" x1="160.332506168" x2="164.433181303" y1="220.523272007" y2="229.95410632" /><line stroke="rgb(0%,0%,0%)" stroke-width="2" x1="253.608606084" x2="252.080925811" y1="205.54990672" y2="216.409751193" /><line stroke="rgb(0%,0%,0%)" stroke-width="2" x1="252.080925811" x2="251.853824976" y1="216.409751193" y2="218.024606694" /><line stroke="rgb(0%,0%,0%)" stroke-width="2" x1="157.491207356" x2="157.603786543" y1="205.54990672" y2="206.350406276" /><line stroke="rgb(0%,0%,0%)" stroke-width="2" x1="157.603786543" x2="159.245988464" y1="206.350406276" y2="218.024606694" /><line stroke="rgb(0%,0%,0%)" stroke-width="2" x1="251.853824976" x2="253.496026897" y1="193.075206746" y2="204.749407164" /><line stroke="rgb(0%,0%,0%)" stroke-width="2" x1="253.496026897" x2="253.608606084" y1="204.749407164" y2="205.54990672" /><line stroke="rgb(0%,0%,0%)" stroke-width="2" x1="159.245988464" x2="159.01888763" y1="193.075206746" y2="194.690062248" /><line stroke="rgb(0%,0%,0%)" stroke-width="2" x1="159.01888763" x2="157.491207356" y1="194.690062248" y2="205.54990672" /><line stroke="rgb(0%,0%,0%)" stroke-width="2" x1="246.666632137" x2="250.767307272" y1="181.14570712" y2="190.576541434" /><line stroke="rgb(0%,0%,0%)" stroke-width="2" x1="250.767307272" x2="251.853824976" y1="190.576541434" y2="193.075206746" /><line stroke="rgb(0%,0%,0%)" stroke-width="2" x1="164.433181303" x2="162.801455732" y1="181.14570712" y2="184.898093592" /><line stroke="rgb(0%,0%,0%)" stroke-width="2" x1="162.801455732" x2="159.245988464" y1="184.898093592" y2="193.075206746" /><line stroke="rgb(0%,0%,0%)" stroke-width="2" x1="238.273367482" x2="238.861608282" y1="170.28270625" y2="171.044037477" /><line stroke="rgb(0%,0%,0%)" stroke-width="2" x1="238.861608282" x2="246.666632137" y1="171.044037477" y2="181.14570712" /><line stroke="rgb(0%,0%,0%)" stroke-width="2" x1="172.826445958" x2="167.824941508" y1="170.28270625" y2="176.7559223" /><line stroke="rgb(0%,0%,0%)" stroke-width="2" x1="167.824941508" x2="164.433181303" y1="176.7559223" y2="181.14570712" /><line stroke="rgb(0%,0%,0%)" stroke-width="2" x1="237.786860448" x2="238.273367482" y1="169.87896492" y2="170.28270625" /><line stroke="rgb(0%,0%,0%)" stroke-width="2" x1="237.786860448" x2="235.45979081" y1="169.87896492" y2="168.351498185" /><line stroke="rgb(0%,0%,0%)" stroke-width="2" x1="226.220786594" x2="235.45979081" y1="162.287084922" y2="168.351498185" /><line stroke="rgb(0%,0%,0%)" stroke-width="2" x1="223.301831561" x2="226.220786594" y1="160.961306561" y2="162.287084922" /><line stroke="rgb(0%,0%,0%)" stroke-width="2" x1="187.797981879" x2="185.936209314" y1="160.961306561" y2="161.806923316" /><line stroke="rgb(0%,0%,0%)" stroke-width="2" x1="184.879026847" x2="185.936209314" y1="162.287084922" y2="161.806923316" /><line stroke="rgb(0%,0%,0%)" stroke-width="2" x1="184.879026847" x2="179.954054333" y1="162.287084922" y2="165.519748485" /><line stroke="rgb(0%,0%,0%)" stroke-width="2" x1="173.312952992" x2="179.954054333" y1="169.87896492" y2="165.519748485" /><line stroke="rgb(0%,0%,0%)" stroke-width="2" x1="173.312952992" x2="173.069704999" y1="169.87896492" y2="170.080832313" /><line stroke="rgb(0%,0%,0%)" stroke-width="2" x1="173.069704999" x2="172.826445958" y1="170.080832313" y2="170.28270625" /><line stroke="rgb(0%,0%,0%)" stroke-width="2" x1="217.182971358" x2="223.301831561" y1="159.143143102" y2="160.961306561" /><line stroke="rgb(0%,0%,0%)" stroke-width="2" x1="217.182971358" x2="215.313053055" y1="159.143143102" y2="158.859109758" /><line stroke="rgb(0%,0%,0%)" stroke-width="2" x1="209.312940413" x2="215.313053055" y1="157.947670245" y2="158.859109758" /><line stroke="rgb(0%,0%,0%)" stroke-width="2" x1="209.312940413" x2="206.74944114" y1="157.947670245" y2="157.947670245" /><line stroke="rgb(0%,0%,0%)" stroke-width="2" x1="201.786873028" x2="206.74944114" y1="157.947670245" y2="157.947670245" /><line stroke="rgb(0%,0%,0%)" stroke-width="2" x1="201.786873028" x2="199.516703786" y1="157.947670245" y2="158.292496544" /><line stroke="rgb(0%,0%,0%)" stroke-width="2" x1="193.916842082" x2="199.516703786" y1="159.143143102" y2="158.292496544" /><line stroke="rgb(0%,0%,0%)" stroke-width="2" x1="193.916842082" x2="192.637665715" y1="159.143143102" y2="159.523226045" /><line stroke="rgb(0%,0%,0%)" stroke-width="2" x1="192.637665715" x2="187.797981879" y1="159.523226045" y2="160.961306561" /><line stroke="rgb(0%,0%,0%)" stroke-width="2" x1="165.54990672" x2="165.54990672" y1="205.549908109" y2="231.399430698" /><line stroke="rgb(0%,0%,0%)" stroke-width="2" x1="185.54990672" x2="185.54990672" y1="205.54990884" y2="249.117439625" /><line stroke="rgb(0%,0%,0%)" stroke-width="2" x1="225.54990672" x2="225.54990672" y1="205.5499046" y2="249.117435386" /><line stroke="rgb(0%,0%,0%)" stroke-width="2" x1="245.54990672" x2="245.54990672" y1="205.549905331" y2="231.39942792" /><text font-family="Verdana" style="fill: #ff0000; width:1000px; color:red; text-size:15; font-weight:100;" text-anchor="middle" x="165.54990672" y="218.474669403">2</text><text font-family="Verdana" style="fill: #ff0000; width:1000px; color:red; text-size:15; font-weight:100;" text-anchor="middle" x="185.54990672" y="227.333674233">3</text><text font-family="Verdana" style="fill: #ff0000; width:1000px; color:red; text-size:15; font-weight:100;" text-anchor="middle" x="225.54990672" y="227.333669993">5</text><text font-family="Verdana" style="fill: #ff0000; width:1000px; color:red; text-size:15; font-weight:100;" text-anchor="middle" x="245.54990672" y="218.474666625">6</text></svg>